<svg xmlns="http://www.w3.org/2000/svg" width="442" height="554.07" viewBox="0 0 442 554.07">
  <g id="Group_460" data-name="Group 460" transform="translate(-65.757 388.281)">
    <g id="Group_469" data-name="Group 469" transform="translate(73.329 -387.033)">
      <path id="Path_1030" data-name="Path 1030" d="M476.195,117.9l1.042,2.336,5.736-1.324-1.123-2.413Z" transform="translate(-63.198 48.113)" fill="#4fcdc4"/>
      <path id="Path_1031" data-name="Path 1031" d="M440.375,123.585l-6.749,5.447,2.875,2.5,6.906-5.394Z" transform="translate(-63.198 52.389)" fill="#4fcdc4"/>
      <path id="Path_1032" data-name="Path 1032" d="M439.363,183.07l-3.993.6-.394,8.828,3.846-.511Z" transform="translate(-63.198 83.05)" fill="#4fcdc4"/>
      <path id="Path_1033" data-name="Path 1033" d="M488.649,347.565l-3.993.6-.394,8.828,3.846-.511Z" transform="translate(-63.198 169.77)" fill="#4fcdc4"/>
      <path id="Path_1034" data-name="Path 1034" d="M460.119,304.2l-3.993.6-.394,8.828,3.846-.511Z" transform="translate(-63.198 169.77)" fill="#4fcdc4"/>
      <path id="Path_1035" data-name="Path 1035" d="M381.2,64.685l-6.63-1.692-.22,3,6.671,1.817Z" transform="translate(-50.346 -6.967)" fill="#4fcdc4"/>
      <path id="Path_1036" data-name="Path 1036" d="M389.627,97.922l3.748.351,2.325-7.906-3.6-.395Z" transform="translate(-52.099 35.324)" fill="#4fcdc4"/>
      <path id="Path_1037" data-name="Path 1037" d="M29.657,138.973,26.233,137.7l-4.375,7.176,3.584,1.263Z" transform="translate(-6.329 59.671)" fill="#4fcdc4"/>
      <path id="Path_1038" data-name="Path 1038" d="M6.329,85.422l1.844,3.909,9.643-2.442-1.983-4.036Z" transform="translate(-6.329 31.495)" fill="#4fcdc4"/>
      <path id="Path_1039" data-name="Path 1039" d="M348.125,192.529l-3.457,9.7,4.461.745,3.65-9.748Z" transform="translate(-46.904 88.167)" fill="#4fcdc4"/>
      <path id="Path_1040" data-name="Path 1040" d="M339.42,354.346l8.932,5.132,1.529-4.256-8.941-5.33Z" transform="translate(-46.474 169.77)" fill="#4fcdc4"/>
      <path id="Path_1041" data-name="Path 1041" d="M249.934,239.6l-3.457,9.7,4.461.745,3.65-9.748Z" transform="translate(-35.129 112.299)" fill="#4fcdc4"/>
      <path id="Path_1042" data-name="Path 1042" d="M238.329,301.49l-3.457,9.7,4.461.745,3.65-9.748Z" transform="translate(-33.737 169.77)" fill="#4fcdc4"/>
      <path id="Path_1043" data-name="Path 1043" d="M341.863,113.16l1.384,7.918,3.372-1.354-1.495-7.813Z" transform="translate(-46.285 46.636)" fill="#4fcdc4"/>
      <path id="Path_1044" data-name="Path 1044" d="M289.1,164.225l-4.254,4.927,2.577,1.42,4.131-4.943Z" transform="translate(-39.632 72.708)" fill="#4fcdc4"/>
      <path id="Path_1045" data-name="Path 1045" d="M222.6,186.646l2.632-.364.321-5.807-2.535.31Z" transform="translate(-31.986 80.897)" fill="#4fcdc4"/>
      <path id="Path_1046" data-name="Path 1046" d="M225.547,123.624l5,7.426,2.823-2.735-4.934-7.583Z" transform="translate(-32.603 51.336)" fill="#4fcdc4"/>
      <path id="Path_1047" data-name="Path 1047" d="M220.922,63.6l6.752,7.076,2.5-3.649-6.793-6.9Z" transform="translate(-32.126 -6.967)" fill="#4fcdc4"/>
      <path id="Path_1048" data-name="Path 1048" d="M195.347,113.083l-4.373-.03-1.9,9.383,4.2.1Z" transform="translate(-28.16 47.268)" fill="#4fcdc4"/>
      <path id="Path_1049" data-name="Path 1049" d="M141.679,63.285l1.471,3.682,8.966-1.7-1.592-3.806Z" transform="translate(-22.641 -6.967)" fill="#4fcdc4"/>
      <path id="Path_1053" data-name="Path 1053" d="M68.736,98.369,65.359,99.5l1.008,7.727,3.262-1.032Z" transform="translate(-6.329 39.677)" fill="#4fcdc4"/>
      <path id="Path_1054" data-name="Path 1054" d="M51.075,6.967l-6.906,5.394L47.2,14.91,53.95,9.464Z" transform="translate(-6.329 -6.967)" fill="#4fcdc4"/>
      <path id="Path_1055" data-name="Path 1055" d="M112.27,60,105.6,58.181l-.179,3.121,6.63,1.692Z" transform="translate(-18.181 -6.967)" fill="#4fcdc4"/>
      <path id="Path_1056" data-name="Path 1056" d="M475.033,12.162l-2.875-2.5-6.906,5.394,3.032,2.549Z" transform="translate(-63.198 -6.967)" fill="#4fcdc4"/>
      <path id="Path_1058" data-name="Path 1058" d="M280.118,15.9l-5-7.426-2.823,2.735,4.934,7.583Z" transform="translate(-38.205 -6.967)" fill="#4fcdc4"/>
      <path id="Path_1059" data-name="Path 1059" d="M156.03,359.255l-5-7.426-2.823,2.735,4.934,7.583Z" transform="translate(-23.333 169.77)" fill="#4fcdc4"/>
      <path id="Path_1060" data-name="Path 1060" d="M337.33,50.279,330.579,43.2l-2.5,3.649,6.793,6.9Z" transform="translate(-45.008 -6.967)" fill="#4fcdc4"/>
      <path id="Path_1061" data-name="Path 1061" d="M411.553,19.891l-7.447,7.057,3.818,2.633,7.258-7.1Z" transform="translate(-63.198 -6.967)" fill="#4fcdc4"/>
      <path id="Path_1063" data-name="Path 1063" d="M437.7,215.618l1.844,3.909,9.643-2.442-1.983-4.036Z" transform="translate(-63.198 97.484)" fill="#4fcdc4"/>
      <path id="Path_1064" data-name="Path 1064" d="M424.255,250.666l2.875,2.5,6.906-5.394L431,245.219Z" transform="translate(-63.198 114.299)" fill="#4fcdc4"/>
      <path id="Path_1065" data-name="Path 1065" d="M380.256,228.118l3.748.351,2.325-7.906-3.6-.395Z" transform="translate(-50.98 101.66)" fill="#4fcdc4"/>
      <path id="Path_1066" data-name="Path 1066" d="M47.993,301.768l2.875,2.5,6.906-5.394-3.032-2.549Z" transform="translate(-6.329 169.77)" fill="#4fcdc4"/>
      <path id="Path_1067" data-name="Path 1067" d="M12.393,309.716l3.846-.511.541-8.913-3.993.6Z" transform="translate(-6.329 169.77)" fill="#4fcdc4"/>
      <path id="Path_1068" data-name="Path 1068" d="M76.859,228.22l3.262-1.032-.893-7.823-3.376,1.128Z" transform="translate(-6.329 101.424)" fill="#4fcdc4"/>
    </g>
    <g id="Group_468" data-name="Group 468" transform="translate(67.374 -386.86)">
      <path id="Path_999" data-name="Path 999" d="M45.174,99.4l-9.712,1.431,1.273,5.356,8.195-2.327Z" transform="translate(-1.374 39.993)" fill="#f9d48a"/>
      <path id="Path_1001" data-name="Path 1001" d="M57.617,72.576,64.98,80.72l5.294-2.261L63.081,68.05Z" transform="translate(-1.374 25.469)" fill="#f9d48a"/>
      <path id="Path_1002" data-name="Path 1002" d="M98.21,32.715l7.363,8.143,5.294-2.261-7.194-10.409Z" transform="translate(-12.738 -5.14)" fill="#f9d48a"/>
      <path id="Path_1004" data-name="Path 1004" d="M196.111,195.838l-3.089,3.551,9,5.095,2.407-5.278Z" transform="translate(-23.807 86.629)" fill="#f9d48a"/>
      <path id="Path_1006" data-name="Path 1006" d="M159.911,162.911l6.944,3.142,2.743-2.907-7.465-4.63Z" transform="translate(-19.866 68.446)" fill="#f9d48a"/>
      <path id="Path_1008" data-name="Path 1008" d="M461.948,374.47l4.445,2.011,1.756-1.861-4.778-2.964Z" transform="translate(-58.243 171.598)" fill="#f9d48a"/>
      <path id="Path_1009" data-name="Path 1009" d="M405.493,208.21l4.225,6.766,4.076-.94-3.814-8.365Z" transform="translate(-55.077 91.534)" fill="#f9d48a"/>
      <path id="Path_1013" data-name="Path 1013" d="M187.811,147.185l1.094,6.466,3.393.561-.281-7.552Z" transform="translate(-22.89 62.761)" fill="#f9d48a"/>
      <path id="Path_1015" data-name="Path 1015" d="M270.337,178.706l-.536-8.727-4.849.725,1.446,7.447Z" transform="translate(-31.849 74.203)" fill="#f9d48a"/>
      <path id="Path_1017" data-name="Path 1017" d="M372.457,102.881l-9.78-3.832-3.569,4.2,10.6,5.844Z" transform="translate(-43.416 40.224)" fill="#f9d48a"/>
      <path id="Path_1018" data-name="Path 1018" d="M332.068,91.949l.637-10.485-5.09-2.105-2.3,11.885Z" transform="translate(-38.981 30.964)" fill="#f9d48a"/>
      <path id="Path_1020" data-name="Path 1020" d="M129.043,89.366,125.229,81l-4.487,2.539,4.225,6.767Z" transform="translate(-15.258 31.432)" fill="#f9d48a"/>
      <path id="Path_1021" data-name="Path 1021" d="M168.087,18.97l6.944,3.142,2.743-2.907-7.465-4.63Z" transform="translate(-20.819 -5.14)" fill="#f9d48a"/>
      <path id="Path_1024" data-name="Path 1024" d="M482.84,285.48l7.465,4.63,2.222-4.4-6.944-3.141Z" transform="translate(-58.243 127.966)" fill="#f9d48a"/>
      <path id="Path_1028" data-name="Path 1028" d="M161.266,184.489l-.207,8.924,5-.32-.829-7.7Z" transform="translate(-19.822 81.233)" fill="#f9d48a"/>
      <path id="Path_1029" data-name="Path 1029" d="M293.194,237.036l-4.865,7.484,4.418,2.353,3.341-6.988Z" transform="translate(-34.713 106.817)" fill="#f9d48a"/>
      <path id="Path_1062" data-name="Path 1062" d="M455.44,256.391l1.042,2.336,5.736-1.324-1.123-2.413Z" transform="translate(-58.243 113.508)" fill="#f9d48a"/>
      <path id="Path_1069" data-name="Path 1069" d="M485.866,142.076l-8.127-1.577-.777,6.988,7.061,1.193Z" transform="translate(-58.243 59.916)" fill="#f9d48a"/>
      <path id="Path_1070" data-name="Path 1070" d="M316.137,36.254l-8.127-1.577-.777,6.988,7.061,1.193Z" transform="translate(-36.992 -5.14)" fill="#f9d48a"/>
      <path id="Path_1071" data-name="Path 1071" d="M455.07,136.456l4.851,1.271,1.059-5.963-5.12-.487Z" transform="translate(-58.243 55.2)" fill="#f9d48a"/>
      <path id="Path_1072" data-name="Path 1072" d="M457.925,96.154l4.851,1.271,1.059-5.963-5.12-.487Z" transform="translate(-58.243 35.921)" fill="#f9d48a"/>
      <path id="Path_1074" data-name="Path 1074" d="M429.421,41.274l4.68.437.714-4.733-4.435-1.154Z" transform="translate(-58.243 -5.14)" fill="#f9d48a"/>
      <path id="Path_1075" data-name="Path 1075" d="M397.014,130.035l-.353,4.74,5.74-.035-.424-4.856Z" transform="translate(-47.11 54.283)" fill="#f9d48a"/>
      <path id="Path_1076" data-name="Path 1076" d="M375.751,144.526l-3.618-2.72-2.974,3.522,3.056,3.185Z" transform="translate(-44.002 60.282)" fill="#f9d48a"/>
      <path id="Path_1077" data-name="Path 1077" d="M303.926,69.986l-1.791,4.458,3.9,1.21,1.455-3.892Z" transform="translate(-36.145 -5.14)" fill="#f9d48a"/>
      <path id="Path_1078" data-name="Path 1078" d="M487.253,7.779l-1.791,4.458,3.9,1.21,1.455-3.892Z" transform="translate(-58.243 -5.14)" fill="#f9d48a"/>
      <path id="Path_1079" data-name="Path 1079" d="M310.766,139.012l-7.173,1.692,1.925,5.956,6.167-1.614Z" transform="translate(-36.51 59.108)" fill="#f9d48a"/>
      <path id="Path_1080" data-name="Path 1080" d="M188.836,332.4l-7.173,1.692,1.925,5.956,6.167-1.614Z" transform="translate(-22.334 171.598)" fill="#f9d48a"/>
      <path id="Path_1081" data-name="Path 1081" d="M403.307,309.719l-7.173,1.692,1.925,5.956,6.167-1.614Z" transform="translate(-47.268 171.598)" fill="#f9d48a"/>
      <path id="Path_1082" data-name="Path 1082" d="M260.5,154.51l3.969-2.833-2.3-4.063-4.667,3.163Z" transform="translate(-31.083 63.097)" fill="#f9d48a"/>
      <path id="Path_1083" data-name="Path 1083" d="M274.336,100.644l5.292,4.71,5.095-5.11-4.355-5.363Z" transform="translate(-33.258 38.262)" fill="#f9d48a"/>
      <path id="Path_1084" data-name="Path 1084" d="M240.9,91.947l-4.59,3.907L241.455,101l4-4.712Z" transform="translate(-28.746 36.68)" fill="#f9d48a"/>
      <path id="Path_1085" data-name="Path 1085" d="M219.253,124.093l-.909-3.824-3.941.7.276,3.823Z" transform="translate(-25.978 49.649)" fill="#f9d48a"/>
      <path id="Path_1086" data-name="Path 1086" d="M50.064,130.129l1.527,5.312,6.245-2.354-2.422-5.125Z" transform="translate(-1.374 53.778)" fill="#f9d48a"/>
      <path id="Path_1087" data-name="Path 1087" d="M22.6,206.5l-7.173,1.692,1.925,5.956,6.166-1.614Z" transform="translate(-1.374 91.497)" fill="#f9d48a"/>
      <path id="Path_1089" data-name="Path 1089" d="M176.238,270l2.813,4.4,3.527-2.683-2.525-3.741Z" transform="translate(-21.631 120.579)" fill="#f9d48a"/>
      <path id="Path_1090" data-name="Path 1090" d="M196.262,104.846l2.78,3.675,2.92-2.605L199.48,102.8Z" transform="translate(-23.921 41.484)" fill="#f9d48a"/>
      <path id="Path_1093" data-name="Path 1093" d="M150.773,142.051l-4.4-.581-.844,4.443,4.146,1.25Z" transform="translate(-18.036 59.942)" fill="#f9d48a"/>
      <path id="Path_1094" data-name="Path 1094" d="M114.65,142.219l5.507.925.578-6.718-5.726-.028Z" transform="translate(-14.49 57.7)" fill="#f9d48a"/>
      <path id="Path_1095" data-name="Path 1095" d="M98.272,70.842l-5.18,2.9,2.81,4.186,4.418-2.617Z" transform="translate(-4.789 -5.14)" fill="#f9d48a"/>
      <path id="Path_1096" data-name="Path 1096" d="M77.985,175.288l3.692,3.633,4.015-4.8-4.336-3.069Z" transform="translate(-1.374 74.534)" fill="#f9d48a"/>
      <path id="Path_1097" data-name="Path 1097" d="M28.139,11.238l3.692,3.634,4.015-4.8L31.51,7.006Z" transform="translate(-1.374 -5.14)" fill="#f9d48a"/>
      <path id="Path_1098" data-name="Path 1098" d="M76.979,323.159l3.692,3.633,4.015-4.8-4.336-3.069Z" transform="translate(-1.374 171.598)" fill="#f9d48a"/>
      <path id="Path_1099" data-name="Path 1099" d="M135.092,285.142l3.692,3.633,4.014-4.8-4.336-3.069Z" transform="translate(-16.908 127.286)" fill="#f9d48a"/>
      <path id="Path_1100" data-name="Path 1100" d="M14.082,51.345,18.517,52.5l.958-5.45-4.68-.437Z" transform="translate(-1.374 -5.14)" fill="#f9d48a"/>
      <path id="Path_1102" data-name="Path 1102" d="M133.789,43.954l-1.084-4.224-4.131.608,1.134,4.913Z" transform="translate(-16.076 -5.14)" fill="#f9d48a"/>
      <path id="Path_1104" data-name="Path 1104" d="M154.357,41.782l2.422,5.125,5.35-2.167L160.6,39.428Z" transform="translate(-19.148 -5.14)" fill="#f9d48a"/>
      <path id="Path_1106" data-name="Path 1106" d="M238.092,44.35l-2.813-4.4-3.527,2.683,2.525,3.741Z" transform="translate(-28.062 -5.14)" fill="#f9d48a"/>
      <path id="Path_1107" data-name="Path 1107" d="M353.582,42.839l2.048,4.47,5.181-2.9L358,40.222Z" transform="translate(-42.249 -5.14)" fill="#f9d48a"/>
      <path id="Path_1108" data-name="Path 1108" d="M484.729,306.958l4.851,1.271,1.059-5.963-5.12-.487Z" transform="translate(-58.243 136.762)" fill="#f9d48a"/>
      <path id="Path_1109" data-name="Path 1109" d="M399.959,249.293l5.677.556,1.1-5.349-6.545-.8Z" transform="translate(-54.825 108.886)" fill="#f9d48a"/>
      <path id="Path_1110" data-name="Path 1110" d="M371.15,225.09l1.084,4.224,4.131-.608-1.134-4.913Z" transform="translate(-44.112 99.194)" fill="#f9d48a"/>
      <path id="Path_1111" data-name="Path 1111" d="M289.316,199.739l3,3.734,3.969-2.833-2.3-4.063Z" transform="translate(-34.773 86.547)" fill="#f9d48a"/>
      <path id="Path_1112" data-name="Path 1112" d="M341.832,170.77l3,3.734,3.969-2.833-2.3-4.063Z" transform="translate(-40.864 72.673)" fill="#f9d48a"/>
      <path id="Path_1113" data-name="Path 1113" d="M10.6,66.681l3,3.734,3.969-2.833-2.3-4.063Z" transform="translate(-1.374 -5.14)" fill="#f9d48a"/>
      <path id="Path_1114" data-name="Path 1114" d="M225.762,210.85l5.293,4.711,5.094-5.11-4.355-5.363Z" transform="translate(-27.584 91.561)" fill="#f9d48a"/>
      <path id="Path_1115" data-name="Path 1115" d="M336.639,277.816l5.292,4.71,5.095-5.11-4.355-5.363Z" transform="translate(-40.535 123.948)" fill="#f9d48a"/>
      <path id="Path_1116" data-name="Path 1116" d="M489.475,60.67l5.149,5.144,4-4.712-4.561-4.34Z" transform="translate(-58.243 -5.14)" fill="#f9d48a"/>
      <path id="Path_1117" data-name="Path 1117" d="M394.955,9.047l5.149,5.144,4-4.712-4.561-4.34Z" transform="translate(-47.231 -5.14)" fill="#f9d48a"/>
      <path id="Path_1118" data-name="Path 1118" d="M81.985,93.09l5.149,5.144,4-4.712-4.561-4.34Z" transform="translate(-1.374 35.348)" fill="#f9d48a"/>
      <path id="Path_1119" data-name="Path 1119" d="M259.068,208.275l.276,3.823,4.574-.7-.909-3.824Z" transform="translate(-31.136 91.194)" fill="#f9d48a"/>
      <path id="Path_1120" data-name="Path 1120" d="M386.157,276.883l.276,3.823,4.574-.7-.909-3.824Z" transform="translate(-45.814 123.844)" fill="#f9d48a"/>
      <path id="Path_1124" data-name="Path 1124" d="M14.354,346.005l.276,3.823,4.574-.7-.909-3.824Z" transform="translate(-1.374 171.598)" fill="#f9d48a"/>
      <path id="Path_1125" data-name="Path 1125" d="M119.133,220.209l2.811,4.186,4.418-2.617-2.049-4.469Z" transform="translate(-15.041 96.53)" fill="#f9d48a"/>
      <path id="Path_1127" data-name="Path 1127" d="M388.582,369.725l1.3,1.932,2.039-1.207-.945-2.062Z" transform="translate(-45.957 171.598)" fill="#f9d48a"/>
      <path id="Path_1132" data-name="Path 1132" d="M251.155,195.865l4.08,4.16,3.241-3.74-3.616-3.511Z" transform="translate(-30.368 84.813)" fill="#f9d48a"/>
      <path id="Path_1188" data-name="Path 1188" d="M48.433,199.516l3.287,5.8,2.423-1.208-2.8-6.24Z" transform="translate(-1.374 87.302)" fill="#f9d48a"/>
      <path id="Path_1191" data-name="Path 1191" d="M26.135,377.093l3.342,3.959,1.679-1.27-3.032-4.368Z" transform="translate(-1.374 171.598)" fill="#f9d48a"/>
      <path id="Path_1192" data-name="Path 1192" d="M1.374,159.537l8.476,3.079,1.434-3.373-8.363-3.965Z" transform="translate(-1.374 66.854)" fill="#f9d48a"/>
    </g>
    <g id="Group_461" data-name="Group 461" transform="translate(65.757 -388.281)">
      <path id="Path_1128" data-name="Path 1128" d="M477.138,57.995l-8.551,7.581,3.524,4.855,8.782-7.474Z" transform="translate(-58.626 -2.719)" fill="#ff6b6b"/>
      <path id="Path_1129" data-name="Path 1129" d="M182.9,57.064l-9.9-5.7-3.486,4.882,9.874,5.958Z" transform="translate(-21.788 -2.719)" fill="#ff6b6b"/>
      <path id="Path_1130" data-name="Path 1130" d="M425.2,345.7l2.146,3.168,5.753-4.583-2.291-3.241Z" transform="translate(-58.626 174.018)" fill="#ff6b6b"/>
      <path id="Path_1131" data-name="Path 1131" d="M416.74,81.162l5.09,7.1,3.983-2.523-5.186-6.935Z" transform="translate(-58.626 36.329)" fill="#ff6b6b"/>
      <path id="Path_1133" data-name="Path 1133" d="M52.884,171.8l2.146,3.168,5.753-4.583-2.291-3.24Z" transform="translate(-1.757 81.264)" fill="#ff6b6b"/>
      <path id="Path_1134" data-name="Path 1134" d="M261.085,81.915l7.354,5.469,3.173-3.792-7.395-5.27Z" transform="translate(-32.538 36.035)" fill="#ff6b6b"/>
      <path id="Path_1135" data-name="Path 1135" d="M337.864,192.909l-6.336,6.18,2.9,3.626,6.519-6.106Z" transform="translate(-40.81 94.984)" fill="#ff6b6b"/>
      <path id="Path_1137" data-name="Path 1137" d="M213.162,144.228l-1.819-9.476-5.16.688,1.993,9.351Z" transform="translate(-25.843 65.154)" fill="#ff6b6b"/>
      <path id="Path_1138" data-name="Path 1138" d="M224.412,273.979l-1.819-9.475-5.16.688,1.993,9.351Z" transform="translate(-27.169 131.854)" fill="#ff6b6b"/>
      <path id="Path_1139" data-name="Path 1139" d="M161.567,132.436l7.493,2.323,1.482-3.965-7.47-2.151Z" transform="translate(-20.665 61.283)" fill="#ff6b6b"/>
      <path id="Path_1140" data-name="Path 1140" d="M103.372,218.714l-2.089-9.014-4.816.631,1.924,9.138Z" transform="translate(-12.914 103.598)" fill="#ff6b6b"/>
      <path id="Path_1141" data-name="Path 1141" d="M99.522,163.464l2.005,5.074,9.428-4.6-2.185-5.221Z" transform="translate(-13.383 77.424)" fill="#ff6b6b"/>
      <path id="Path_1142" data-name="Path 1142" d="M52.582,147.7,46.1,150.873l1.326,3.55,6.607-3.068Z" transform="translate(-1.757 71.098)" fill="#ff6b6b"/>
      <path id="Path_1143" data-name="Path 1143" d="M40.445,73.229l5.213-7.205-3.721-3.031-5.02,7.243Z" transform="translate(-1.757 -2.719)" fill="#ff6b6b"/>
      <path id="Path_1144" data-name="Path 1144" d="M445.6,18.03l-5.125-.9-.918,9.512,4.922.966Z" transform="translate(-58.626 -2.719)" fill="#ff6b6b"/>
      <path id="Path_1145" data-name="Path 1145" d="M374.384,11.6l-5.763-.989L367.629,21.3l5.535,1.065Z" transform="translate(-44.846 -2.719)" fill="#ff6b6b"/>
      <path id="Path_1146" data-name="Path 1146" d="M345.316,77.829l6.891,3.229,1.952-3.613-6.892-3.061Z" transform="translate(-42.393 33.764)" fill="#ff6b6b"/>
      <path id="Path_1147" data-name="Path 1147" d="M213.679,20.181l-4.194,1.257,3.031,7.853L216.84,27.9Z" transform="translate(-26.251 -2.719)" fill="#ff6b6b"/>
      <path id="Path_1148" data-name="Path 1148" d="M77.889,54.621l2.146,3.168,5.753-4.583L83.5,49.965Z" transform="translate(-1.757 -2.719)" fill="#ff6b6b"/>
      <path id="Path_1149" data-name="Path 1149" d="M16.866,14.23,13.38,13.5l-.833,6.486,3.346.767Z" transform="translate(-1.757 -2.719)" fill="#ff6b6b"/>
      <path id="Path_1150" data-name="Path 1150" d="M138.657,205.969l6.892,3.061,1.951-3.444-6.891-3.229Z" transform="translate(-17.95 98.912)" fill="#ff6b6b"/>
      <path id="Path_1151" data-name="Path 1151" d="M134.235,249.823l6.892,3.061,1.951-3.444-6.891-3.229Z" transform="translate(-17.427 121.237)" fill="#ff6b6b"/>
      <path id="Path_1152" data-name="Path 1152" d="M1.757,246.33l5.687,2.163L10.6,237.774l-5.439-2.2Z" transform="translate(-1.757 117.995)" fill="#ff6b6b"/>
      <path id="Path_1153" data-name="Path 1153" d="M400.156,182.346l2.291,3.241,5.608-4.656-2.146-3.168Z" transform="translate(-55.465 86.688)" fill="#ff6b6b"/>
      <path id="Path_1154" data-name="Path 1154" d="M287.605,270.194l2.291,3.241,5.607-4.656-2.146-3.168Z" transform="translate(-35.501 131.559)" fill="#ff6b6b"/>
      <path id="Path_1155" data-name="Path 1155" d="M462.89,205.615l3.486.725.833-6.486-3.346-.767Z" transform="translate(-58.626 97.415)" fill="#ff6b6b"/>
      <path id="Path_1156" data-name="Path 1156" d="M479.649,193.151l3.213,2.212,3.594-6.2-3.054-2.194Z" transform="translate(-58.626 91.547)" fill="#ff6b6b"/>
      <path id="Path_1157" data-name="Path 1157" d="M474.379,100.461l0,4.175,10.536.419-.281-5.154Z" transform="translate(-58.626 46.538)" fill="#ff6b6b"/>
      <path id="Path_1158" data-name="Path 1158" d="M445.557,167.871l-.067,3.553,8.957.534-.152-4.39Z" transform="translate(-58.626 80.654)" fill="#ff6b6b"/>
      <path id="Path_1159" data-name="Path 1159" d="M235.188,354.839l3.107,1.724,4.671-7.662-3.949-1.924Z" transform="translate(-29.306 174.018)" fill="#ff6b6b"/>
      <path id="Path_1160" data-name="Path 1160" d="M413.127,114.006l-1.829-2.581-5.138,3.64,1.366,2.164Z" transform="translate(-58.626 52.482)" fill="#ff6b6b"/>
      <path id="Path_1161" data-name="Path 1161" d="M417.283,146l6.524,6.628,2.93-3.485-6.936-5.831Z" transform="translate(-58.626 69.404)" fill="#ff6b6b"/>
      <path id="Path_1162" data-name="Path 1162" d="M379.954,127.933l-3.684-5.919-2.482,1.366,3.193,6.4Z" transform="translate(-45.518 58.204)" fill="#ff6b6b"/>
      <path id="Path_1163" data-name="Path 1163" d="M337.382,137.52l8.76,1.244.2-4.327-8.612-.4Z" transform="translate(-41.465 63.758)" fill="#ff6b6b"/>
      <path id="Path_1164" data-name="Path 1164" d="M307.639,114.313l1.883,2.426,6.315-4.5-2.484-2.87Z" transform="translate(-37.888 51.683)" fill="#ff6b6b"/>
      <path id="Path_1165" data-name="Path 1165" d="M14.105,110.441l-2.482,1.366,3.193,6.4,2.974-1.851Z" transform="translate(-1.757 52.294)" fill="#ff6b6b"/>
      <path id="Path_1166" data-name="Path 1166" d="M261.768,125.27l.262,7.506,3.646-.474-.943-7.257Z" transform="translate(-32.199 59.745)" fill="#ff6b6b"/>
      <path id="Path_1167" data-name="Path 1167" d="M195.145,91.518l-8.211,1.991.63,3.375,8.581-1.241Z" transform="translate(-23.677 42.317)" fill="#ff6b6b"/>
      <path id="Path_1168" data-name="Path 1168" d="M198.974,2.719,190.763,4.71l.63,3.375,8.582-1.241Z" transform="translate(-24.13 -2.719)" fill="#ff6b6b"/>
      <path id="Path_1169" data-name="Path 1169" d="M152.117,95.98l2.061,1.556,4.137-5.041-2.647-1.784Z" transform="translate(-19.444 42.095)" fill="#ff6b6b"/>
      <path id="Path_1170" data-name="Path 1170" d="M126.456,123.135l3.076.335,1.161-7.728-3.82-.209Z" transform="translate(-16.366 54.922)" fill="#ff6b6b"/>
      <path id="Path_1171" data-name="Path 1171" d="M124.973,180.112l-8.572-5.419-2.385,3.361,8.235,6.365Z" transform="translate(-15.094 85.606)" fill="#ff6b6b"/>
      <path id="Path_1172" data-name="Path 1172" d="M43.976,327.98,35.4,322.561l-2.385,3.361,8.235,6.365Z" transform="translate(-1.757 174.018)" fill="#ff6b6b"/>
      <path id="Path_1173" data-name="Path 1173" d="M127.61,327.983l6.044-8.143-3.173-2.63-6.963,7.736Z" transform="translate(-16.198 174.018)" fill="#ff6b6b"/>
      <path id="Path_1174" data-name="Path 1174" d="M83.665,140.291l3.454.785,2.337-8.635L85.14,131.7Z" transform="translate(-1.757 63.458)" fill="#ff6b6b"/>
      <path id="Path_1175" data-name="Path 1175" d="M455.17,39.975l2.8,6.24,2.912-1.652-3.287-5.8Z" transform="translate(-58.626 -2.719)" fill="#ff6b6b"/>
      <path id="Path_1176" data-name="Path 1176" d="M435.955,57.7l-1.744-5.063-2.093.6,1.293,5.342Z" transform="translate(-58.626 -2.719)" fill="#ff6b6b"/>
      <path id="Path_1177" data-name="Path 1177" d="M402.528,50.9l-5.542-2.425-1.1,2.2,5.428,3.013Z" transform="translate(-55.264 -2.719)" fill="#ff6b6b"/>
      <path id="Path_1178" data-name="Path 1178" d="M60.157,118.294l-5.542-2.425-1.1,2.2,5.428,3.013Z" transform="translate(-1.757 54.641)" fill="#ff6b6b"/>
      <path id="Path_1179" data-name="Path 1179" d="M398.934,73.081l4.515-4.025-1.535-1.92-5,3.677Z" transform="translate(-55.3 -2.719)" fill="#ff6b6b"/>
      <path id="Path_1181" data-name="Path 1181" d="M336.315,19.3l-8.476-3.079L326.405,19.6l8.363,3.965Z" transform="translate(-40.242 -2.719)" fill="#ff6b6b"/>
      <path id="Path_1182" data-name="Path 1182" d="M310.262,15.763l-2.643-1.411-2.809,5.261,2.074,1.254Z" transform="translate(-37.351 -2.719)" fill="#ff6b6b"/>
      <path id="Path_1183" data-name="Path 1183" d="M270.506,61.262l-4.222-3.472-1.5,1.638,3.979,3.956Z" transform="translate(-32.667 -2.719)" fill="#ff6b6b"/>
      <path id="Path_1184" data-name="Path 1184" d="M253.759,21.463,250.9,19.341l-4.223,5.7,2.22,1.838Z" transform="translate(-30.62 -2.719)" fill="#ff6b6b"/>
      <path id="Path_1185" data-name="Path 1185" d="M120.992,14.8l-8.738.3-.067,3.553,8.957.534Z" transform="translate(-14.822 -2.719)" fill="#ff6b6b"/>
      <path id="Path_1186" data-name="Path 1186" d="M60.783,31.3l2.087,3.228,8.361-4.934-2.79-3.847Z" transform="translate(-1.757 -2.719)" fill="#ff6b6b"/>
      <path id="Path_1187" data-name="Path 1187" d="M480.717,30.753l3.118,1.578,4.3-7.7-3.953-1.742Z" transform="translate(-58.626 -2.719)" fill="#ff6b6b"/>
      <path id="Path_1189" data-name="Path 1189" d="M24.3,180.977l1.744,5.063,2.093-.6L26.846,180.1Z" transform="translate(-1.757 87.392)" fill="#ff6b6b"/>
      <path id="Path_1190" data-name="Path 1190" d="M97.077,243.922l7.3,1.721.857-2.927-7.3-2.464Z" transform="translate(-13.016 117.759)" fill="#ff6b6b"/>
      <path id="Path_1193" data-name="Path 1193" d="M50.625,230.878l-2.074-1.254-3.378,5.1,2.643,1.411Z" transform="translate(-1.757 112.74)" fill="#ff6b6b"/>
      <path id="Path_1194" data-name="Path 1194" d="M317.62,180.346l2.338-.095v-5.908l-2.88.272Z" transform="translate(-38.597 84.483)" fill="#ff6b6b"/>
      <path id="Path_1195" data-name="Path 1195" d="M329.552,312.718l2.338-.095v-5.908l-2.88.272Z" transform="translate(-39.991 174.018)" fill="#ff6b6b"/>
      <path id="Path_1196" data-name="Path 1196" d="M382.367,206.513l1.98,1.923,3.828-3.941-1.516-1.639Z" transform="translate(-46.494 98.846)" fill="#ff6b6b"/>
      <path id="Path_1197" data-name="Path 1197" d="M333.336,225.458l1.98,1.923,3.828-3.941-1.516-1.639Z" transform="translate(-40.73 108.461)" fill="#ff6b6b"/>
      <path id="Path_1198" data-name="Path 1198" d="M429.612,288.787l1.829,2.581,5.138-3.64-1.365-2.164Z" transform="translate(-58.626 140.912)" fill="#ff6b6b"/>
      <path id="Path_1199" data-name="Path 1199" d="M470.142,232.3l3.953,1.742,3.467-7.868-3.118-1.578Z" transform="translate(-58.626 111.141)" fill="#ff6b6b"/>
      <path id="Path_1200" data-name="Path 1200" d="M483.974,252.528l3.953,1.742,3.467-7.868-3.118-1.578Z" transform="translate(-58.626 121.524)" fill="#ff6b6b"/>
    </g>
  </g>
</svg>
