<svg xmlns="http://www.w3.org/2000/svg" width="19.319" height="17.047" viewBox="0 0 19.319 17.047">
  <g id="message_1_" data-name="message (1)" transform="translate(0 -30.11)">
    <g id="Group_1107" data-name="Group 1107" transform="translate(0 30.11)">
      <path id="Path_3217" data-name="Path 3217" d="M208.318,191.141h-8.98a.283.283,0,0,0,0,.566h8.98a.283.283,0,0,0,0-.566Z" transform="translate(-191.544 -185.065)"/>
      <path id="Path_3218" data-name="Path 3218" d="M208.318,248.474h-8.98a.283.283,0,0,0,0,.566h8.98a.283.283,0,1,0,0-.566Z" transform="translate(-191.544 -240.235)"/>
      <path id="Path_3219" data-name="Path 3219" d="M208.318,305.807h-8.98a.283.283,0,0,0,0,.566h8.98a.283.283,0,1,0,0-.566Z" transform="translate(-191.544 -295.404)"/>
      <path id="Path_3220" data-name="Path 3220" d="M151.534,125.549H140.756a1.648,1.648,0,0,0-1.646,1.646v6.777a1.648,1.648,0,0,0,1.646,1.646h7.554a.261.261,0,0,1,.206.1l2.44,3.088a.486.486,0,0,0,.383.188.5.5,0,0,0,.165-.028.487.487,0,0,0,.331-.465V135.59a1.654,1.654,0,0,0,1.345-1.618v-6.777A1.648,1.648,0,0,0,151.534,125.549Zm1.08,8.423a1.084,1.084,0,0,1-1.066,1.08.283.283,0,0,0-.279.283v2.955l-2.308-2.922a.824.824,0,0,0-.65-.315h-7.554a1.081,1.081,0,0,1-1.08-1.08v-6.777a1.081,1.081,0,0,1,1.08-1.08h10.778a1.081,1.081,0,0,1,1.08,1.08Z" transform="translate(-133.861 -121.948)"/>
      <path id="Path_3221" data-name="Path 3221" d="M4.169,38.39a.755.755,0,0,0-.488.281L1.737,41.132V38.665a.283.283,0,0,0-.279-.283.907.907,0,0,1-.892-.9v-5.9a.9.9,0,0,1,.9-.9h9.382a.9.9,0,0,1,.9.9v1.092a.283.283,0,1,0,.566,0V31.579a1.471,1.471,0,0,0-1.469-1.469H1.469A1.471,1.471,0,0,0,0,31.579v5.9a1.476,1.476,0,0,0,1.171,1.438v2.5a.46.46,0,0,0,.313.44.474.474,0,0,0,.156.027A.46.46,0,0,0,2,41.71l2.124-2.689a.191.191,0,0,1,.123-.071.283.283,0,0,0-.08-.56Z" transform="translate(0 -30.11)"/>
    </g>
  </g>
</svg>
