<svg id="door" xmlns="http://www.w3.org/2000/svg" width="26.241" height="26.241" viewBox="0 0 26.241 26.241">
  <path id="Path_983" data-name="Path 983" d="M38.834,37.047H35.326V14.831a.45.45,0,0,0-.4-.448L23.082,13.047a.451.451,0,0,0-.5.448v.886H17.453a.451.451,0,0,0-.451.451V37.047H13.495a.451.451,0,0,0,0,.9h9.086v.886a.451.451,0,0,0,.451.451.415.415,0,0,0,.051,0L34.9,37.948h3.933a.451.451,0,0,0,0-.9ZM17.9,15.282h4.677V16.44H19.513a.451.451,0,0,0-.451.451V37.047H17.9Zm2.06,21.765V17.342h2.618V37.047ZM23.482,14l10.943,1.236V37.1L23.482,38.331Z" transform="translate(-13.044 -13.044)"/>
  <path id="Path_984" data-name="Path 984" d="M57.258,58.792A1.341,1.341,0,1,0,58.6,60.133,1.341,1.341,0,0,0,57.258,58.792Zm0,1.781a.44.44,0,1,1,.44-.44A.44.44,0,0,1,57.258,60.573Z" transform="translate(-44.878 -47.013)"/>
</svg>
