<svg id="Layer_1" data-name="Layer 1" xmlns="http://www.w3.org/2000/svg" xmlns:xlink="http://www.w3.org/1999/xlink" viewBox="0 0 699.98 702.45"><defs><style>.cls-1{fill:none;}.cls-1,.cls-10,.cls-2,.cls-3,.cls-4,.cls-7,.cls-9{stroke:#000;stroke-linejoin:round;stroke-width:2.94px;}.cls-11,.cls-2{fill:#ff6b6b;}.cls-3{fill:#4fcdc4;}.cls-4{fill:#f9d48a;}.cls-5{isolation:isolate;}.cls-6{clip-path:url(#clip-path);}.cls-7{fill:#494949;}.cls-8{clip-path:url(#clip-path-2);}.cls-9{fill:#5a5a5a;}.cls-10{fill:#575757;}.cls-12{clip-path:url(#clip-path-3);}</style><clipPath id="clip-path" transform="translate(-219.04 -181)"><path class="cls-1" d="M593.89,703.94l-57.11-33.19-.37-.22,57.1,33.19Z"/></clipPath><clipPath id="clip-path-2" transform="translate(-219.04 -181)"><path class="cls-1" d="M637.15,471.69l57.11,33.18q-1.12-.64-2.31-1.2l-57.1-33.19C635.63,470.85,636.4,471.26,637.15,471.69Z"/></clipPath><clipPath id="clip-path-3" transform="translate(-219.04 -181)"><path class="cls-2" d="M304.05,680.9l57.11,33.19q5.59,3.25,6.21,13.72l-57.1-33.18Q309.66,684.16,304.05,680.9Z"/></clipPath></defs><polygon class="cls-2" points="642.02 337.15 584.91 303.97 589.49 274.72 646.6 307.9 642.02 337.15"/><polygon class="cls-2" points="626.39 392.69 569.29 359.51 550.78 268.67 607.88 301.86 626.39 392.69"/><polygon class="cls-3" points="666.41 195.99 609.31 162.8 641.4 144.27 698.51 177.46 666.41 195.99"/><polygon class="cls-2" points="646.6 307.9 589.49 274.72 609.31 162.8 666.41 195.99 646.6 307.9"/><polygon class="cls-2" points="564.86 381.7 507.75 348.51 512.03 318.95 569.14 352.14 564.86 381.7"/><polygon class="cls-2" points="607.88 301.86 550.78 268.67 545.37 238.24 602.47 271.43 607.88 301.86"/><polygon class="cls-2" points="569.14 352.14 512.03 318.95 528.78 209.3 585.88 242.48 569.14 352.14"/><polygon class="cls-3" points="585.88 242.48 528.78 209.3 562.04 190.09 619.14 223.28 585.88 242.48"/><polygon class="cls-4" points="698.51 177.46 656.57 375.27 626.39 392.69 607.88 301.86 602.47 271.43 597.25 308 579.32 419.87 550.05 436.77 506.79 288.15 540.25 268.83 560.44 356.59 564.86 381.7 569.14 352.14 585.88 242.48 619.14 223.28 637.35 312.18 642.02 337.15 646.6 307.9 666.41 195.99 698.51 177.46"/><polygon class="cls-3" points="506.79 288.15 449.69 254.96 483.14 235.65 540.25 268.83 506.79 288.15"/><polygon class="cls-2" points="550.05 436.77 492.95 403.59 449.69 254.96 506.79 288.15 550.05 436.77"/><g class="cls-5"><g class="cls-6"><g class="cls-5"><path class="cls-7" d="M593.89,703.94l-57.11-33.19-.37-.22,57.1,33.19.38.22" transform="translate(-219.04 -181)"/></g></g><path class="cls-1" d="M593.89,703.94l-57.11-33.19-.37-.22,57.1,33.19Z" transform="translate(-219.04 -181)"/></g><g class="cls-5"><g class="cls-8"><g class="cls-5"><path class="cls-9" d="M692,503.67l-57.1-33.19c.67.32,1.32.66,2,1l57.1,33.18c-.64-.36-1.3-.7-2-1" transform="translate(-219.04 -181)"/><path class="cls-10" d="M693.92,504.68l-57.1-33.18.33.19,57.11,33.18-.34-.19" transform="translate(-219.04 -181)"/></g></g><path class="cls-1" d="M637.15,471.69l57.11,33.18q-1.12-.64-2.31-1.2l-57.1-33.19C635.63,470.85,636.4,471.26,637.15,471.69Z" transform="translate(-219.04 -181)"/></g><path class="cls-2" d="M681.82,601.93c.09-.57.18-1.16.26-1.74s.19-1.16.27-1.76c.15-1.17.27-2.37.39-3.56,0-.21,0-.42.07-.63.2-2,.34-4.07.44-6.15,0-.49,0-1,.07-1.49.08-2.11.14-4.24.13-6.41q-.08-29.16-11.12-38.74a19.48,19.48,0,0,0-2.94-2.12l-57.11-33.18a19.41,19.41,0,0,1,2.94,2.11q11.06,9.57,11.13,38.74c0,2.17-.05,4.3-.14,6.42l-.06,1.48c-.11,2.08-.25,4.13-.44,6.15,0,.21-.05.42-.07.63-.18,1.8-.41,3.57-.66,5.33-.09.58-.17,1.16-.26,1.74q-.42,2.65-1,5.24c0,.21-.08.43-.12.64-.2.93-.45,1.83-.67,2.74-.29,1.22-.56,2.45-.89,3.65q-.8,2.87-1.73,5.64c-.13.37-.27.72-.39,1.09q-.79,2.22-1.66,4.39c-.16.4-.32.8-.49,1.19-.74,1.76-1.51,3.48-2.34,5.17s-1.7,3.3-2.59,4.88c-.14.23-.27.47-.4.71q-1.31,2.25-2.7,4.36c-.2.32-.41.63-.62.94-.93,1.37-1.88,2.71-2.87,4l-.16.22q-1.54,2-3.18,3.81c-.59.68-1.21,1.31-1.82,2s-1.33,1.41-2,2.08c-.39.38-.8.74-1.2,1.11-.84.78-1.69,1.53-2.56,2.26L594,625.93c-.9.71-1.82,1.4-2.76,2.06-.42.3-.83.61-1.26.9-1.36.93-2.75,1.82-4.18,2.64-1,.58-2,1.1-2.94,1.59l-.59.29c-.93.46-1.84.88-2.74,1.26l-.64.26-1.51.57-.74.26c-.49.16-1,.3-1.45.44l-.71.2-.72.18-1,.22-.72.13q-.39.08-.78.12a20.59,20.59,0,0,1-2.3.23h-.33c-.58,0-1.15,0-1.71,0l-.58,0c-.5,0-1-.1-1.48-.18l-.4,0c-.6-.11-1.18-.25-1.75-.41l-.41-.13c-.44-.14-.88-.29-1.32-.47l-.52-.21c-.46-.21-.91-.43-1.36-.67l-.46-.24,57.1,33.18.21.12c.08.05.17.08.26.13.44.24.9.46,1.36.66l.25.13a2,2,0,0,1,.26.09c.44.17.88.33,1.33.47l.3.1.1,0c.57.16,1.16.29,1.75.4l.1,0,.31,0c.48.07,1,.13,1.47.17l.29,0H624c.56,0,1.13,0,1.71,0h.34c.74,0,1.51-.12,2.29-.23l.25,0,.54-.09.72-.14c.32-.06.65-.14,1-.22l.72-.17.26-.06.46-.14,1.44-.45.74-.26c.5-.17,1-.36,1.51-.57l.47-.18.17-.07c.9-.38,1.82-.8,2.75-1.26l.59-.3c1-.49,1.94-1,2.93-1.58,1.43-.83,2.82-1.72,4.18-2.64.43-.29.84-.6,1.26-.9.94-.67,1.86-1.35,2.76-2.07.46-.36.91-.74,1.36-1.11.88-.73,1.73-1.49,2.57-2.26.4-.37.8-.73,1.19-1.11.17-.17.35-.32.52-.48.51-.51,1-1.07,1.5-1.6s1.23-1.28,1.83-1.95l.4-.44c.94-1.07,1.84-2.17,2.73-3.31l0-.06c.06-.07.11-.15.16-.22.71-.92,1.4-1.85,2.07-2.81.27-.38.53-.79.8-1.19l.63-.94c.19-.3.4-.58.59-.89q1-1.51,1.89-3.09c.08-.12.14-.26.21-.38s.27-.47.4-.71c.4-.71.81-1.43,1.21-2.16.47-.89.93-1.79,1.38-2.71l.37-.75c.55-1.15,1.08-2.3,1.59-3.47.13-.32.25-.64.38-1s.33-.8.49-1.2c.22-.55.46-1.09.67-1.64.35-.9.67-1.83,1-2.75l.39-1.08.15-.43q.82-2.48,1.54-5s0-.12,0-.18c.33-1.19.6-2.42.9-3.64.2-.87.44-1.71.63-2.59l0-.16.12-.63C681.23,605.45,681.54,603.7,681.82,601.93Z" transform="translate(-219.04 -181)"/><path class="cls-3" d="M597,554.34c.64-1,1.29-2,2-2.92l.8-1.15q1.5-2.14,3.1-4.21c.19-.24.39-.48.58-.73,1.15-1.47,2.35-2.92,3.57-4.35l.72-.84c.65-.74,1.32-1.47,2-2.2l1-1.16c.92-1,1.86-1.93,2.81-2.87.12-.13.24-.26.37-.38.54-.54,1.1-1.06,1.65-1.58l1.49-1.43c.59-.54,1.2-1.07,1.8-1.6l1.47-1.32c.6-.51,1.21-1,1.82-1.51s1-.88,1.57-1.31,1.24-1,1.86-1.46,1.09-.86,1.65-1.28,1.38-1,2.08-1.52c.51-.38,1-.76,1.54-1.13.74-.52,1.49-1,2.24-1.53l1.51-1c.64-.42,1.29-.83,1.94-1.24s1.28-.83,1.93-1.23q1.95-1.22,4-2.38c1.29-.75,2.57-1.46,3.82-2.13.42-.23.82-.43,1.23-.64.84-.44,1.67-.88,2.49-1.29.48-.24,1-.45,1.44-.68.72-.35,1.45-.71,2.17-1,.5-.23,1-.44,1.49-.65.71-.31,1.41-.62,2.11-.9l.76-.31c.9-.35,1.78-.69,2.66-1l.5-.18c1-.35,2-.66,3-1l.71-.2c.67-.19,1.33-.36,2-.53l1.38-.34c.57-.13,1.14-.24,1.7-.35l1.32-.24c.73-.12,1.46-.22,2.18-.3l.48-.06c.89-.1,1.76-.15,2.62-.19H677c.7,0,1.39,0,2.07,0l.53,0c.32,0,.62.06.94.09.72.06,1.44.14,2.14.25.35.05.7.12,1,.19q.87.17,1.71.39c.35.1.7.19,1,.3.54.16,1.06.35,1.58.56.32.12.65.24,1,.37.57.25,1.13.53,1.68.82.29.16.59.29.88.46l-57.1-33.19-.28-.16c-.2-.11-.41-.19-.6-.29-.55-.29-1.11-.58-1.68-.82l-.29-.14c-.22-.09-.45-.15-.67-.24-.52-.2-1-.39-1.58-.56l-.45-.16-.59-.13c-.56-.15-1.13-.28-1.71-.4l-.62-.14-.44-.05c-.7-.11-1.41-.19-2.13-.25-.23,0-.43-.06-.66-.07l-.29,0H622c-.68,0-1.37,0-2.08,0h-.82q-1.16.06-2.34.18l-.48.06c-.55.07-1.11.13-1.68.22l-.5.09-1.32.24c-.56.11-1.12.22-1.69.35l-1.38.33-1,.24c-.35.09-.69.2-1,.3l-.7.2c-1,.29-2,.61-3,1l-.51.19c-.87.31-1.76.65-2.65,1l-.76.3-.55.22c-.52.21-1.05.46-1.57.68l-1.49.65-2.17,1-1.43.69c-.82.41-1.66.84-2.49,1.28l-1.23.64c-1.26.68-2.53,1.39-3.82,2.14s-2.68,1.57-4,2.37l-1.92,1.23c-.65.42-1.31.82-2,1.25s-1,.68-1.5,1c-.75.5-1.51,1-2.24,1.53-.49.34-1,.7-1.45,1.05-.73.53-1.46,1.05-2.18,1.6-.49.37-1,.75-1.45,1.13-.69.53-1.38,1.06-2.06,1.6-.48.39-.94.79-1.42,1.19-.65.54-1.32,1.08-2,1.64-.46.39-.9.8-1.35,1.2-.64.57-1.29,1.14-1.92,1.72-.47.43-.92.87-1.38,1.31s-1.19,1.12-1.77,1.69l0,0c-.11.11-.21.23-.33.34-1,.95-1.9,1.92-2.82,2.9-.36.38-.7.77-1.06,1.16q-1,1.08-2,2.19l-.29.32c-.15.17-.28.36-.43.53q-1.85,2.13-3.58,4.35c-.13.16-.27.32-.4.49s-.11.16-.18.24q-1.59,2.07-3.1,4.2c-.06.1-.13.18-.2.28l-.59.88c-.66,1-1.32,1.93-2,2.92-.14.21-.29.42-.43.64s-.34.58-.52.86c-.53.84-1,1.68-1.55,2.54-.19.31-.39.61-.57.92l-.82,1.43c-.63,1-1.25,2.06-1.85,3.09-.15.25-.28.5-.42.75-.55,1-1.08,1.93-1.61,2.9-.28.5-.57,1-.84,1.51l-.29.57c-.53,1-1,2-1.53,3-.27.54-.56,1.08-.83,1.62-.06.13-.11.26-.18.39-.57,1.21-1.12,2.44-1.67,3.66-.2.45-.42.9-.62,1.35l-.06.16q-1.17,2.7-2.22,5.43a1.67,1.67,0,0,0-.08.2c-.12.31-.22.63-.34.94q-.88,2.34-1.69,4.71c-.08.24-.17.47-.25.71s-.22.71-.33,1.06c-.57,1.76-1.11,3.52-1.62,5.3-.1.36-.22.7-.32,1.06s-.12.48-.19.72c-.17.62-.32,1.24-.48,1.86-.28,1.05-.54,2.1-.79,3.16-.16.66-.31,1.32-.46,2-.11.48-.23,1-.33,1.45s-.15.8-.23,1.2c-.27,1.3-.52,2.61-.76,3.93l-.39,2.22c-.24,1.47-.46,2.94-.66,4.43-.07.47-.15.93-.21,1.41,0,.13,0,.26,0,.38-.13,1.1-.25,2.2-.37,3.3-.08.82-.18,1.64-.26,2.46-.11,1.17-.19,2.35-.28,3.53,0,.77-.12,1.54-.17,2.32-.08,1.31-.13,2.63-.18,3.95,0,.66-.07,1.31-.08,2q-.09,3-.08,6,.12,45,21.46,57.35l57.1,33.18q-21.33-12.39-21.46-57.34c0-2,0-4,.08-6,0-.67.06-1.33.09-2,.05-1.31.09-2.62.17-3.93,0-.78.12-1.56.18-2.34.08-1.17.16-2.34.27-3.5.08-.83.18-1.64.27-2.46.12-1.1.23-2.21.37-3.3.07-.6.17-1.2.25-1.8.21-1.48.42-3,.67-4.43.12-.74.26-1.48.39-2.22.23-1.31.48-2.62.75-3.92.18-.89.37-1.78.57-2.66q.21-1,.45-2c.25-1.06.52-2.12.79-3.17l.48-1.85c.17-.6.35-1.19.52-1.79.51-1.78,1-3.54,1.61-5.29.2-.59.38-1.19.58-1.78.54-1.58,1.11-3.15,1.69-4.71.14-.37.27-.76.42-1.13.71-1.83,1.44-3.64,2.22-5.43.22-.51.46-1,.68-1.52.55-1.22,1.1-2.44,1.68-3.65.32-.68.67-1.35,1-2,.5-1,1-2,1.53-3l1.13-2.08c.53-1,1.06-1.94,1.61-2.89.75-1.29,1.49-2.57,2.28-3.84.44-.8.92-1.58,1.38-2.36s1-1.7,1.55-2.53Z" transform="translate(-219.04 -181)"/><path class="cls-4" d="M692,503.67q22.88,10.71,23,58.32.13,46.68-22.62,84.66-17,30.11-49.36,48.77t-49.48,8.3q-23-11.58-23.13-58.25-.14-47.64,22.73-84.73,17-30.09,49.36-48.76T692,503.67Zm-19.37,128q11-22.23,10.87-51.5t-11.12-38.74q-11.05-9.6-29.77,1.23T612.72,575.8q-11.12,22.31-11,51.59T613,666.1q11.19,9.43,29.92-1.38t29.68-33" transform="translate(-219.04 -181)"/><polygon class="cls-2" points="295.62 583.67 238.51 550.49 238.29 473.12 295.39 506.3 295.62 583.67"/><polygon class="cls-2" points="295.31 476.44 238.21 443.25 238.02 377.17 295.12 410.35 295.31 476.44"/><polygon class="cls-3" points="295.12 410.35 238.02 377.17 269.33 359.09 326.43 392.28 295.12 410.35"/><polygon class="cls-3" points="236.68 510.29 179.58 477.1 238.21 443.25 295.31 476.44 236.68 510.29"/><polygon class="cls-4" points="326.43 392.28 326.92 565.6 295.62 583.67 295.39 506.3 236.76 540.15 236.99 617.52 205.67 635.6 205.18 462.28 236.49 444.2 236.68 510.29 295.31 476.44 295.12 410.35 326.43 392.28"/><polygon class="cls-2" points="205.67 635.6 148.56 602.42 148.07 429.1 205.18 462.28 205.67 635.6"/><polygon class="cls-3" points="205.18 462.28 148.07 429.1 179.39 411.02 236.49 444.2 205.18 462.28"/><path class="cls-2" d="M372,803c0-.07,0-.15,0-.22.05-.43.09-.87.12-1.31,0-.21.05-.42.06-.64,0-.65.06-1.3.06-2q0-6.37-3.69-8.51l-57.11-33.19q3.67,2.13,3.69,8.52c0,.65,0,1.31-.06,2,0,.21,0,.42-.05.64,0,.43-.07.87-.12,1.31l-.09.59c-.08.6-.18,1.19-.3,1.78-.05.22-.09.44-.14.66s-.16.7-.26,1.06-.13.55-.21.82-.14.47-.22.7-.21.69-.33,1l-.21.59c-.14.37-.28.74-.43,1.11-.07.17-.13.33-.21.5-.21.5-.43,1-.67,1.5a.59.59,0,0,1,0,.08c-.25.52-.52,1-.8,1.57l-.28.49c-.2.36-.41.72-.62,1.08l-.38.63c-.2.31-.4.63-.61.94l-.51.76-.57.81-.76,1c-.18.23-.35.46-.54.69-.44.56-.89,1.11-1.37,1.67l-.38.45c-.23.27-.48.53-.72.8l-.79.86-.78.8-1,1A93.39,93.39,0,0,1,283.28,807c-.77.44-1.51.86-2.25,1.26l-.73.38-1.44.75-.83.41-1.27.6-.85.39-1.15.5-.64.25c-.62.25-1.22.49-1.82.7l-.6.21c-.73.25-1.46.48-2.16.67l-1.28.32-.3.07c-.52.11-1,.2-1.52.28-.68.1-1.32.16-1.95.2l-.53,0c-.37,0-.74,0-1.1,0l-.51,0-.91-.11-.47-.07c-.25,0-.49-.1-.73-.16l-.5-.13-.59-.2-.54-.2-.51-.25c-.2-.1-.4-.19-.59-.3l57.1,33.19.11.06.48.24.51.24.06,0a4.75,4.75,0,0,0,.49.17c.19.07.38.15.58.21l.06,0,.44.1.73.17.1,0,.38.05c.29,0,.59.08.91.1l.17,0H320c.36,0,.73,0,1.11,0h.29l.23,0a17,17,0,0,0,2-.2h0c.49-.07,1-.17,1.5-.28l.29-.07c.41-.09.82-.18,1.24-.3h.05c.7-.2,1.43-.42,2.17-.67l.6-.22c.59-.21,1.2-.44,1.82-.69l.38-.15.25-.11c.38-.15.76-.33,1.15-.5l.86-.38,1.26-.61.83-.4,1.44-.76.73-.38q1.11-.6,2.25-1.26a93.09,93.09,0,0,0,18.48-13.49l.29-.28c.23-.23.45-.46.67-.7l.8-.81c.26-.28.52-.56.77-.85l.74-.81.11-.12c.09-.11.17-.22.26-.32q.72-.84,1.38-1.68l.26-.31.27-.37c.26-.34.51-.68.76-1l.34-.46.23-.34c.18-.26.35-.51.51-.76l.35-.52.26-.43c.13-.21.26-.41.38-.62l.25-.41c.13-.22.25-.45.37-.67s.19-.33.28-.5l.12-.21c.24-.45.46-.89.68-1.34h0a.3.3,0,0,1,0-.1c.2-.41.38-.82.56-1.23,0-.08.07-.17.11-.25l.2-.51c.09-.2.17-.4.25-.61s.12-.33.18-.5.15-.39.21-.59.09-.24.13-.36.14-.44.21-.66l.21-.7a1.83,1.83,0,0,1,.08-.25c.05-.19.09-.39.14-.58.09-.35.18-.7.26-1.06l.07-.28.06-.37c.12-.6.22-1.19.3-1.78C372,803.2,372,803.08,372,803Z" transform="translate(-219.04 -181)"/><path class="cls-11" d="M304.05,680.9l57.11,33.19q5.59,3.25,6.21,13.72l-57.1-33.18Q309.66,684.16,304.05,680.9Z" transform="translate(-219.04 -181)"/><g class="cls-12"><g class="cls-5"><path class="cls-2" d="M367.37,727.81l-57.1-33.18q-.61-10.47-6.22-13.73l57.11,33.19q5.59,3.25,6.21,13.72" transform="translate(-219.04 -181)"/></g></g><path class="cls-1" d="M304.05,680.9l57.11,33.19q5.59,3.25,6.21,13.72l-57.1-33.18Q309.66,684.16,304.05,680.9Z" transform="translate(-219.04 -181)"/><path class="cls-2" d="M277.62,847.94l-57.11-33.18q.08,23.31,12.78,30.69l57.11,33.19Q277.68,871.25,277.62,847.94Z" transform="translate(-219.04 -181)"/><polygon class="cls-3" points="58.57 666.94 1.47 633.76 31.56 616.39 88.66 649.57 58.57 666.94"/><path class="cls-3" d="M371.11,751.29c1.36-.29,2.65-.53,3.9-.72,1.05-.17,2.07-.3,3-.39.23,0,.43,0,.65,0,.8-.07,1.58-.12,2.33-.14h.55c.85,0,1.67,0,2.45.07.46,0,.88.09,1.31.15s.89.09,1.31.16c.22,0,.42.1.64.15a18,18,0,0,1,1.79.45c.51.17,1,.37,1.48.57s.74.35,1.1.54l.68.34-57.11-33.18-.18-.11c-.16-.09-.34-.15-.5-.24-.36-.18-.71-.37-1.09-.53l-.17-.08a13.6,13.6,0,0,0-1.31-.49l-.54-.17c-.4-.11-.83-.19-1.25-.28-.22-.05-.42-.11-.65-.15l-.13,0c-.37-.07-.79-.09-1.17-.14s-.86-.12-1.31-.15l-.14,0c-.74,0-1.52-.05-2.31,0h-1.22c-.54,0-1.1.08-1.66.12l-.65,0c-.91.09-1.86.21-2.84.36l-.2,0c-1.25.2-2.55.44-3.9.73l-.18,0q-1.95.44-4.05,1l-.25.06c-1.19.32-2.42.68-3.68,1.06l-26.48,8.12c-1.22.37-2.37.72-3.48,1l-.26.08c-1.06.31-2.06.59-3,.85l-.37.1c-1,.28-1.95.53-2.86.75l-.24.06c-.79.2-1.54.37-2.25.53l-.76.16c-.51.1-1,.21-1.46.29l-.76.13-1.25.2-.52.07-1.34.12h-.17a11.39,11.39,0,0,1-1.32,0,4.86,4.86,0,0,1-.56,0l-.61-.07-.53-.11c-.14,0-.27,0-.4-.09s-.44-.14-.64-.21l-.2-.08a6.4,6.4,0,0,1-.79-.38h0L312.68,765l.07,0a5.52,5.52,0,0,0,.69.34h0l.2.07a5.1,5.1,0,0,0,.55.19l.09,0,.4.1.42.09.11,0,.61.07.38,0h.18a10.9,10.9,0,0,0,1.29,0h0l.18,0c.41,0,.86-.06,1.33-.12l.52-.07.56-.07.69-.12.76-.13,1.46-.3L324,765c.71-.15,1.46-.33,2.25-.52l.25-.06,2.57-.67.28-.08.37-.1c1-.27,2-.55,3-.86l.26-.07,3.48-1.05L363,753.45c1.35-.42,2.65-.78,3.92-1.12s2.75-.71,4.05-1Z" transform="translate(-219.04 -181)"/><path class="cls-3" d="M344.4,684.54l1.16-.55c.58-.28,1.16-.57,1.73-.83.4-.19.8-.35,1.19-.52l1.65-.72.2-.08c1.21-.5,2.4-.94,3.58-1.36l.87-.3q1.83-.61,3.6-1.11l.8-.2c.65-.16,1.31-.33,1.95-.47l1-.2c.57-.11,1.14-.22,1.69-.31l1.26-.18,1.12-.14,1.3-.12,1.08-.08,1.53,0h.68c.74,0,1.46,0,2.18.07h.18c.65.05,1.28.11,1.92.19l.67.1,1.22.2c.91.17,1.81.36,2.69.6a21.28,21.28,0,0,1,2.33.8l.39.13a20.71,20.71,0,0,1,2.45,1.22l-57.1-33.19-.24-.13a20.18,20.18,0,0,0-2.19-1.07h0l-.38-.14c-.65-.25-1.32-.5-2-.7l-.33-.1c-.88-.24-1.78-.43-2.68-.6-.11,0-.21-.05-.32-.07l-.91-.13c-.22,0-.44-.07-.67-.09-.63-.08-1.27-.15-1.91-.19l-.18,0h0c-.71,0-1.44-.06-2.16-.07H313l-1.21,0-.32,0-1.07.08c-.43,0-.87.06-1.3.11l-1.12.14-.86.11-.4.07c-.56.09-1.12.2-1.68.31l-1,.21c-.64.14-1.29.3-1.94.47-.24.06-.47.1-.71.17l-.1,0c-1.18.32-2.38.7-3.59,1.11l-.87.3c-1.18.41-2.37.86-3.58,1.36l-.16.05,0,0c-.55.22-1.1.47-1.65.71l-1.19.52c-.57.26-1.16.55-1.74.83l-1.15.55-2,1-.94.49c-1,.54-2,1.1-3,1.68-1.28.74-2.53,1.49-3.77,2.25-.41.25-.81.51-1.21.77l-2.45,1.55-1.39.93-2.15,1.46-1.42,1L267,664l-1.39,1c-.65.49-1.29,1-1.93,1.49l-1.33,1.06c-.64.52-1.26,1-1.89,1.57l-1.23,1-1.93,1.72-1.06,1c-.77.72-1.53,1.45-2.28,2.18-.17.17-.36.33-.53.51l0,.05c-1,.94-1.88,1.9-2.79,2.86l-.8.87c-.63.69-1.26,1.38-1.88,2.08l-.31.35-.38.46c-1.14,1.32-2.24,2.65-3.3,4,0,.06-.09.11-.13.16l0,.05q-1.35,1.75-2.62,3.56c-.09.13-.2.25-.29.38l-.47.72c-.52.75-1,1.5-1.52,2.26l-.45.67-.78,1.23q-.87,1.43-1.71,2.85l0,.07c-.71,1.21-1.39,2.43-2,3.64-.06.13-.14.25-.21.38l-.35.69c-.44.84-.86,1.68-1.27,2.52l-.34.66c-.08.16-.14.32-.22.47-.42.9-.83,1.79-1.22,2.68-.1.21-.2.42-.29.63l-.06.15c-.5,1.15-1,2.29-1.41,3.43a1.19,1.19,0,0,1-.08.2c-.08.21-.14.42-.22.62q-.52,1.38-1,2.76c-.06.18-.14.36-.2.54s-.1.36-.16.54c-.36,1.09-.69,2.19-1,3.28l-.13.4s0,.07,0,.1c-.4,1.43-.74,2.86-1.05,4.28l-.12.47c0,.21-.07.41-.12.62-.11.56-.22,1.12-.32,1.68l-.24,1.36c-.09.56-.17,1.13-.25,1.69-.05.3-.1.6-.14.9l0,.31c-.18,1.41-.31,2.81-.41,4.21,0,.28,0,.55,0,.82-.09,1.45-.14,2.9-.14,4.35q.06,20.87,10.29,26.79l57.11,33.19q-10.23-5.94-10.29-26.79c0-1.45.05-2.9.13-4.35,0-.28,0-.55.05-.82.09-1.4.23-2.81.4-4.21.05-.41.11-.81.17-1.22s.16-1.12.25-1.68l.24-1.37c.11-.56.21-1.12.33-1.67.07-.37.15-.73.23-1.1.31-1.42.66-2.84,1.05-4.27l.15-.51c.31-1.09.65-2.19,1-3.28l.36-1.07c.31-.92.65-1.85,1-2.77.1-.27.19-.54.3-.81.44-1.14.91-2.29,1.4-3.44.11-.25.23-.51.35-.76.39-.9.8-1.79,1.23-2.69.18-.38.36-.76.55-1.14.41-.84.84-1.68,1.28-2.52l.55-1.06c.66-1.22,1.33-2.43,2-3.65.57-1,1.15-1.94,1.75-2.91.39-.64.81-1.27,1.22-1.91s1-1.51,1.52-2.26l.76-1.1c.85-1.19,1.72-2.38,2.62-3.55l.17-.21c1.06-1.36,2.17-2.7,3.3-4l.7-.81c.61-.7,1.24-1.39,1.88-2.08.26-.29.52-.58.79-.86.91-1,1.84-1.92,2.79-2.87l.59-.56c.74-.73,1.5-1.45,2.27-2.17l1.07-1c.64-.58,1.27-1.15,1.92-1.71l1.24-1c.62-.52,1.25-1.05,1.88-1.56l1.34-1.07c.63-.5,1.27-1,1.92-1.49.46-.35.92-.7,1.39-1l2-1.46,1.43-1c.7-.5,1.42-1,2.14-1.46l1.39-.93q1.22-.8,2.46-1.56l1.2-.76q1.86-1.14,3.78-2.25,1.51-.88,3-1.68l.95-.49C343.07,685.23,343.74,684.87,344.4,684.54Z" transform="translate(-219.04 -181)"/><path class="cls-4" d="M338.45,687.75q24.15-13.95,41.22-9.26t18,31.83l-30.29,17.49q-.89-15.15-12.23-15.19-7.58,0-18.79,6.49a64.94,64.94,0,0,0-19.92,17.15q-7.44,9.94-7.4,20.06c0,6.19,2.48,9.4,7.38,9.63q4.72.34,20.06-4.39L363,753.45q17.42-5.34,26.12-2.49,13.53,4.45,13.58,27.61.07,23.76-15.86,48.68T341.7,869q-29.79,17.19-46.9,11.59t-17.18-32.66l30.08-17.37q1.5,11,5.79,14.44,7.88,6.18,26.89-4.81a93.09,93.09,0,0,0,18.48-13.49q13.47-13.19,13.43-27.89c0-5.71-2.24-8.88-6.64-9.48s-11.41.81-21,4l-16.34,5.31q-24.09,7.79-33.12,5.81-15.27-3.21-15.35-28.7-.08-23.29,14.81-47.3T338.45,687.75Z" transform="translate(-219.04 -181)"/><polygon class="cls-3" points="599.98 176.81 542.87 143.63 618.18 100.15 675.28 133.34 599.98 176.81"/><polygon class="cls-4" points="599.57 34.66 599.98 176.81 675.28 133.34 675.37 164.49 568.54 226.17 568.05 52.86 599.57 34.66"/><polygon class="cls-2" points="568.54 226.17 511.44 192.99 510.95 19.67 568.05 52.86 568.54 226.17"/><polygon class="cls-3" points="568.05 52.86 510.95 19.67 542.47 1.47 599.57 34.66 568.05 52.86"/><polygon class="cls-2" points="515.18 256.98 458.07 223.8 448.02 193.92 505.12 227.1 515.18 256.98"/><polygon class="cls-3" points="458.07 224.36 400.97 191.17 439.6 168.87 496.7 202.05 458.07 224.36"/><polygon class="cls-2" points="496.7 202.05 439.6 168.87 420.35 111.67 477.45 144.85 496.7 202.05"/><path class="cls-4" d="M714.55,275.74,768.4,418.25,734.22,438,724.17,408.1l-55.55,32.07L658.5,481.7l-33,19,53.35-204.41ZM677.11,405.36l38.63-22.3-19.25-57.2-19.38,79.5" transform="translate(-219.04 -181)"/><polygon class="cls-2" points="406.5 319.73 349.39 286.55 402.74 82.14 459.84 115.33 406.5 319.73"/><polygon class="cls-3" points="459.84 115.33 402.74 82.14 438.4 61.55 495.5 94.74 459.84 115.33"/><polygon class="cls-2" points="358.11 295.1 301.01 261.92 300.67 141.08 357.77 174.26 358.11 295.1"/><polygon class="cls-3" points="357.77 174.26 300.67 141.08 330.03 124.12 387.13 157.31 357.77 174.26"/><polygon class="cls-3" points="356.12 348.81 299.02 315.63 237.27 228.1 294.37 261.28 356.12 348.81"/><polygon class="cls-4" points="387.13 157.31 387.62 330.63 356.12 348.81 294.37 261.28 294.72 384.26 265.35 401.22 264.86 227.91 297.9 208.83 358.11 295.1 357.77 174.26 387.13 157.31"/><polygon class="cls-2" points="265.35 401.22 208.24 368.04 207.75 194.72 264.86 227.91 265.35 401.22"/><polygon class="cls-3" points="264.86 227.91 207.75 194.72 240.8 175.64 297.9 208.83 264.86 227.91"/><polygon class="cls-4" points="235.9 244.63 236.39 417.94 205.07 436.02 204.58 262.7 235.9 244.63"/><polygon class="cls-2" points="205.07 436.02 147.97 402.84 147.48 229.52 204.58 262.7 205.07 436.02"/><polygon class="cls-3" points="204.58 262.7 147.48 229.52 178.79 211.44 235.9 244.63 204.58 262.7"/><polygon class="cls-3" points="110.64 387.6 53.54 354.42 120.36 315.83 177.47 349.02 110.64 387.6"/><polygon class="cls-4" points="186.68 273.28 186.77 303.72 110.53 347.74 110.64 387.6 177.47 349.02 177.55 379.12 110.73 417.7 110.94 490.37 79.62 508.45 79.13 335.37 186.68 273.28"/><polygon class="cls-2" points="79.62 508.45 22.52 475.27 22.02 302.19 79.13 335.37 79.62 508.45"/><polygon class="cls-3" points="79.13 335.37 22.02 302.19 129.58 240.09 186.68 273.28 79.13 335.37"/></svg>