<svg id="search" xmlns="http://www.w3.org/2000/svg" width="15.819" height="15.815" viewBox="0 0 15.819 15.815">
  <g id="Group_637" data-name="Group 637">
    <g id="Group_636" data-name="Group 636" transform="translate(0 0)">
      <path id="Path_1646" data-name="Path 1646" d="M14.036,1.82a6.055,6.055,0,0,0-8.783,8.332l-.462.462a.957.957,0,0,0-1.353,0h0L.28,13.772a.957.957,0,0,0,0,1.353h0l.451.451a.957.957,0,0,0,1.353,0l3.157-3.157a.957.957,0,0,0,0-1.353h0L5.7,10.6A6.055,6.055,0,0,0,14.036,1.82ZM4.791,11.967,1.634,15.125a.319.319,0,0,1-.451,0l-.451-.451a.319.319,0,0,1,0-.451l3.157-3.157a.326.326,0,0,1,.451,0l.451.451A.319.319,0,0,1,4.791,11.967Zm8.795-2.029a5.421,5.421,0,1,1,0-7.667A5.421,5.421,0,0,1,13.586,9.938Z" transform="translate(0 -0.041)"/>
    </g>
  </g>
  <g id="Group_639" data-name="Group 639" transform="translate(12.683 2.681)">
    <g id="Group_638" data-name="Group 638">
      <path id="Path_1647" data-name="Path 1647" d="M318.618,67.3h0l-.451.451a4.151,4.151,0,0,1,0,5.863l.451.451A4.788,4.788,0,0,0,318.618,67.3Z" transform="translate(-318.167 -67.303)"/>
    </g>
  </g>
</svg>
