<svg xmlns="http://www.w3.org/2000/svg" width="124.73" height="175.704" viewBox="0 0 124.73 175.704">
  <g id="Group_685" data-name="Group 685" transform="translate(-7917 -4083)">
    <g id="VR" transform="translate(7917 4083)">
      <path id="Path_2021" data-name="Path 2021" d="M43.64,27.227l8.3-4.861c7.007-4.067,16.67-3.474,27.353,2.68l-8.3,4.861C60.31,23.741,50.635,23.16,43.64,27.227Z" transform="translate(-11.509 -5.824)" fill="#f9d48a"/>
      <path id="Path_2025" data-name="Path 2025" d="M47.1,11.395c8.418-4.9,20.037-4.268,32.866,3.035l-8.359,4.861c-12.829-7.315-24.448-7.932-32.866-3.035Z" transform="translate(-12.419 -7.966)" fill="#ababab"/>
      <path id="Path_2026" data-name="Path 2026" d="M74.819,13.46l.332.19-8.359,4.861-.332-.19Z" transform="translate(-7.272 -6.996)" fill="#ababab"/>
      <path id="Path_2028" data-name="Path 2028" d="M38.64,16.037l8.3-4.861C55.381,6.267,67.1,6.9,79.924,14.235l.332.19L71.9,19.274l-.332-.19C58.749,11.757,47.094,11.117,38.64,16.037Z" transform="translate(-12.437 -8.008)" fill="#595959"/>
      <g id="VR-2" data-name="VR" transform="translate(0 3.441)">
        <path id="Path_1249" data-name="Path 1249" d="M99.379,41.39H52.83V47.2H99.379Z" transform="translate(-9.803 -5.251)" fill="#ababab" stroke="#000" stroke-miterlimit="10" stroke-width="0.25"/>
        <path id="Path_1251" data-name="Path 1251" d="M84.648,66.431H65.12a5.75,5.75,0,0,1-5.75-5.75h0v-.13a5.75,5.75,0,0,1,5.75-5.75H84.648a5.75,5.75,0,0,1,5.75,5.75h0v.13A5.75,5.75,0,0,1,84.648,66.431Z" transform="translate(-8.589 -2.762)" fill="#62d8f9"/>
        <path id="Path_1253" data-name="Path 1253" d="M85.076,52.37h-19.5A8.632,8.632,0,0,0,57,60.99v.119a8.632,8.632,0,0,0,8.572,8.608h19.5a8.643,8.643,0,0,0,8.679-8.608V60.99a8.643,8.643,0,0,0-8.679-8.62Zm2.881,8.75A2.881,2.881,0,0,1,85.076,64h-19.5a2.881,2.881,0,0,1-2.881-2.881V61a2.893,2.893,0,0,1,2.881-2.881h19.5A2.9,2.9,0,0,1,87.957,61Z" transform="translate(-9.029 -3.213)"/>
        <path id="Path_2000" data-name="Path 2000" d="M16.72,65.179l8.3-4.849a11.773,11.773,0,0,0,5.312,9.2l-8.3,4.861a11.714,11.714,0,0,1-5.312-9.212Z" transform="translate(-16.507 -1.735)"/>
        <path id="Path_2001" data-name="Path 2001" d="M4.66,64.939l8.359-4.849,2.7,1.565L7.375,66.5Z" transform="translate(0.865 7.717)"/>
        <path id="Path_2002" data-name="Path 2002" d="M.251,35.719,8.61,30.87,8.539,56.3.18,61.151Z" transform="translate(0.033 2.293)"/>
        <path id="Path_2003" data-name="Path 2003" d="M18.33,40.849,26.688,36a3.747,3.747,0,0,0-1.565,3.415l-8.3,4.861a3.711,3.711,0,0,1,1.506-3.427Z" transform="translate(-16.492 -6.252)"/>
        <path id="Path_2004" data-name="Path 2004" d="M7.057,34.459,15.4,29.61l-.107,37.7L6.95,72.163Z" transform="translate(1.29 2.059)" fill="#595959"/>
        <path id="Path_2005" data-name="Path 2005" d="M22.172,40.319,25.089,42l-.107,38.166-2.917-1.684a12.188,12.188,0,0,1-5.525-9.568l.071-25.432C16.623,39.964,19.113,38.553,22.172,40.319Zm2.6,39.494.107-37.7-2.7-1.565c-2.94-1.648-5.347-.32-5.347,3.095l-.071,25.432a11.714,11.714,0,0,0,5.312,9.212l2.7,1.565" transform="translate(-16.54 -5.592)"/>
        <path id="Path_2006" data-name="Path 2006" d="M4.75,33.139l8.359-4.849,2.7,1.565L7.465,34.7Z" transform="translate(0.882 1.814)" fill="#595959"/>
        <path id="Path_2007" data-name="Path 2007" d="M4.75,32.951l8.359-4.861,2.917,1.684L7.667,34.635Z" transform="translate(0.882 1.777)"/>
        <path id="Path_2008" data-name="Path 2008" d="M21.278,40.953l-.213-.083Zm-.308-.119L20.8,40.8ZM20.72,40.8l-.178-.059Zm-.273-.083h0Zm-.261,0h0Zm-.249,0Zm-.379,0Zm-.095,0Zm-.237,0Zm-.225,0Zm-.213,0h0Zm-.2,0h0Zm-.2.083H18.29Zm-.19.083-.095.059Zm3.142.142a4.672,4.672,0,0,1,.545.273h0a4.671,4.671,0,0,0-.545-.308Zm.545,0,.2.107,8.145-4.743a3.759,3.759,0,0,0-3.782-.332l-7.28,4.221a4.956,4.956,0,0,1,2.715.759Z" transform="translate(-16.25 -6.309)" fill="#595959"/>
        <path id="Path_2009" data-name="Path 2009" d="M18,40.687l8.3-4.849a3.877,3.877,0,0,1,3.936.379l-8.3,4.861A3.936,3.936,0,0,0,18,40.687Z" transform="translate(-16.269 -6.351)" fill="#595959"/>
        <path id="Path_2010" data-name="Path 2010" d="M24.842,42.062l-.107,37.7-2.7-1.565a11.714,11.714,0,0,1-5.312-9.212l.071-25.4c0-3.379,2.371-4.743,5.347-3.059Z" transform="translate(-16.507 -5.544)" fill="#ff6b6b"/>
        <path id="Path_2011" data-name="Path 2011" d="M7.227,34.371l8.359-4.861-.107,38.178L7.12,72.537Z" transform="translate(1.322 2.04)"/>
        <path id="Path_2012" data-name="Path 2012" d="M62.459,122.61a66.123,66.123,0,0,0,14.56,11.69l-8.359,4.861A66.123,66.123,0,0,1,54.1,127.471Z" transform="translate(-9.567 9.827)" fill="#f9d48a"/>
        <path id="Path_2013" data-name="Path 2013" d="M74.73,132.47a37.337,37.337,0,0,0,14.607,5.146l-8.3,4.861a37.6,37.6,0,0,1-14.607-5.146Z" transform="translate(-7.278 11.657)" fill="#f9d48a"/>
        <path id="Path_2014" data-name="Path 2014" d="M62.167,133.659l8.359-4.849-.047,18.117-8.359,4.861Z" transform="translate(11.533 20.475)" fill="#a1895a"/>
        <path id="Path_2015" data-name="Path 2015" d="M83.274,143.544v18.117L54.06,144.837V126.72a66.123,66.123,0,0,0,14.56,11.691A37.6,37.6,0,0,0,83.274,143.544Z" transform="translate(-9.574 10.59)" fill="#f9d48a"/>
        <path id="Path_2016" data-name="Path 2016" d="M10.71,33.171l8.359-4.861,8.24,4.766L18.95,37.926Z" transform="translate(1.988 1.817)"/>
        <path id="Path_2017" data-name="Path 2017" d="M53.694,22c-6.343,3.687-10.481,11.193-11.145,21.78L34.19,48.642c.664-10.6,4.8-18.093,11.145-21.78Z" transform="translate(-13.263 -8.851)" fill="#ababab"/>
        <path id="Path_2018" data-name="Path 2018" d="M40.866,15.759l8.3-4.849C40.795,15.759,35.578,26.24,35.59,41.037L27.29,45.9C27.219,31.09,32.436,20.656,40.866,15.759Z" transform="translate(-14.544 -10.91)"/>
        <path id="Path_2019" data-name="Path 2019" d="M97.85,138.609l-8.3,4.861c6.853-4.019,11.2-12.556,11.2-24.709l8.3-4.861C109.054,126.065,104.762,134.6,97.85,138.609Z" transform="translate(-2.986 8.21)" fill="#a1895a"/>
        <path id="Path_2020" data-name="Path 2020" d="M82.557,77.151l8.359-4.861-.107,39.873-8.359,4.849Z" transform="translate(15.307 9.982)" fill="#f9d48a"/>
        <path id="Path_2022" data-name="Path 2022" d="M89.42,78.1l8.359-4.861v.617L89.42,78.706Z" transform="translate(16.601 10.159)" fill="#ababab"/>
        <path id="Path_2023" data-name="Path 2023" d="M66.7,29.081,75,24.22C95.511,36.005,112.11,63.88,113.367,87.7c0,1.186.083,2.1.083,3.012l-8.3,4.861c0-.913,0-1.838-.083-3.023C103.811,68.729,87.105,40.867,66.7,29.081Z" transform="translate(-7.228 -8.439)" fill="#f9d48a"/>
        <path id="Path_2024" data-name="Path 2024" d="M82.49,74.821l8.359-4.861,8.217,4.505-8.359,4.849Z" transform="translate(15.314 9.55)"/>
        <path id="Path_2027" data-name="Path 2027" d="M89.6,78.2l8.359-4.849-.012.842L89.6,79.053Z" transform="translate(16.634 10.179)"/>
        <path id="Path_2029" data-name="Path 2029" d="M72.771,29.147c20.405,11.785,37.111,39.648,38.3,63.468,0,1.186.083,2.11.083,3.023l-.083,39.838c0,18.5-10,28.633-24.045,27.139a37.6,37.6,0,0,1-14.607-5.146,66.125,66.125,0,0,1-14.56-11.69C43.805,131.089,34,109.51,34,90.99l.119-39.826c0-.913,0-1.814.071-2.68C35.624,25.957,52.366,17.361,72.771,29.147Z" transform="translate(-13.299 -8.504)" fill="#f9d48a"/>
        <path id="Path_2030" data-name="Path 2030" d="M75.09,13.62C87.432,20.734,99.04,32.922,107.8,48l-8.3,4.849C90.74,37.807,79.133,25.583,66.79,18.469Z" transform="translate(-7.211 -10.407)" fill="#ababab"/>
        <path id="Path_2031" data-name="Path 2031" d="M102.681,42.6c8.845,15.176,13.777,31.455,13.777,45.825l-8.3,4.861c0-14.382-4.944-30.649-13.789-45.837Z" transform="translate(-2.091 -5.027)" fill="#ababab"/>
        <path id="Path_2032" data-name="Path 2032" d="M74.071,18.719c12.343,7.114,23.95,19.3,32.712,34.384s13.742,31.42,13.837,45.8v.6l-8.24-4.743c-1.245-23.832-17.951-51.694-38.356-63.48S36.877,28.1,35.478,50.388L27.25,45.645c0-29.57,20.8-41.747,46.489-27.1Z" transform="translate(-14.552 -10.645)" fill="#ababab"/>
        <path id="Path_2033" data-name="Path 2033" d="M74.1,18.514c12.4,7.161,24.021,19.4,32.866,34.526s13.8,31.6,13.848,46.027v.854l-8.466-4.873,8.217,4.505v-.6c0-14.382-4.944-30.649-13.789-45.837S86.412,25.841,74.069,18.727l-.332-.19C48.08,3.93,27.248,16.107,27.283,45.677l8.228,4.743L27.07,45.784c-.083-29.9,20.856-42.174,46.7-27.46Z" transform="translate(-14.585 -10.689)"/>
        <path id="Path_2034" data-name="Path 2034" d="M66.74,18.269,75.1,13.42c12.39,7.114,24.057,19.385,32.866,34.514s13.8,31.6,13.837,46.027l-8.3,4.861C113.5,84.393,108.534,68,99.654,52.8S79.142,25.431,66.74,18.269Z" transform="translate(-7.22 -10.444)" fill="#595959"/>
        <path id="Path_2040" data-name="Path 2040" d="M98.161,92.251l8.359-4.861-.071,25.444-8.359,4.849Z" transform="translate(18.21 5.672)" fill="#595959"/>
        <path id="Path_2042" data-name="Path 2042" d="M114.874,121.761l8.3-4.861a3.889,3.889,0,0,1-1.624,3.557l-8.3,4.849A3.853,3.853,0,0,0,114.874,121.761Z" transform="translate(1.414 1.653)" fill="#595959"/>
        <path id="Path_2043" data-name="Path 2043" d="M110.442,91.875a11.774,11.774,0,0,1,5.312,9.2l-.071,25.444a3.249,3.249,0,0,1-5.347,3.047L107.62,128l.107-37.692Z" transform="translate(0.369 -3.283)" fill="#ff6b6b"/>
        <path id="Path_2045" data-name="Path 2045" d="M110.47,91.7a12.2,12.2,0,0,1,5.525,9.568l-.047,25.491a3.853,3.853,0,0,1-1.624,3.557,3.913,3.913,0,0,1-3.924-.4l-2.929-1.684L107.577,90Zm5.241,34.882.071-25.444a11.774,11.774,0,0,0-5.312-9.2l-2.715-1.565-.107,37.692,2.715,1.565a3.249,3.249,0,0,0,5.347-3.047" transform="translate(0.341 -3.341)"/>
        <path id="Path_2047" data-name="Path 2047" d="M91.03,82.761,99.377,77.9l2.929,1.7-8.359,4.849Z" transform="translate(16.9 3.91)" fill="#595959"/>
        <path id="Path_2048" data-name="Path 2048" d="M110,92.191l8.3-4.861a12.2,12.2,0,0,1,5.513,9.568l-8.3,4.861A12.2,12.2,0,0,0,110,92.191Z" transform="translate(0.811 -3.837)" fill="#595959"/>
        <path id="Path_2049" data-name="Path 2049" d="M21.36,85l8.359-4.849a11.726,11.726,0,0,0,5.312,9.2l-8.3,4.849A11.7,11.7,0,0,1,21.36,85Z" transform="translate(-15.645 1.944)"/>
        <path id="Path_2050" data-name="Path 2050" d="M9.3,84.749,17.659,79.9l8.489,4.9-8.359,4.861Z" transform="translate(1.727 11.395)"/>
        <path id="Path_2051" data-name="Path 2051" d="M38.415,84.872l.285.486-8.3,4.849-.285-.474h0l8.3-4.861-8.3,4.861c-.261-.451-.5-.9-.735-1.352l8.359-4.861A10.269,10.269,0,0,0,38.415,84.872Z" transform="translate(-14.156 2.57)" fill="#cbcbcb"/>
        <path id="Path_2052" data-name="Path 2052" d="M38.55,85.07a26.085,26.085,0,0,0,3.32,4.387l-8.3,4.861a25.753,25.753,0,0,1-3.32-4.4Z" transform="translate(-13.995 2.858)" fill="#cbcbcb"/>
        <path id="Path_2053" data-name="Path 2053" d="M16.472,85.621l8.359-4.861-.012,3.877L16.46,89.5Z" transform="translate(3.056 11.555)" fill="#cbcbcb"/>
        <path id="Path_2054" data-name="Path 2054" d="M35.991,85.3l-6.4,3.723A24.543,24.543,0,0,1,28,84.9l8.3-4.849a24.828,24.828,0,0,0,1.648,4.114Z" transform="translate(-14.412 1.926)" fill="#cbcbcb"/>
        <path id="Path_2055" data-name="Path 2055" d="M36.3,80h0L28,84.849h0l.474-.285L32.731,82.1Z" transform="translate(-14.412 1.916)" fill="#cbcbcb"/>
        <path id="Path_2056" data-name="Path 2056" d="M16.652,85.811,25,80.95l-.012,4.019L16.64,89.819Z" transform="translate(3.089 11.59)"/>
        <path id="Path_2057" data-name="Path 2057" d="M33,93.631l8.3-4.861.213.225-8.3,4.849Z" transform="translate(-13.484 3.545)"/>
        <path id="Path_2058" data-name="Path 2058" d="M4.962,34.209l8.359-4.849-.142,50.722L4.82,84.931Z" transform="translate(0.895 2.012)"/>
        <path id="Path_2059" data-name="Path 2059" d="M35.628,76.57a19.113,19.113,0,0,0,.794,4.067l-8.3,4.861a20.156,20.156,0,0,1-.783-4.1Z" transform="translate(-14.535 1.28)" fill="#cbcbcb"/>
        <path id="Path_2060" data-name="Path 2060" d="M35.63,76.57l-8.3,4.849h0l8.3-4.849Z" transform="translate(-14.537 1.28)" fill="#cbcbcb"/>
        <path id="Path_2061" data-name="Path 2061" d="M10.783,45.649,19.142,40.8l-.083,31.609L10.7,77.271Z" transform="translate(1.986 4.136)" fill="#cbcbcb"/>
        <path id="Path_2062" data-name="Path 2062" d="M10.963,45.749,19.322,40.9l-.083,31.609L10.88,77.359Z" transform="translate(2.02 4.155)"/>
        <path id="Path_2063" data-name="Path 2063" d="M35.632,76.774l-8.3,4.849a11.855,11.855,0,0,1,0-1.292l8.3-4.861A6,6,0,0,0,35.632,76.774Z" transform="translate(-14.54 1.075)" fill="#cbcbcb"/>
        <path id="Path_2064" data-name="Path 2064" d="M27.41,80.419l8.359-4.849a21.863,21.863,0,0,0,3.178,10.671,22.2,22.2,0,0,0,7.683,8.11L38.33,99.2A24,24,0,0,1,27.469,80.384Z" transform="translate(-14.522 1.094)"/>
        <path id="Path_2065" data-name="Path 2065" d="M20.04,88.279l8.347-4.849,12.141,7.007L32.181,95.3Z" transform="translate(3.72 12.05)"/>
        <path id="Path_2066" data-name="Path 2066" d="M46.81,102.2l8.3-4.849a20.156,20.156,0,0,0,9.805,3l-8.3,4.885A20.358,20.358,0,0,1,46.81,102.2Z" transform="translate(-10.92 5.137)"/>
        <path id="Path_2067" data-name="Path 2067" d="M35.68,48.18v.735l-8.3,4.861v-.735Z" transform="translate(-14.528 -3.991)" fill="#cbcbcb"/>
        <path id="Path_2068" data-name="Path 2068" d="M35.719,47.76a3.557,3.557,0,0,0,0,.5L27.36,53.119v-.5l1.956-1.186Z" transform="translate(-14.531 -4.069)" fill="#cbcbcb"/>
        <path id="Path_2069" data-name="Path 2069" d="M38.54,96.731,46.9,91.87l4.743.012-8.347,4.861Z" transform="translate(7.155 13.617)"/>
        <path id="Path_2070" data-name="Path 2070" d="M23.028,39.341l8.359-4.861a3.723,3.723,0,0,0-1.553,3.427l-8.3,4.849a3.723,3.723,0,0,1,1.494-3.415Z" transform="translate(-15.617 -6.534)"/>
        <path id="Path_2071" data-name="Path 2071" d="M29.306,52.315,27.35,53.5a7.636,7.636,0,0,1,2.431-5.359l8.359-4.861a7.659,7.659,0,0,0-2.431,5.359Z" transform="translate(-14.533 -4.901)" fill="#cbcbcb"/>
        <path id="Path_2072" data-name="Path 2072" d="M37.831,43.19l-.071.059-8.3,4.861.071-.059Z" transform="translate(-14.141 -4.917)" fill="#cbcbcb"/>
        <path id="Path_2073" data-name="Path 2073" d="M37.829,43.2H37.77l-8.3,4.826h0l8.359-4.861Z" transform="translate(-14.14 -4.923)" fill="#cbcbcb"/>
        <path id="Path_2074" data-name="Path 2074" d="M30.694,47.849,39.053,43c-2.063,1.186-3.2,3.676-3.213,7.019l-8.3,4.849C27.493,51.513,28.631,49.023,30.694,47.849Z" transform="translate(-14.498 -4.953)"/>
        <path id="Path_2075" data-name="Path 2075" d="M37.829,43.266c-.249.166-.51.3-.771.451l-3.913,2.276L29.47,48.127a5.133,5.133,0,0,1,.723-.486l8.359-4.861a5.135,5.135,0,0,0-.723.486Z" transform="translate(-14.14 -4.993)" fill="#cbcbcb"/>
        <path id="Path_2076" data-name="Path 2076" d="M16.612,35.771l8.359-4.861L24.959,34.8,16.6,39.648Z" transform="translate(3.082 2.3)" fill="#cbcbcb"/>
        <path id="Path_2077" data-name="Path 2077" d="M16.792,35.669l8.359-4.849-.012,4.019L16.78,39.689Z" transform="translate(3.115 2.283)" fill="#595959"/>
        <path id="Path_2078" data-name="Path 2078" d="M63.23,65.149,71.589,60.3v.249L63.23,65.4Z" transform="translate(11.739 7.756)"/>
        <path id="Path_2079" data-name="Path 2079" d="M35.2,49.181l8.359-4.861,33.234,19.2-8.359,4.849Z" transform="translate(6.535 4.79)"/>
        <path id="Path_2080" data-name="Path 2080" d="M35.38,49.081l8.359-4.861L76.546,63.167l-8.359,4.849Z" transform="translate(6.568 4.771)"/>
        <path id="Path_2081" data-name="Path 2081" d="M35.212,44.979l8.359-4.849L43.559,45.1,35.2,49.959Z" transform="translate(6.535 4.012)"/>
        <path id="Path_2082" data-name="Path 2082" d="M35.392,45.279l8.359-4.849-.012,4.494L35.38,49.785Z" transform="translate(6.568 4.067)"/>
        <path id="Path_2083" data-name="Path 2083" d="M68.2,63.467l-.012,4.494L35.38,49.025l.012-4.505Z" transform="translate(6.568 4.827)" fill="#ababab"/>
        <path id="Path_2084" data-name="Path 2084" d="M35.4,41.169l8.359-4.849-.012,4.636L35.39,45.817Z" transform="translate(6.57 3.304)"/>
        <path id="Path_2085" data-name="Path 2085" d="M35.39,45.091l8.359-4.861L76.556,59.165,68.2,64.026Z" transform="translate(6.57 4.03)"/>
        <path id="Path_2086" data-name="Path 2086" d="M63.06,57.259l8.359-4.849V56.9L63.06,61.765Z" transform="translate(11.707 6.291)" fill="#cbcbcb"/>
        <path id="Path_2087" data-name="Path 2087" d="M63.06,61.061,71.419,56.2l.213.13L63.273,61.18Z" transform="translate(11.707 6.995)"/>
        <path id="Path_2088" data-name="Path 2088" d="M68.2,63.248h0L35.592,44.42l-.2.119L68.2,63.485l8.359-4.861-.2-.119Z" transform="translate(6.57 4.808)" fill="#ababab"/>
        <path id="Path_2089" data-name="Path 2089" d="M63.252,57.249l-.012,4.4,8.145-4.743.213.13L63.24,61.885h0L71.6,57.036l.012-4.636Z" transform="translate(11.74 6.29)" fill="#595959"/>
        <path id="Path_2090" data-name="Path 2090" d="M63.275,61.141h-.012l-.2.119-.012,4.494L71.409,60.9l.012-4.494Z" transform="translate(11.705 7.034)" fill="#ababab"/>
        <path id="Path_2091" data-name="Path 2091" d="M35.21,44.979l8.359-4.849.213.119L35.423,45.11Z" transform="translate(6.537 4.012)"/>
        <path id="Path_2092" data-name="Path 2092" d="M53.518,46.281l8.3-4.861a3.759,3.759,0,0,0-1.506,3.45L51.953,49.72a3.735,3.735,0,0,1,1.565-3.438Z" transform="translate(-9.969 -5.246)"/>
        <path id="Path_2093" data-name="Path 2093" d="M79.354,58.641a11.856,11.856,0,0,1,5.383,9.319V72.6L51.93,53.626V49.014c0-3.4,2.442-4.743,5.407-3.083Z" transform="translate(-9.97 -4.54)" fill="#cbcbcb"/>
        <path id="Path_2094" data-name="Path 2094" d="M76.972,120.549l8.359-4.849-.012,3.865-8.359,4.861Z" transform="translate(14.288 18.041)"/>
        <path id="Path_2095" data-name="Path 2095" d="M93.33,128.541l8.3-4.861h.213l-8.3,4.861Z" transform="translate(-2.284 10.026)"/>
        <path id="Path_2096" data-name="Path 2096" d="M104.513,123.68l-7.375,4.292h0a5.928,5.928,0,0,1-3.628.688l4.173-2.371,3.2-1.861.972-.569a5.928,5.928,0,0,0,3.64-.688l-7.387,4.292,7.387-4.292Z" transform="translate(-2.251 9.931)" fill="#cbcbcb"/>
        <path id="Path_2097" data-name="Path 2097" d="M89.94,127.1l8.3-4.861c2.917,1.684,5.656,1.956,7.719.783l-8.3,4.861C95.584,129.069,92.845,128.785,89.94,127.1Z" transform="translate(-2.913 9.758)"/>
        <path id="Path_2098" data-name="Path 2098" d="M63.17,113.191l8.359-4.861,12.129,7.007L75.3,120.186Z" transform="translate(11.727 16.673)"/>
        <path id="Path_2099" data-name="Path 2099" d="M82.715,87.181l8.359-4.861-.095,31.609-8.359,4.861Z" transform="translate(15.338 11.844)" fill="#7fc6cb"/>
        <path id="Path_2100" data-name="Path 2100" d="M82.895,87.281l8.347-4.861-.083,31.609L82.8,118.891Z" transform="translate(15.372 11.863)"/>
        <path id="Path_2101" data-name="Path 2101" d="M104.79,124l-8.3,4.861c2.075-1.186,3.213-3.664,3.225-7.019l8.3-4.849c0,3.344-1.186,5.833-3.225,7.007l-7.375,4.292Z" transform="translate(-1.697 8.784)" fill="#7fc6cb"/>
        <path id="Path_2102" data-name="Path 2102" d="M104.91,81.31a21.982,21.982,0,0,1,3.166,10.671l-8.3,4.849A22.053,22.053,0,0,0,96.61,86.159Z" transform="translate(-1.675 2.16)" fill="#7fc6cb"/>
        <path id="Path_2103" data-name="Path 2103" d="M98.42,74.46a22.4,22.4,0,0,1,7.695,8.122l-8.3,4.849a22.171,22.171,0,0,0-7.695-8.11Z" transform="translate(-2.88 0.888)" fill="#7fc6cb"/>
        <path id="Path_2104" data-name="Path 2104" d="M76.96,123.821l8.359-4.861,8.489,4.9-8.359,4.861Z" transform="translate(14.288 18.646)"/>
        <path id="Path_2105" data-name="Path 2105" d="M99.864,121.951l8.3-4.861c0,3.415-1.186,5.928-3.284,7.114l-8.359,4.861C98.69,127.9,99.852,125.354,99.864,121.951Z" transform="translate(-1.692 8.802)"/>
        <path id="Path_2106" data-name="Path 2106" d="M103.945,123.6l-6.4,3.723-.972.569h0Z" transform="translate(-1.683 10.011)" fill="#cbcbcb"/>
        <path id="Path_2107" data-name="Path 2107" d="M112.8,131.468l-8.359,4.861a3.782,3.782,0,0,1-3.794-.368l8.3-4.861a3.747,3.747,0,0,0,3.853.368Z" transform="translate(-0.925 11.403)"/>
        <path id="Path_2108" data-name="Path 2108" d="M77.112,70.7l8.359-4.861-.012,3.889L77.1,74.59Z" transform="translate(14.314 8.785)"/>
        <path id="Path_2109" data-name="Path 2109" d="M90.07,79.109l8.359-4.849a19.255,19.255,0,0,1,4.019,3.178l.213.225-8.3,4.861-.273-.273a18.638,18.638,0,0,0-4.019-3.142Z" transform="translate(-2.889 0.851)" fill="#595959"/>
        <path id="Path_2110" data-name="Path 2110" d="M93.64,81.991l8.3-4.861c4.019,4.245,6.853,10.457,6.841,15.769l-8.3,4.861C100.5,92.389,97.624,86.224,93.64,81.991Z" transform="translate(-2.226 1.384)"/>
        <path id="Path_2111" data-name="Path 2111" d="M102.152,82.837a10.908,10.908,0,0,1,3.794,3.972,10.6,10.6,0,0,1,1.541,5.241l-.142,50.722c0,3.379-2.371,4.743-5.347,3.047l-8.477-4.909v-3.865a5.928,5.928,0,0,0,3.628-.688c2.11-1.186,3.272-3.747,3.284-7.114l.083-31.609c0-5.324-2.822-11.536-6.841-15.769V78Z" transform="translate(-2.249 1.545)" fill="#cbcbcb"/>
        <path id="Path_2112" data-name="Path 2112" d="M105.96,87.72c3.984,4.233,6.865,10.4,6.841,15.769l-.083,31.609c0,3.4-1.186,5.928-3.284,7.114a5.928,5.928,0,0,1-3.628.688h-.213a11.05,11.05,0,0,1-4.031-1.458l-12.117-7.007a39.826,39.826,0,0,1-9.888-8.383l-4.743-5.466a19.3,19.3,0,0,0-4.861-4.126,9.959,9.959,0,0,0-4.885-1.494H60.324a20.607,20.607,0,0,1-9.9-3.035l-12.117-7.007a18.472,18.472,0,0,1-4.031-3.189l-.213-.213A26.215,26.215,0,0,1,30.5,96.648a22.361,22.361,0,0,1-3.225-10.9l.083-31.621c0-3.415,1.186-5.928,3.284-7.114a5.928,5.928,0,0,1,3.628-.7h.213a11.074,11.074,0,0,1,4.019,1.458L56.293,58.067,38.508,48.025c-2.9-1.684-5.656-1.968-7.719-.783s-3.249,3.664-3.261,7.007l-.095,31.609a24,24,0,0,0,10.861,18.816l12.141,7.007a20.357,20.357,0,0,0,9.805,3.035h4.743a10.173,10.173,0,0,1,4.98,1.518,20.026,20.026,0,0,1,4.956,4.209l4.743,5.466a39.624,39.624,0,0,0,9.793,8.3l12.129,7c2.9,1.684,5.644,1.956,7.707.783s3.213-3.664,3.225-7.019l.083-31.609c0-6.9-4.849-15.342-10.861-18.8L89.527,77.441l12.212,6.806a18.639,18.639,0,0,1,4.007,3.2Z" transform="translate(-14.546 -4.345)"/>
        <path id="Path_2113" data-name="Path 2113" d="M68.232,63.522l-.012,4.494L35.413,49.081l.012-4.505.2-.119-.2-.107-.213-.13L35.2,49.2,68.434,68.384v-.249l.012-4.731h-.012Z" transform="translate(6.535 4.771)"/>
        <path id="Path_2114" data-name="Path 2114" d="M63.23,65.359l8.359-4.849L83.8,67.316l-8.359,4.849Z" transform="translate(11.739 7.795)" fill="#595959"/>
        <path id="Path_2116" data-name="Path 2116" d="M54.537,53.86l.213-.119v-4.4a2.289,2.289,0,0,1,0-.285L45.04,43.45,36.74,48.3,54.525,58.591Z" transform="translate(-12.79 -4.869)" fill="#595959"/>
        <path id="Path_2117" data-name="Path 2117" d="M33.686,47.014H33.9a11.074,11.074,0,0,1,4.019,1.458l.213.13,8.145-4.743c-2.917-1.648-5.644-1.933-7.719-.747L31.67,47.121a6.284,6.284,0,0,1,2.016-.107Zm4.233,1.731h0c-2.9-1.684-5.656-1.968-7.719-.794h0C32.263,46.777,35.014,47.062,37.919,48.745Z" transform="translate(-14.004 -5.066)" fill="#7fc6cb"/>
        <path id="Path_2118" data-name="Path 2118" d="M30.08,47.757,38.439,42.9A5.928,5.928,0,0,1,42,42.2h.213a11.05,11.05,0,0,1,4.031,1.458l-8.3,4.849a11.074,11.074,0,0,0-4.019-1.458h-.213a5.928,5.928,0,0,0-3.628.711Z" transform="translate(-14.026 -5.109)" fill="#595959"/>
        <path id="Path_2119" data-name="Path 2119" d="M35.584,43.826v4.019H35.37V43.92l-8.477-4.873c-2.94-1.7-5.335-.332-5.347,3.047L21.4,92.817a11.7,11.7,0,0,0,5.3,9.2l8.489,4.9v-3.865l.213.213v4.019l-8.691-5.015A12.188,12.188,0,0,1,21.19,92.7l.142-50.722c0-3.557,2.5-4.932,5.561-3.166Z" transform="translate(-15.677 -5.873)"/>
        <path id="Path_2120" data-name="Path 2120" d="M9.45,31.641l8.359-4.861,8.489,4.9-8.359,4.861Z" transform="translate(1.754 1.533)" fill="#cbcbcb"/>
        <path id="Path_2121" data-name="Path 2121" d="M9.45,31.441l8.359-4.861,8.7,5.027-8.359,4.849Z" transform="translate(1.754 1.496)" fill="#595959"/>
        <path id="Path_2122" data-name="Path 2122" d="M26.59,39.527l.2.119L34.949,34.9a3.747,3.747,0,0,0-3.794-.368L23.863,38.78A4.861,4.861,0,0,1,26.59,39.527Zm-.273.083.273.154Zm-.107,0-.166-.083Zm-.3-.142-.142-.059Zm-.273-.107h0Zm-.237-.13h0Zm-.249-.071h0Zm-.261-.059h0Zm-.368,0h0Zm-.237,0Zm-.119,0Zm-.225,0Zm-.213,0Zm-.225,0h0Zm-.2,0h0Zm-.2.071H23.01Zm-.19.095H22.82Z" transform="translate(-15.374 -6.589)" fill="#cbcbcb"/>
        <path id="Path_2123" data-name="Path 2123" d="M22.66,39.177l8.359-4.849a3.9,3.9,0,0,1,3.948.379l-8.3,4.861a3.936,3.936,0,0,0-4.007-.391Z" transform="translate(-15.404 -6.631)" fill="#595959"/>
        <path id="Path_2124" data-name="Path 2124" d="M59.08,104.761l8.3-4.861a10.114,10.114,0,0,1,4.968,1.529,19.623,19.623,0,0,1,4.968,4.209l-8.359,4.849A20.026,20.026,0,0,0,64,106.279,10.173,10.173,0,0,0,59.08,104.761Z" transform="translate(-8.643 5.611)"/>
        <path id="Path_2125" data-name="Path 2125" d="M50.92,101.581l8.359-4.861,4.731,5.454-8.359,4.861Z" transform="translate(9.453 14.518)"/>
        <path id="Path_2126" data-name="Path 2126" d="M35.339,43.877v3.877a5.928,5.928,0,0,0-3.628.7c-2.11,1.186-3.272,3.723-3.284,7.114l-.083,31.621A22.361,22.361,0,0,0,31.6,98.132a26.215,26.215,0,0,0,3.557,4.873v3.865l-8.489-4.9a11.7,11.7,0,0,1-5.312-9.2L21.5,42.051c0-3.379,2.371-4.743,5.347-3.047Z" transform="translate(-15.645 -5.83)" fill="#cbcbcb"/>
        <path id="Path_2127" data-name="Path 2127" d="M71.45,114.191l8.3-4.861a39.542,39.542,0,0,0,9.782,8.3l-8.3,4.861a39.624,39.624,0,0,1-9.782-8.3Z" transform="translate(-6.346 7.362)"/>
        <path id="Path_2128" data-name="Path 2128" d="M88.772,82.6l8.359-4.861-.154,50.722-8.347,4.861Z" transform="translate(16.454 10.994)" fill="#cbcbcb"/>
        <path id="Path_2129" data-name="Path 2129" d="M88.952,82.7,97.3,77.85l-.142,50.722-8.347,4.849Z" transform="translate(16.488 11.014)" fill="#595959"/>
        <path id="Path_2130" data-name="Path 2130" d="M112.209,131.945l-8.359,4.861a3.711,3.711,0,0,0,1.553-3.415l8.3-4.861A3.7,3.7,0,0,1,112.209,131.945Z" transform="translate(-0.331 10.926)" fill="#cbcbcb"/>
        <path id="Path_2131" data-name="Path 2131" d="M112.3,132.189l-8.3,4.849a3.841,3.841,0,0,0,1.612-3.557l8.3-4.861A3.889,3.889,0,0,1,112.3,132.189Z" transform="translate(-0.303 10.943)" fill="#595959"/>
        <path id="Path_2132" data-name="Path 2132" d="M63.06,57.149,71.419,52.3v.13L63.06,57.28Z" transform="translate(11.707 6.271)" fill="#cbcbcb"/>
        <path id="Path_2133" data-name="Path 2133" d="M75.06,57.3l8.3-4.861a11.856,11.856,0,0,1,5.383,9.319l-8.3,4.861A11.857,11.857,0,0,0,75.06,57.3Z" transform="translate(-5.676 -3.2)" fill="#cbcbcb"/>
        <path id="Path_2134" data-name="Path 2134" d="M75.06,57.089l8.3-4.849a12.343,12.343,0,0,1,5.584,9.485l-8.3,4.849a12.39,12.39,0,0,0-5.584-9.485Z" transform="translate(-5.676 -3.237)" fill="#595959"/>
        <path id="Path_2135" data-name="Path 2135" d="M39.96,38.581l8.359-4.861L70.324,46.43l-8.359,4.849Z" transform="translate(7.419 2.822)" fill="#cbcbcb"/>
        <path id="Path_2136" data-name="Path 2136" d="M39.96,38.371l8.359-4.861L70.324,46.22l-8.359,4.861Z" transform="translate(7.419 2.783)" fill="#595959"/>
        <path id="Path_2137" data-name="Path 2137" d="M53.27,46.337l8.3-4.861a3.806,3.806,0,0,1,3.842.368l-8.3,4.849a3.782,3.782,0,0,0-3.842-.356Z" transform="translate(-9.721 -5.302)" fill="#cbcbcb"/>
        <path id="Path_2138" data-name="Path 2138" d="M53.14,46.119l8.3-4.861a3.96,3.96,0,0,1,3.984.379l-8.3,4.861a3.96,3.96,0,0,0-3.984-.379Z" transform="translate(-9.745 -5.344)" fill="#595959"/>
        <path id="Path_2139" data-name="Path 2139" d="M63.242,61.159,71.6,56.31l-.012,4.731L63.23,65.89Z" transform="translate(11.739 7.016)" fill="#595959"/>
        <path id="Path_2140" data-name="Path 2140" d="M63.24,57.141,71.6,52.28l.012.142-8.359,4.849Z" transform="translate(11.74 6.267)"/>
        <path id="Path_2141" data-name="Path 2141" d="M79.386,58.437a12.39,12.39,0,0,1,5.6,9.485v4.743l-.213-.119V68.006A11.856,11.856,0,0,0,79.4,58.686L57.38,45.976c-2.964-1.7-5.395-.32-5.407,3.083v4.636l-.213-.119v4.98l33.2,19.184L51.76,58.556V48.94c0-3.557,2.537-4.968,5.62-3.2Z" transform="translate(-10.001 -4.585)"/>
        <path id="Path_2142" data-name="Path 2142" d="M101.7,84.515c6.011,3.474,10.884,11.856,10.861,18.8l-.083,31.609c0,3.355-1.186,5.833-3.225,7.019s-4.743.9-7.707-.783l-12.129-7a39.624,39.624,0,0,1-9.793-8.3L74.885,120.4a20.025,20.025,0,0,0-4.956-4.209,10.173,10.173,0,0,0-4.98-1.518H60.207a20.357,20.357,0,0,1-9.805-3.012l-12.129-7a22.16,22.16,0,0,1-7.695-8.122A22.041,22.041,0,0,1,27.4,85.878l.107-31.669c0-3.344,1.186-5.833,3.213-7.007s4.814-.9,7.719.783Z" transform="translate(-14.524 -4.305)" fill="#4fcdc4"/>
        <path id="Path_2143" data-name="Path 2143" d="M100.8,82.841l8.3-4.861a10.991,10.991,0,0,1,3.794,3.972,10.8,10.8,0,0,1,1.541,5.241l-8.3,4.861a10.6,10.6,0,0,0-1.541-5.241A10.908,10.908,0,0,0,100.8,82.841Z" transform="translate(-0.897 1.541)" fill="#cbcbcb"/>
        <path id="Path_2144" data-name="Path 2144" d="M100.8,82.639l8.3-4.849a11.287,11.287,0,0,1,3.924,4.126,11.169,11.169,0,0,1,1.6,5.442l-8.3,4.909a11.039,11.039,0,0,0-1.6-5.442A11.276,11.276,0,0,0,100.8,82.639Z" transform="translate(-0.897 1.506)" fill="#595959"/>
        <path id="Path_2145" data-name="Path 2145" d="M102.189,82.665a11.276,11.276,0,0,1,3.924,4.126,11.038,11.038,0,0,1,1.6,5.5l-.142,50.722c0,3.557-2.5,4.932-5.561,3.166l-8.691-5.015v-4.019h.213v3.865l8.477,4.909c2.94,1.7,5.347.332,5.347-3.047L107.5,92.15a10.6,10.6,0,0,0-1.541-5.241,10.908,10.908,0,0,0-3.77-3.972l-8.477-4.873v3.889l-.225-.332V77.65Z" transform="translate(-2.286 1.48)"/>
        <path id="Path_2146" data-name="Path 2146" d="M77.11,70.7l8.359-4.861,8.477,4.909L85.6,75.6Z" transform="translate(14.315 8.785)" fill="#cbcbcb"/>
        <path id="Path_2147" data-name="Path 2147" d="M76.93,70.4l8.359-4.861,8.7,5.027-8.359,4.849Z" transform="translate(14.282 8.729)" fill="#595959"/>
      </g>
    </g>
  </g>
</svg>
