<svg xmlns="http://www.w3.org/2000/svg" width="213.14" height="322.507" viewBox="0 0 213.14 322.507"><g transform="translate(0.5 0.433)"><g transform="translate(0 181.146)"><path d="M584.028,892.916l12.7-7.385a10.037,10.037,0,0,0,4.594,7.962l-12.608,7.366a9.36,9.36,0,0,1-3.261-3.424A9.5,9.5,0,0,1,584.028,892.916Z" transform="translate(-583.705 -870.005)" stroke="#000" stroke-linejoin="bevel" stroke-width="1"/><path d="M584.059,888.4l12.7-7.385-.034,11.852-12.695,7.38Z" transform="translate(-583.705 -877.336)" stroke="#000" stroke-linejoin="bevel" stroke-width="1"/><path d="M585.356,887.22l12.7-7.312a3.189,3.189,0,0,0-1.351,2.954l-12.608,7.385A3.249,3.249,0,0,1,585.356,887.22Z" transform="translate(-583.646 -879.133)" stroke="#000" stroke-linejoin="bevel" stroke-width="1"/><path d="M584.467,887.321l12.7-7.385a3.441,3.441,0,0,1,3.494.343l-12.608,7.367a3.476,3.476,0,0,0-3.584-.323Z" transform="translate(-582.993 -879.613)" stroke="#000" stroke-linejoin="bevel" stroke-width="1"/><path d="M585.772,895.933l12.7-7.366L786.314,997.014l-12.7,7.366Z" transform="translate(-580.874 -865.078)" stroke="#000" stroke-linejoin="bevel" stroke-width="1"/><path d="M673.286,930.217,660.678,937.6a3.215,3.215,0,0,1-3.261-.323l12.608-7.367a3.3,3.3,0,0,0,3.261.307Z" transform="translate(-464.567 -797.958)" stroke="#000" stroke-linejoin="bevel" stroke-width="1"/><path d="M671.357,932.118,658.749,939.5a3.478,3.478,0,0,0,1.44-3.154l12.608-7.385A3.422,3.422,0,0,1,671.357,932.118Z" transform="translate(-462.405 -799.497)" stroke="#000" stroke-linejoin="bevel" stroke-width="1"/><path d="M659.17,931.756l12.7-7.385-.034,11.871-12.7,7.385Z" transform="translate(-461.782 -806.953)" fill="#39474d" stroke="#000" stroke-linejoin="bevel" stroke-width="1"/><path d="M659.294,931.814l12.7-7.366-.034,11.85-12.7,7.385Z" transform="translate(-461.58 -806.83)" fill="#acb6c3" stroke="#000" stroke-linejoin="bevel" stroke-width="1"/><path d="M672.619,928.9a3.258,3.258,0,0,1-1.351,2.954l-12.608,7.385a3.278,3.278,0,0,0,1.351-2.954Z" transform="translate(-462.55 -799.607)" fill="#acb6c3" stroke="#000" stroke-linejoin="bevel" stroke-width="1"/><path d="M657.417,928.71l12.7-7.367a10.1,10.1,0,0,1,4.594,7.944L662.1,936.671A10.161,10.161,0,0,0,657.417,928.71Z" transform="translate(-464.567 -811.869)" fill="#39474d" stroke="#000" stroke-linejoin="bevel" stroke-width="1"/><path d="M776.758,991.541a10.809,10.809,0,0,1,4.861,8.573v11.871c0,3.117-2.232,4.376-4.953,2.81L588.821,906.268a10.805,10.805,0,0,1-4.916-8.5V885.914c0-3.114,2.232-4.394,4.934-2.826Zm4.572,20.192V999.862a10.162,10.162,0,0,0-4.609-7.962L588.874,883.471c-2.539-1.477-4.594-.288-4.612,2.647v11.85a9.553,9.553,0,0,0,1.333,4.523,9.354,9.354,0,0,0,3.261,3.421l187.9,108.453c2.539,1.459,4.591.288,4.612-2.629" transform="translate(-583.905 -875.06)" stroke="#000" stroke-linejoin="bevel" stroke-width="1"/><path d="M657.417,928.584l12.7-7.385a10.807,10.807,0,0,1,4.919,8.521l-12.752,7.437A10.8,10.8,0,0,0,657.417,928.584Z" transform="translate(-464.567 -812.103)" fill="#acb6c3" stroke="#000" stroke-linejoin="bevel" stroke-width="1"/><path d="M585.8,887.389,598.5,880,786.325,988.452l-12.7,7.366Z" transform="translate(-580.83 -878.977)" fill="#39474d" stroke="#000" stroke-linejoin="bevel" stroke-width="1"/><path d="M585.8,887.233l12.7-7.366L786.325,988.3l-12.7,7.385Z" transform="translate(-580.83 -879.201)" fill="#acb6c3" stroke="#000" stroke-linejoin="bevel" stroke-width="1"/><path d="M587.838,887.369l.323.2,12.374-7.2a3.207,3.207,0,0,0-3.261-.3L585.8,886.705a4.649,4.649,0,0,1,2.036.666Zm0,.378h0l-.233-.126Zm-.252-.142-.218-.11Zm-.254-.126-.415-.163Zm-.483-.181-.252.073-1.962.089h0Z" transform="translate(-582.869 -879.393)" fill="#595959" stroke="#000" stroke-linejoin="bevel" stroke-width="1"/><path d="M776.557,991.641a10.159,10.159,0,0,1,4.612,7.962v11.871c0,2.917-2.07,4.087-4.612,2.629L588.621,905.655a9.364,9.364,0,0,1-3.261-3.424,9.545,9.545,0,0,1-1.333-4.52V885.859c0-2.935,2.07-4.124,4.612-2.647Z" transform="translate(-583.707 -874.8)" fill="#acb6c3" stroke="#000" stroke-linejoin="bevel" stroke-width="1"/></g><path d="M601.288,888.194l12.681-7.385-.037,17.9-12.7,7.353Z" transform="translate(-555.775 -696.525)" stroke="#000" stroke-linejoin="bevel" stroke-width="1"/><path d="M623.758,886.355a12.785,12.785,0,0,0,1.028.966l-12.608,7.385c-.359-.307-.7-.632-1.044-.965Z" transform="translate(-539.702 -687.522)" stroke="#000" stroke-linejoin="bevel" stroke-width="1"/><path d="M628.745,904l12.681-7.385v.362l-12.681,7.382Z" transform="translate(-511.113 -670.859)" stroke="#000" stroke-linejoin="bevel" stroke-width="1"/><path d="M629.541,904.457l12.7-7.385,9.822,5.674-12.7,7.385Z" transform="translate(-509.821 -670.124)" stroke="#000" stroke-linejoin="bevel" stroke-width="1"/><path d="M642.2,897.285a3.939,3.939,0,0,0,2.791-.344l-12.608,7.366a3.9,3.9,0,0,1-2.81.344C633.315,902.453,637.783,897.969,642.2,897.285Z" transform="translate(-509.775 -670.337)" fill="#fe6b6b" stroke="#000" stroke-linejoin="bevel" stroke-width="1"/><path d="M628.745,904l12.7-7.385a4.649,4.649,0,0,0,4.67.469l-12.605,7.385a4.758,4.758,0,0,1-4.756-.47Z" transform="translate(-511.113 -670.859)" stroke="#000" stroke-linejoin="bevel" stroke-width="1"/><path d="M631.32,894.9l12.7-7.385-.073,20.1L631.265,915Z" transform="translate(-507.022 -685.639)" fill="#ff6b6b" stroke="#000" stroke-linejoin="bevel" stroke-width="1"/><path d="M631.443,894.957l12.681-7.366-.055,20.1-12.681,7.366Z" transform="translate(-506.822 -685.517)" stroke="#000" stroke-linejoin="bevel" stroke-width="1"/><path d="M632.47,902.562l12.608-7.385a4.649,4.649,0,0,1-1.947,4.252l-12.608,7.385A4.631,4.631,0,0,0,632.47,902.562Z" transform="translate(-508.227 -673.2)" fill="#ff6b6b" stroke="#000" stroke-linejoin="bevel" stroke-width="1"/><path d="M632.6,902.62l12.608-7.366a4.848,4.848,0,0,1-1.962,4.449l-12.608,7.366A4.835,4.835,0,0,0,632.6,902.62Z" transform="translate(-508.036 -673.077)" stroke="#000" stroke-linejoin="bevel" stroke-width="1"/><path d="M633.284,906.746l12.7-7.367h.1l-12.608,7.385Z" transform="translate(-503.744 -666.379)" stroke="#000" stroke-linejoin="bevel" stroke-width="1"/><path d="M645.978,899.386a12.464,12.464,0,0,0,1.529.685l-12.7,7.367a9.372,9.372,0,0,1-1.514-.685l12.608-7.348L633.3,906.752h0l12.608-7.366L633.3,906.752h0Z" transform="translate(-503.723 -666.367)" fill="#f9d48a" stroke="#000" stroke-linejoin="bevel" stroke-width="1"/><path d="M601.233,895l12.7-7.369,112.446,64.915-12.7,7.385Z" transform="translate(-555.775 -685.451)" stroke="#000" stroke-linejoin="bevel" stroke-width="1"/><path d="M644.15,912.943l12.7-7.385-.055,17.886-12.7,7.385Z" transform="translate(-486.194 -656.348)" fill="#f9d48a" stroke="#000" stroke-linejoin="bevel" stroke-width="1"/><path d="M714.266,948.7v18.623L601.117,902.032V883.409l26.152,15.113c.344.341.685.666,1.044.965l-26.837-15.525v17.886l112.467,64.842V948.81l-26.89-15.525a5.683,5.683,0,0,0,1.044.233Z" transform="translate(-555.964 -692.304)" stroke="#000" stroke-linejoin="bevel" stroke-width="1"/><path d="M633.874,907.014l12.7-7.367,26.874,15.507-12.7,7.385Z" transform="translate(-502.786 -665.944)" fill="#f9d48a" stroke="#000" stroke-linejoin="bevel" stroke-width="1"/><path d="M646.516,899.647a5.7,5.7,0,0,0,1.047.215l-12.608,7.385a5.74,5.74,0,0,1-1.047-.234Z" transform="translate(-502.731 -665.944)" stroke="#000" stroke-linejoin="bevel" stroke-width="1"/><path d="M634.265,907.114l12.7-7.385,26.171,15.113-12.7,7.366Z" transform="translate(-502.152 -665.811)" fill="#f9d48a" stroke="#000" stroke-linejoin="bevel" stroke-width="1"/><path d="M633.284,906.62l12.7-7.385a4.625,4.625,0,0,0,4.67.483L638.043,907.1a4.722,4.722,0,0,1-4.756-.483Z" transform="translate(-503.744 -666.613)" stroke="#000" stroke-linejoin="bevel" stroke-width="1"/><path d="M633.613,896.235l12.7-7.367.543.3-12.7,7.366Z" transform="translate(-503.21 -683.442)" fill="#fe6b6b" stroke="#000" stroke-linejoin="bevel" stroke-width="1"/><path d="M633.819,896.365l12.7-7.385a4.073,4.073,0,0,0,3.817.144l-12.608,7.382A4.12,4.12,0,0,1,633.819,896.365Z" transform="translate(-502.876 -683.261)" fill="#fe6b6b" stroke="#000" stroke-linejoin="bevel" stroke-width="1"/><path d="M633.414,895.981l12.7-7.366.522.286-12.679,7.385Z" transform="translate(-503.533 -683.855)" stroke="#000" stroke-linejoin="bevel" stroke-width="1"/><path d="M631.409,894.957l12.681-7.366,5.8,3.353-12.7,7.366Z" transform="translate(-506.788 -685.517)" fill="#fe6b6b" stroke="#000" stroke-linejoin="bevel" stroke-width="1"/><path d="M633.62,896.108l12.608-7.385a4.1,4.1,0,0,0,4.124.415l-12.7,7.385A4.1,4.1,0,0,1,633.62,896.108Z" transform="translate(-503.199 -683.678)" stroke="#000" stroke-linejoin="bevel" stroke-width="1"/><path d="M631.285,894.9l12.7-7.385.3.2-12.679,7.366Z" transform="translate(-506.99 -685.639)" stroke="#000" stroke-linejoin="bevel" stroke-width="1"/><path d="M627.674,892.8l12.7-7.366,9.476,5.457-12.7,7.385Z" transform="translate(-512.852 -689.015)" fill="#ff6b6b" stroke="#000" stroke-linejoin="bevel" stroke-width="1"/><path d="M627.674,892.664l12.7-7.366,15.061,8.7-12.7,7.372Z" transform="translate(-512.852 -689.239)" stroke="#000" stroke-linejoin="bevel" stroke-width="1"/><path d="M649.584,890.983a4.055,4.055,0,0,1-1.692,3.73l-12.7,7.385a4.05,4.05,0,0,0,1.692-3.749,11.594,11.594,0,0,0-1.674-5.69h0l12.608-7.369h0a11.671,11.671,0,0,1,1.771,5.693Z" transform="translate(-500.647 -689.251)" fill="#fe6b6b" stroke="#000" stroke-linejoin="bevel" stroke-width="1"/><path d="M635.877,895.717l12.7-7.385-.073,24.857-12.7,7.366Z" transform="translate(-499.655 -684.312)" fill="#fe6b6b" stroke="#000" stroke-linejoin="bevel" stroke-width="1"/><path d="M648.292,887.9a3.6,3.6,0,0,1-1.64,2.917l-10.7,6.215v24.749L648.56,914.4V887.687Z" transform="translate(-499.413 -685.359)" fill="#ff6b6b" stroke="#000" stroke-linejoin="bevel" stroke-width="1"/><path d="M637.006,905.174l12.608-7.366a4.568,4.568,0,0,1-1.944,4.231l-12.608,7.385A4.607,4.607,0,0,0,637.006,905.174Z" transform="translate(-500.858 -668.931)" fill="#fe6b6b" stroke="#000" stroke-linejoin="bevel" stroke-width="1"/><path d="M674.624,922.3l-.32.181.018-6.742-5.782-3.35-5.819,3.381v-.38l-.32.2.016-6.737-37.632-21.711-12.7,7.367,55.621,32.115,6.923-4.016Z" transform="translate(-538.153 -686.241)" fill="#f9d48a" stroke="#000" stroke-linejoin="bevel" stroke-width="1"/><path d="M662.407,908.729l-37.622-21.721-12.7,7.366,43.7,25.234,6.608-3.854Z" transform="translate(-538.153 -686.463)" stroke="#000" stroke-linejoin="bevel" stroke-width="1"/><path d="M625.657,887.806l-12.608,7.385a10.977,10.977,0,0,1-1.529-1.081l12.608-7.385A11.978,11.978,0,0,0,625.657,887.806Z" transform="translate(-539.077 -686.921)" fill="#f9d48a" stroke="#000" stroke-linejoin="bevel" stroke-width="1"/><path d="M609.589,890.048l12.608-7.385a13.138,13.138,0,0,0,1.91,6.485,13.52,13.52,0,0,0,4.683,4.919l-12.608,7.366a13.6,13.6,0,0,1-4.646-4.9A13.136,13.136,0,0,1,609.589,890.048Z" transform="translate(-542.21 -693.515)" stroke="#000" stroke-linejoin="bevel" stroke-width="1"/><path d="M601.254,888.194l12.681-7.385,26.89,15.525-12.7,7.385Z" transform="translate(-555.741 -696.525)" fill="#f9d48a" stroke="#000" stroke-linejoin="bevel" stroke-width="1"/><path d="M601.13,887.986l12.7-7.382L640,895.7l-12.7,7.385Z" transform="translate(-555.943 -696.858)" fill="#f9d48a" stroke="#000" stroke-linejoin="bevel" stroke-width="1"/><path d="M624.71,887.137h0L612.1,894.522h0Z" transform="translate(-538.131 -686.252)" fill="#f9d48a" stroke="#000" stroke-linejoin="bevel" stroke-width="1"/><path d="M609.637,882.738l12.7-7.382-.055,19.161-12.7,7.388Z" transform="translate(-542.222 -705.377)" stroke="#000" stroke-linejoin="bevel" stroke-width="1"/><path d="M611.61,881.116l12.6-7.367a4.575,4.575,0,0,0-1.933,4.216l-12.7,7.382a4.627,4.627,0,0,1,2.017-4.231Z" transform="translate(-542.25 -707.986)" stroke="#000" stroke-linejoin="bevel" stroke-width="1"/><path d="M610.255,881.247l12.608-7.366a4.847,4.847,0,0,1,4.919.483L615.1,881.73A4.919,4.919,0,0,0,610.255,881.247Z" transform="translate(-541.129 -708.513)" fill="#ff6b6b" stroke="#000" stroke-linejoin="bevel" stroke-width="1"/><path d="M634.91,879.626c0,.181.2.36.307.54l-12.626,7.406a5.208,5.208,0,0,1-.307-.559Z" transform="translate(-521.602 -698.446)" stroke="#000" stroke-linejoin="bevel" stroke-width="1"/><path d="M636.179,881.776l-12.608,7.385c-.414-.63-.792-1.259-1.17-1.91l12.7-7.385C635.405,880.425,635.783,881.054,636.179,881.776Z" transform="translate(-521.412 -698.056)" fill="#ff6b6b" stroke="#000" stroke-linejoin="bevel" stroke-width="1"/><path d="M635.5,880.594a46.957,46.957,0,0,0,4.935,6.4l-3.872,2.232-3.313,1.933-5.512,3.206a44.185,44.185,0,0,1-4.916-6.378Z" transform="translate(-520.731 -696.874)" fill="#ff6b6b" stroke="#000" stroke-linejoin="bevel" stroke-width="1"/><path d="M637.4,883a35.679,35.679,0,0,0,5.567,4.937l-3.857,2.253-1.655.955-7.2,4.187a34.921,34.921,0,0,1-5.567-4.953Z" transform="translate(-517.7 -692.973)" fill="#ff6b6b" stroke="#000" stroke-linejoin="bevel" stroke-width="1"/><path d="M637.587,886.723l-10.213,5.942-.559-.378,3.061-1.8L634,888.069l5.512-3.206a4.712,4.712,0,0,0,.541.378Z" transform="translate(-514.246 -689.944)" fill="#ff6b6b" stroke="#000" stroke-linejoin="bevel" stroke-width="1"/><path d="M639.594,885.023a19.321,19.321,0,0,0,1.8,1.081l-12.608,7.366c-.577-.323-1.128-.685-1.692-1.062Z" transform="translate(-513.79 -689.684)" fill="#ff6b6b" stroke="#000" stroke-linejoin="bevel" stroke-width="1"/><path d="M620.342,879.894l12.608-7.367c0,12.283,8.662,27.3,19.345,33.5l-12.608,7.366C628.9,907.216,620.216,892.194,620.342,879.894Z" transform="translate(-524.757 -709.97)" stroke="#000" stroke-linejoin="bevel" stroke-width="1"/><path d="M641.615,881.419l-12.608,7.366a14.15,14.15,0,0,1-2.487-2.109l3.043-1.8,1.64-.955,1.658-.955,6.267-3.744A15.14,15.14,0,0,0,641.615,881.419Z" transform="translate(-514.725 -699.103)" fill="#fe6b6b" stroke="#000" stroke-linejoin="bevel" stroke-width="1"/><path d="M637.394,875.369a17.656,17.656,0,0,0,4.612,10.105L629.4,892.859a17.623,17.623,0,0,1-4.649-10.179Z" transform="translate(-517.6 -705.356)" fill="#fe6b6b" stroke="#000" stroke-linejoin="bevel" stroke-width="1"/><path d="M637.371,875.456l-12.608,7.385V882.7l12.608-7.385Z" transform="translate(-517.577 -705.441)" fill="#fe6b6b" stroke="#000" stroke-linejoin="bevel" stroke-width="1"/><path d="M646.287,883.642a11.9,11.9,0,0,1,4.087,4.323l-12.608,7.369a12.005,12.005,0,0,0-4.106-4.3Z" transform="translate(-503.132 -691.926)" fill="#fe6b6b" stroke="#000" stroke-linejoin="bevel" stroke-width="1"/><path d="M633.633,890.871l12.608-7.366a12.6,12.6,0,0,1,4.323,4.538l-12.608,7.385A12.613,12.613,0,0,0,633.633,890.871Z" transform="translate(-503.178 -692.148)" fill="#9c4c4c" stroke="#000" stroke-linejoin="bevel" stroke-width="1"/><path d="M627.688,887.583l12.7-7.366,15.58,8.988-12.682,7.385Z" transform="translate(-512.829 -697.488)" fill="#ff6b6b" stroke="#000" stroke-linejoin="bevel" stroke-width="1"/><path d="M627.688,887.457l12.7-7.385,15.58,9.006-12.682,7.366Z" transform="translate(-512.829 -697.721)" fill="#ff6b6b" stroke="#000" stroke-linejoin="bevel" stroke-width="1"/><path d="M640.063,880.059l.666.412-12.608,7.366-.645-.412Z" transform="translate(-513.173 -697.742)" fill="#fe6b6b" stroke="#000" stroke-linejoin="bevel" stroke-width="1"/><path d="M620.355,873.6l12.7-7.385-.047,16.553L620.3,890.137Z" transform="translate(-524.822 -720.213)" stroke="#000" stroke-linejoin="bevel" stroke-width="1"/><path d="M624.756,876.138l12.7-7.366-.037,16.535-12.7,7.385Z" transform="translate(-517.644 -716.067)" fill="#fe6b6b" stroke="#000" stroke-linejoin="bevel" stroke-width="1"/><path d="M624.882,876.207l12.7-7.366-.06,16.535-12.674,7.385Z" transform="translate(-517.444 -715.955)" fill="#ff6b6b" stroke="#000" stroke-linejoin="bevel" stroke-width="1"/><path d="M637.364,875.1v.63l-12.608,7.385v-.632Z" transform="translate(-517.589 -705.79)" fill="#fe6b6b" stroke="#000" stroke-linejoin="bevel" stroke-width="1"/><path d="M621.924,872.209l12.771-7.406a4.034,4.034,0,0,0-1.692,3.6l-12.608,7.385a4.072,4.072,0,0,1,1.532-3.586Z" transform="translate(-524.699 -722.509)" stroke="#000" stroke-linejoin="bevel" stroke-width="1"/><path d="M633.625,865.04a4.072,4.072,0,0,1,4.124.4L625.143,872.8h0l12.605-7.348L625.143,872.8a4.08,4.08,0,0,0-4.108-.4Z" transform="translate(-523.629 -722.748)" fill="#fe6b6b" stroke="#000" stroke-linejoin="bevel" stroke-width="1"/><path d="M620.884,872.275l12.608-7.366a4.342,4.342,0,0,1,4.357.412l-12.6,7.385A4.3,4.3,0,0,0,620.884,872.275Z" transform="translate(-523.874 -722.992)" fill="#9c4c4c" stroke="#000" stroke-linejoin="bevel" stroke-width="1"/><path d="M635.19,864.961a12.787,12.787,0,0,1,5.766,10l-12.608,7.366a12.862,12.862,0,0,0-5.782-10l12.605-7.351Z" transform="translate(-521.144 -722.252)" fill="#fe6b6b" stroke="#000" stroke-linejoin="bevel" stroke-width="1"/><path d="M655.786,917.357l-.307.178h0a12.09,12.09,0,0,1,4.09,4.305,11.6,11.6,0,0,1,1.674,5.693,4.05,4.05,0,0,1-1.692,3.746,4.11,4.11,0,0,1-4.127-.414l-.54-.3-15.058-8.7c-10.68-6.178-19.363-21.2-19.321-33.5v-16.54c0-3.6,2.628-5.152,5.835-3.3a12.825,12.825,0,0,1,5.763,9.984v16.553a17.147,17.147,0,0,0,7.784,13.466l.323-.178-.323-.181a16.5,16.5,0,0,1-7.461-12.931V878.7a13.528,13.528,0,0,0-6.107-10.557c-3.369-1.944-6.118-.378-6.141,3.476v16.554a39.449,39.449,0,0,0,5.4,18.8,5.792,5.792,0,0,0,.43.577,40.387,40.387,0,0,0,13.907,14.681l9.476,5.4.32.181,5.8,3.35.483.273a4.108,4.108,0,0,0,3.856.179,3.3,3.3,0,0,0,1.458-1.8,5.383,5.383,0,0,0,.32-1.692,2.7,2.7,0,0,0,0-.412,12.345,12.345,0,0,0-1.8-6.015A12.75,12.75,0,0,0,655.786,917.357Z" transform="translate(-525.024 -718.435)" stroke="#000" stroke-linejoin="bevel" stroke-width="1"/><path d="M643.192,892.823A40.342,40.342,0,0,0,657.1,907.5l9.473,5.4v20.1a4.624,4.624,0,0,1-1.944,4.25,4.719,4.719,0,0,1-4.67-.483l-43.784-25.15a13.689,13.689,0,0,1-4.67-4.916,13.136,13.136,0,0,1-1.91-6.485V881.063c0-4.187,2.991-5.871,6.611-3.765Z" transform="translate(-542.202 -703.699)" fill="#ff6b6b" stroke="#000" stroke-linejoin="bevel" stroke-width="1"/><path d="M611.705,906.969a13.1,13.1,0,0,1-1.91-6.485V881.31c0-4.184,2.991-5.871,6.608-3.765l27,15.528a5.772,5.772,0,0,1-.3-.559l-26.711-15.339c-3.8-2.2-6.926-.43-6.926,3.964v19.182a13.616,13.616,0,0,0,2,6.771,16.125,16.125,0,0,0,2.288,3.082c.344.341.685.667,1.044.965a11.635,11.635,0,0,0,1.551,1.1l43.676,25.216v-.359l-43.635-25.234A13.583,13.583,0,0,1,611.705,906.969Z" transform="translate(-542.417 -703.957)" stroke="#000" stroke-linejoin="bevel" stroke-width="1"/><path d="M639.12,896.821a5.728,5.728,0,0,1-.307-.559,40.715,40.715,0,0,1-5.4-17.453l-8.447-4.882L612.1,881.294Z" transform="translate(-538.131 -707.697)" fill="#ff6b6b" stroke="#000" stroke-linejoin="bevel" stroke-width="1"/><path d="M624.873,873.783,612.1,881.149l26.57,15.329a40.378,40.378,0,0,1-5.4-17.831Z" transform="translate(-538.131 -707.931)" fill="#ff6b6b" stroke="#000" stroke-linejoin="bevel" stroke-width="1"/><path d="M614.317,880.487m-.344-.16-.344-.126-.344,0h0Zm-.535.323.307,0,.32,0,.307.11.344.108.323.144Zm.323.144.3.16Zm.666.359h0l-.323-.2Zm-4.667-.467h0Zm.215-.123h0Zm.252,0h0Zm.254,0h0Zm.252,0,4.019.7,12.375-7.2-.323-.181-12.374,7.2Z" transform="translate(-540.975 -707.627)" fill="#ff6b6b" stroke="#000" stroke-linejoin="bevel" stroke-width="1"/><path d="M633.3,902.194" transform="translate(-503.723 -661.809)" stroke="#000" stroke-linejoin="bevel" stroke-width="1"/><path d="M637.2,905.254l12.608-7.385a7.328,7.328,0,0,1-.16,1.621,1.771,1.771,0,0,1,0,.233,3.982,3.982,0,0,1-1.8,2.595l-12.7,7.385a4.035,4.035,0,0,0,1.8-2.613,1.486,1.486,0,0,0,0-.215A7.223,7.223,0,0,0,637.2,905.254Z" transform="translate(-500.725 -668.83)" fill="#9c4c4c" stroke="#000" stroke-linejoin="bevel" stroke-width="1"/><path d="M648.507,898.486h0L635.9,905.871h0Z" transform="translate(-499.499 -667.828)" stroke="#000" stroke-linejoin="bevel" stroke-width="1"/><path d="M635.865,902.271a7.148,7.148,0,0,0,.16-1.566A7.148,7.148,0,0,1,635.865,902.271Z" transform="translate(-499.554 -664.228)" stroke="#000" stroke-linejoin="bevel" stroke-width="1"/><path d="M648.67,897.889a6.994,6.994,0,0,1-.163,1.566L635.9,906.822a6.829,6.829,0,0,0,.163-1.548Z" transform="translate(-499.499 -668.798)" fill="#9c4c4c" stroke="#000" stroke-linejoin="bevel" stroke-width="1"/><path d="M624.845,882.528l12.608-7.385a16.447,16.447,0,0,0,7.458,12.933L632.3,895.459A16.49,16.49,0,0,1,624.845,882.528Z" transform="translate(-517.444 -705.723)" fill="#ff6b6b" stroke="#000" stroke-linejoin="bevel" stroke-width="1"/><path d="M635.281,892.62l12.608-7.385a12.421,12.421,0,0,1,1.8,6.016,2.729,2.729,0,0,1,0,.414,5.826,5.826,0,0,1-.323,1.692,3.358,3.358,0,0,1-1.459,1.8L635.3,902.544a3.286,3.286,0,0,0,1.458-1.8,5.331,5.331,0,0,0,.323-1.692,3.665,3.665,0,0,0,0-.414A12.322,12.322,0,0,0,635.281,892.62Z" transform="translate(-500.502 -689.34)" fill="#ff6b6b" stroke="#000" stroke-linejoin="bevel" stroke-width="1"/><path d="M647.568,890.646v26.711a7.332,7.332,0,0,1-.16,1.621,1.506,1.506,0,0,1,0,.215,4.036,4.036,0,0,1-1.8,2.613,3.808,3.808,0,0,1-2.306.43,5.711,5.711,0,0,1-1.044-.234,9.07,9.07,0,0,1-.992-.4h-.144l-.142-.089h-.27L628.8,914.656v-.362a4.752,4.752,0,0,0,4.67.469,4.63,4.63,0,0,0,1.946-4.252v-20.1l.323.178V910.7a4.837,4.837,0,0,1-2.109,4.234,3.916,3.916,0,0,1-2.809.344l9.822,5.675a4.72,4.72,0,0,0,4.67.482,4.615,4.615,0,0,0,1.947-4.252V892.344A5.363,5.363,0,0,0,647.568,890.646Z" transform="translate(-511.024 -680.934)" stroke="#000" stroke-linejoin="bevel" stroke-width="1"/><path d="M713.721,948.5v17.886L601.254,901.543V883.657l26.89,15.381a10.908,10.908,0,0,0,1.532,1.081l55.639,32.115a9.348,9.348,0,0,0,1.514.685Z" transform="translate(-555.741 -691.902)" fill="#f9d48a" stroke="#000" stroke-linejoin="bevel" stroke-width="1"/><path d="M644.274,912.857l12.7-7.366-.055,18.623-12.7,7.364Z" transform="translate(-485.989 -656.459)" fill="#f9d48a" stroke="#000" stroke-linejoin="bevel" stroke-width="1"/><path d="M646.039,892.363V917.2a4.612,4.612,0,0,1-1.944,4.25,4.72,4.72,0,0,1-4.67-.483l-9.885-5.68a3.9,3.9,0,0,0,2.81-.344,4.832,4.832,0,0,0,2.036-4.449V890.4l5.8,3.353.522.3a4.119,4.119,0,0,0,3.817.144A3.3,3.3,0,0,0,646.039,892.363Z" transform="translate(-509.821 -680.958)" fill="#fe6b6b" stroke="#000" stroke-linejoin="bevel" stroke-width="1"/><path d="M626.129,868.256a12.863,12.863,0,0,1,5.782,10V894.8a17.141,17.141,0,0,0,7.778,13.471l15.6,9.006a11.98,11.98,0,0,1,4.106,4.305,11.634,11.634,0,0,1,1.676,5.693,4.056,4.056,0,0,1-1.692,3.746,4.108,4.108,0,0,1-4.126-.414l-.54-.3-15.058-8.7c-10.682-6.178-19.363-21.2-19.324-33.5V871.57C620.36,867.913,622.936,866.417,626.129,868.256Z" transform="translate(-524.777 -718.181)" fill="#fe6b6b" stroke="#000" stroke-linejoin="bevel" stroke-width="1"/><path d="M622.538,872.2l12.608-7.385a13.517,13.517,0,0,1,6.089,10.556l-12.608,7.385A13.532,13.532,0,0,0,622.538,872.2Z" transform="translate(-521.189 -722.488)" fill="#ff6b6b" stroke="#000" stroke-linejoin="bevel" stroke-width="1"/><g transform="translate(1.655 25.578)"><path d="M584.689,827.893l12.7-7.382-.034,12.86-12.7,7.385Z" transform="translate(-584.348 -819.989)" stroke="#000" stroke-linejoin="bevel" stroke-width="1"/><path d="M584.652,832.8l12.7-7.385,80.5,46.486-12.7,7.369Z" transform="translate(-584.348 -812.031)" stroke="#000" stroke-linejoin="bevel" stroke-width="1"/><path d="M615.336,850.5l12.7-7.366v.359l-12.7,7.385Z" transform="translate(-534.536 -783.264)" stroke="#000" stroke-linejoin="bevel" stroke-width="1"/><path d="M584.652,836.186l.037-12.86,80.49,46.47-.037,12.86Z" transform="translate(-584.348 -815.419)" fill="#4fcdc4" stroke="#000" stroke-linejoin="bevel" stroke-width="1"/><path d="M615.37,845.6l12.7-7.366-.037,12.86-12.7,7.366Z" transform="translate(-534.536 -791.221)" fill="#7fc6cb" stroke="#000" stroke-linejoin="bevel" stroke-width="1"/><path d="M584.536,836.7l.034-13.579,80.821,46.667-.018.344-80.5-46.47-.037,12.86,80.5,46.47v.378Z" transform="translate(-584.536 -815.754)" stroke="#000" stroke-linejoin="bevel" stroke-width="1"/><path d="M615.369,845.479l12.679-7.385v.362l-12.7,7.369Z" transform="translate(-534.513 -791.445)" stroke="#000" stroke-linejoin="bevel" stroke-width="1"/><path d="M584.666,827.893l12.7-7.382L677.867,867l-12.705,7.367Z" transform="translate(-584.325 -819.989)" fill="#7fc6cb" stroke="#000" stroke-linejoin="bevel" stroke-width="1"/><path d="M584.549,827.679l12.7-7.366,80.8,46.649-12.679,7.385Z" transform="translate(-584.515 -820.312)" fill="#4fcdc4" stroke="#000" stroke-linejoin="bevel" stroke-width="1"/></g><g transform="translate(1.726 0)"><path d="M584.714,818.137l12.7-7.369-.037,12.862L584.68,831Z" transform="translate(-584.373 -810.228)" stroke="#000" stroke-linejoin="bevel" stroke-width="1"/><path d="M584.68,823.037l12.7-7.367,80.5,46.47-12.679,7.385Z" transform="translate(-584.373 -802.27)" stroke="#000" stroke-linejoin="bevel" stroke-width="1"/><path d="M615.382,840.769l12.679-7.385v.378l-12.7,7.366Z" transform="translate(-534.561 -773.514)" stroke="#000" stroke-linejoin="bevel" stroke-width="1"/><path d="M584.68,826.437l.034-12.86,80.5,46.486-.018,12.862Z" transform="translate(-584.373 -805.668)" fill="#4fcdc4" stroke="#000" stroke-linejoin="bevel" stroke-width="1"/><path d="M615.387,835.867l12.7-7.385-.045,12.862-12.671,7.385Z" transform="translate(-534.55 -781.471)" fill="#7fc6cb" stroke="#000" stroke-linejoin="bevel" stroke-width="1"/><path d="M584.563,826.958l.037-13.581,80.818,46.651-.018.359L584.907,813.9l-.037,12.86,80.509,46.489-.016.359Z" transform="translate(-584.563 -805.992)" stroke="#000" stroke-linejoin="bevel" stroke-width="1"/><path d="M615.4,835.73l12.682-7.385v.36l-12.7,7.385Z" transform="translate(-534.54 -781.694)" stroke="#000" stroke-linejoin="bevel" stroke-width="1"/><path d="M584.694,818.137l12.7-7.369,80.5,46.47-12.7,7.385Z" transform="translate(-584.35 -810.228)" fill="#7fc6cb" stroke="#000" stroke-linejoin="bevel" stroke-width="1"/><path d="M584.577,817.947l12.7-7.385,80.8,46.651L665.4,864.6Z" transform="translate(-584.54 -810.562)" fill="#4fcdc4" stroke="#000" stroke-linejoin="bevel" stroke-width="1"/></g><g transform="translate(82.419 38.708)"><path d="M622.433,871.556l12.7-7.385-.27.2-12.7,7.385Z" transform="translate(-604.221 -762.243)" stroke="#000" stroke-linejoin="bevel" stroke-width="1"/><path d="M622.433,871.556l12.7-7.385-.27.2-12.7,7.385Z" transform="translate(-604.221 -762.243)" stroke="#000" stroke-linejoin="bevel" stroke-width="1"/><path d="M622.227,871.632l12.7-7.385-.107.071-12.7,7.385Z" transform="translate(-604.288 -762.119)" stroke="#000" stroke-linejoin="bevel" stroke-width="1"/><path d="M618.378,864.351l12.7-7.369,9.709,18.1-12.7,7.366Z" transform="translate(-610.361 -773.913)" stroke="#000" stroke-linejoin="bevel" stroke-width="1"/><path d="M621.522,866.162,634.2,858.8l1.477,13.348-12.692,7.366Z" transform="translate(-605.257 -770.97)" fill="#f4456a" stroke="#000" stroke-linejoin="bevel" stroke-width="1"/><path d="M621.645,866.249l12.7-7.385,1.477,13.489-12.7,7.385Z" transform="translate(-605.057 -770.858)" stroke="#000" stroke-linejoin="bevel" stroke-width="1"/><path d="M632.1,868.736l12.7-7.367-9.89,6.923-12.7,7.38Z" transform="translate(-604.142 -766.789)" fill="#f7285e" stroke="#000" stroke-linejoin="bevel" stroke-width="1"/><path d="M622.078,871.25l12.7-7.366.071.7-12.7,7.366Z" transform="translate(-604.355 -762.71)" stroke="#000" stroke-linejoin="bevel" stroke-width="1"/><path d="M618.357,858.761l12.681-7.367L631,865.563l-12.7,7.372Z" transform="translate(-610.484 -782.984)" stroke="#000" stroke-linejoin="bevel" stroke-width="1"/><path d="M618.178,864.21l12.7-7.385.092.16-12.7,7.366Z" transform="translate(-610.686 -774.168)" stroke="#000" stroke-linejoin="bevel" stroke-width="1"/><path d="M618.178,859.729v-.089l.092.142Z" transform="translate(-610.686 -769.598)" stroke="#000" stroke-linejoin="bevel" stroke-width="1"/><path d="M618.1,864.054l12.7-7.366.2.107-12.7,7.385Z" transform="translate(-610.807 -774.392)" stroke="#000" stroke-linejoin="bevel" stroke-width="1"/><path d="M626.626,864.545l1.459,13.348-9.706-18.1Z" transform="translate(-610.361 -769.353)" fill="#ff6b6b" stroke="#000" stroke-linejoin="bevel" stroke-width="1"/><path d="M618.3,864.164,631,856.8l8.413,4.845-12.681,7.385Z" transform="translate(-610.484 -774.213)" stroke="#000" stroke-linejoin="bevel" stroke-width="1"/><path d="M618.2,858.548l12.682-7.366v.359L618.2,858.925Z" transform="translate(-610.652 -783.33)" stroke="#000" stroke-linejoin="bevel" stroke-width="1"/><path d="M626.969,859.412l-8.413-4.859-.053,14.169,8.429,4.864-8.754-5.024.055-14.2v-.378l8.736,5.042Z" transform="translate(-610.686 -778.772)" stroke="#000" stroke-linejoin="bevel" stroke-width="1"/><path d="M618.178,864.113l12.7-7.385,8.72,5.026-12.7,7.385Z" transform="translate(-610.686 -774.326)" stroke="#000" stroke-linejoin="bevel" stroke-width="1"/><path d="M621.549,860.626l12.7-7.385-.055,14.169-12.676,7.39Z" transform="translate(-605.269 -779.986)" fill="#39474d" stroke="#000" stroke-linejoin="bevel" stroke-width="1"/><path d="M621.687,860.683l12.679-7.367-.034,14.172-12.7,7.372Z" transform="translate(-605.078 -779.864)" stroke="#000" stroke-linejoin="bevel" stroke-width="1"/><path d="M634.2,858.651l-12.663,7.366H621.5l.055.378,12.681-7.367Z" transform="translate(-605.291 -771.203)" stroke="#000" stroke-linejoin="bevel" stroke-width="1"/><path d="M618.822,860.272l9.709,18.1.071.7-10.21-19.056-.092-.141-.2-.38.2.126,8.717,5.026.055.378Z" transform="translate(-610.807 -769.834)" stroke="#000" stroke-linejoin="bevel" stroke-width="1"/><path d="M633.61,868.56l.2.107-.2.144h0l-10.158,7.207-.289.2h-.108v-1.047L621.6,861.826v-.381ZM623.2,875.548l9.906-6.936-11.383-6.556,1.477,13.489" transform="translate(-605.134 -766.668)" stroke="#000" stroke-linejoin="bevel" stroke-width="1"/><path d="M626.088,863.246l12.7-7.382-.037,14.169-12.7,7.39Z" transform="translate(-597.9 -775.728)" fill="#313d42" stroke="#000" stroke-linejoin="bevel" stroke-width="1"/><path d="M621.645,866.249l12.7-7.385,11.364,6.574-12.7,7.367Z" transform="translate(-605.057 -770.858)" fill="#f7285e" stroke="#000" stroke-linejoin="bevel" stroke-width="1"/><path d="M633.233,872.409l.034-13.455-11.635,6.755Z" transform="translate(-605.078 -770.713)" stroke="#000" stroke-linejoin="bevel" stroke-width="1"/><path d="M621.5,866.029l12.7-7.385,12.265,7.086-12.7,7.385Z" transform="translate(-605.291 -771.215)" stroke="#000" stroke-linejoin="bevel" stroke-width="1"/><path d="M638.549,858.809l-11.942,6.952h-.034l-7.891-4.557-.3.181,8.248,4.753,11.923-6.934Z" transform="translate(-610.361 -770.947)" fill="#f4456a" stroke="#000" stroke-linejoin="bevel" stroke-width="1"/><path d="M615.446,856.973l12.679-7.385,7.225,4.187-12.682,7.359Z" transform="translate(-615.121 -785.916)" stroke="#000" stroke-linejoin="bevel" stroke-width="1"/><path d="M633.012,868.235l-9.89,6.936-1.477-13.492Z" transform="translate(-605.057 -766.288)" fill="#ff6b6b" stroke="#000" stroke-linejoin="bevel" stroke-width="1"/><path d="M632.44,868.833l12.7-7.366-10.176,7.1-12.7,7.385Z" transform="translate(-604.053 -766.634)" stroke="#000" stroke-linejoin="bevel" stroke-width="1"/><path d="M626.177,868.821l12.7-7.366-.037.037-12.7,7.359Z" transform="translate(-597.756 -766.652)" stroke="#000" stroke-linejoin="bevel" stroke-width="1"/><path d="M626.212,868.821l12.7-7.382-.055.034-12.7,7.372Z" transform="translate(-597.733 -766.678)" stroke="#000" stroke-linejoin="bevel" stroke-width="1"/><path d="M626.143,864.307l.034-.034.055-.018v.107Z" transform="translate(-597.756 -762.108)" stroke="#000" stroke-linejoin="bevel" stroke-width="1"/><path d="M626.177,868.821l12.7-7.382v.107l-12.7,7.385Z" transform="translate(-597.7 -766.678)" stroke="#000" stroke-linejoin="bevel" stroke-width="1"/><path d="M626.376,868.757l12.7-7.366-.2.126-12.7,7.385Z" transform="translate(-597.7 -766.757)" stroke="#000" stroke-linejoin="bevel" stroke-width="1"/><path d="M626.177,868.727l12.7-7.385.2.126-12.7,7.366Z" transform="translate(-597.7 -766.835)" stroke="#000" stroke-linejoin="bevel" stroke-width="1"/><path d="M621.529,860.47l12.7-7.366v.362l-12.7,7.385Z" transform="translate(-605.246 -780.21)" stroke="#000" stroke-linejoin="bevel" stroke-width="1"/><path d="M633.264,862.824,633.229,877l-11.6-6.7.055-14.171Z" transform="translate(-605.075 -775.306)" fill="#313d42" stroke="#000" stroke-linejoin="bevel" stroke-width="1"/><path d="M621.529,855.911l12.246,7.115V877.58l-12.235-7.062V856.326Zm11.866,21.525V863.267l-11.593-6.7v14.169l11.593,6.7" transform="translate(-605.246 -775.652)" stroke="#000" stroke-linejoin="bevel" stroke-width="1"/><path d="M621.653,860.683l12.679-7.367,11.6,6.685-12.7,7.382Z" transform="translate(-605.045 -779.864)" fill="#313d42" stroke="#000" stroke-linejoin="bevel" stroke-width="1"/><path d="M621.529,860.47l12.7-7.366,12.238,7.062-12.7,7.385Z" transform="translate(-605.246 -780.21)" stroke="#000" stroke-linejoin="bevel" stroke-width="1"/><path d="M618.322,858.761,631,851.394l8.429,4.846-12.7,7.385Z" transform="translate(-610.452 -782.984)" fill="#39474d" stroke="#000" stroke-linejoin="bevel" stroke-width="1"/><path d="M626.768,859.063l-.037,14.169-8.429-4.858.055-14.169Z" transform="translate(-610.484 -778.423)" fill="#39474d" stroke="#000" stroke-linejoin="bevel" stroke-width="1"/><path d="M618.2,858.548l12.682-7.366,8.752,5.042-12.7,7.366Z" transform="translate(-610.652 -783.33)" stroke="#000" stroke-linejoin="bevel" stroke-width="1"/><path d="M626.214,863.317l12.7-7.385-.037,14.2-12.7,7.385Z" transform="translate(-597.7 -775.617)" stroke="#000" stroke-linejoin="bevel" stroke-width="1"/><path d="M626.191,863.18l12.7-7.385v.354l-12.7,7.39Z" transform="translate(-597.678 -775.84)" stroke="#000" stroke-linejoin="bevel" stroke-width="1"/><path d="M626.191,863.18l12.7-7.385,7.222,4.161-12.7,7.385Z" transform="translate(-597.678 -775.84)" stroke="#000" stroke-linejoin="bevel" stroke-width="1"/><path d="M629.125,840.7l12.7-7.366-.178,63.095-12.7,7.385Z" transform="translate(-593.208 -812.309)" fill="#f9d48a" stroke="#000" stroke-linejoin="bevel" stroke-width="1"/><path d="M629.122,858.591l12.682-7.382-.037,16.745-12.7,7.39Z" transform="translate(-593.009 -783.285)" fill="#f9d48a" stroke="#000" stroke-linejoin="bevel" stroke-width="1"/><path d="M629.088,858.449l12.705-7.385-.019.38-12.687,7.382Z" transform="translate(-592.975 -783.52)" stroke="#000" stroke-linejoin="bevel" stroke-width="1"/><path d="M615.624,832.915l12.682-7.385-.181,63.121-12.679,7.377Z" transform="translate(-615.121 -824.971)" stroke="#000" stroke-linejoin="bevel" stroke-width="1"/><path d="M629.125,853.536l12.7-7.366-.029,12.842L629.088,866.4Z" transform="translate(-592.975 -791.466)" stroke="#000" stroke-linejoin="bevel" stroke-width="1"/><path d="M629.1,853.416l12.7-7.385v.362l-12.7,7.366Z" transform="translate(-592.952 -791.69)" stroke="#000" stroke-linejoin="bevel" stroke-width="1"/><path d="M629.136,848.833l12.681-7.366-.018,11.978-12.7,7.385Z" transform="translate(-592.952 -799.101)" fill="#f9d48a" stroke="#000" stroke-linejoin="bevel" stroke-width="1"/><path d="M629.116,848.707l12.679-7.385v.378l-12.679,7.366Z" transform="translate(-592.929 -799.335)" stroke="#000" stroke-linejoin="bevel" stroke-width="1"/><path d="M629.15,843.8l12.7-7.385-.055,12.863-12.679,7.385Z" transform="translate(-592.929 -807.294)" stroke="#000" stroke-linejoin="bevel" stroke-width="1"/><path d="M629.129,843.667l12.7-7.385v.359l-12.7,7.385Z" transform="translate(-592.908 -807.517)" stroke="#000" stroke-linejoin="bevel" stroke-width="1"/><path d="M651.037,848.794l-.181,63.121-7.222-4.161L631.4,900.669l-8.728-5.05-7.222-4.155.178-63.119Z" transform="translate(-615.121 -820.402)" fill="#f9d48a" stroke="#000" stroke-linejoin="bevel" stroke-width="1"/><path d="M651.561,848.955l-.018,7.944v.359l-.034,12.86v.362l-.037,12v.341l-.034,12.863v.378l-.055,16.745-7.548-4.357v-.362l7.225,4.161.178-63.118-35.41-20.449-.181,63.118,7.225,4.161v.38l-7.55-4.352.037-16.745v-.38L615.388,862l.016-.344.018-12,.018-.359.018-12.86.018-.362.016-7.943Z" transform="translate(-615.322 -820.749)" stroke="#000" stroke-linejoin="bevel" stroke-width="1"/><path d="M615.514,832.915,628.2,825.53l35.423,20.462-12.7,7.366Z" transform="translate(-615.01 -824.971)" fill="#f9d48a" stroke="#000" stroke-linejoin="bevel" stroke-width="1"/><path d="M629.147,840.639l12.7-7.385-.016,7.943-12.7,7.385Z" transform="translate(-592.908 -812.433)" fill="#f9d48a" stroke="#000" stroke-linejoin="bevel" stroke-width="1"/><path d="M615.391,832.7l12.7-7.385,36.061,20.822-12.7,7.385Z" transform="translate(-615.21 -825.317)" fill="#f9d48a" stroke="#000" stroke-linejoin="bevel" stroke-width="1"/><path d="M629.088,858.449l12.705-7.385,80.477,46.489-12.7,7.366Z" transform="translate(-592.975 -783.52)" stroke="#000" stroke-linejoin="bevel" stroke-width="1"/><path d="M659.8,871.25l12.7-7.366-.037,12.86-12.7,7.367Z" transform="translate(-543.173 -762.71)" fill="#7fc6cb" stroke="#000" stroke-linejoin="bevel" stroke-width="1"/><path d="M629.125,848.847l80.8,46.649-.034,13.581-80.8-46.652v-.378l80.477,46.47.034-12.86-80.475-46.47Z" transform="translate(-592.975 -787.119)" stroke="#000" stroke-linejoin="bevel" stroke-width="1"/><path d="M629.1,853.536l12.7-7.366,80.485,46.47-12.708,7.374Z" transform="translate(-592.952 -791.466)" fill="#7fc6cb" stroke="#000" stroke-linejoin="bevel" stroke-width="1"/><path d="M629.125,848.977,709.6,895.448l-.034,12.86-80.477-46.47Z" transform="translate(-592.975 -786.908)" fill="#4fcdc4" stroke="#000" stroke-linejoin="bevel" stroke-width="1"/><path d="M629.1,853.416l12.7-7.385L722.6,892.683l-12.7,7.385Z" transform="translate(-592.952 -791.69)" fill="#4fcdc4" stroke="#000" stroke-linejoin="bevel" stroke-width="1"/><path d="M659.923,871.2l12.7-7.385-.037,13.581-12.7,7.385Z" transform="translate(-542.973 -762.822)" fill="#4fcdc4" stroke="#000" stroke-linejoin="bevel" stroke-width="1"/><path d="M629.116,848.707l12.679-7.385,80.5,46.47-12.7,7.366Z" transform="translate(-592.929 -799.335)" stroke="#000" stroke-linejoin="bevel" stroke-width="1"/><path d="M659.829,861.518l12.7-7.385L672.492,867l-12.7,7.367Z" transform="translate(-543.131 -778.538)" fill="#7fc6cb" stroke="#000" stroke-linejoin="bevel" stroke-width="1"/><path d="M629.15,839.1l80.8,46.649-.037,13.581-80.8-46.652v-.359l80.475,46.452.037-12.841-80.477-46.47Z" transform="translate(-592.929 -802.947)" stroke="#000" stroke-linejoin="bevel" stroke-width="1"/><path d="M629.129,843.8l12.7-7.385L722.3,882.89l-12.7,7.385Z" transform="translate(-592.908 -807.294)" fill="#7fc6cb" stroke="#000" stroke-linejoin="bevel" stroke-width="1"/><path d="M629.15,839.234l80.477,46.47-.037,12.844L629.116,852.1Z" transform="translate(-592.929 -802.725)" fill="#4fcdc4" stroke="#000" stroke-linejoin="bevel" stroke-width="1"/><path d="M629.129,843.667l12.7-7.385,80.8,46.667-12.7,7.367Z" transform="translate(-592.908 -807.517)" fill="#4fcdc4" stroke="#000" stroke-linejoin="bevel" stroke-width="1"/><path d="M659.947,861.438l12.7-7.367-.029,13.576-12.7,7.366Z" transform="translate(-542.926 -778.639)" fill="#4fcdc4" stroke="#000" stroke-linejoin="bevel" stroke-width="1"/></g></g></svg>