<svg xmlns="http://www.w3.org/2000/svg" width="264.025" height="323.912" viewBox="0 0 264.025 323.912"><g transform="translate(-7413.972 -6549.414)"><g transform="translate(7414.984 6550.42)"><g style="isolation:isolate"><g transform="translate(1.414 133.331)"><path d="M1108.794,622.279l16.406-9.535a2.728,2.728,0,0,1,1.941-.254l-16.406,9.535A2.728,2.728,0,0,0,1108.794,622.279Z" transform="translate(-1108.794 -612.421)" fill="#4fcdc4" stroke="#000" stroke-width="2"/></g><g transform="translate(3.356 133.401)"><path d="M1109.628,621.986l16.406-9.534,37.24,7.593-16.406,9.534Z" transform="translate(-1109.628 -612.451)" fill="#4fcdc4" stroke="#000" stroke-width="2"/></g><g transform="translate(40.596 140.994)"><path d="M1125.626,625.248l16.406-9.535a4.991,4.991,0,0,1,1.5.589l-16.406,9.535A4.993,4.993,0,0,0,1125.626,625.248Z" transform="translate(-1125.626 -615.713)" fill="#4fcdc4" stroke="#000" stroke-width="2"/></g><g transform="translate(0 142.865)"><path d="M1150.282,624.769a10.781,10.781,0,0,1,4.583,6.5c.81,3.392-.582,5.719-3.126,5.207l-37.24-7.593a4.9,4.9,0,0,1-1.5-.594,10.758,10.758,0,0,1-4.581-6.492c-.808-3.394.582-5.719,3.126-5.21l37.24,7.593A4.993,4.993,0,0,1,1150.282,624.769Z" transform="translate(-1108.186 -616.517)" fill="#4fcdc4" stroke="#000" stroke-width="2"/></g><g transform="translate(42.095 141.583)"><path d="M1146.075,627.421l-16.406,9.532c1.238-.717,1.753-2.575,1.185-4.954a10.781,10.781,0,0,0-4.583-6.5l16.406-9.535a10.79,10.79,0,0,1,4.583,6.5C1147.828,624.844,1147.314,626.7,1146.075,627.421Z" transform="translate(-1126.27 -615.966)" fill="#4fcdc4" stroke="#000" stroke-width="2"/></g><g transform="translate(127.355 263.978)"><path d="M1163.024,678.08l16.406-9.534-.127,44.949-16.406,9.534Z" transform="translate(-1162.897 -668.546)" fill="#4fcdc4" stroke="#000" stroke-width="2"/></g><g transform="translate(119.218 254.972)"><path d="M1159.4,674.538,1175.807,665a3.41,3.41,0,0,1,3.436.333l-16.407,9.532A3.4,3.4,0,0,0,1159.4,674.538Z" transform="translate(-1159.401 -664.677)" fill="#4fcdc4" stroke="#000" stroke-width="2"/></g><g transform="translate(122.654 255.632)"><path d="M1160.877,674.492l16.407-9.532a10.635,10.635,0,0,1,4.828,8.348l-16.406,9.532A10.643,10.643,0,0,0,1160.877,674.492Z" transform="translate(-1160.877 -664.96)" fill="#4fcdc4" stroke="#000" stroke-width="2"/></g><g transform="translate(117.68 264.506)"><path d="M1163.714,669.431a10.643,10.643,0,0,1,4.828,8.348l-.126,44.95c-.009,3.075-2.186,4.3-4.863,2.754a10.616,10.616,0,0,1-4.814-8.34l.128-44.948C1158.877,669.135,1161.054,667.9,1163.714,669.431Z" transform="translate(-1158.74 -668.772)" fill="#4fcdc4" stroke="#000" stroke-width="2"/></g><g transform="translate(125.948 308.927)"><path d="M1178.7,690.951l-16.406,9.532a3.375,3.375,0,0,0,1.408-3.094l16.406-9.535A3.382,3.382,0,0,1,1178.7,690.951Z" transform="translate(-1162.292 -687.855)" fill="#4fcdc4" stroke="#000" stroke-width="2"/></g><g transform="translate(50.35 0.656)"><path d="M1129.816,564.961l16.406-9.535a10.3,10.3,0,0,1,3.91,4.553l-16.406,9.535A10.3,10.3,0,0,0,1129.816,564.961Z" transform="translate(-1129.816 -555.426)" fill="#4fcdc4" stroke="#000" stroke-width="2"/></g><g transform="translate(45.508 9.534)"><path d="M1132.578,559.9a10.3,10.3,0,0,1,3.911,4.553l22.887,49.634c1.569,3.387,1.084,6.595-1.092,7.135a3.818,3.818,0,0,1-2.843-.561,10.28,10.28,0,0,1-3.9-4.563l-22.889-49.617c-1.567-3.4-1.069-6.585,1.092-7.153A3.839,3.839,0,0,1,1132.578,559.9Z" transform="translate(-1127.736 -559.24)" fill="#4fcdc4" stroke="#000" stroke-width="2"/></g><g transform="translate(54.26 5.21)"><path d="M1131.5,566.917l16.406-9.534,22.889,49.633-16.406,9.534Z" transform="translate(-1131.496 -557.382)" fill="#4fcdc4" stroke="#000" stroke-width="2"/></g><g transform="translate(46.923)"><path d="M1128.344,565.007l16.4-9.535a2.394,2.394,0,0,1,.594-.242,3.826,3.826,0,0,1,2.835.57l-16.406,9.535a3.839,3.839,0,0,0-2.835-.573A2.437,2.437,0,0,0,1128.344,565.007Z" transform="translate(-1128.344 -555.144)" fill="#4fcdc4" stroke="#000" stroke-width="2"/></g><g transform="translate(76.67 54.843)"><path d="M1157.53,585.592l-16.406,9.535c1.639-.952,1.885-3.848.477-6.888l16.406-9.535C1159.415,581.744,1159.168,584.64,1157.53,585.592Z" transform="translate(-1141.123 -578.704)" fill="#4fcdc4" stroke="#000" stroke-width="2"/></g><g transform="translate(242.269 271.337)"><path d="M1230.587,682.026l-16.406,9.535a2.7,2.7,0,0,0,1.166-1.525c.826-2.449-.547-6.371-3.084-8.8l16.4-9.532c2.54,2.423,3.913,6.346,3.087,8.794A2.7,2.7,0,0,1,1230.587,682.026Z" transform="translate(-1212.262 -671.707)" fill="#4fcdc4" stroke="#000" stroke-width="2"/></g><g transform="translate(198.764 243.717)"><path d="M1198.427,660.5a8.033,8.033,0,0,1,1.49,1.129l37.161,35.362c2.538,2.426,3.911,6.348,3.084,8.8-.675,1.969-2.568,2.367-4.618,1.182a7.931,7.931,0,0,1-1.485-1.131L1196.9,670.481c-2.537-2.423-3.911-6.348-3.084-8.8C1194.488,659.719,1196.388,659.326,1198.427,660.5Z" transform="translate(-1193.573 -659.842)" fill="#4fcdc4" stroke="#000" stroke-width="2"/></g><g transform="translate(205.106 235.975)"><path d="M1196.3,666.05l16.406-9.534,37.161,35.362-16.406,9.534Z" transform="translate(-1196.298 -656.516)" fill="#4fcdc4" stroke="#000" stroke-width="2"/></g><g transform="translate(203.618 234.844)"><path d="M1195.658,665.565l16.407-9.535a7.875,7.875,0,0,1,1.487,1.131l-16.4,9.532A8.033,8.033,0,0,0,1195.658,665.565Z" transform="translate(-1195.658 -656.03)" fill="#4fcdc4" stroke="#000" stroke-width="2"/></g><g transform="translate(200.17 234.184)"><path d="M1194.177,665.6l16.406-9.533a3.444,3.444,0,0,1,3.448.335l-16.407,9.535A3.444,3.444,0,0,0,1194.177,665.6Z" transform="translate(-1194.177 -655.746)" fill="#4fcdc4" stroke="#000" stroke-width="2"/></g><g transform="translate(176.96 95.92)"><path d="M1207.3,605.884l16.406-9.534-23.1,23.085-16.406,9.534Z" transform="translate(-1184.206 -596.35)" fill="#4fcdc4" stroke="#000" stroke-width="2"/></g><g transform="translate(192.717 84.184)"><path d="M1190.975,601.168l16.406-9.535a3.466,3.466,0,0,1,3.462.342l-16.406,9.535A3.46,3.46,0,0,0,1190.975,601.168Z" transform="translate(-1190.975 -591.308)" fill="#4fcdc4" stroke="#000" stroke-width="2"/></g><g transform="translate(196.178 84.851)"><path d="M1192.462,601.13l16.406-9.535a9.218,9.218,0,0,1,2.828,2.7c2.151,3.054,2.63,6.8,1.048,8.371l-16.4,9.535c1.58-1.567,1.1-5.317-1.05-8.371A9.189,9.189,0,0,0,1192.462,601.13Z" transform="translate(-1192.462 -591.595)" fill="#4fcdc4" stroke="#000" stroke-width="2"/></g><g transform="translate(168.223 93.718)"><path d="M1208.408,596.072a9.189,9.189,0,0,1,2.828,2.7c2.151,3.054,2.63,6.8,1.05,8.371l-23.1,23.085c-.941.961-2.428.906-3.916.049a9.211,9.211,0,0,1-2.835-2.717c-2.165-3.045-2.63-6.8-1.048-8.371l23.08-23.092C1205.426,595.15,1206.909,595.206,1208.408,596.072Z" transform="translate(-1180.453 -595.404)" fill="#4fcdc4" stroke="#000" stroke-width="2"/></g><g transform="translate(176.466 119.005)"><path d="M1200.4,606.653l-16.406,9.535a2.427,2.427,0,0,0,.494-.386l16.406-9.535A2.431,2.431,0,0,1,1200.4,606.653Z" transform="translate(-1183.994 -606.267)" fill="#4fcdc4" stroke="#000" stroke-width="2"/></g><g transform="translate(18.026 55.423)"><path d="M1115.93,589.354l16.406-9.535c2.3-1.341,5.529-1.22,9.439,1.036l-16.406,9.535C1121.459,588.134,1118.235,588.013,1115.93,589.354Z" transform="translate(-1115.93 -578.953)" fill="#ffc265" stroke="#000" stroke-width="2"/></g><g transform="translate(191.327 293.447)"><path d="M1206.785,694.9l-16.406,9.532c3.254-1.89,4.888-6.606,3.166-13.695l16.406-9.535C1211.673,688.3,1210.039,693.009,1206.785,694.9Z" transform="translate(-1190.378 -681.205)" fill="#ffc265" stroke="#000" stroke-width="2"/></g><g transform="translate(218.667 167.717)"><path d="M1228.06,658.749l-16.406,9.535c8.021-4.663,2.6-24.554-9.53-31.556l16.406-9.535C1230.657,634.2,1236.081,654.086,1228.06,658.749Z" transform="translate(-1202.123 -627.193)" fill="#ffc265" stroke="#000" stroke-width="2"/></g><g transform="translate(27.465 57.326)"><path d="M1119.985,589.3l16.406-9.534,63.4,36.606-16.406,9.534Z" transform="translate(-1119.985 -579.771)" fill="#ffc265" stroke="#000" stroke-width="2"/></g><g transform="translate(113.641 30.772)"><path d="M1157.005,578.756l16.406-9.535c2.563-1.49,6.032-.971,9.5,1.029l-16.407,9.535C1163.039,577.785,1159.568,577.266,1157.005,578.756Z" transform="translate(-1157.005 -568.363)" fill="#ffc265" stroke="#000" stroke-width="2"/></g><g transform="translate(135.799 50.594)"><path d="M1166.524,586.413l16.406-9.534,19.318,80.432-16.406,9.534Z" transform="translate(-1166.524 -576.878)" fill="#ffc265" stroke="#000" stroke-width="2"/></g><g transform="translate(123.138 32.659)"><path d="M1161.085,578.709l16.407-9.535c5.352,3.089,10.691,9.714,12.661,17.933l-16.406,9.535C1171.777,588.42,1166.437,581.8,1161.085,578.709Z" transform="translate(-1161.085 -569.174)" fill="#ffc265" stroke="#000" stroke-width="2"/></g><g transform="translate(155.117 131.026)"><path d="M1174.823,620.966l16.406-9.534,63.552,36.691-16.406,9.534Z" transform="translate(-1174.823 -611.431)" fill="#ffc265" stroke="#000" stroke-width="2"/></g><g transform="translate(174.997 213.1)"><path d="M1183.363,656.223l16.406-9.534,19.5,80.347-16.406,9.534Z" transform="translate(-1183.363 -646.689)" fill="#ffc265" stroke="#000" stroke-width="2"/></g><g transform="translate(14.053 40.307)"><path d="M1223.309,574.347c5.352,3.089,10.692,9.712,12.661,17.933l19.319,80.433,63.55,36.691c12.931,7.465,18.243,29.589,7.754,32.273l-51.424,13.11,19.5,80.347c3.049,12.552-4.423,17.659-12.777,12.836a25.492,25.492,0,0,1-7.8-7.5l-50.975-72.179-51.412,13.32a10.445,10.445,0,0,1-7.822-1.5c-8.343-4.819-15.757-18.5-12.67-27.508l19.844-57.974-51.3-72.351c-10.482-14.777-5.063-30.736,7.882-23.264l63.4,36.607,19.53-57.969C1212.575,571.7,1217.948,571.251,1223.309,574.347Z" transform="translate(-1114.223 -572.459)" fill="#ffc265" stroke="#000" stroke-width="2"/></g><g transform="translate(14.053 40.307)"><path d="M1223.309,574.347c5.352,3.089,10.692,9.712,12.661,17.933l19.319,80.433,63.55,36.691c12.931,7.465,18.243,29.589,7.754,32.273l-51.424,13.11,19.5,80.347c3.049,12.552-4.423,17.659-12.777,12.836a25.492,25.492,0,0,1-7.8-7.5l-50.975-72.179-51.412,13.32a10.445,10.445,0,0,1-7.822-1.5c-8.343-4.819-15.757-18.5-12.67-27.508l19.844-57.974-51.3-72.351c-10.482-14.777-5.063-30.736,7.882-23.264l63.4,36.607,19.53-57.969C1212.575,571.7,1217.948,571.251,1223.309,574.347Z" transform="translate(-1114.223 -572.459)" fill="#ffc265" stroke="#000" stroke-width="2"/></g><g transform="translate(59.402 95.52)"><g transform="translate(2.096 13.006)"><path d="M1115.93,584.441l8.656-5.031c1.216-.707,2.917-.644,4.981.547l-8.657,5.031C1118.847,583.8,1117.146,583.733,1115.93,584.441Z" transform="translate(-1115.93 -578.953)" fill="#f9d48a" stroke="#000" stroke-width="2"/></g><g transform="translate(93.535 138.596)"><path d="M1199.035,688.432l-8.657,5.03c1.717-1,2.579-3.486,1.67-7.226l8.657-5.031C1201.614,684.946,1200.751,687.433,1199.035,688.432Z" transform="translate(-1190.378 -681.205)" fill="#f9d48a" stroke="#000" stroke-width="2"/></g><g transform="translate(107.961 72.256)"><path d="M1215.808,643.843l-8.657,5.031c4.232-2.46,1.371-12.955-5.028-16.65l8.656-5.031C1217.179,630.887,1220.041,641.383,1215.808,643.843Z" transform="translate(-1202.123 -627.193)" fill="#f9d48a" stroke="#000" stroke-width="2"/></g><g transform="translate(7.076 14.01)"><path d="M1119.985,584.8l8.656-5.031,33.453,19.314-8.656,5.031Z" transform="translate(-1119.985 -579.771)" fill="#f9d48a" stroke="#000" stroke-width="2"/></g><g transform="translate(52.545 0)"><path d="M1157.005,573.847l8.656-5.031c1.352-.786,3.182-.512,5.011.543l-8.657,5.031C1160.189,573.335,1158.357,573.061,1157.005,573.847Z" transform="translate(-1157.005 -568.363)" fill="#f9d48a" stroke="#000" stroke-width="2"/></g><g transform="translate(64.237 10.458)"><path d="M1166.524,581.909l8.657-5.031,10.193,42.439-8.656,5.031Z" transform="translate(-1166.524 -576.878)" fill="#f9d48a" stroke="#000" stroke-width="2"/></g><g transform="translate(57.556 0.995)"><path d="M1161.085,574.2l8.657-5.031a15.3,15.3,0,0,1,6.68,9.462l-8.657,5.031A15.3,15.3,0,0,0,1161.085,574.2Z" transform="translate(-1161.085 -569.174)" fill="#f9d48a" stroke="#000" stroke-width="2"/></g><g transform="translate(74.429 52.897)"><path d="M1174.823,616.462l8.656-5.031,33.532,19.359-8.656,5.031Z" transform="translate(-1174.823 -611.431)" fill="#f9d48a" stroke="#000" stroke-width="2"/></g><g transform="translate(84.918 96.202)"><path d="M1183.362,651.719l8.657-5.031,10.287,42.394-8.656,5.031Z" transform="translate(-1183.362 -646.689)" fill="#f9d48a" stroke="#000" stroke-width="2"/></g><g transform="translate(0 5.03)"><path d="M1171.78,573.455a15.3,15.3,0,0,1,6.68,9.462l10.193,42.439,33.531,19.359c6.823,3.939,9.625,15.612,4.091,17.028l-27.133,6.917,10.286,42.394c1.609,6.623-2.333,9.317-6.742,6.773a13.451,13.451,0,0,1-4.113-3.96l-26.9-38.084-27.127,7.028a5.512,5.512,0,0,1-4.127-.79c-4.4-2.542-8.314-9.763-6.685-14.514l10.47-30.589-27.069-38.175c-5.531-7.8-2.671-16.218,4.159-12.275l33.453,19.315,10.3-30.587C1166.117,572.061,1168.952,571.821,1171.78,573.455Z" transform="translate(-1114.223 -572.459)" fill="#f9d48a" stroke="#000" stroke-width="2"/></g><g transform="translate(0 5.03)"><path d="M1171.78,573.455a15.3,15.3,0,0,1,6.68,9.462l10.193,42.439,33.531,19.359c6.823,3.939,9.625,15.612,4.091,17.028l-27.133,6.917,10.286,42.394c1.609,6.623-2.333,9.317-6.742,6.773a13.451,13.451,0,0,1-4.113-3.96l-26.9-38.084-27.127,7.028a5.512,5.512,0,0,1-4.127-.79c-4.4-2.542-8.314-9.763-6.685-14.514l10.47-30.589-27.069-38.175c-5.531-7.8-2.671-16.218,4.159-12.275l33.453,19.315,10.3-30.587C1166.117,572.061,1168.952,571.821,1171.78,573.455Z" transform="translate(-1114.223 -572.459)" fill="#f9d48a" stroke="#000" stroke-width="2"/></g></g><g transform="translate(88.945 137.589)"><g transform="translate(0.931 5.776)"><path d="M1115.93,581.39l3.844-2.234a2.177,2.177,0,0,1,2.212.243l-3.844,2.234A2.176,2.176,0,0,0,1115.93,581.39Z" transform="translate(-1115.93 -578.953)" fill="#ff6b6b" stroke="#000" stroke-width="2"/></g><g transform="translate(41.535 61.545)"><path d="M1194.222,684.414l-3.844,2.233c.762-.443,1.145-1.548.741-3.208l3.844-2.234C1195.367,682.866,1194.984,683.971,1194.222,684.414Z" transform="translate(-1190.378 -681.205)" fill="#ff6b6b" stroke="#000" stroke-width="2"/></g><g transform="translate(47.941 32.086)"><path d="M1208.2,634.586l-3.844,2.234c1.88-1.092.609-5.753-2.233-7.394l3.844-2.234C1208.809,628.833,1210.08,633.494,1208.2,634.586Z" transform="translate(-1202.123 -627.193)" fill="#ff6b6b" stroke="#000" stroke-width="2"/></g><g transform="translate(3.142 6.222)"><path d="M1119.985,582l3.844-2.234,14.855,8.577-3.844,2.234Z" transform="translate(-1119.985 -579.771)" fill="#ff6b6b" stroke="#000" stroke-width="2"/></g><g transform="translate(23.333 0)"><path d="M1157.005,570.8l3.844-2.234a2.243,2.243,0,0,1,2.225.241l-3.844,2.234A2.243,2.243,0,0,0,1157.005,570.8Z" transform="translate(-1157.005 -568.363)" fill="#ff6b6b" stroke="#000" stroke-width="2"/></g><g transform="translate(28.525 4.644)"><path d="M1166.524,579.112l3.844-2.234,4.526,18.845-3.844,2.234Z" transform="translate(-1166.524 -576.878)" fill="#ff6b6b" stroke="#000" stroke-width="2"/></g><g transform="translate(25.558 0.442)"><path d="M1161.085,571.408l3.844-2.234a6.793,6.793,0,0,1,2.966,4.2l-3.844,2.234A6.792,6.792,0,0,0,1161.085,571.408Z" transform="translate(-1161.085 -569.174)" fill="#ff6b6b" stroke="#000" stroke-width="2"/></g><g transform="translate(33.051 23.49)"><path d="M1174.823,613.665l3.844-2.234,14.89,8.6-3.844,2.234Z" transform="translate(-1174.823 -611.431)" fill="#ff6b6b" stroke="#000" stroke-width="2"/></g><g transform="translate(37.709 42.719)"><path d="M1183.362,648.923l3.844-2.234,4.568,18.825-3.844,2.234Z" transform="translate(-1183.362 -646.689)" fill="#ff6b6b" stroke="#000" stroke-width="2"/></g><g transform="translate(0 2.234)"><path d="M1139.782,572.9a6.792,6.792,0,0,1,2.967,4.2l4.526,18.846,14.89,8.6c3.03,1.749,4.274,6.933,1.816,7.562l-12.048,3.072L1156.5,634c.714,2.941-1.036,4.138-2.994,3.007a5.976,5.976,0,0,1-1.827-1.758l-11.943-16.912-12.046,3.121a2.447,2.447,0,0,1-1.833-.351c-1.955-1.129-3.692-4.336-2.969-6.445l4.649-13.583-12.02-16.952c-2.456-3.462-1.186-7.2,1.847-5.451l14.855,8.577,4.576-13.582C1137.267,572.282,1138.526,572.176,1139.782,572.9Z" transform="translate(-1114.223 -572.459)" fill="#ff6b6b" stroke="#000" stroke-width="2"/></g><g transform="translate(0 2.234)"><path d="M1139.782,572.9a6.792,6.792,0,0,1,2.967,4.2l4.526,18.846,14.89,8.6c3.03,1.749,4.274,6.933,1.816,7.562l-12.048,3.072L1156.5,634c.714,2.941-1.036,4.138-2.994,3.007a5.976,5.976,0,0,1-1.827-1.758l-11.943-16.912-12.046,3.121a2.447,2.447,0,0,1-1.833-.351c-1.955-1.129-3.692-4.336-2.969-6.445l4.649-13.583-12.02-16.952c-2.456-3.462-1.186-7.2,1.847-5.451l14.855,8.577,4.576-13.582C1137.267,572.282,1138.526,572.176,1139.782,572.9Z" transform="translate(-1114.223 -572.459)" fill="#ff6b6b" stroke="#000" stroke-width="2"/></g></g></g></g></g></svg>