<svg xmlns="http://www.w3.org/2000/svg" width="133.51" height="134.291" viewBox="0 0 133.51 134.291">
  <g id="Group_900" data-name="Group 900" transform="translate(1 1.051)">
    <g id="Group_683" data-name="Group 683" transform="translate(0 0)">
      <g id="chat">
        <g id="Layer_1" data-name="Layer 1">
          <g id="Path_1282" data-name="Path 1282" transform="translate(21.981)">
            <g id="Group_657" data-name="Group 657">
              <path id="Path_1779" data-name="Path 1779" d="M1021.9,203.767l7.277-4.263c.146,9.961,6.988,21.721,15.6,26.774l-7.279,4.263C1028.849,225.487,1022.049,213.717,1021.9,203.767Z" transform="translate(-1021.717 -156.548)" stroke="#000" stroke-linejoin="bevel" stroke-width="2"/>
              <path id="Path_1780" data-name="Path 1780" d="M1021.986,182.957l7.331-4.263-.093,31.677-7.32,4.267Z" transform="translate(-1021.717 -167.42)" stroke="#000" stroke-linejoin="bevel" stroke-width="2"/>
              <path id="Path_1781" data-name="Path 1781" d="M1026.554,176.43l7.279-4.252c-2.9,1.682-4.534,5.2-4.6,9.919l-7.279,4.263C1022.02,181.64,1023.622,178.146,1026.554,176.43Z" transform="translate(-1021.689 -170.824)" stroke="#000" stroke-linejoin="bevel" stroke-width="2"/>
              <path id="Path_1782" data-name="Path 1782" d="M1032.495,172.443c2.973-1.612,6.863-1.207,10.99,1.165l-7.279,4.263c-4.181-2.36-8.071-2.778-11.042-1.175l-.187.1,7.279-4.252Z" transform="translate(-1020.111 -171.193)" fill="#ff6b6b" stroke="#000" stroke-linejoin="bevel" stroke-width="2"/>
              <path id="Path_1783" data-name="Path 1783" d="M1087.14,203.806a32.047,32.047,0,0,1,4.584,15.473l-7.277,4.263a31.846,31.846,0,0,0-4.586-15.482Z" transform="translate(-991.438 -154.301)" fill="#ff6b6b" stroke="#000" stroke-linejoin="bevel" stroke-width="2"/>
              <path id="Path_1784" data-name="Path 1784" d="M1079.843,196.082a32.229,32.229,0,0,1,11.136,11.759l-7.332,4.257a32.223,32.223,0,0,0-11.135-11.753Z" transform="translate(-995.277 -158.336)" fill="#ff6b6b" stroke="#000" stroke-linejoin="bevel" stroke-width="2"/>
              <path id="Path_1785" data-name="Path 1785" d="M1072.512,200.2l7.279-4.252c8.8,5.083,15.929,17.436,15.908,27.553l-7.279,4.255C1088.441,217.645,1081.309,205.292,1072.512,200.2Z" transform="translate(-995.277 -158.407)" fill="#ff6b6b" stroke="#000" stroke-linejoin="bevel" stroke-width="2"/>
              <path id="Path_1786" data-name="Path 1786" d="M1032.36,177.156l7.331-4.254,61.129,35.29-7.331,4.263Z" transform="translate(-1016.254 -170.446)" fill="#ff6b6b" stroke="#000" stroke-linejoin="bevel" stroke-width="2"/>
              <path id="Path_1787" data-name="Path 1787" d="M1032.36,177.022l7.331-4.263,61.129,35.3-7.331,4.252Z" transform="translate(-1016.254 -170.521)" fill="#ff6b6b" stroke="#000" stroke-linejoin="bevel" stroke-width="2"/>
              <path id="Path_1788" data-name="Path 1788" d="M1039.632,172.875h.063l-7.277,4.252h-.064Z" transform="translate(-1016.258 -170.46)" fill="#ff6b6b" stroke="#000" stroke-linejoin="bevel" stroke-width="2"/>
              <path id="Path_1789" data-name="Path 1789" d="M1024.9,176.677l7.33-4.3.187-.105c3.005-1.643,6.967-1.206,11.178,1.218l-7.277,4.263c-4.159-2.43-8.163-2.861-11.179-1.215Z" transform="translate(-1020.154 -171.289)" fill="#ff6b6b" stroke="#000" stroke-linejoin="bevel" stroke-width="2"/>
              <path id="Path_1790" data-name="Path 1790" d="M1094.01,246.328c.344.437.708.853,1.092,1.258l-7.331,4.263a12.652,12.652,0,0,1-1.04-1.258Z" transform="translate(-987.849 -132.086)" fill="#ff6b6b" stroke="#000" stroke-linejoin="bevel" stroke-width="2"/>
              <path id="Path_1791" data-name="Path 1791" d="M1095.027,247.476l-7.279,4.264-.3-.323,7.33-4.263A1.012,1.012,0,0,0,1095.027,247.476Z" transform="translate(-987.474 -131.654)" fill="#ff6b6b" stroke="#000" stroke-linejoin="bevel" stroke-width="2"/>
              <path id="Path_1792" data-name="Path 1792" d="M1094.924,247.366q.553.582,1.122,1.092l-7.279,4.263q-.582-.53-1.121-1.04Z" transform="translate(-987.37 -131.544)" fill="#ff6b6b" stroke="#000" stroke-linejoin="bevel" stroke-width="2"/>
              <path id="Path_1793" data-name="Path 1793" d="M1088.172,253.712l7.279-4.263a.684.684,0,0,0,.707.062l-7.277,4.263A.715.715,0,0,1,1088.172,253.712Z" transform="translate(-987.096 -130.456)" stroke="#000" stroke-linejoin="bevel" stroke-width="2"/>
              <path id="Path_1794" data-name="Path 1794" d="M1096.055,248.691a1.694,1.694,0,0,1,.114.582l-7.279,4.254a1.976,1.976,0,0,0-.1-.572Z" transform="translate(-986.774 -130.851)" fill="#ff6b6b" stroke="#000" stroke-linejoin="bevel" stroke-width="2"/>
              <path id="Path_1795" data-name="Path 1795" d="M1096.087,248.571l-7.332,4.284a2.007,2.007,0,0,0-.4-.489h0l7.279-4.263h0A2.09,2.09,0,0,1,1096.087,248.571Z" transform="translate(-987.003 -131.158)" fill="#ff6b6b" stroke="#000" stroke-linejoin="bevel" stroke-width="2"/>
              <path id="Path_1796" data-name="Path 1796" d="M1096.145,248.827l-7.279,4.263a2.135,2.135,0,0,0-.093-.218l7.279-4.264-7.279,4.264h0a2,2,0,0,0-.157-.187l7.279-4.254A2.2,2.2,0,0,1,1096.145,248.827Z" transform="translate(-986.864 -130.987)" fill="#ff6b6b" stroke="#000" stroke-linejoin="bevel" stroke-width="2"/>
              <path id="Path_1797" data-name="Path 1797" d="M1032.121,221.353l7.331-4.263,85.323,49.264-7.32,4.261Z" transform="translate(-1016.379 -147.361)" stroke="#000" stroke-linejoin="bevel" stroke-width="2"/>
              <path id="Path_1798" data-name="Path 1798" d="M1092.15,243.578l-7.277,4.254c0-.084-.094-.166-.135-.25l7.277-4.252Z" transform="translate(-988.89 -133.652)" fill="#ff6b6b" stroke="#000" stroke-linejoin="bevel" stroke-width="2"/>
              <path id="Path_1799" data-name="Path 1799" d="M1091.224,241.623a25.677,25.677,0,0,0,1.215,2.6l-7.279,4.254a25.444,25.444,0,0,1-1.215-2.59Z" transform="translate(-989.304 -134.544)" fill="#ff6b6b" stroke="#000" stroke-linejoin="bevel" stroke-width="2"/>
              <path id="Path_1800" data-name="Path 1800" d="M1091.27,241.734,1083.991,246c0-.114-.094-.219-.135-.333l7.279-4.252C1091.176,241.515,1091.217,241.63,1091.27,241.734Z" transform="translate(-989.351 -134.655)" fill="#ff6b6b" stroke="#000" stroke-linejoin="bevel" stroke-width="2"/>
              <path id="Path_1801" data-name="Path 1801" d="M1092.1,243.494a28.336,28.336,0,0,0,2.9,4.316l-7.279,4.263a27.551,27.551,0,0,1-2.89-4.327Z" transform="translate(-988.842 -133.567)" fill="#ff6b6b" stroke="#000" stroke-linejoin="bevel" stroke-width="2"/>
              <path id="Path_1802" data-name="Path 1802" d="M1095.979,249.477h0l-7.277,4.261h0l7.277-4.254-4.159,2.4-1.868,1.04-.884.509c-.125.084-.27.25-.416.25h0Z" transform="translate(-986.845 -130.441)" fill="#ff6b6b" stroke="#000" stroke-linejoin="bevel" stroke-width="2"/>
              <path id="Path_1803" data-name="Path 1803" d="M1096.15,249.333a.479.479,0,0,1-.187.219l-7.277,4.263a.655.655,0,0,0,.177-.23Z" transform="translate(-986.828 -130.516)" fill="#ff6b6b" stroke="#000" stroke-linejoin="bevel" stroke-width="2"/>
              <path id="Path_1804" data-name="Path 1804" d="M1096.086,249.333h0l-7.279,4.252h0Z" transform="translate(-986.764 -130.516)" fill="#ff6b6b" stroke="#000" stroke-linejoin="bevel" stroke-width="2"/>
              <path id="Path_1805" data-name="Path 1805" d="M1096.159,249.073a1.172,1.172,0,0,1-.073.4l-7.279,4.252a.875.875,0,0,0,.073-.394Z" transform="translate(-986.764 -130.652)" fill="#ff6b6b" stroke="#000" stroke-linejoin="bevel" stroke-width="2"/>
              <path id="Path_1806" data-name="Path 1806" d="M1089.054,253.367l7.279-4.252a.8.8,0,0,1-.344.758l-7.277,4.252A.8.8,0,0,0,1089.054,253.367Z" transform="translate(-986.814 -130.63)" stroke="#000" stroke-linejoin="bevel" stroke-width="2"/>
              <path id="Path_1807" data-name="Path 1807" d="M1096.042,249.641l-7.33,4.263v-.011Z" transform="translate(-986.814 -130.355)" stroke="#000" stroke-linejoin="bevel" stroke-width="2"/>
              <path id="Path_1808" data-name="Path 1808" d="M1090.514,239.5a26.382,26.382,0,0,0,.945,2.912l-7.279,4.252a26.41,26.41,0,0,1-.945-2.911Z" transform="translate(-989.675 -135.654)" fill="#ff6b6b" stroke="#000" stroke-linejoin="bevel" stroke-width="2"/>
              <path id="Path_1809" data-name="Path 1809" d="M1096.134,249.073h0l-7.279,4.252h0l7.279-4.252Z" transform="translate(-986.739 -130.652)" fill="#ff6b6b" stroke="#000" stroke-linejoin="bevel" stroke-width="2"/>
              <path id="Path_1810" data-name="Path 1810" d="M1088.384,252.221l7.279-4.254a2.658,2.658,0,0,1,.84,1.789l-7.279,4.254A2.672,2.672,0,0,0,1088.384,252.221Z" transform="translate(-986.985 -131.23)" fill="#9c4c4c" stroke="#000" stroke-linejoin="bevel" stroke-width="2"/>
              <path id="Path_1811" data-name="Path 1811" d="M1090.148,237.265a20.251,20.251,0,0,0,.583,3.4l-7.332,4.252a21.1,21.1,0,0,1-.582-3.4Z" transform="translate(-989.893 -136.821)" fill="#ff6b6b" stroke="#000" stroke-linejoin="bevel" stroke-width="2"/>
              <path id="Path_1812" data-name="Path 1812" d="M1090.131,237.465l-7.279,4.254v-.572l7.279-4.263A2.054,2.054,0,0,0,1090.131,237.465Z" transform="translate(-989.875 -137.02)" fill="#ff6b6b" stroke="#000" stroke-linejoin="bevel" stroke-width="2"/>
              <path id="Path_1813" data-name="Path 1813" d="M1082.881,218.232l7.32-4.263-.094,34.052-7.331,4.263Z" transform="translate(-989.915 -148.991)" fill="#ff6b6b" stroke="#000" stroke-linejoin="bevel" stroke-width="2"/>
              <path id="Path_1814" data-name="Path 1814" d="M1082.993,218.3l7.331-4.254-.093,34.052-7.33,4.252Z" transform="translate(-989.85 -148.952)" fill="#ff6b6b" stroke="#000" stroke-linejoin="bevel" stroke-width="2"/>
              <path id="Path_1815" data-name="Path 1815" d="M1090.113,236.336v.831l-4.159,2.413-.946.551-1.384.8a4.3,4.3,0,0,1-.851.5V240.6Z" transform="translate(-989.917 -137.306)" fill="#ff6b6b" stroke="#000" stroke-linejoin="bevel" stroke-width="2"/>
              <path id="Path_1816" data-name="Path 1816" d="M1082.9,240.664l7.33-4.252c0,5.895,3.421,13.133,8.316,17.592l-7.277,4.254C1086.321,253.765,1082.879,246.559,1082.9,240.664Z" transform="translate(-989.85 -137.266)" fill="#ff6b6b" stroke="#000" stroke-linejoin="bevel" stroke-width="2"/>
              <path id="Path_1817" data-name="Path 1817" d="M1123.18,290.807a2.671,2.671,0,0,1,.84,1.789.8.8,0,0,1-.332.758.823.823,0,0,1-.833-.073l-84.928-49.025-.405-.228a35.228,35.228,0,0,1-15.742-27.108l.084-31.671c.062-4.887,1.787-8.485,4.844-10.147s6.977-1.215,11.178,1.213l61.129,35.29c8.8,5.1,15.929,17.447,15.908,27.555l-.093,34.052C1114.81,279.108,1118.252,286.314,1123.18,290.807Zm.373,2.328a.707.707,0,0,0,.292-.644,2.171,2.171,0,0,0-.719-1.5c-5.01-4.544-8.495-11.895-8.485-17.886l.095-34.052c0-10-7.02-22.2-15.722-27.232l-60.951-35.2c-4.325-2.5-8.245-2.923-11.23-1.309s-4.716,5.2-4.783,10.033l-.082,31.677c.145,9.952,6.976,21.721,15.6,26.775l85.336,49.264a.718.718,0,0,0,.7.062" transform="translate(-1021.781 -169.816)" stroke="#000" stroke-linejoin="bevel" stroke-width="2"/>
              <path id="Path_1818" data-name="Path 1818" d="M1098.966,211.744c8.7,5.033,15.753,17.229,15.721,27.232l-.093,34.052c0,5.989,3.473,13.341,8.485,17.886a2.17,2.17,0,0,1,.717,1.5.7.7,0,0,1-.291.644.718.718,0,0,1-.7-.062l-85.334-49.263c-8.577-5.053-15.409-16.82-15.6-26.774l.125-31.679c.062-4.814,1.757-8.379,4.782-10.033s6.9-1.189,11.053,1.2Z" transform="translate(-1021.731 -169.736)" fill="#ff6b6b" stroke="#000" stroke-linejoin="bevel" stroke-width="2"/>
            </g>
          </g>
          <g id="Group_491" data-name="Group 491" transform="translate(32.722 24.55)">
            <g id="Group_490" data-name="Group 490">
              <path id="Path_1288" data-name="Path 1288" d="M1065.228,210.791l-34.417-19.632a3.562,3.562,0,0,1-1.975-2.859c.073-.935,1.091-1.165,2.256-.519h.084l34.416,19.623a3.482,3.482,0,0,1,1.882,2.88C1067.363,211.215,1066.361,211.415,1065.228,210.791Z" transform="translate(-1028.836 -187.415)" fill="#4fcdc4" stroke="#000" stroke-miterlimit="10" stroke-width="2"/>
            </g>
          </g>
          <g id="Group_493" data-name="Group 493" transform="translate(33.451 17.098)">
            <g id="Group_492" data-name="Group 492">
              <path id="Path_1289" data-name="Path 1289" d="M1097.6,224.11l-66.307-37.846a3.606,3.606,0,0,1-1.975-2.859c.082-.935,1.04-1.165,2.256-.519h.084l66.305,37.889a3.48,3.48,0,0,1,1.882,2.922C1099.728,224.535,1098.729,224.733,1097.6,224.11Z" transform="translate(-1029.315 -182.52)" fill="#4fcdc4" stroke="#000" stroke-miterlimit="10" stroke-width="2"/>
            </g>
          </g>
          <g id="Group_493-2" data-name="Group 493-2" transform="translate(31.017 39.263)">
            <g id="Group_492-2" data-name="Group 492-2">
              <path id="Path_1289-2" data-name="Path 1289-2" d="M1096,238.63l-66.305-37.807a3.563,3.563,0,0,1-1.975-2.859c.073-.935,1.092-1.165,2.256-.519h.084l66.305,37.858a3.479,3.479,0,0,1,1.881,2.879C1098.118,239.066,1097.13,239.264,1096,238.63Z" transform="translate(-1027.716 -197.079)" fill="#4fcdc4" stroke="#000" stroke-miterlimit="10" stroke-width="2"/>
            </g>
          </g>
          <g id="Group_483" data-name="Group 483" transform="translate(31.9 31.927)">
            <g id="Group_482" data-name="Group 482">
              <path id="Path_1284" data-name="Path 1284" d="M1045.494,204.682,1030.283,196a3.589,3.589,0,0,1-1.987-2.859c.084-.926,1.091-1.165,2.267-.508h.084l15.212,8.681a3.492,3.492,0,0,1,1.892,2.882C1047.627,205.087,1046.631,205.316,1045.494,204.682Z" transform="translate(-1028.296 -192.26)" fill="#4fcdc4" stroke="#000" stroke-miterlimit="10" stroke-width="2"/>
            </g>
          </g>
          <g id="Path_1281" data-name="Path 1281" transform="translate(0 51.568)">
            <g id="Group_658" data-name="Group 658">
              <path id="Path_1819" data-name="Path 1819" d="M1007.731,224.163l7.331-4.252a.686.686,0,0,0-.28.624,2.179,2.179,0,0,0,.977,1.716l-7.279,4.263a2.2,2.2,0,0,1-.977-1.726A.688.688,0,0,1,1007.731,224.163Z" transform="translate(-1007.264 -197.456)" stroke="#000" stroke-linejoin="bevel" stroke-width="2"/>
              <path id="Path_1820" data-name="Path 1820" d="M1007.65,224.363l7.331-4.252a.53.53,0,0,1,.426-.052,6.721,6.721,0,0,0,5.1-.53l-7.277,4.263a6.741,6.741,0,0,1-5.1.53A.615.615,0,0,0,1007.65,224.363Z" transform="translate(-1007.183 -197.655)" fill="#f9d48a" stroke="#000" stroke-linejoin="bevel" stroke-width="2"/>
              <path id="Path_1821" data-name="Path 1821" d="M1007.568,224.2l7.331-4.254a.648.648,0,0,1,.51-.052,6.657,6.657,0,0,0,5.021-.519l-7.279,4.252a6.558,6.558,0,0,1-5.073.572A.735.735,0,0,0,1007.568,224.2Z" transform="translate(-1007.225 -197.737)" fill="#a1895a" stroke="#000" stroke-linejoin="bevel" stroke-width="2"/>
              <path id="Path_1822" data-name="Path 1822" d="M1018.6,222.112l-7.277,4.263c2.141-1.248,3.438-3.894,3.451-7.528l7.276-4.263C1022.027,218.223,1020.737,220.864,1018.6,222.112Z" transform="translate(-1005.266 -200.238)" stroke="#000" stroke-linejoin="bevel" stroke-width="2"/>
              <path id="Path_1823" data-name="Path 1823" d="M1013.551,216.921l7.331-4.263-.009,2.932-7.321,4.263Z" transform="translate(-1004.1 -201.245)" stroke="#000" stroke-linejoin="bevel" stroke-width="2"/>
              <path id="Path_1824" data-name="Path 1824" d="M1018.163,210.272l7.279-4.252c-2.829,1.643-4.595,5.147-4.605,10.107l-7.279,4.263C1013.569,215.419,1015.326,211.926,1018.163,210.272Z" transform="translate(-1004.096 -204.713)" stroke="#000" stroke-linejoin="bevel" stroke-width="2"/>
              <path id="Path_1825" data-name="Path 1825" d="M1064.159,258.07l7.278-4.263c4.21,2.381,8.162,2.724,11.115.967l-7.279,4.254C1072.28,260.793,1068.373,260.451,1064.159,258.07Z" transform="translate(-977.66 -179.747)" stroke="#000" stroke-linejoin="bevel" stroke-width="2"/>
              <path id="Path_1826" data-name="Path 1826" d="M1093.58,245.46a34.677,34.677,0,0,1,15.908,27.15c0,4.866-1.581,8.526-4.532,10.279s-6.915,1.423-11.126-.958l-85.386-49.26a2.2,2.2,0,0,1-.977-1.726c0-.5.291-.769.717-.665,5.012,1.248,8.526-2.078,8.547-8.057v-2.934c.03-10.013,7.184-14.047,15.845-8.97Z" transform="translate(-1007.279 -203.613)" fill="#f9d48a" stroke="#000" stroke-linejoin="bevel" stroke-width="2"/>
              <path id="Path_1827" data-name="Path 1827" d="M1016.5,210.5l7.28-4.264c2.911-1.681,6.924-1.455,11.354,1.1l-7.279,4.263C1023.427,209.046,1019.4,208.807,1016.5,210.5Z" transform="translate(-1002.559 -205.161)" fill="#f9d48a" stroke="#000" stroke-linejoin="bevel" stroke-width="2"/>
              <path id="Path_1828" data-name="Path 1828" d="M1087.216,257c0,4.876-1.58,8.526-4.544,10.278l-7.277,4.264c2.952-1.757,4.564-5.42,4.532-10.28L1087.2,257l-7.279,4.263a32,32,0,0,0-4.752-15.5l7.279-4.263-7.279,4.263a31.977,31.977,0,0,0-11.146-11.647l7.279-4.263A34.674,34.674,0,0,1,1087.216,257Z" transform="translate(-977.728 -192.264)" fill="#f9d48a" stroke="#000" stroke-linejoin="bevel" stroke-width="2"/>
              <path id="Path_1829" data-name="Path 1829" d="M1104.916,257.109a32.479,32.479,0,0,1,4.771,15.681c0,4.928-1.6,8.618-4.595,10.4s-6.988,1.446-11.251-.967l-.353-.209-84.981-49.045a2.565,2.565,0,0,1-1.165-2.08c0-.6.353-.926.853-.8,4.94,1.238,8.4-2.083,8.411-7.923v-2.891c0-10.118,7.216-14.213,16.024-9.13l61.013,35.187A32.371,32.371,0,0,1,1104.916,257.109Zm0,25.871c2.952-1.757,4.564-5.42,4.532-10.28a34.478,34.478,0,0,0-15.68-27.044L1032.64,210.4c-8.661-5.073-15.815-1.04-15.845,8.972v2.932c0,5.989-3.535,9.357-8.558,8.058-.417-.105-.708.166-.708.665a2.2,2.2,0,0,0,.977,1.725l85.334,49.264c4.159,2.381,8.164,2.724,11.126.958" transform="translate(-1007.343 -203.7)" stroke="#000" stroke-linejoin="bevel" stroke-width="2"/>
              <path id="Path_1831" data-name="Path 1831" d="M1064.029,233.965l7.279-4.254a32.362,32.362,0,0,1,11.322,11.781l-7.277,4.254A32.368,32.368,0,0,0,1064.029,233.965Z" transform="translate(-977.728 -192.336)" fill="#f9d48a" stroke="#000" stroke-linejoin="bevel" stroke-width="2"/>
              <path id="Path_1832" data-name="Path 1832" d="M1023.959,210.989l7.32-4.252,60.961,35.185-7.33,4.263Z" transform="translate(-998.662 -204.338)" fill="#f9d48a" stroke="#000" stroke-linejoin="bevel" stroke-width="2"/>
              <path id="Path_1833" data-name="Path 1833" d="M1023.959,210.856l7.32-4.263,60.961,35.2-7.33,4.254Z" transform="translate(-998.662 -204.413)" fill="#f9d48a" stroke="#000" stroke-linejoin="bevel" stroke-width="2"/>
              <path id="Path_1834" data-name="Path 1834" d="M1027.4,210.592l-.177-.084Zm-.405-.219-.239-.113Zm-.416-.2-.207-.1Zm-.406-.2-.207-.093Zm-.394-.177-.187-.072Zm-.385-.166-.177-.073Zm-.4-.155-.2-.062Zm-.385-.135-.186-.062Zm-.39-.125-.177-.052Zm-.384-.114-.208-.093Zm-.385-.1-.374-.084-.373-.082-.43-.065-.715-.052.416.239.364,0,.362.062.375.073.373.094.2.052Zm.375.093.2.062Zm.385.114.209.073Zm.385.125.209.073Zm.385.135.207.084Zm.395.157.2.082Zm.4.166.218.093Zm.394.177.282.125Zm.4.187a2.037,2.037,0,0,1,.269.135,1.865,1.865,0,0,0-.239-.084Zm.405.2.241.125Zm.407.219.415.228Zm-7.559-2.163-.333,0-.321,0-.323.062-.323.062-1.933,1.04.145-.082Zm.269-.146.146-.072Zm.28-.145.146-.062Zm.292-.126.145-.062Zm.291-.113.146-.053Zm.292-.105.155-.052Zm.3-.093.312-.084.312-.072.228.135Zm.323,0,8.708,2.028,7.142-4.159-.186-.1-7.132,4.159Z" transform="translate(-1002.519 -204.388)" fill="#f9d48a" stroke="#000" stroke-linejoin="bevel" stroke-width="2"/>
              <path id="Path_1835" data-name="Path 1835" d="M1078.773,254.435h0l-7.279,4.254h0Z" transform="translate(-973.828 -179.419)" fill="#f9d48a" stroke="#000" stroke-linejoin="bevel" stroke-width="2"/>
              <path id="Path_1836" data-name="Path 1836" d="M1071.433,241.7l7.279-4.254a32.453,32.453,0,0,1,4.771,15.692c0,4.917-1.6,8.618-4.595,10.4l-7.29,4.243c2.99-1.775,4.628-5.47,4.6-10.4A32.468,32.468,0,0,0,1071.433,241.7Z" transform="translate(-973.86 -188.293)" fill="#f9d48a" stroke="#000" stroke-linejoin="bevel" stroke-width="2"/>
            </g>
          </g>
          <g id="Group_483-2" data-name="Group 483-2" transform="translate(18.31 70.183)">
            <g id="Group_482-2" data-name="Group 482-2">
              <path id="Path_1284-2" data-name="Path 1284-2" d="M1036.225,229.912l-15.025-8.838a3.435,3.435,0,0,1-1.83-2.9c.125-.874,1.122-1.04,2.243-.406l15.025,8.87a3.579,3.579,0,0,1,1.924,2.88c-.093.924-1.1,1.143-2.256.478h-.084Z" transform="translate(-1019.37 -217.388)" fill="#4fcdc4" stroke="#000" stroke-linejoin="bevel" stroke-width="2"/>
            </g>
          </g>
          <g id="Group_485" data-name="Group 485" transform="translate(19.152 62.787)">
            <g id="Group_484" data-name="Group 484">
              <path id="Path_1285" data-name="Path 1285" d="M1087.207,254.867l-65.443-38.65a3.484,3.484,0,0,1-1.841-2.9c.136-.874,1.134-1.041,2.256-.417l65.443,38.659a3.576,3.576,0,0,1,1.925,2.88c-.093.926-1.1,1.143-2.256.478h-.084Z" transform="translate(-1019.923 -212.53)" fill="#4fcdc4" stroke="#000" stroke-linejoin="bevel" stroke-width="2"/>
            </g>
          </g>
        </g>
      </g>
    </g>
  </g>
</svg>
