<svg xmlns="http://www.w3.org/2000/svg" width="278.646" height="280.278" viewBox="0 0 278.646 280.278"><g transform="translate(1 1.102)"><g transform="translate(0 0)"><g transform="translate(46.24)"><path d="M1021.9,208.471l15.309-8.967c.307,20.955,14.7,45.692,32.811,56.321l-15.312,8.967C1036.514,254.163,1022.208,229.4,1021.9,208.471Z" transform="translate(-1021.51 -109.142)" stroke="#000" stroke-linejoin="bevel" stroke-width="2"/><path d="M1022.077,187.661l15.421-8.967-.195,66.637-15.4,8.977Z" transform="translate(-1021.51 -154.978)" stroke="#000" stroke-linejoin="bevel" stroke-width="2"/><path d="M1031.627,181.123l15.312-8.945c-6.095,3.539-9.537,10.937-9.669,20.865l-15.312,8.967C1022.089,192.082,1025.458,184.732,1031.627,181.123Z" transform="translate(-1021.391 -169.331)" stroke="#000" stroke-linejoin="bevel" stroke-width="2"/><path d="M1040.792,173.513c6.255-3.392,14.437-2.54,23.12,2.45L1048.6,184.93c-8.794-4.964-16.977-5.845-23.229-2.472l-.394.218,15.312-8.945Z" transform="translate(-1014.741 -170.883)" fill="#ff6b6b" stroke="#000" stroke-linejoin="bevel" stroke-width="2"/><path d="M1095.173,203.806a67.414,67.414,0,0,1,9.643,32.548l-15.308,8.967a66.994,66.994,0,0,0-9.647-32.567Z" transform="translate(-893.852 -99.666)" fill="#ff6b6b" stroke="#000" stroke-linejoin="bevel" stroke-width="2"/><path d="M1087.933,196.082a67.8,67.8,0,0,1,23.427,24.737l-15.424,8.955a67.784,67.784,0,0,0-23.425-24.724Z" transform="translate(-910.039 -116.679)" fill="#ff6b6b" stroke="#000" stroke-linejoin="bevel" stroke-width="2"/><path d="M1072.512,204.891l15.312-8.945c18.505,10.694,33.509,36.68,33.464,57.961l-15.311,8.951C1106.021,241.593,1091.017,215.607,1072.512,204.891Z" transform="translate(-910.039 -116.979)" fill="#ff6b6b" stroke="#000" stroke-linejoin="bevel" stroke-width="2"/><path d="M1032.36,181.85l15.421-8.948,128.592,74.237-15.421,8.967Z" transform="translate(-998.479 -167.736)" fill="#ff6b6b" stroke="#000" stroke-linejoin="bevel" stroke-width="2"/><path d="M1032.36,181.726l15.421-8.967,128.592,74.256-15.421,8.945Z" transform="translate(-998.479 -168.051)" fill="#ff6b6b" stroke="#000" stroke-linejoin="bevel" stroke-width="2"/><path d="M1047.665,172.875h.131l-15.309,8.945h-.134Z" transform="translate(-998.495 -167.796)" fill="#ff6b6b" stroke="#000" stroke-linejoin="bevel" stroke-width="2"/><path d="M1024.9,182.623l15.421-9.054.394-.221c6.322-3.456,14.656-2.537,23.514,2.562l-15.309,8.967c-8.75-5.111-17.173-6.018-23.517-2.556Z" transform="translate(-1014.922 -171.289)" fill="#ff6b6b" stroke="#000" stroke-linejoin="bevel" stroke-width="2"/><path d="M1102.042,246.328c.724.919,1.49,1.793,2.3,2.645l-15.421,8.967a26.631,26.631,0,0,1-2.187-2.645Z" transform="translate(-878.72 -6.006)" fill="#ff6b6b" stroke="#000" stroke-linejoin="bevel" stroke-width="2"/><path d="M1103.393,247.831l-15.312,8.971-.634-.679,15.421-8.967A2.13,2.13,0,0,0,1103.393,247.831Z" transform="translate(-877.142 -4.184)" fill="#ff6b6b" stroke="#000" stroke-linejoin="bevel" stroke-width="2"/><path d="M1102.956,247.366q1.162,1.225,2.36,2.3L1090,258.63q-1.225-1.114-2.357-2.187Z" transform="translate(-876.702 -3.719)" fill="#ff6b6b" stroke="#000" stroke-linejoin="bevel" stroke-width="2"/><path d="M1088.172,258.416l15.312-8.967a1.439,1.439,0,0,0,1.486.131l-15.309,8.967A1.5,1.5,0,0,1,1088.172,258.416Z" transform="translate(-875.546 0.869)" stroke="#000" stroke-linejoin="bevel" stroke-width="2"/><path d="M1104.077,248.691a3.561,3.561,0,0,1,.24,1.223L1089,258.863a4.165,4.165,0,0,0-.218-1.2Z" transform="translate(-874.191 -0.801)" fill="#ff6b6b" stroke="#000" stroke-linejoin="bevel" stroke-width="2"/><path d="M1104.626,249.087,1089.2,258.1a4.225,4.225,0,0,0-.852-1.028h0l15.312-8.967h0A4.394,4.394,0,0,1,1104.626,249.087Z" transform="translate(-875.154 -2.094)" fill="#ff6b6b" stroke="#000" stroke-linejoin="bevel" stroke-width="2"/><path d="M1104.453,249.264l-15.312,8.967a4.531,4.531,0,0,0-.2-.458l15.312-8.971-15.312,8.971h0a4.233,4.233,0,0,0-.33-.394l15.312-8.948A4.6,4.6,0,0,1,1104.453,249.264Z" transform="translate(-874.568 -1.373)" fill="#ff6b6b" stroke="#000" stroke-linejoin="bevel" stroke-width="2"/><path d="M1032.121,226.057l15.421-8.967L1227.03,320.724l-15.4,8.964Z" transform="translate(-999.006 -70.406)" stroke="#000" stroke-linejoin="bevel" stroke-width="2"/><path d="M1100.33,243.852l-15.308,8.948c0-.176-.2-.349-.285-.525l15.308-8.945Z" transform="translate(-883.112 -12.609)" fill="#ff6b6b" stroke="#000" stroke-linejoin="bevel" stroke-width="2"/><path d="M1099.257,241.623a53.981,53.981,0,0,0,2.556,5.467l-15.311,8.948a53.551,53.551,0,0,1-2.557-5.448Z" transform="translate(-884.856 -16.369)" fill="#ff6b6b" stroke="#000" stroke-linejoin="bevel" stroke-width="2"/><path d="M1099.453,242.09l-15.312,8.967c0-.24-.2-.461-.285-.7l15.312-8.945C1099.254,241.629,1099.341,241.872,1099.453,242.09Z" transform="translate(-885.052 -16.836)" fill="#ff6b6b" stroke="#000" stroke-linejoin="bevel" stroke-width="2"/><path d="M1100.126,243.494a59.617,59.617,0,0,0,6.095,9.08l-15.312,8.967a57.969,57.969,0,0,1-6.079-9.1Z" transform="translate(-882.907 -12.248)" fill="#ff6b6b" stroke="#000" stroke-linejoin="bevel" stroke-width="2"/><path d="M1104.066,249.477h0l-15.308,8.964h0l15.308-8.948-8.75,5.054-3.93,2.187-1.86,1.07c-.262.176-.567.525-.875.525h0Z" transform="translate(-874.488 0.931)" fill="#ff6b6b" stroke="#000" stroke-linejoin="bevel" stroke-width="2"/><path d="M1104.388,249.333a1,1,0,0,1-.394.461l-15.308,8.967a1.38,1.38,0,0,0,.372-.484Z" transform="translate(-874.415 0.613)" fill="#ff6b6b" stroke="#000" stroke-linejoin="bevel" stroke-width="2"/><path d="M1104.119,249.333h0l-15.312,8.945h0Z" transform="translate(-874.147 0.613)" fill="#ff6b6b" stroke="#000" stroke-linejoin="bevel" stroke-width="2"/><path d="M1104.273,249.073a2.467,2.467,0,0,1-.154.833l-15.312,8.945a1.839,1.839,0,0,0,.153-.829Z" transform="translate(-874.147 0.041)" fill="#ff6b6b" stroke="#000" stroke-linejoin="bevel" stroke-width="2"/><path d="M1089.432,258.06l15.312-8.945a1.681,1.681,0,0,1-.724,1.595l-15.308,8.945A1.684,1.684,0,0,0,1089.432,258.06Z" transform="translate(-874.356 0.133)" stroke="#000" stroke-linejoin="bevel" stroke-width="2"/><path d="M1104.132,249.641l-15.42,8.967v-.022Z" transform="translate(-874.356 1.292)" stroke="#000" stroke-linejoin="bevel" stroke-width="2"/><path d="M1098.547,239.5a55.439,55.439,0,0,0,1.989,6.127l-15.312,8.945a55.545,55.545,0,0,1-1.989-6.123Z" transform="translate(-886.42 -21.049)" fill="#ff6b6b" stroke="#000" stroke-linejoin="bevel" stroke-width="2"/><path d="M1104.167,249.073h0l-15.312,8.945h0l15.312-8.945Z" transform="translate(-874.041 0.041)" fill="#ff6b6b" stroke="#000" stroke-linejoin="bevel" stroke-width="2"/><path d="M1088.384,256.915l15.312-8.948a5.591,5.591,0,0,1,1.768,3.763l-15.312,8.948A5.619,5.619,0,0,0,1088.384,256.915Z" transform="translate(-875.079 -2.395)" fill="#9c4c4c" stroke="#000" stroke-linejoin="bevel" stroke-width="2"/><path d="M1098.239,237.265a42.6,42.6,0,0,0,1.227,7.155l-15.424,8.945a44.374,44.374,0,0,1-1.223-7.152Z" transform="translate(-887.338 -25.968)" fill="#ff6b6b" stroke="#000" stroke-linejoin="bevel" stroke-width="2"/><path d="M1098.164,238.106l-15.312,8.948v-1.2l15.312-8.967A4.324,4.324,0,0,0,1098.164,238.106Z" transform="translate(-887.263 -26.809)" fill="#ff6b6b" stroke="#000" stroke-linejoin="bevel" stroke-width="2"/><path d="M1083,222.936l15.4-8.967-.2,71.633-15.421,8.967Z" transform="translate(-887.431 -77.281)" fill="#ff6b6b" stroke="#000" stroke-linejoin="bevel" stroke-width="2"/><path d="M1083.1,222.992l15.421-8.948-.2,71.633-15.42,8.945Z" transform="translate(-887.158 -77.115)" fill="#ff6b6b" stroke="#000" stroke-linejoin="bevel" stroke-width="2"/><path d="M1098.213,236.336v1.749l-8.75,5.076-1.989,1.159L1084.563,246a9.039,9.039,0,0,1-1.79,1.047V245.3Z" transform="translate(-887.438 -28.014)" fill="#ff6b6b" stroke="#000" stroke-linejoin="bevel" stroke-width="2"/><path d="M1082.9,245.357l15.42-8.945c0,12.4,7.2,27.626,17.493,37.006l-15.309,8.948C1090.1,272.916,1082.855,257.758,1082.9,245.357Z" transform="translate(-887.159 -27.847)" fill="#ff6b6b" stroke="#000" stroke-linejoin="bevel" stroke-width="2"/><path d="M1235.086,419.6a5.619,5.619,0,0,1,1.768,3.763,1.687,1.687,0,0,1-.7,1.595,1.731,1.731,0,0,1-1.752-.154L1055.748,321.67l-.852-.48a74.107,74.107,0,0,1-33.115-57.026l.176-66.624c.131-10.28,3.76-17.848,10.191-21.346s14.678-2.556,23.514,2.553l128.592,74.237c18.505,10.719,33.509,36.7,33.465,57.964l-.2,71.633C1217.478,394.988,1224.719,410.146,1235.086,419.6Zm.785,4.9a1.486,1.486,0,0,0,.615-1.355,4.567,4.567,0,0,0-1.512-3.145c-10.54-9.56-17.87-25.022-17.848-37.625l.2-71.633c0-21.032-14.767-46.7-33.074-57.286l-128.217-74.042c-9.1-5.252-17.345-6.149-23.623-2.754s-9.922,10.934-10.063,21.105l-.173,66.637c.3,20.936,14.674,45.692,32.808,56.325L1234.5,424.356a1.51,1.51,0,0,0,1.467.131" transform="translate(-1021.781 -165.077)" stroke="#000" stroke-linejoin="bevel" stroke-width="2"/><path d="M1184.042,253.111c18.306,10.588,33.138,36.244,33.071,57.285l-.2,71.633c0,12.6,7.305,28.065,17.848,37.625a4.565,4.565,0,0,1,1.509,3.145,1.482,1.482,0,0,1-.612,1.355,1.51,1.51,0,0,1-1.467-.131L1054.685,320.392c-18.044-10.63-32.414-35.383-32.808-56.322l.263-66.64c.131-10.127,3.7-17.627,10.06-21.105s14.524-2.5,23.251,2.53Z" transform="translate(-1021.57 -164.74)" fill="#ff6b6b" stroke="#000" stroke-linejoin="bevel" stroke-width="2"/></g><g transform="translate(68.834 51.644)"><path d="M1105.392,236.589l-72.4-41.3a7.494,7.494,0,0,1-4.154-6.015c.154-1.966,2.3-2.45,4.746-1.092h.176l72.4,41.279a7.324,7.324,0,0,1,3.958,6.059C1109.882,237.483,1107.775,237.9,1105.392,236.589Z" transform="translate(-1028.836 -187.415)" fill="#4fcdc4" stroke="#000" stroke-miterlimit="10" stroke-width="2"/></g><g transform="translate(70.368 35.967)"><path d="M1172.954,270.01,1033.469,190.4a7.586,7.586,0,0,1-4.154-6.015c.173-1.966,2.188-2.45,4.746-1.092h.176l139.481,79.7a7.321,7.321,0,0,1,3.958,6.146C1177.437,270.9,1175.336,271.32,1172.954,270.01Z" transform="translate(-1029.315 -182.52)" fill="#4fcdc4" stroke="#000" stroke-miterlimit="10" stroke-width="2"/></g><g transform="translate(65.247 82.595)"><path d="M1171.351,284.486,1031.87,204.955a7.5,7.5,0,0,1-4.154-6.015c.154-1.966,2.3-2.45,4.747-1.092h.176l139.481,79.64a7.319,7.319,0,0,1,3.958,6.056C1175.816,285.405,1173.737,285.822,1171.351,284.486Z" transform="translate(-1027.716 -197.079)" fill="#4fcdc4" stroke="#000" stroke-miterlimit="10" stroke-width="2"/></g><g transform="translate(67.105 67.162)"><path d="M1064.473,218.391l-32-18.265a7.551,7.551,0,0,1-4.179-6.015c.176-1.947,2.3-2.45,4.769-1.07h.176l32,18.261a7.347,7.347,0,0,1,3.981,6.063C1068.96,219.242,1066.865,219.726,1064.473,218.391Z" transform="translate(-1028.296 -192.26)" fill="#4fcdc4" stroke="#000" stroke-miterlimit="10" stroke-width="2"/></g><g transform="translate(0 108.48)"><path d="M1007.992,228.856l15.421-8.945a1.442,1.442,0,0,0-.589,1.313,4.583,4.583,0,0,0,2.056,3.609l-15.312,8.967a4.63,4.63,0,0,1-2.056-3.632A1.447,1.447,0,0,1,1007.992,228.856Z" transform="translate(-1007.009 -172.673)" stroke="#000" stroke-linejoin="bevel" stroke-width="2"/><path d="M1007.65,229.7l15.421-8.945a1.116,1.116,0,0,1,.9-.109,14.138,14.138,0,0,0,10.739-1.114L1019.4,228.5a14.179,14.179,0,0,1-10.719,1.114A1.294,1.294,0,0,0,1007.65,229.7Z" transform="translate(-1006.667 -173.514)" fill="#f9d48a" stroke="#000" stroke-linejoin="bevel" stroke-width="2"/><path d="M1007.568,229.521l15.421-8.948a1.363,1.363,0,0,1,1.073-.109,14,14,0,0,0,10.562-1.092l-15.312,8.945a13.8,13.8,0,0,1-10.671,1.2A1.547,1.547,0,0,0,1007.568,229.521Z" transform="translate(-1006.847 -173.86)" fill="#a1895a" stroke="#000" stroke-linejoin="bevel" stroke-width="2"/><path d="M1026.627,230.421l-15.309,8.967c4.5-2.626,7.231-8.192,7.261-15.837l15.305-8.967C1033.845,222.238,1031.133,227.795,1026.627,230.421Z" transform="translate(-998.588 -184.406)" stroke="#000" stroke-linejoin="bevel" stroke-width="2"/><path d="M1013.551,221.625l15.421-8.967-.02,6.168-15.4,8.967Z" transform="translate(-993.669 -188.649)" stroke="#000" stroke-linejoin="bevel" stroke-width="2"/><path d="M1023.246,214.965l15.312-8.945c-5.951,3.456-9.666,10.828-9.688,21.262l-15.312,8.967C1013.58,225.793,1017.276,218.443,1023.246,214.965Z" transform="translate(-993.654 -203.27)" stroke="#000" stroke-linejoin="bevel" stroke-width="2"/><path d="M1064.159,262.774l15.311-8.967c8.856,5.009,17.17,5.73,23.383,2.034l-15.312,8.948C1081.242,268.5,1073.024,267.783,1064.159,262.774Z" transform="translate(-882.198 -98.012)" stroke="#000" stroke-linejoin="bevel" stroke-width="2"/><path d="M1188.617,286.665a72.947,72.947,0,0,1,33.464,57.113c0,10.236-3.325,17.935-9.534,21.624s-14.546,2.994-23.4-2.014l-179.62-103.624a4.629,4.629,0,0,1-2.056-3.632c0-1.047.612-1.617,1.508-1.4,10.543,2.626,17.935-4.372,17.98-16.948v-6.171c.064-21.064,15.113-29.551,33.333-18.87Z" transform="translate(-1007.072 -198.635)" fill="#f9d48a" stroke="#000" stroke-linejoin="bevel" stroke-width="2"/><path d="M1016.5,216.4l15.315-8.971c6.124-3.536,14.566-3.062,23.885,2.319l-15.312,8.967C1031.07,213.334,1022.6,212.831,1016.5,216.4Z" transform="translate(-987.171 -205.161)" fill="#f9d48a" stroke="#000" stroke-linejoin="bevel" stroke-width="2"/><path d="M1112.8,286.961c0,10.258-3.324,17.935-9.56,21.621l-15.309,8.971c6.21-3.7,9.6-11.4,9.534-21.624l15.312-8.967-15.312,8.967a67.326,67.326,0,0,0-10-32.612l15.312-8.967-15.312,8.967a67.27,67.27,0,0,0-23.446-24.5l15.312-8.967A72.941,72.941,0,0,1,1112.8,286.961Z" transform="translate(-882.484 -150.785)" fill="#f9d48a" stroke="#000" stroke-linejoin="bevel" stroke-width="2"/><path d="M1212.6,311.354a68.326,68.326,0,0,1,10.037,32.987c0,10.367-3.369,18.13-9.666,21.871s-14.7,3.042-23.667-2.034l-.743-.439L1009.793,260.566a5.4,5.4,0,0,1-2.45-4.375c0-1.268.743-1.947,1.793-1.685,10.393,2.6,17.666-4.381,17.695-16.667v-6.082c0-21.285,15.181-29.9,33.708-19.206l128.349,74.019A68.093,68.093,0,0,1,1212.6,311.354Zm0,54.422c6.21-3.7,9.6-11.4,9.535-21.624a72.529,72.529,0,0,0-32.984-56.891L1060.558,213.1c-18.22-10.671-33.269-2.187-33.333,18.873v6.168c0,12.6-7.437,19.683-18,16.952-.877-.221-1.489.349-1.489,1.4a4.628,4.628,0,0,0,2.056,3.629L1189.3,363.755c8.75,5.009,17.173,5.729,23.405,2.014" transform="translate(-1007.343 -199)" stroke="#000" stroke-linejoin="bevel" stroke-width="2"/><path d="M1064.029,238.659l15.312-8.948a68.076,68.076,0,0,1,23.818,24.782l-15.308,8.948A68.09,68.09,0,0,0,1064.029,238.659Z" transform="translate(-882.484 -151.087)" fill="#f9d48a" stroke="#000" stroke-linejoin="bevel" stroke-width="2"/><path d="M1023.959,215.682l15.4-8.945,128.24,74.016-15.42,8.967Z" transform="translate(-970.744 -201.691)" fill="#f9d48a" stroke="#000" stroke-linejoin="bevel" stroke-width="2"/><path d="M1023.959,215.56l15.4-8.967,128.24,74.038-15.42,8.948Z" transform="translate(-970.744 -202.008)" fill="#f9d48a" stroke="#000" stroke-linejoin="bevel" stroke-width="2"/><path d="M1039.338,214.952l-.372-.176Zm-.852-.461-.5-.237Zm-.875-.413-.436-.218Zm-.855-.416-.435-.2Zm-.829-.372-.394-.151Zm-.81-.349-.371-.154Zm-.833-.327-.414-.131Zm-.81-.285-.391-.131Zm-.82-.263-.371-.109Zm-.807-.24-.438-.2Zm-.811-.218-.787-.176-.784-.173-.9-.138-1.5-.109.875.5.765,0,.762.131.788.154.785.2.416.109Zm.788.2.413.131Zm.81.24.439.154Zm.81.263.439.154Zm.81.285.436.176Zm.83.33.416.173Zm.833.349.458.2Zm.829.371.592.263Zm.833.394a4.29,4.29,0,0,1,.567.285,3.911,3.911,0,0,0-.5-.176Zm.852.413.506.263Zm.855.461.874.48Zm-15.9-4.551-.7,0-.676,0-.679.131-.679.131-4.067,2.187.3-.173Zm.567-.307.307-.151Zm.589-.3.307-.131Zm.615-.266.3-.131Zm.612-.237.307-.112Zm.615-.221.327-.109Zm.634-.2.657-.176.657-.15.48.285Zm.679,0,18.319,4.266,15.024-8.749-.391-.218-15,8.75Z" transform="translate(-987.004 -201.902)" fill="#f9d48a" stroke="#000" stroke-linejoin="bevel" stroke-width="2"/><path d="M1086.806,254.435h0l-15.312,8.948h0Z" transform="translate(-866.042 -96.629)" fill="#f9d48a" stroke="#000" stroke-linejoin="bevel" stroke-width="2"/><path d="M1071.433,246.4l15.312-8.948a68.266,68.266,0,0,1,10.037,33.009c0,10.345-3.37,18.13-9.666,21.871l-15.334,8.926c6.29-3.734,9.736-11.507,9.669-21.874A68.305,68.305,0,0,0,1071.433,246.4Z" transform="translate(-866.176 -134.043)" fill="#f9d48a" stroke="#000" stroke-linejoin="bevel" stroke-width="2"/></g><g transform="translate(38.518 147.638)"><path d="M1054.827,243.733l-31.607-18.591a7.227,7.227,0,0,1-3.85-6.095c.263-1.838,2.36-2.187,4.718-.855l31.607,18.658a7.529,7.529,0,0,1,4.048,6.059c-.2,1.944-2.319,2.405-4.746,1.006h-.176Z" transform="translate(-1019.37 -217.388)" fill="#4fcdc4" stroke="#000" stroke-linejoin="bevel" stroke-width="2"/></g><g transform="translate(40.289 132.08)"><path d="M1161.464,301.592l-137.669-81.305a7.329,7.329,0,0,1-3.872-6.091c.285-1.838,2.386-2.191,4.747-.878l137.668,81.325a7.523,7.523,0,0,1,4.049,6.059c-.2,1.947-2.316,2.405-4.747,1.006h-.176Z" transform="translate(-1019.923 -212.53)" fill="#4fcdc4" stroke="#000" stroke-linejoin="bevel" stroke-width="2"/></g></g></g></svg>