<svg xmlns="http://www.w3.org/2000/svg" xmlns:xlink="http://www.w3.org/1999/xlink" width="101.85" height="172.071" viewBox="0 0 101.85 172.071">
  <defs>
    <clipPath id="clip-path">
      <path id="Path_3398" data-name="Path 3398" d="M149.4,10.467l1.889-1.091a4.68,4.68,0,0,1,3.3.266L152.7,10.733A4.83,4.83,0,0,0,149.4,10.467Z" transform="translate(-149.4 -9.186)" stroke="#000" stroke-linejoin="round" stroke-width="2"/>
    </clipPath>
  </defs>
  <g id="pause" transform="translate(-142.5 -2.895)">
    <g id="Group_1286" data-name="Group 1286" transform="translate(144.059 32.575)">
      <g id="Group_1285" data-name="Group 1285" transform="translate(0)">
        <g id="Group_1284" data-name="Group 1284">
          <g id="Group_1278" data-name="Group 1278" transform="translate(1.703)">
            <path id="Path_3342" data-name="Path 3342" d="M152,113.5l2.528-1.464c1.224-.719,3.06-.532,5.136.665l-2.528,1.464C155.06,112.969,153.224,112.783,152,113.5Z" transform="translate(-152 -111.616)" fill="#f9c975" stroke="#000" stroke-linejoin="round" stroke-width="2"/>
          </g>
          <g id="Group_1279" data-name="Group 1279" transform="translate(94.262 136.411)">
            <path id="Path_3343" data-name="Path 3343" d="M502.328,627.261l-2.528,1.464a3.282,3.282,0,0,0,1.49-3.06l2.528-1.464A3.391,3.391,0,0,1,502.328,627.261Z" transform="translate(-499.8 -624.2)" fill="#f9c975" stroke="#000" stroke-linejoin="round" stroke-width="2"/>
          </g>
          <g id="Group_1280" data-name="Group 1280" transform="translate(6.84 1.06)">
            <path id="Path_3344" data-name="Path 3344" d="M171.3,117.09l2.528-1.49,82.525,47.636-2.528,1.49Z" transform="translate(-171.3 -115.6)" fill="#f9c975" stroke="#000" stroke-linejoin="round" stroke-width="2"/>
          </g>
          <g id="Group_1281" data-name="Group 1281" transform="translate(95.725 58.729)">
            <path id="Path_3345" data-name="Path 3345" d="M505.513,333.79l2.555-1.49-.24,77.682-2.528,1.49Z" transform="translate(-505.3 -332.3)" fill="#f9c975" stroke="#000" stroke-linejoin="round" stroke-width="2"/>
          </g>
          <g id="Group_1282" data-name="Group 1282" transform="translate(0 1.473)">
            <path id="Path_3346" data-name="Path 3346" d="M234.964,165.864c3.646,2.1,6.6,6.6,6.573,10.033l-.213,77.682c0,3.433-2.981,4.5-6.626,2.4l-82.525-47.636c-3.646-2.1-6.6-6.6-6.573-10.033l.213-77.682c0-3.433,2.981-4.5,6.627-2.4Z" transform="translate(-145.599 -117.149)" fill="#f9c975" stroke="#000" stroke-linejoin="round" stroke-width="2"/>
          </g>
          <g id="Group_1283" data-name="Group 1283" transform="translate(89.365 48.723)">
            <path id="Path_3347" data-name="Path 3347" d="M481.4,296.164l2.528-1.464c3.646,2.1,6.6,6.6,6.573,10.033l-2.528,1.464C488,302.764,485.046,298.266,481.4,296.164Z" transform="translate(-481.4 -294.7)" fill="#f9c975" stroke="#000" stroke-linejoin="round" stroke-width="2"/>
          </g>
        </g>
      </g>
    </g>
    <g id="Group_1292" data-name="Group 1292" transform="translate(145.23 19.797)">
      <g id="Group_1291" data-name="Group 1291">
        <g id="Group_1290" data-name="Group 1290">
          <g id="Group_1287" data-name="Group 1287" transform="translate(0 1.623)">
            <path id="Path_3348" data-name="Path 3348" d="M245.326,124.708l-.027,15.329L150,85.029l.053-15.329Z" transform="translate(-150 -69.7)" fill="#4fcdc4" stroke="#000" stroke-linejoin="round" stroke-width="2"/>
          </g>
          <g id="Group_1288" data-name="Group 1288" transform="translate(95.299 55.035)">
            <path id="Path_3349" data-name="Path 3349" d="M508.127,272l2.794-1.6-.053,15.3-2.768,1.623Z" transform="translate(-508.1 -270.4)" fill="#4fcdc4" stroke="#000" stroke-linejoin="round" stroke-width="2"/>
          </g>
          <g id="Group_1289" data-name="Group 1289" transform="translate(0.053)">
            <path id="Path_3350" data-name="Path 3350" d="M150.2,65.223l2.794-1.623,95.273,55.035-2.794,1.6Z" transform="translate(-150.2 -63.6)" fill="#4fcdc4" stroke="#000" stroke-linejoin="round" stroke-width="2"/>
          </g>
        </g>
      </g>
    </g>
    <g id="Group_1301" data-name="Group 1301" transform="translate(145.23 3.912)">
      <g id="Group_1300" data-name="Group 1300" transform="translate(0 0)">
        <g id="Group_1299" data-name="Group 1299">
          <g id="Group_1293" data-name="Group 1293" transform="translate(1.969)">
            <path id="Path_3351" data-name="Path 3351" d="M157.4,5.985l2.794-1.623a4.112,4.112,0,0,1,3.752,0l-2.794,1.623A4.112,4.112,0,0,0,157.4,5.985Z" transform="translate(-157.4 -3.912)" fill="#4fcdc4" stroke="#000" stroke-linejoin="round" stroke-width="2"/>
          </g>
          <g id="Group_1294" data-name="Group 1294" transform="translate(5.722 0.449)">
            <path id="Path_3352" data-name="Path 3352" d="M171.5,7.223,174.294,5.6a6.124,6.124,0,0,1,.852.4l-2.794,1.623A7.984,7.984,0,0,0,171.5,7.223Z" transform="translate(-171.5 -5.6)" fill="#4fcdc4" stroke="#000" stroke-linejoin="round" stroke-width="2"/>
          </g>
          <g id="Group_1295" data-name="Group 1295" transform="translate(95.299 59.768)">
            <path id="Path_3353" data-name="Path 3353" d="M508.1,230.123l2.794-1.623-.027,7.664-2.768,1.623Z" transform="translate(-508.1 -228.5)" fill="#4fcdc4" stroke="#000" stroke-linejoin="round" stroke-width="2"/>
          </g>
          <g id="Group_1296" data-name="Group 1296" transform="translate(6.573 0.875)">
            <path id="Path_3354" data-name="Path 3354" d="M174.7,8.8l2.768-1.6,82.206,47.45-2.794,1.623Z" transform="translate(-174.7 -7.2)" fill="#4fcdc4" stroke="#000" stroke-linejoin="round" stroke-width="2"/>
          </g>
          <g id="Group_1297" data-name="Group 1297" transform="translate(0 1.628)">
            <path id="Path_3355" data-name="Path 3355" d="M156.573,10.872l82.206,47.45a13.181,13.181,0,0,1,4.631,4.923,13.716,13.716,0,0,1,1.916,6.52L245.3,77.43,150,22.449l.027-7.664c0-3.832,2.448-5.668,5.7-4.311A7.987,7.987,0,0,1,156.573,10.872Z" transform="translate(-150 -10.028)" fill="#4fcdc4" stroke="#000" stroke-linejoin="round" stroke-width="2"/>
          </g>
          <g id="Group_1298" data-name="Group 1298" transform="translate(88.753 48.325)">
            <path id="Path_3356" data-name="Path 3356" d="M483.5,187.123l2.794-1.623a13.181,13.181,0,0,1,4.631,4.923,13.717,13.717,0,0,1,1.916,6.52l-2.794,1.623a13.633,13.633,0,0,0-1.916-6.52A12.785,12.785,0,0,0,483.5,187.123Z" transform="translate(-483.5 -185.5)" fill="#4fcdc4" stroke="#000" stroke-linejoin="round" stroke-width="2"/>
          </g>
        </g>
      </g>
    </g>
    <g id="Group_1322" data-name="Group 1322" transform="translate(143.5 25.918)">
      <g id="Group_1321" data-name="Group 1321">
        <g id="Group_1320" data-name="Group 1320">
          <g id="Group_1302" data-name="Group 1302">
            <path id="Path_3357" data-name="Path 3357" d="M143.5,95.276l1.889-1.091L158.829,86.6l-1.89,1.091Z" transform="translate(-143.5 -86.6)" fill="#813636" stroke="#000" stroke-linejoin="round" stroke-width="2"/>
          </g>
          <g id="Group_1303" data-name="Group 1303" transform="translate(0 1.091)">
            <path id="Path_3358" data-name="Path 3358" d="M161.676,93.441,148.237,101,143.5,98.285,156.939,90.7Z" transform="translate(-143.5 -90.7)" fill="#893939" stroke="#000" stroke-linejoin="round" stroke-width="2"/>
          </g>
          <g id="Group_1304" data-name="Group 1304" transform="translate(13.439)">
            <path id="Path_3359" data-name="Path 3359" d="M194,87.691l1.889-1.091,4.737,2.741-1.889,1.091Z" transform="translate(-194 -86.6)" fill="#dc5c5c" stroke="#000" stroke-linejoin="round" stroke-width="2"/>
          </g>
          <g id="Group_1305" data-name="Group 1305" transform="translate(15.089 8.702)">
            <path id="Path_3360" data-name="Path 3360" d="M200.2,127.976l1.863-1.091,13.466-7.585-1.889,1.091Z" transform="translate(-200.2 -119.3)" fill="#813636" stroke="#000" stroke-linejoin="round" stroke-width="2"/>
          </g>
          <g id="Group_1306" data-name="Group 1306" transform="translate(28.529 8.702)">
            <path id="Path_3361" data-name="Path 3361" d="M250.7,120.391l1.889-1.091,4.71,2.741-1.863,1.091Z" transform="translate(-250.7 -119.3)" fill="#dc5c5c" stroke="#000" stroke-linejoin="round" stroke-width="2"/>
          </g>
          <g id="Group_1307" data-name="Group 1307" transform="translate(15.089 9.793)">
            <path id="Path_3362" data-name="Path 3362" d="M218.376,126.141l-13.466,7.585-4.71-2.741,13.439-7.585Z" transform="translate(-200.2 -123.4)" fill="#893939" stroke="#000" stroke-linejoin="round" stroke-width="2"/>
          </g>
          <g id="Group_1308" data-name="Group 1308" transform="translate(30.179 17.405)">
            <path id="Path_3363" data-name="Path 3363" d="M256.9,160.676l1.863-1.091L272.229,152l-1.89,1.091Z" transform="translate(-256.9 -152)" fill="#813636" stroke="#000" stroke-linejoin="round" stroke-width="2"/>
          </g>
          <g id="Group_1309" data-name="Group 1309" transform="translate(30.179 18.496)">
            <path id="Path_3364" data-name="Path 3364" d="M275.05,158.841l-13.439,7.585-4.71-2.741,13.439-7.585Z" transform="translate(-256.9 -156.1)" fill="#893939" stroke="#000" stroke-linejoin="round" stroke-width="2"/>
          </g>
          <g id="Group_1310" data-name="Group 1310" transform="translate(43.618 17.405)">
            <path id="Path_3365" data-name="Path 3365" d="M307.4,153.091,309.289,152l4.71,2.741-1.889,1.091Z" transform="translate(-307.4 -152)" fill="#dc5c5c" stroke="#000" stroke-linejoin="round" stroke-width="2"/>
          </g>
          <g id="Group_1311" data-name="Group 1311" transform="translate(45.241 26.133)">
            <path id="Path_3366" data-name="Path 3366" d="M313.5,193.476l1.889-1.118,13.439-7.558-1.863,1.091Z" transform="translate(-313.5 -184.8)" fill="#813636" stroke="#000" stroke-linejoin="round" stroke-width="2"/>
          </g>
          <g id="Group_1312" data-name="Group 1312" transform="translate(45.241 27.225)">
            <path id="Path_3367" data-name="Path 3367" d="M331.676,191.614,318.237,199.2l-4.737-2.714,13.466-7.585Z" transform="translate(-313.5 -188.9)" fill="#893939" stroke="#000" stroke-linejoin="round" stroke-width="2"/>
          </g>
          <g id="Group_1313" data-name="Group 1313" transform="translate(58.707 26.133)">
            <path id="Path_3368" data-name="Path 3368" d="M364.1,185.891l1.863-1.091,4.737,2.714-1.889,1.091Z" transform="translate(-364.1 -184.8)" fill="#dc5c5c" stroke="#000" stroke-linejoin="round" stroke-width="2"/>
          </g>
          <g id="Group_1314" data-name="Group 1314" transform="translate(60.331 34.836)">
            <path id="Path_3369" data-name="Path 3369" d="M370.2,226.176l1.889-1.091,13.439-7.585-1.889,1.091Z" transform="translate(-370.2 -217.5)" fill="#813636" stroke="#000" stroke-linejoin="round" stroke-width="2"/>
          </g>
          <g id="Group_1315" data-name="Group 1315" transform="translate(60.331 35.927)">
            <path id="Path_3370" data-name="Path 3370" d="M388.376,224.314,374.91,231.9l-4.71-2.714,13.439-7.585Z" transform="translate(-370.2 -221.6)" fill="#893939" stroke="#000" stroke-linejoin="round" stroke-width="2"/>
          </g>
          <g id="Group_1316" data-name="Group 1316" transform="translate(73.77 34.836)">
            <path id="Path_3371" data-name="Path 3371" d="M420.7,218.591l1.889-1.091,4.737,2.714-1.889,1.091Z" transform="translate(-420.7 -217.5)" fill="#dc5c5c" stroke="#000" stroke-linejoin="round" stroke-width="2"/>
          </g>
          <g id="Group_1317" data-name="Group 1317" transform="translate(75.42 43.538)">
            <path id="Path_3372" data-name="Path 3372" d="M426.9,258.876l1.863-1.091,13.466-7.585-1.889,1.091Z" transform="translate(-426.9 -250.2)" fill="#813636" stroke="#000" stroke-linejoin="round" stroke-width="2"/>
          </g>
          <g id="Group_1318" data-name="Group 1318" transform="translate(75.42 44.629)">
            <path id="Path_3373" data-name="Path 3373" d="M445.076,257.041,431.61,264.6l-4.71-2.715,13.439-7.585Z" transform="translate(-426.9 -254.3)" fill="#893939" stroke="#000" stroke-linejoin="round" stroke-width="2"/>
          </g>
          <g id="Group_1319" data-name="Group 1319" transform="translate(88.859 43.538)">
            <path id="Path_3374" data-name="Path 3374" d="M477.4,251.291l1.889-1.091,4.71,2.741-1.863,1.091Z" transform="translate(-477.4 -250.2)" fill="#dc5c5c" stroke="#000" stroke-linejoin="round" stroke-width="2"/>
          </g>
        </g>
      </g>
    </g>
    <g id="Group_1336" data-name="Group 1336" transform="translate(169.527 68.797)">
      <g id="Group_1335" data-name="Group 1335" transform="translate(0)">
        <g id="Group_1328" data-name="Group 1328">
          <g id="Group_1323" data-name="Group 1323" transform="translate(8.543 47.656)">
            <path id="Path_3375" data-name="Path 3375" d="M277.152,429.993l-3.752,2.182a3.472,3.472,0,0,0,1.464-3.194l3.752-2.182A3.621,3.621,0,0,1,277.152,429.993Z" transform="translate(-273.4 -426.8)" fill="#ff6b6b" stroke="#000" stroke-linejoin="round" stroke-width="2"/>
          </g>
          <g id="Group_1324" data-name="Group 1324" transform="translate(9.98 9.334)">
            <path id="Path_3376" data-name="Path 3376" d="M278.933,284.982l3.752-2.182-.133,38.3-3.752,2.182Z" transform="translate(-278.8 -282.8)" fill="#ff6b6b" stroke="#000" stroke-linejoin="round" stroke-width="2"/>
          </g>
          <g id="Group_1325" data-name="Group 1325" transform="translate(1.57)">
            <path id="Path_3377" data-name="Path 3377" d="M247.2,250.248l3.752-2.182a3.543,3.543,0,0,1,3.566.346l-3.752,2.182A3.543,3.543,0,0,0,247.2,250.248Z" transform="translate(-247.2 -247.727)" fill="#ff6b6b" stroke="#000" stroke-linejoin="round" stroke-width="2"/>
          </g>
          <g id="Group_1326" data-name="Group 1326" transform="translate(0 2.195)">
            <path id="Path_3378" data-name="Path 3378" d="M246.409,256.648a10.909,10.909,0,0,1,4.977,8.622l-.106,38.3c0,3.167-2.262,4.444-5,2.848a10.909,10.909,0,0,1-4.977-8.622l.106-38.3C241.406,256.355,243.668,255.078,246.409,256.648Z" transform="translate(-241.299 -255.976)" fill="#ff6b6b" stroke="#000" stroke-linejoin="round" stroke-width="2"/>
          </g>
          <g id="Group_1327" data-name="Group 1327" transform="translate(5.11 0.685)">
            <path id="Path_3379" data-name="Path 3379" d="M260.5,252.482l3.752-2.182a10.909,10.909,0,0,1,4.977,8.622l-3.752,2.182A10.949,10.949,0,0,0,260.5,252.482Z" transform="translate(-260.5 -250.3)" fill="#ff6b6b" stroke="#000" stroke-linejoin="round" stroke-width="2"/>
          </g>
        </g>
        <g id="Group_1334" data-name="Group 1334" transform="translate(20.013 11.55)">
          <g id="Group_1329" data-name="Group 1329" transform="translate(8.516 47.629)">
            <path id="Path_3380" data-name="Path 3380" d="M352.252,473.294l-3.752,2.182a3.472,3.472,0,0,0,1.464-3.193l3.752-2.182A3.442,3.442,0,0,1,352.252,473.294Z" transform="translate(-348.5 -470.1)" fill="#ff6b6b" stroke="#000" stroke-linejoin="round" stroke-width="2"/>
          </g>
          <g id="Group_1330" data-name="Group 1330" transform="translate(9.98 9.334)">
            <path id="Path_3381" data-name="Path 3381" d="M354.106,328.382l3.752-2.182-.106,38.3L354,366.678Z" transform="translate(-354 -326.2)" fill="#ff6b6b" stroke="#000" stroke-linejoin="round" stroke-width="2"/>
          </g>
          <g id="Group_1331" data-name="Group 1331" transform="translate(1.544)">
            <path id="Path_3382" data-name="Path 3382" d="M322.3,293.648l3.752-2.182a3.543,3.543,0,0,1,3.566.346l-3.752,2.182A3.541,3.541,0,0,0,322.3,293.648Z" transform="translate(-322.3 -291.127)" fill="#ff6b6b" stroke="#000" stroke-linejoin="round" stroke-width="2"/>
          </g>
          <g id="Group_1332" data-name="Group 1332" transform="translate(0 2.18)">
            <path id="Path_3383" data-name="Path 3383" d="M321.609,300a10.909,10.909,0,0,1,4.977,8.622l-.106,38.322c0,3.167-2.262,4.444-5,2.848a10.909,10.909,0,0,1-4.977-8.622l.106-38.3C316.606,299.685,318.841,298.408,321.609,300Z" transform="translate(-316.499 -299.317)" fill="#ff6b6b" stroke="#000" stroke-linejoin="round" stroke-width="2"/>
          </g>
          <g id="Group_1333" data-name="Group 1333" transform="translate(5.11 0.685)">
            <path id="Path_3384" data-name="Path 3384" d="M335.7,295.882l3.752-2.182a10.909,10.909,0,0,1,4.977,8.622l-3.752,2.182A10.979,10.979,0,0,0,335.7,295.882Z" transform="translate(-335.7 -293.7)" fill="#ff6b6b" stroke="#000" stroke-linejoin="round" stroke-width="2"/>
          </g>
        </g>
      </g>
    </g>
    <g id="Group_1358" data-name="Group 1358" transform="translate(145.07 5.316)">
      <g id="Group_1357" data-name="Group 1357" transform="translate(0)">
        <g id="Group_1356" data-name="Group 1356">
          <g id="Group_1337" data-name="Group 1337" transform="translate(3.3 0.483)">
            <path id="Path_3385" data-name="Path 3385" d="M161.8,12.091,163.689,11,177,33.94l-1.889,1.091Z" transform="translate(-161.8 -11)" fill="#fd6a6a" stroke="#000" stroke-linejoin="round" stroke-width="2"/>
          </g>
          <g id="Group_1338" data-name="Group 1338" transform="translate(0 1.1)">
            <path id="Path_3386" data-name="Path 3386" d="M152.7,13.793l13.306,22.94-4.737-2.741L149.4,13.5A4.7,4.7,0,0,1,152.7,13.793Z" transform="translate(-149.4 -13.32)" fill="#893939" stroke="#000" stroke-linejoin="round" stroke-width="2"/>
          </g>
          <g id="Group_1340" data-name="Group 1340">
            <g id="Group_1339" data-name="Group 1339" clip-path="url(#clip-path)">
              <path id="Path_3387" data-name="Path 3387" d="M149.4,10.7l1.889-1.091a2.253,2.253,0,0,1,.452-.106l-1.889,1.091a2.254,2.254,0,0,0-.452.106" transform="translate(-149.4 -9.417)" fill="#8a3a3a" stroke="#000" stroke-linejoin="round" stroke-width="2"/>
              <path id="Path_3388" data-name="Path 3388" d="M151,10.444l1.889-1.091a2.088,2.088,0,0,1,.373-.053l-1.889,1.091a2.088,2.088,0,0,0-.373.053" transform="translate(-150.574 -9.27)" fill="#8f3c3c" stroke="#000" stroke-linejoin="round" stroke-width="2"/>
              <path id="Path_3389" data-name="Path 3389" d="M152.5,10.318l1.889-1.091c.106,0,.24-.027.346-.027l-1.889,1.091a1.518,1.518,0,0,0-.346.027" transform="translate(-151.675 -9.196)" fill="#943e3e" stroke="#000" stroke-linejoin="round" stroke-width="2"/>
              <path id="Path_3390" data-name="Path 3390" d="M153.8,10.291,155.689,9.2h.319l-1.889,1.091H153.8" transform="translate(-152.629 -9.196)" fill="#994040" stroke="#000" stroke-linejoin="round" stroke-width="2"/>
              <path id="Path_3391" data-name="Path 3391" d="M155,10.391,156.889,9.3c.106,0,.213.027.293.027l-1.889,1.091a1,1,0,0,0-.293-.027" transform="translate(-153.51 -9.27)" fill="#9e4242" stroke="#000" stroke-linejoin="round" stroke-width="2"/>
              <path id="Path_3392" data-name="Path 3392" d="M156.2,10.491,158.089,9.4a1.132,1.132,0,0,1,.293.053l-1.889,1.091a1.373,1.373,0,0,0-.293-.053" transform="translate(-154.39 -9.343)" fill="#a34444" stroke="#000" stroke-linejoin="round" stroke-width="2"/>
              <path id="Path_3393" data-name="Path 3393" d="M157.3,10.691,159.189,9.6c.106.027.186.027.293.053l-1.889,1.091a1.373,1.373,0,0,0-.293-.053" transform="translate(-155.198 -9.49)" fill="#a84747" stroke="#000" stroke-linejoin="round" stroke-width="2"/>
              <path id="Path_3394" data-name="Path 3394" d="M158.3,10.891,160.19,9.8c.08.027.186.053.293.08l-1.889,1.091c-.106-.027-.186-.053-.293-.08" transform="translate(-155.932 -9.637)" fill="#ad4949" stroke="#000" stroke-linejoin="round" stroke-width="2"/>
              <path id="Path_3395" data-name="Path 3395" d="M159.4,11.191l1.889-1.091c.08.027.186.053.266.08l-1.889,1.091c-.08-.027-.186-.053-.266-.08" transform="translate(-156.739 -9.857)" fill="#b34b4b" stroke="#000" stroke-linejoin="round" stroke-width="2"/>
              <path id="Path_3396" data-name="Path 3396" d="M160.4,11.491l1.889-1.091a1.112,1.112,0,0,1,.266.106L160.666,11.6a1.834,1.834,0,0,1-.266-.106" transform="translate(-157.473 -10.077)" fill="#b84d4d" stroke="#000" stroke-linejoin="round" stroke-width="2"/>
              <path id="Path_3397" data-name="Path 3397" d="M161.5,11.891l1.889-1.091c.027,0,.053.027.106.027l-1.889,1.091c-.053,0-.08,0-.106-.027" transform="translate(-158.28 -10.371)" fill="#bd4f4f" stroke="#000" stroke-linejoin="round" stroke-width="2"/>
            </g>
          </g>
          <g id="Group_1341" data-name="Group 1341" transform="translate(18.309 9.079)">
            <path id="Path_3399" data-name="Path 3399" d="M218.2,44.391,220.09,43.3l13.359,23.046-1.863,1.091Z" transform="translate(-218.2 -43.3)" fill="#fd6a6a" stroke="#000" stroke-linejoin="round" stroke-width="2"/>
          </g>
          <g id="Group_1342" data-name="Group 1342" transform="translate(13.599 7.429)">
            <path id="Path_3400" data-name="Path 3400" d="M205.21,39.841,218.6,62.888l-4.737-2.714L200.5,37.1Z" transform="translate(-200.5 -37.1)" fill="#893939" stroke="#000" stroke-linejoin="round" stroke-width="2"/>
          </g>
          <g id="Group_1343" data-name="Group 1343" transform="translate(13.599 6.337)">
            <path id="Path_3401" data-name="Path 3401" d="M200.5,34.091,202.389,33l4.71,2.741-1.889,1.091Z" transform="translate(-200.5 -33)" fill="#dc5c5c" stroke="#000" stroke-linejoin="round" stroke-width="2"/>
          </g>
          <g id="Group_1344" data-name="Group 1344" transform="translate(28.688 16.131)">
            <path id="Path_3402" data-name="Path 3402" d="M261.91,72.541,275.27,95.588l-4.71-2.714L257.2,69.8Z" transform="translate(-257.2 -69.8)" fill="#893939" stroke="#000" stroke-linejoin="round" stroke-width="2"/>
          </g>
          <g id="Group_1345" data-name="Group 1345" transform="translate(33.399 17.781)">
            <path id="Path_3403" data-name="Path 3403" d="M274.9,77.091,276.79,76l13.359,23.046-1.89,1.091Z" transform="translate(-274.9 -76)" fill="#fd6a6a" stroke="#000" stroke-linejoin="round" stroke-width="2"/>
          </g>
          <g id="Group_1346" data-name="Group 1346" transform="translate(28.688 15.04)">
            <path id="Path_3404" data-name="Path 3404" d="M257.2,66.791l1.863-1.091,4.737,2.741-1.889,1.091Z" transform="translate(-257.2 -65.7)" fill="#dc5c5c" stroke="#000" stroke-linejoin="round" stroke-width="2"/>
          </g>
          <g id="Group_1347" data-name="Group 1347" transform="translate(43.751 24.833)">
            <path id="Path_3405" data-name="Path 3405" d="M318.537,105.241,331.9,128.314l-4.737-2.741L313.8,102.5Z" transform="translate(-313.8 -102.5)" fill="#893939" stroke="#000" stroke-linejoin="round" stroke-width="2"/>
          </g>
          <g id="Group_1348" data-name="Group 1348" transform="translate(48.488 26.483)">
            <path id="Path_3406" data-name="Path 3406" d="M331.6,109.791l1.889-1.091,13.359,23.046-1.89,1.118Z" transform="translate(-331.6 -108.7)" fill="#fd6a6a" stroke="#000" stroke-linejoin="round" stroke-width="2"/>
          </g>
          <g id="Group_1349" data-name="Group 1349" transform="translate(43.751 23.742)">
            <path id="Path_3407" data-name="Path 3407" d="M313.8,99.491l1.889-1.091,4.737,2.741-1.889,1.091Z" transform="translate(-313.8 -98.4)" fill="#dc5c5c" stroke="#000" stroke-linejoin="round" stroke-width="2"/>
          </g>
          <g id="Group_1350" data-name="Group 1350" transform="translate(58.84 33.562)">
            <path id="Path_3408" data-name="Path 3408" d="M375.237,138.014,388.6,161.088l-4.737-2.741L370.5,135.3Z" transform="translate(-370.5 -135.3)" fill="#893939" stroke="#000" stroke-linejoin="round" stroke-width="2"/>
          </g>
          <g id="Group_1351" data-name="Group 1351" transform="translate(63.577 35.185)">
            <path id="Path_3409" data-name="Path 3409" d="M388.3,142.491l1.863-1.091,13.359,23.073-1.863,1.091Z" transform="translate(-388.3 -141.4)" fill="#fd6a6a" stroke="#000" stroke-linejoin="round" stroke-width="2"/>
          </g>
          <g id="Group_1352" data-name="Group 1352" transform="translate(58.84 32.471)">
            <path id="Path_3410" data-name="Path 3410" d="M370.5,132.291l1.889-1.091,4.71,2.714-1.863,1.091Z" transform="translate(-370.5 -131.2)" fill="#dc5c5c" stroke="#000" stroke-linejoin="round" stroke-width="2"/>
          </g>
          <g id="Group_1353" data-name="Group 1353" transform="translate(73.93 42.264)">
            <path id="Path_3411" data-name="Path 3411" d="M431.91,170.714l13.359,23.073-4.71-2.741L427.2,168Z" transform="translate(-427.2 -168)" fill="#893939" stroke="#000" stroke-linejoin="round" stroke-width="2"/>
          </g>
          <g id="Group_1354" data-name="Group 1354" transform="translate(78.64 43.888)">
            <path id="Path_3412" data-name="Path 3412" d="M444.9,175.191l1.889-1.091,13.359,23.073-1.889,1.091Z" transform="translate(-444.9 -174.1)" fill="#fd6a6a" stroke="#000" stroke-linejoin="round" stroke-width="2"/>
          </g>
          <g id="Group_1355" data-name="Group 1355" transform="translate(73.93 41.173)">
            <path id="Path_3413" data-name="Path 3413" d="M427.2,164.991l1.863-1.091,4.737,2.714-1.89,1.091Z" transform="translate(-427.2 -163.9)" fill="#dc5c5c" stroke="#000" stroke-linejoin="round" stroke-width="2"/>
          </g>
        </g>
      </g>
    </g>
  </g>
</svg>
