<svg xmlns="http://www.w3.org/2000/svg" width="118.717" height="163.036" viewBox="0 0 118.717 163.036">
  <g id="Group_684" data-name="Group 684" transform="translate(1 1.031)">
    <g id="mobile" transform="translate(0 0)">
      <g id="Layer_1-2" data-name="Layer 1-2">
        <g id="Group_666" data-name="Group 666">
          <path id="Path_1959" data-name="Path 1959" d="M1020.966,375.735l7.185-4.177a14.1,14.1,0,0,0,6.4,11.066l-7.133,4.178A14.126,14.126,0,0,1,1020.966,375.735Z" transform="translate(-1020.793 -259.325)" stroke="#000" stroke-linejoin="bevel" stroke-width="2"/>
          <path id="Path_1960" data-name="Path 1960" d="M1025.4,383.409l7.176-4.177,56.085,32.372-7.183,4.178Z" transform="translate(-1018.827 -255.923)" stroke="#000" stroke-linejoin="bevel" stroke-width="2"/>
          <path id="Path_1961" data-name="Path 1961" d="M1075.974,402.11l-7.132,4.176c-1.162.673-2.783.582-4.556-.447l7.134-4.178C1073.193,402.692,1074.812,402.793,1075.974,402.11Z" transform="translate(-1001.588 -245.98)" stroke="#000" stroke-linejoin="bevel" stroke-width="2"/>
          <path id="Path_1962" data-name="Path 1962" d="M1069.012,328.849l7.184-4.178-.3,107.46-7.185,4.164Z" transform="translate(-999.629 -280.111)" fill="#ababab" stroke="#000" stroke-linejoin="bevel" stroke-width="2"/>
          <path id="Path_1963" data-name="Path 1963" d="M1069.139,328.92l7.183-4.178-.3,107.46-7.185,4.163Z" transform="translate(-999.572 -280.079)" fill="#acb6c3" stroke="#000" stroke-linejoin="bevel" stroke-width="2"/>
          <path id="Path_1964" data-name="Path 1964" d="M1074.576,403.224l-7.133,4.178c1.161-.673,1.874-2.1,1.874-4.076l7.134-4.177C1076.441,401.135,1075.726,402.551,1074.576,403.224Z" transform="translate(-1000.188 -247.093)" fill="#ababab" stroke="#000" stroke-linejoin="bevel" stroke-width="2"/>
          <path id="Path_1965" data-name="Path 1965" d="M1074.667,403.426l-7.133,4.162c1.182-.683,1.925-2.149,1.925-4.227l7.134-4.164C1076.572,401.275,1075.849,402.733,1074.667,403.426Z" transform="translate(-1000.148 -247.072)" fill="#acb6c3" stroke="#000" stroke-linejoin="bevel" stroke-width="2"/>
          <path id="Path_1966" data-name="Path 1966" d="M1021.272,301.287l7.183-4.178-.3,107.454-7.185,4.178Z" transform="translate(-1020.793 -292.329)" stroke="#000" stroke-linejoin="bevel" stroke-width="2"/>
          <path id="Path_1967" data-name="Path 1967" d="M1023.053,298.435l7.133-4.178a4.463,4.463,0,0,0-1.875,4.075l-7.133,4.18C1021.19,300.524,1021.9,299.107,1023.053,298.435Z" transform="translate(-1020.699 -293.594)" stroke="#000" stroke-linejoin="bevel" stroke-width="2"/>
          <path id="Path_1968" data-name="Path 1968" d="M1075.74,322.483a10.9,10.9,0,0,1,.5,3.158l-7.134,4.178a10.937,10.937,0,0,0-.5-3.17Z" transform="translate(-999.673 -281.081)" fill="#ababab" stroke="#000" stroke-linejoin="bevel" stroke-width="2"/>
          <path id="Path_1969" data-name="Path 1969" d="M1075.061,320.76a14.5,14.5,0,0,1,1.018,2.49l-7.194,4.164a13.927,13.927,0,0,0-1.019-2.481Z" transform="translate(-1000.001 -281.844)" fill="#ababab" stroke="#000" stroke-linejoin="bevel" stroke-width="2"/>
          <path id="Path_1970" data-name="Path 1970" d="M1075.15,320.96l-7.133,4.177c-.112-.225-.234-.439-.354-.662l7.133-4.164C1074.916,320.522,1075.039,320.768,1075.15,320.96Z" transform="translate(-1000.091 -282.044)" fill="#ababab" stroke="#000" stroke-linejoin="bevel" stroke-width="2"/>
          <path id="Path_1971" data-name="Path 1971" d="M1071.666,316.99a13.186,13.186,0,0,1,4.535,4.79l-7.133,4.163a13.131,13.131,0,0,0-4.577-4.727Z" transform="translate(-1001.497 -283.516)" fill="#ababab" stroke="#000" stroke-linejoin="bevel" stroke-width="2"/>
          <path id="Path_1972" data-name="Path 1972" d="M1064.491,321.022l7.185-4.164a14.528,14.528,0,0,1,6.571,11.382l-7.129,4.176a14.5,14.5,0,0,0-6.625-11.394Z" transform="translate(-1001.497 -283.574)" fill="#acb6c3" stroke="#000" stroke-linejoin="bevel" stroke-width="2"/>
          <path id="Path_1973" data-name="Path 1973" d="M1022.392,298.414l7.185-4.168c1.192-.7,2.854-.6,4.688.459l-7.185,4.188C1025.256,297.812,1023.584,297.721,1022.392,298.414Z" transform="translate(-1020.161 -293.797)" fill="#acb6c3" stroke="#000" stroke-linejoin="bevel" stroke-width="2"/>
          <path id="Path_1974" data-name="Path 1974" d="M1083.787,330.148a14.143,14.143,0,0,1,6.39,11.088l-.306,107.452c0,4.075-2.894,5.717-6.43,3.669L1027.4,419.982a14.123,14.123,0,0,1-6.43-11.127l.306-107.454c0-4.075,2.9-5.717,6.44-3.678Z" transform="translate(-1020.793 -292.445)" fill="#acb6c3" stroke="#000" stroke-linejoin="bevel" stroke-width="2"/>
          <path id="Path_1975" data-name="Path 1975" d="M1083.84,329.962a14.5,14.5,0,0,1,6.573,11.392l-.276,107.454c0,4.177-2.985,5.879-6.613,3.78L1027.48,420.2a14.5,14.5,0,0,1-6.633-11.382l.306-107.454c.01-4.187,2.972-5.879,6.613-3.76Zm6.114,118.742.306-107.451a14.145,14.145,0,0,0-6.42-11.036l-56.074-32.426c-3.536-2.038-6.43-.391-6.44,3.679l-.3,107.452a14.124,14.124,0,0,0,6.4,11.075l56.044,32.372c3.536,2.038,6.42.4,6.43-3.667" transform="translate(-1020.846 -292.513)" stroke="#000" stroke-linejoin="bevel" stroke-width="2"/>
          <path id="Path_1976" data-name="Path 1976" d="M1025.64,298.742l7.185-4.181,56.063,32.372-7.175,4.178Z" transform="translate(-1018.721 -293.459)" fill="#ababab" stroke="#000" stroke-linejoin="bevel" stroke-width="2"/>
          <path id="Path_1977" data-name="Path 1977" d="M1025.64,298.594l7.185-4.168,56.063,32.374-7.175,4.164Z" transform="translate(-1018.721 -293.519)" fill="#acb6c3" stroke="#000" stroke-linejoin="bevel" stroke-width="2"/>
          <path id="Path_1978" data-name="Path 1978" d="M1022.484,298.313l.133-.061Zm.225-.113.133-.061Zm.234-.1.232-.079.257-.061,3.284.419h0Zm-.326-.163-.153-.072Zm-.355-.143-.163-.062Zm-.325-.123-.319-.1-.178-.03Zm-.318-.081-.3,0-.234.235.3,0,.3.061.3.072.183.061Zm.313.1.153.051Zm.316.113.316.141.2.089Zm.326.089.336.183Zm.548.084,7.01-4.074-.221-.082-7,4.074Z" transform="translate(-1020.12 -293.484)" fill="#ababab" stroke="#000" stroke-linejoin="bevel" stroke-width="2"/>
        </g>
        <path id="Path_1270" data-name="Path 1270" d="M1062.438,322.9l-4.493,3.4c-2.487,1.927-6.512-.447-9-5.207h0l-4.5-8.6-19.635-11.331V407.794l57.267,33.066V334.234Z" transform="translate(-1019.09 -290.529)" fill="#4fcdc4" stroke="#000" stroke-linejoin="bevel" stroke-width="2"/>
        <ellipse id="Ellipse_167" data-name="Ellipse 167" cx="1.111" cy="1.956" rx="1.111" ry="1.956" transform="translate(32.567 28.315) rotate(-23.078)" stroke="#000" stroke-linejoin="bevel" stroke-width="2"/>
        <path id="Path_1979" data-name="Path 1979" d="M1055.275,399.882l-15.226-8.794a7.743,7.743,0,0,1-3.445-5.034h0c-.234-1.823.928-2.516,2.589-1.547l15.237,8.794a7.743,7.743,0,0,1,3.444,5.033h0C1058.107,400.156,1056.947,400.846,1055.275,399.882Z" transform="translate(-1013.874 -253.778)" fill="#acb6c3" stroke="#000" stroke-linejoin="bevel" stroke-width="2"/>
        <g id="Path_1281-2" data-name="Path 1281-2" transform="translate(9.243 68.529)">
          <g id="Group_667" data-name="Group 667">
            <path id="Path_1980" data-name="Path 1980" d="M1027.654,360.7l7.133-4.178a.672.672,0,0,0-.276.612,2.167,2.167,0,0,0,.958,1.69l-7.134,4.164a2.151,2.151,0,0,1-.957-1.683.675.675,0,0,1,.276-.612Z" transform="translate(-1027.195 -334.521)" stroke="#000" stroke-linejoin="bevel" stroke-width="2"/>
            <path id="Path_1981" data-name="Path 1981" d="M1027.476,360.563l7.183-4.163a.67.67,0,0,1,.5-.062l-7.133,4.178a.679.679,0,0,0-.55.051Z" transform="translate(-1027.15 -334.611)" stroke="#000" stroke-linejoin="bevel" stroke-width="2"/>
            <path id="Path_1982" data-name="Path 1982" d="M1035.168,356.651a6.637,6.637,0,0,0,5-.52l-7.133,4.177a6.618,6.618,0,0,1-5,.52.528.528,0,0,0-.418,0l7.133-4.177A.6.6,0,0,1,1035.168,356.651Z" transform="translate(-1027.088 -334.693)" fill="#f9d48a" stroke="#000" stroke-linejoin="bevel" stroke-width="2"/>
            <path id="Path_1983" data-name="Path 1983" d="M1039.912,355.975l-7.134,4.178a6.52,6.52,0,0,1-4.922.509l7.133-4.178A6.471,6.471,0,0,0,1039.912,355.975Z" transform="translate(-1026.982 -334.762)" fill="#a1895a" stroke="#000" stroke-linejoin="bevel" stroke-width="2"/>
            <path id="Path_1984" data-name="Path 1984" d="M1038.492,358.4l-7.134,4.164c2.1-1.212,3.367-3.8,3.373-7.367l7.183-4.178C1041.854,354.588,1040.581,357.177,1038.492,358.4Z" transform="translate(-1025.429 -336.96)" stroke="#000" stroke-linejoin="bevel" stroke-width="2"/>
            <path id="Path_1985" data-name="Path 1985" d="M1033.672,353.2l7.183-4.164-.012,2.864-7.183,4.174Z" transform="translate(-1024.408 -337.838)" stroke="#000" stroke-linejoin="bevel" stroke-width="2"/>
            <path id="Path_1986" data-name="Path 1986" d="M1038.19,346.332l7.133-4.163c-2.771,1.609-4.5,5.044-4.518,9.914l-7.133,4.164C1033.675,351.376,1035.407,347.952,1038.19,346.332Z" transform="translate(-1024.403 -340.883)" stroke="#000" stroke-linejoin="bevel" stroke-width="2"/>
            <path id="Path_1987" data-name="Path 1987" d="M1085.982,395.745l7.133-4.177c4.076,2.332,8.01,2.67,10.9.937l-7.133,4.178C1093.981,398.4,1090.1,398.066,1085.982,395.745Z" transform="translate(-1001.213 -318.983)" stroke="#000" stroke-linejoin="bevel" stroke-width="2"/>
            <path id="Path_1988" data-name="Path 1988" d="M1103.968,378.211l-7.134,4.164a31.4,31.4,0,0,0-11.034-11.412l7.133-4.164A31.4,31.4,0,0,1,1103.968,378.211Z" transform="translate(-1001.294 -329.964)" fill="#f9d48a" stroke="#000" stroke-linejoin="bevel" stroke-width="2"/>
            <path id="Path_1989" data-name="Path 1989" d="M1105.194,389.9c0,4.769-1.549,8.355-4.444,10.079l-7.133,4.177c2.9-1.722,4.474-5.309,4.443-10.087l7.134-4.164-7.134,4.164a31.387,31.387,0,0,0-4.616-15.192l7.133-4.164h0a31.358,31.358,0,0,1,4.617,15.192Z" transform="translate(-997.905 -326.457)" fill="#f9d48a" stroke="#000" stroke-linejoin="bevel" stroke-width="2"/>
            <path id="Path_1990" data-name="Path 1990" d="M1111.7,380.927a33.984,33.984,0,0,1,15.592,26.606c0,4.779-1.539,8.367-4.443,10.087s-6.776,1.386-10.9-.937l-83.629-48.291a2.151,2.151,0,0,1-.957-1.683c0-.489.284-.753.7-.652,4.922,1.214,8.365-2.037,8.377-7.9v-2.872c0-9.8,6.99-13.766,15.519-8.845Z" transform="translate(-1027.197 -339.925)" fill="#f9d48a" stroke="#000" stroke-linejoin="bevel" stroke-width="2"/>
            <path id="Path_1991" data-name="Path 1991" d="M1036.71,346.5l7.183-4.164c2.843-1.66,6.776-1.426,11.118,1.081l-7.133,4.163C1043.5,345.1,1039.554,344.853,1036.71,346.5Z" transform="translate(-1023.056 -341.278)" fill="#f9d48a" stroke="#000" stroke-linejoin="bevel" stroke-width="2"/>
            <path id="Path_1992" data-name="Path 1992" d="M1100.7,392.215h0l-7.133,4.177h0Z" transform="translate(-997.851 -318.696)" fill="#f9d48a" stroke="#000" stroke-linejoin="bevel" stroke-width="2"/>
            <path id="Path_1993" data-name="Path 1993" d="M1100.761,400.239l-7.133,4.178c2.854-1.661,4.606-5.207,4.575-10.188a31.778,31.778,0,0,0-4.666-15.376l7.133-4.164a31.861,31.861,0,0,1,4.667,15.367C1105.367,395.033,1103.615,398.557,1100.761,400.239Z" transform="translate(-997.863 -326.466)" fill="#f9d48a" stroke="#000" stroke-linejoin="bevel" stroke-width="2"/>
            <path id="Path_1994" data-name="Path 1994" d="M1122.872,392.343a31.761,31.761,0,0,1,4.666,15.376c.072,9.966-6.9,14.114-15.518,9.243l-.354-.2-83.284-48.076a2.549,2.549,0,0,1-1.132-2.038c0-.59.336-.9.826-.785,4.841,1.2,8.233-2.038,8.243-7.765v-2.835c0-9.921,7.072-13.94,15.7-8.957l59.733,34.494A31.8,31.8,0,0,1,1122.872,392.343Zm0,25.352c2.9-1.722,4.474-5.309,4.443-10.087a34.015,34.015,0,0,0-15.407-26.494l-59.875-34.592c-8.53-4.922-15.49-.958-15.519,8.845v2.874c0,5.88-3.455,9.11-8.377,7.9-.419-.1-.693.163-.7.652a2.152,2.152,0,0,0,.957,1.683l83.639,48.291c4.076,2.324,8,2.657,10.9.937" transform="translate(-1027.25 -339.999)" stroke="#000" stroke-linejoin="bevel" stroke-width="2"/>
            <path id="Path_1996" data-name="Path 1996" d="M1085.8,370.829l7.133-4.178a31.923,31.923,0,0,1,11.2,11.557L1097,382.369A31.807,31.807,0,0,0,1085.8,370.829Z" transform="translate(-1001.294 -330.03)" fill="#f9d48a" stroke="#000" stroke-linejoin="bevel" stroke-width="2"/>
            <path id="Path_1997" data-name="Path 1997" d="M1044.42,347.078l7.176-4.178,59.744,34.494-7.184,4.164Z" transform="translate(-1019.638 -340.559)" fill="#f9d48a" stroke="#000" stroke-linejoin="bevel" stroke-width="2"/>
            <path id="Path_1998" data-name="Path 1998" d="M1044.42,346.925l7.176-4.163,59.744,34.482-7.184,4.177Z" transform="translate(-1019.638 -340.62)" fill="#f9d48a" stroke="#000" stroke-linejoin="bevel" stroke-width="2"/>
            <path id="Path_1999" data-name="Path 1999" d="M1046.978,346.393l-.194-.1Zm-.4-.2-.215-.1Zm-.4-.183-.193-.089Zm-.387-.183-.195-.072Zm-.439-.154-.163-.061Zm-.387-.141-.178-.062Zm-.336-.154-.388-.121-.376-.113-.378-.09-.366-.088-.367-.072-.367-.061-.354,0-.283.235.354,0,.355,0,.354.061.355.072.367.081.214.061Zm.366.1.235.071Zm.377.113.225.071Zm.378.121.224.072Zm.377.133.225.082Zm.388.143.234.1Zm.387.163.266.123Zm.387.177.266.133Zm.4.183.234.123Zm.387.2.326.178Zm.805.439h0l-.407-.224Zm-7.062-2.109a.908.908,0,0,1,.177,0,.918.918,0,0,0-.177.009Zm-.417-.235-.662,0-.318,0-.316.051-.316.072-1.885,1.019.143-.081Zm.266-.153a.6.6,0,0,0,.143-.072.629.629,0,0,1-.143.2Zm.276-.133.156-.068Zm.276-.123.153-.061Zm.286-.113.162-.061Zm.3.052.3-.089.306-.081.306-.072.306,0,.316,0,8.049,1.885-.6-.326Zm.178.1,7-4.076-.183-.1-6.991,4.074Z" transform="translate(-1023.011 -340.536)" fill="#f9d48a" stroke="#000" stroke-linejoin="bevel" stroke-width="2"/>
          </g>
        </g>
        <g id="Group_483-2-2" data-name="Group 483-2-2" transform="translate(27.166 86.752)">
          <g id="Group_482-2-2" data-name="Group 482-2-2">
            <path id="Path_1284-2-2" data-name="Path 1284-2-2" d="M1056.186,366.209l-14.725-8.693a3.4,3.4,0,0,1-1.793-2.835c.133-.866,1.1-1.019,2.2-.407l14.725,8.661a3.5,3.5,0,0,1,1.885,2.822c-.088.908-1.08,1.122-2.214.469l-.082-.052Z" transform="translate(-1039.668 -353.903)" fill="#4fcdc4" stroke="#000" stroke-linejoin="bevel" stroke-width="2"/>
          </g>
        </g>
        <g id="Group_485-2" data-name="Group 485-2" transform="translate(27.999 79.532)">
          <g id="Group_484-2" data-name="Group 484-2">
            <path id="Path_1285-2" data-name="Path 1285-2" d="M1106.178,390.405l-64.14-37.887a3.365,3.365,0,0,1-1.792-2.842c.133-.856,1.1-1.019,2.2-.408l64.14,37.887a3.507,3.507,0,0,1,1.885,2.822c-.089.908-1.081,1.121-2.215.469h-.078Z" transform="translate(-1040.245 -348.901)" fill="#4fcdc4" stroke="#000" stroke-linejoin="bevel" stroke-width="2"/>
          </g>
        </g>
      </g>
    </g>
  </g>
</svg>
