<svg xmlns="http://www.w3.org/2000/svg" width="247.527" height="340.744" viewBox="0 0 247.527 340.744"><g transform="translate(1 1.058)"><g transform="translate(0 0)"><path d="M1020.966,380.345l15.114-8.787a29.651,29.651,0,0,0,13.457,23.279l-15.005,8.79A29.715,29.715,0,0,1,1020.966,380.345Z" transform="translate(-1020.602 -135.461)" stroke="#000" stroke-linejoin="bevel" stroke-width="2"/><path d="M1025.4,388.019l15.1-8.787,117.981,68.1-15.111,8.79Z" transform="translate(-1011.573 -119.835)" stroke="#000" stroke-linejoin="bevel" stroke-width="2"/><path d="M1088.873,402.607l-15,8.784c-2.444,1.415-5.854,1.224-9.585-.941l15.008-8.79C1083.023,403.831,1086.429,404.043,1088.873,402.607Z" transform="translate(-932.393 -74.167)" stroke="#000" stroke-linejoin="bevel" stroke-width="2"/><path d="M1069.35,333.461l15.111-8.79-.641,226.055-15.114,8.759Z" transform="translate(-923.393 -230.933)" fill="#ababab" stroke="#000" stroke-linejoin="bevel" stroke-width="2"/><path d="M1069.477,333.532l15.111-8.79-.64,226.055-15.115,8.756Z" transform="translate(-923.134 -230.788)" fill="#acb6c3" stroke="#000" stroke-linejoin="bevel" stroke-width="2"/><path d="M1082.448,407.72l-15.005,8.79c2.441-1.415,3.941-4.415,3.941-8.574l15.008-8.787C1086.371,403.327,1084.868,406.305,1082.448,407.72Z" transform="translate(-925.965 -79.28)" fill="#ababab" stroke="#000" stroke-linejoin="bevel" stroke-width="2"/><path d="M1082.539,408.093l-15,8.756c2.487-1.436,4.05-4.521,4.05-8.893l15.008-8.759C1086.547,403.569,1085.026,406.636,1082.539,408.093Z" transform="translate(-925.779 -79.182)" fill="#acb6c3" stroke="#000" stroke-linejoin="bevel" stroke-width="2"/><path d="M1021.61,305.9l15.111-8.79-.641,226.043-15.114,8.79Z" transform="translate(-1020.602 -287.054)" stroke="#000" stroke-linejoin="bevel" stroke-width="2"/><path d="M1025.122,303.047l15-8.79c-2.423,1.415-3.944,4.415-3.944,8.571l-15,8.793C1021.2,307.44,1022.7,304.459,1025.122,303.047Z" transform="translate(-1020.17 -292.862)" stroke="#000" stroke-linejoin="bevel" stroke-width="2"/><path d="M1083.614,322.483a22.938,22.938,0,0,1,1.051,6.643l-15.008,8.79a23.006,23.006,0,0,0-1.051-6.668Z" transform="translate(-923.597 -235.388)" fill="#ababab" stroke="#000" stroke-linejoin="bevel" stroke-width="2"/><path d="M1083,320.76a30.476,30.476,0,0,1,2.141,5.237l-15.133,8.759a29.278,29.278,0,0,0-2.144-5.219Z" transform="translate(-925.104 -238.896)" fill="#ababab" stroke="#000" stroke-linejoin="bevel" stroke-width="2"/><path d="M1083.412,321.676l-15.005,8.787c-.237-.474-.492-.923-.744-1.394l15-8.76C1082.92,320.756,1083.178,321.273,1083.412,321.676Z" transform="translate(-925.517 -239.812)" fill="#ababab" stroke="#000" stroke-linejoin="bevel" stroke-width="2"/><path d="M1079.584,316.99a27.738,27.738,0,0,1,9.54,10.077l-15,8.756a27.623,27.623,0,0,0-9.628-9.943Z" transform="translate(-931.976 -246.573)" fill="#ababab" stroke="#000" stroke-linejoin="bevel" stroke-width="2"/><path d="M1064.491,325.618l15.115-8.759a30.563,30.563,0,0,1,13.824,23.943l-15,8.784a30.51,30.51,0,0,0-13.936-23.968Z" transform="translate(-931.976 -246.841)" fill="#acb6c3" stroke="#000" stroke-linejoin="bevel" stroke-width="2"/><path d="M1022.392,303.509l15.114-8.769c2.508-1.479,6-1.263,9.862.966l-15.114,8.811C1028.416,302.243,1024.9,302.052,1022.392,303.509Z" transform="translate(-1017.698 -293.797)" fill="#acb6c3" stroke="#000" stroke-linejoin="bevel" stroke-width="2"/><path d="M1153.117,366.9a29.753,29.753,0,0,1,13.442,23.324l-.644,226.039c0,8.571-6.088,12.027-13.527,7.718l-117.9-68.105a29.709,29.709,0,0,1-13.527-23.406l.644-226.043c0-8.571,6.109-12.026,13.548-7.736Z" transform="translate(-1020.602 -287.586)" fill="#acb6c3" stroke="#000" stroke-linejoin="bevel" stroke-width="2"/><path d="M1153.361,366.677a30.5,30.5,0,0,1,13.828,23.965l-.58,226.043c0,8.787-6.279,12.367-13.912,7.952l-117.9-68.123a30.513,30.513,0,0,1-13.954-23.944l.644-226.042c.021-8.808,6.252-12.367,13.912-7.909Zm12.862,249.789.644-226.036a29.755,29.755,0,0,0-13.505-23.215L1035.4,299c-7.439-4.287-13.527-.823-13.548,7.739l-.635,226.04a29.712,29.712,0,0,0,13.463,23.3l117.9,68.1c7.439,4.287,13.505.838,13.526-7.715" transform="translate(-1020.846 -287.898)" stroke="#000" stroke-linejoin="bevel" stroke-width="2"/><path d="M1025.64,303.357l15.114-8.8,117.936,68.1-15.093,8.79Z" transform="translate(-1011.085 -292.243)" fill="#ababab" stroke="#000" stroke-linejoin="bevel" stroke-width="2"/><path d="M1025.64,303.195l15.114-8.769,117.936,68.1-15.093,8.76Z" transform="translate(-1011.085 -292.518)" fill="#acb6c3" stroke="#000" stroke-linejoin="bevel" stroke-width="2"/><path d="M1022.484,302.517l.279-.127Zm.474-.237.279-.128Zm.492-.216.489-.167.54-.128,6.908.88h0Zm-.687-.343-.321-.152Zm-.747-.3-.343-.13Zm-.683-.258-.671-.216-.374-.064Zm-.668-.17-.64,0-.492.495.622,0,.622.127.641.152.386.127Zm.659.213.322.106Zm.665.237.665.3.428.188Zm.686.188.708.386Zm1.154.176,14.747-8.571-.465-.173-14.723,8.571Z" transform="translate(-1017.511 -292.359)" fill="#ababab" stroke="#000" stroke-linejoin="bevel" stroke-width="2"/><path d="M1103.967,346.891l-9.452,7.159c-5.232,4.053-13.7-.941-18.931-10.955h0l-9.473-18.09-41.3-23.837v224.3l120.468,69.56v-224.3Z" transform="translate(-1012.781 -278.787)" fill="#4fcdc4" stroke="#000" stroke-linejoin="bevel" stroke-width="2"/><ellipse cx="2.337" cy="4.115" rx="2.337" ry="4.115" transform="translate(68.508 59.563) rotate(-23.078)" stroke="#000" stroke-linejoin="bevel" stroke-width="2"/><path d="M1075.914,417.334l-32.029-18.5a16.288,16.288,0,0,1-7.248-10.59h0c-.492-3.835,1.952-5.292,5.447-3.255l32.053,18.5a16.286,16.286,0,0,1,7.245,10.587h0C1081.871,417.911,1079.43,419.362,1075.914,417.334Z" transform="translate(-988.82 -109.986)" fill="#acb6c3" stroke="#000" stroke-linejoin="bevel" stroke-width="2"/><g transform="translate(19.444 144.16)"><path d="M1027.962,365.309l15.005-8.79a1.413,1.413,0,0,0-.58,1.287,4.559,4.559,0,0,0,2.016,3.555l-15.008,8.759a4.525,4.525,0,0,1-2.013-3.54,1.419,1.419,0,0,1,.58-1.287Z" transform="translate(-1026.996 -310.244)" stroke="#000" stroke-linejoin="bevel" stroke-width="2"/><path d="M1027.476,365.25l15.111-8.756a1.408,1.408,0,0,1,1.05-.131l-15,8.79a1.428,1.428,0,0,0-1.157.106Z" transform="translate(-1026.79 -310.658)" stroke="#000" stroke-linejoin="bevel" stroke-width="2"/><path d="M1043.5,357.224a13.962,13.962,0,0,0,10.526-1.093l-15,8.787a13.921,13.921,0,0,1-10.527,1.093,1.11,1.11,0,0,0-.88,0l15-8.787A1.256,1.256,0,0,1,1043.5,357.224Z" transform="translate(-1026.505 -311.034)" fill="#f9d48a" stroke="#000" stroke-linejoin="bevel" stroke-width="2"/><path d="M1053.218,355.975l-15.008,8.79a13.716,13.716,0,0,1-10.353,1.072l15-8.79A13.613,13.613,0,0,0,1053.218,355.975Z" transform="translate(-1026.016 -311.351)" fill="#a1895a" stroke="#000" stroke-linejoin="bevel" stroke-width="2"/><path d="M1046.366,366.544l-15.008,8.759c4.417-2.55,7.083-7.994,7.1-15.5l15.111-8.79C1053.437,358.529,1050.759,363.976,1046.366,366.544Z" transform="translate(-1018.885 -321.447)" stroke="#000" stroke-linejoin="bevel" stroke-width="2"/><path d="M1033.684,357.8l15.111-8.759-.025,6.024-15.111,8.781Z" transform="translate(-1014.198 -325.477)" stroke="#000" stroke-linejoin="bevel" stroke-width="2"/><path d="M1043.176,350.926l15.005-8.756c-5.83,3.385-9.473,10.612-9.5,20.856l-15.005,8.759C1033.678,361.537,1037.322,354.335,1043.176,350.926Z" transform="translate(-1014.174 -339.463)" stroke="#000" stroke-linejoin="bevel" stroke-width="2"/><path d="M1085.982,400.355l15-8.787c8.575,4.907,16.851,5.617,22.938,1.971l-15.005,8.79C1102.809,405.948,1094.641,405.237,1085.982,400.355Z" transform="translate(-907.659 -238.877)" stroke="#000" stroke-linejoin="bevel" stroke-width="2"/><path d="M1124.019,390.806l-15.008,8.76a66.053,66.053,0,0,0-23.212-24.007L1100.8,366.8A66.059,66.059,0,0,1,1124.019,390.806Z" transform="translate(-908.032 -289.311)" fill="#f9d48a" stroke="#000" stroke-linejoin="bevel" stroke-width="2"/><path d="M1118.162,406.659c0,10.032-3.258,17.577-9.348,21.2l-15.005,8.787c6.109-3.622,9.412-11.167,9.346-21.22l15.008-8.76-15.008,8.76a66.027,66.027,0,0,0-9.71-31.959l15.005-8.759h0a65.967,65.967,0,0,1,9.713,31.959Z" transform="translate(-892.465 -273.205)" fill="#f9d48a" stroke="#000" stroke-linejoin="bevel" stroke-width="2"/><path d="M1204.775,421.316a71.488,71.488,0,0,1,32.8,55.969c0,10.053-3.237,17.6-9.346,21.22s-14.255,2.915-22.924-1.971L1029.382,394.95a4.526,4.526,0,0,1-2.013-3.54c0-1.029.6-1.585,1.479-1.372,10.353,2.553,17.6-4.284,17.622-16.611v-6.042c0-20.622,14.7-28.959,32.645-18.606Z" transform="translate(-1027.008 -335.063)" fill="#f9d48a" stroke="#000" stroke-linejoin="bevel" stroke-width="2"/><path d="M1036.71,352.27l15.111-8.76c5.981-3.492,14.255-3,23.388,2.274l-15.005,8.756C1050.986,349.312,1042.692,348.8,1036.71,352.27Z" transform="translate(-1007.988 -341.278)" fill="#f9d48a" stroke="#000" stroke-linejoin="bevel" stroke-width="2"/><path d="M1108.57,392.215h0L1093.565,401h0Z" transform="translate(-892.219 -237.559)" fill="#f9d48a" stroke="#000" stroke-linejoin="bevel" stroke-width="2"/><path d="M1108.733,428.436l-15.005,8.79c6-3.495,9.689-10.955,9.625-21.433a66.848,66.848,0,0,0-9.816-32.345l15.005-8.76a67.026,67.026,0,0,1,9.816,32.327C1118.422,417.484,1114.736,424.9,1108.733,428.436Z" transform="translate(-892.276 -273.246)" fill="#f9d48a" stroke="#000" stroke-linejoin="bevel" stroke-width="2"/><path d="M1228.4,445.515a66.815,66.815,0,0,1,9.816,32.345c.152,20.965-14.51,29.691-32.645,19.444l-.744-.428-175.2-101.133a5.363,5.363,0,0,1-2.381-4.287c0-1.242.708-1.885,1.737-1.652,10.184,2.529,17.319-4.287,17.34-16.335v-5.963c0-20.871,14.878-29.324,33.034-18.843l125.656,72.562A66.9,66.9,0,0,1,1228.4,445.515Zm0,53.331c6.109-3.622,9.412-11.167,9.346-21.22a71.556,71.556,0,0,0-32.411-55.733l-125.954-72.769c-17.944-10.354-32.585-2.016-32.646,18.606v6.045c0,12.37-7.269,19.165-17.622,16.611-.88-.213-1.457.343-1.479,1.372a4.526,4.526,0,0,0,2.013,3.54l175.945,101.585c8.574,4.888,16.827,5.59,22.923,1.97" transform="translate(-1027.25 -335.404)" stroke="#000" stroke-linejoin="bevel" stroke-width="2"/><path d="M1085.8,375.44l15.005-8.79a67.156,67.156,0,0,1,23.57,24.311l-15.005,8.756A66.911,66.911,0,0,0,1085.8,375.44Z" transform="translate(-908.032 -289.615)" fill="#f9d48a" stroke="#000" stroke-linejoin="bevel" stroke-width="2"/><path d="M1044.42,351.69l15.1-8.79,125.678,72.562-15.112,8.759Z" transform="translate(-992.288 -337.975)" fill="#f9d48a" stroke="#000" stroke-linejoin="bevel" stroke-width="2"/><path d="M1044.42,351.518l15.1-8.756L1185.194,415.3l-15.112,8.787Z" transform="translate(-992.288 -338.256)" fill="#f9d48a" stroke="#000" stroke-linejoin="bevel" stroke-width="2"/><path d="M1058.2,350.19l-.407-.216Zm-.835-.428-.452-.216Zm-.838-.386-.407-.188Zm-.813-.385-.41-.152Zm-.923-.325-.343-.128Zm-.814-.3-.374-.13Zm-.708-.325-.817-.255-.792-.237-.8-.188-.771-.185-.771-.152-.771-.128-.744,0-.6.495.744,0,.747,0,.744.127.747.152.771.17.449.128Zm.771.216.5.149Zm.793.237.473.149Zm.8.255.471.152Zm.792.279.473.173Zm.817.3.492.216Zm.813.343.559.258Zm.814.373.559.279Zm.838.386.493.258Zm.814.428.686.374Zm1.694.923h0l-.856-.471Zm-14.856-4.436a1.908,1.908,0,0,1,.373,0,1.93,1.93,0,0,0-.373.018Zm-.878-.495-1.394,0-.668,0-.665.106-.665.152-3.965,2.143.3-.17Zm.559-.322a1.267,1.267,0,0,0,.3-.152,1.319,1.319,0,0,1-.3.428Zm.58-.279.328-.143Zm.58-.258.322-.128Zm.6-.237.34-.128Zm.641.109.622-.188.644-.17.644-.152.644,0,.665,0,16.932,3.965-1.266-.686Zm.374.216,14.723-8.574-.385-.213-14.707,8.571Z" transform="translate(-1007.78 -337.869)" fill="#f9d48a" stroke="#000" stroke-linejoin="bevel" stroke-width="2"/></g><g transform="translate(57.147 182.494)"><path d="M1074.415,379.789,1043.439,361.5a7.161,7.161,0,0,1-3.771-5.963c.279-1.822,2.314-2.144,4.63-.856l30.976,18.22a7.372,7.372,0,0,1,3.965,5.936c-.185,1.91-2.271,2.359-4.657.987l-.173-.109Z" transform="translate(-1039.668 -353.903)" fill="#4fcdc4" stroke="#000" stroke-linejoin="bevel" stroke-width="2"/></g><g transform="translate(58.899 167.306)"><path d="M1178.942,436.21l-134.926-79.7a7.078,7.078,0,0,1-3.771-5.978c.279-1.8,2.313-2.144,4.63-.859l134.926,79.7a7.377,7.377,0,0,1,3.965,5.936c-.188,1.91-2.274,2.359-4.661.987h-.164Z" transform="translate(-1040.245 -348.901)" fill="#4fcdc4" stroke="#000" stroke-linejoin="bevel" stroke-width="2"/></g></g></g></svg>