<svg xmlns="http://www.w3.org/2000/svg" width="108.473" height="135.155" viewBox="0 0 108.473 135.155">
  <g id="Group_1050" data-name="Group 1050" transform="translate(1 1.188)">
    <g id="Group_1033" data-name="Group 1033" transform="translate(8.145 10.491)">
      <g id="Group_1032" data-name="Group 1032">
        <g id="Group_1031" data-name="Group 1031" style="isolation: isolate">
          <g id="Group_1028" data-name="Group 1028" transform="translate(12.29)">
            <path id="Path_3171" data-name="Path 3171" d="M69.026,746.742l5.923-3.442c7.661-4.452,18.27-3.825,29.978,2.933L99,749.675C87.3,742.917,76.687,742.29,69.026,746.742Z" transform="translate(-69.026 -740.456)" fill="#f9d48a" stroke="#040404" stroke-width="2"/>
          </g>
          <g id="Group_1029" data-name="Group 1029" transform="translate(42.268 5.777)">
            <path id="Path_3172" data-name="Path 3172" d="M122.492,843.639l-5.923,3.442c7.56-4.394,12.248-13.733,12.285-27.011.076-26.732-18.727-59.3-41.992-72.735l5.923-3.442c23.265,13.433,42.068,46,41.992,72.735C134.74,829.905,130.052,839.245,122.492,843.639Z" transform="translate(-86.862 -743.893)" fill="#f9d48a" stroke="#040404" stroke-width="2"/>
          </g>
          <g id="Group_1030" data-name="Group 1030" transform="translate(0 3.441)">
            <path id="Path_3173" data-name="Path 3173" d="M103.982,748.281c23.265,13.433,42.068,46,41.992,72.735s-19,37.506-42.268,24.075S61.638,799.1,61.714,772.368,80.717,734.849,103.982,748.281Z" transform="translate(-61.714 -742.503)" fill="#f9d48a" stroke="#040404" stroke-width="2"/>
          </g>
        </g>
      </g>
    </g>
    <g id="Group_1041" data-name="Group 1041" transform="translate(0 0)">
      <g id="Group_1040" data-name="Group 1040">
        <g id="Group_1039" data-name="Group 1039" style="isolation: isolate">
          <g id="Group_1034" data-name="Group 1034" transform="translate(8.145 13.335)">
            <path id="Path_3174" data-name="Path 3174" d="M74,745.59l5.923-3.442c-7.562,4.4-12.253,13.74-12.29,27.02-.076,26.734,18.727,59.29,41.992,72.723l-5.923,3.442C80.441,831.9,61.638,799.344,61.714,772.61,61.751,759.33,66.442,749.985,74,745.59Z" transform="translate(-61.714 -742.148)" fill="#ffc265" stroke="#040404" stroke-width="2"/>
          </g>
          <g id="Group_1035" data-name="Group 1035" transform="translate(50.137 113.077)">
            <path id="Path_3175" data-name="Path 3175" d="M122.6,804.428l-5.923,3.442c-7.663,4.452-18.273,3.824-29.983-2.936l5.923-3.442C104.331,808.252,114.941,808.881,122.6,804.428Z" transform="translate(-86.698 -801.492)" fill="#ffc265" stroke="#040404" stroke-width="2"/>
          </g>
          <g id="Group_1036" data-name="Group 1036" transform="translate(14.668)">
            <path id="Path_3176" data-name="Path 3176" d="M65.6,741.049l5.923-3.442c9.14-5.313,21.8-4.563,35.77,3.5l-5.923,3.441C87.393,736.486,74.735,735.737,65.6,741.049Z" transform="translate(-65.595 -734.214)" fill="#ffc265" stroke="#040404" stroke-width="2"/>
          </g>
          <g id="Group_1037" data-name="Group 1037" transform="translate(50.438 6.897)">
            <path id="Path_3177" data-name="Path 3177" d="M128.245,857.372l-5.923,3.442c9.026-5.244,14.621-16.4,14.666-32.247.091-31.912-22.339-70.774-50.112-86.809l5.923-3.44c27.773,16.033,50.2,54.9,50.112,86.807C142.866,840.975,137.271,852.128,128.245,857.372Z" transform="translate(-86.877 -738.318)" fill="#ffc265" stroke="#040404" stroke-width="2"/>
          </g>
          <g id="Group_1038" data-name="Group 1038" transform="translate(0 3.442)">
            <path id="Path_3178" data-name="Path 3178" d="M107.306,743.158c27.773,16.034,50.2,54.9,50.112,86.809s-22.667,44.777-50.438,28.743-50.2-54.9-50.112-86.8S79.535,727.125,107.306,743.158ZM107,849.339C130.27,862.77,149.2,852,149.272,825.264s-18.727-59.3-41.992-72.735-42.192-2.645-42.268,24.087S83.74,835.907,107,849.339" transform="translate(-56.868 -736.262)" fill="#ffc265" stroke="#040404" stroke-width="2"/>
          </g>
        </g>
      </g>
    </g>
    <g id="Path_1350" data-name="Path 1350" transform="translate(38.114 38.945)">
      <g id="Group_1049" data-name="Group 1049">
        <g id="Group_1048" data-name="Group 1048" style="isolation: isolate">
          <g id="Group_1042" data-name="Group 1042" transform="translate(0.908)">
            <path id="Path_3179" data-name="Path 3179" d="M81.382,759.718l5.923-3.442a2.018,2.018,0,0,1,2.01.2l-5.923,3.442A2.014,2.014,0,0,0,81.382,759.718Z" transform="translate(-81.382 -756.088)" fill="#ff6b6b" stroke="#040404" stroke-width="2"/>
          </g>
          <g id="Group_1043" data-name="Group 1043" transform="translate(2.918 0.388)">
            <path id="Path_3180" data-name="Path 3180" d="M82.578,759.761l5.923-3.442a5.225,5.225,0,0,1,1.491,1.36l-5.923,3.442A5.22,5.22,0,0,0,82.578,759.761Z" transform="translate(-82.578 -756.319)" fill="#ff6b6b" stroke="#040404" stroke-width="2"/>
          </g>
          <g id="Group_1044" data-name="Group 1044" transform="translate(28.645 34.307)">
            <path id="Path_3181" data-name="Path 3181" d="M103.808,780.273l-5.923,3.442c.9-.523,1.087-2.064.373-3.773l5.921-3.442C104.9,778.209,104.707,779.751,103.808,780.273Z" transform="translate(-97.885 -776.5)" fill="#ff6b6b" stroke="#040404" stroke-width="2"/>
          </g>
          <g id="Group_1045" data-name="Group 1045" transform="translate(4.409 1.747)">
            <path id="Path_3182" data-name="Path 3182" d="M83.465,760.57l5.923-3.442,23.752,31.067-5.923,3.442Z" transform="translate(-83.465 -757.128)" fill="#ff6b6b" stroke="#040404" stroke-width="2"/>
          </g>
          <g id="Group_1046" data-name="Group 1046" transform="translate(28.161 32.813)">
            <path id="Path_3183" data-name="Path 3183" d="M97.6,779.053l5.923-3.442a6.691,6.691,0,0,1,.855,1.494l-5.921,3.442A6.7,6.7,0,0,0,97.6,779.053Z" transform="translate(-97.597 -775.611)" fill="#ff6b6b" stroke="#040404" stroke-width="2"/>
          </g>
          <g id="Group_1047" data-name="Group 1047" transform="translate(0 3.442)">
            <path id="Path_3184" data-name="Path 3184" d="M83.76,758.524a5.22,5.22,0,0,1,1.491,1.36L109,790.949a6.7,6.7,0,0,1,.857,1.494c.832,1.988.44,3.75-.872,3.945l-23.85,3.582a2.476,2.476,0,0,1-1.5-.361,6.162,6.162,0,0,1-2.792-4.847l.1-34.637a2.394,2.394,0,0,1,.434-1.479A1.783,1.783,0,0,1,83.76,758.524Z" transform="translate(-80.842 -758.136)" fill="#ff6b6b" stroke="#040404" stroke-width="2"/>
          </g>
        </g>
      </g>
    </g>
  </g>
</svg>
