<svg xmlns="http://www.w3.org/2000/svg" width="225.979" height="281.348" viewBox="0 0 225.979 281.348"><g transform="translate(1 1.008)"><g transform="translate(17.134 22.068)"><g style="isolation:isolate"><g transform="translate(25.853)"><path d="M69.026,753.68l12.46-7.241c16.116-9.366,38.433-8.047,63.062,6.17l-12.46,7.241C107.459,745.632,85.142,744.314,69.026,753.68Z" transform="translate(-69.026 -740.456)" fill="#f9d48a" stroke="#040404" stroke-width="2"/></g><g transform="translate(88.916 12.153)"><path d="M161.815,953.721l-12.46,7.241c15.9-9.242,25.764-28.89,25.842-56.822.159-56.235-39.394-124.749-88.335-153.006l12.46-7.241c48.941,28.257,88.494,96.771,88.335,153.006C187.579,924.831,177.718,944.479,161.815,953.721Z" transform="translate(-86.862 -743.893)" fill="#f9d48a" stroke="#040404" stroke-width="2"/></g><g transform="translate(0 7.239)"><path d="M150.629,754.658c48.941,28.257,88.494,96.771,88.335,153.006s-39.974,78.9-88.915,50.645S61.555,861.566,61.714,805.328,101.689,726.4,150.629,754.658Z" transform="translate(-61.714 -742.503)" fill="#f9d48a" stroke="#040404" stroke-width="2"/></g></g></g><g transform="translate(0 0)"><g style="isolation:isolate"><g transform="translate(17.134 28.051)"><path d="M87.567,749.389l12.46-7.241c-15.907,9.246-25.775,28.9-25.853,56.84-.159,56.238,39.394,124.724,88.335,152.981l-12.46,7.241c-48.941-28.257-88.494-96.743-88.335-152.981C61.792,778.293,71.66,758.635,87.567,749.389Z" transform="translate(-61.714 -742.148)" fill="#ffc265" stroke="#040404" stroke-width="2"/></g><g transform="translate(105.47 237.872)"><path d="M162.231,807.669l-12.46,7.241c-16.119,9.366-38.44,8.044-63.073-6.177l12.46-7.241C123.791,815.712,146.111,817.035,162.231,807.669Z" transform="translate(-86.698 -801.492)" fill="#ffc265" stroke="#040404" stroke-width="2"/></g><g transform="translate(30.856)"><path d="M65.6,748.593l12.46-7.241c19.227-11.176,45.854-9.6,75.246,7.372l-12.46,7.238C111.449,738.993,84.822,737.417,65.6,748.593Z" transform="translate(-65.595 -734.214)" fill="#ffc265" stroke="#040404" stroke-width="2"/></g><g transform="translate(106.103 14.509)"><path d="M173.9,988.764,161.441,996c18.987-11.031,30.757-34.494,30.852-67.836.191-67.132-46.993-148.883-105.416-182.614l12.46-7.238C157.76,772.045,204.944,853.8,204.753,920.928,204.657,954.27,192.887,977.732,173.9,988.764Z" transform="translate(-86.877 -738.318)" fill="#ffc265" stroke="#040404" stroke-width="2"/></g><g transform="translate(0 7.241)"><path d="M162.97,750.768C221.394,784.5,268.577,866.25,268.386,933.381c-.191,67.1-47.682,94.194-106.1,60.464S56.678,878.367,56.868,811.26C57.059,744.131,104.55,717.041,162.97,750.768Zm-.633,223.366c48.941,28.254,88.756,5.59,88.915-50.645S211.858,798.74,162.917,770.483,74.161,764.918,74,821.152,113.4,945.877,162.337,974.134" transform="translate(-56.868 -736.262)" fill="#ffc265" stroke="#040404" stroke-width="2"/></g></g></g><g transform="translate(80.179 81.926)"><g style="isolation:isolate"><g transform="translate(1.909)"><path d="M81.382,763.724l12.46-7.241c1.131-.658,2.666-.478,4.229.42l-12.46,7.241C84.048,763.243,82.513,763.067,81.382,763.724Z" transform="translate(-81.382 -756.088)" fill="#ff6b6b" stroke="#040404" stroke-width="2"/></g><g transform="translate(6.138 0.815)"><path d="M82.578,763.56l12.46-7.241a10.988,10.988,0,0,1,3.136,2.86l-12.46,7.241A10.98,10.98,0,0,0,82.578,763.56Z" transform="translate(-82.578 -756.319)" fill="#ff6b6b" stroke="#040404" stroke-width="2"/></g><g transform="translate(60.258 72.169)"><path d="M110.345,784.438l-12.46,7.241c1.892-1.1,2.288-4.342.785-7.938l12.456-7.241C112.632,780.1,112.236,783.338,110.345,784.438Z" transform="translate(-97.885 -776.5)" fill="#ff6b6b" stroke="#040404" stroke-width="2"/></g><g transform="translate(9.276 3.674)"><path d="M83.465,764.369l12.46-7.241,49.966,65.352-12.46,7.241Z" transform="translate(-83.465 -757.128)" fill="#ff6b6b" stroke="#040404" stroke-width="2"/></g><g transform="translate(59.24 69.026)"><path d="M97.6,782.852l12.46-7.241a14.076,14.076,0,0,1,1.8,3.143L99.4,786A14.1,14.1,0,0,0,97.6,782.852Z" transform="translate(-97.597 -775.611)" fill="#ff6b6b" stroke="#040404" stroke-width="2"/></g><g transform="translate(0 7.24)"><path d="M86.98,758.953a10.98,10.98,0,0,1,3.136,2.86l49.966,65.35a14.1,14.1,0,0,1,1.8,3.143c1.75,4.183.926,7.888-1.835,8.3l-50.171,7.535a5.209,5.209,0,0,1-3.164-.76,12.963,12.963,0,0,1-5.873-10.2l.209-72.863a5.036,5.036,0,0,1,.912-3.111C83.091,757.828,85.018,757.821,86.98,758.953Z" transform="translate(-80.842 -758.136)" fill="#ff6b6b" stroke="#040404" stroke-width="2"/></g></g></g></g></svg>