<svg xmlns="http://www.w3.org/2000/svg" width="121.525" height="176.076" viewBox="0 0 121.525 176.076">
  <g id="dj" transform="translate(-143.707 -47.447)">
    <g id="Group_1367" data-name="Group 1367" transform="translate(149.736 48.232)">
      <g id="Group_1366" data-name="Group 1366" transform="translate(0)">
        <g id="Group_1365" data-name="Group 1365">
          <g id="Group_1359" data-name="Group 1359" transform="translate(98.533 160.491)">
            <path id="Path_3414" data-name="Path 3414" d="M520.427,630.209l-3.927,2.284c1.587-.919,2.59-2.9,2.59-5.709l3.927-2.284C523.017,627.313,522.042,629.29,520.427,630.209Z" transform="translate(-516.5 -624.5)" fill="#4fcdc4" stroke="#000" stroke-width="1.5"/>
          </g>
          <g id="Group_1360" data-name="Group 1360" transform="translate(2.841)">
            <path id="Path_3415" data-name="Path 3415" d="M172.9,51.119l3.927-2.284c1.615-.947,3.843-.808,6.322.613l-3.927,2.284C176.771,50.312,174.515,50.172,172.9,51.119Z" transform="translate(-172.9 -48.232)" fill="#4fcdc4" stroke="#000" stroke-width="1.5"/>
          </g>
          <g id="Group_1361" data-name="Group 1361" transform="translate(101.123 64.687)">
            <path id="Path_3416" data-name="Path 3416" d="M526.078,282.784l3.927-2.284-.279,95.8-3.927,2.284Z" transform="translate(-525.8 -280.5)" fill="#4fcdc4" stroke="#000" stroke-width="1.5"/>
          </g>
          <g id="Group_1362" data-name="Group 1362" transform="translate(9.163 1.217)">
            <path id="Path_3417" data-name="Path 3417" d="M195.6,54.884l3.927-2.284,83.383,48.125-3.927,2.284Z" transform="translate(-195.6 -52.6)" fill="#4fcdc4" stroke="#000" stroke-width="1.5"/>
          </g>
          <g id="Group_1363" data-name="Group 1363" transform="translate(0 2.268)">
            <path id="Path_3418" data-name="Path 3418" d="M255.245,105.733c4.9,2.841,8.884,9.72,8.856,15.345l-.279,95.8c-.028,5.626-4.01,7.909-8.912,5.1l-83.355-48.153c-4.9-2.841-8.884-9.72-8.856-15.345l.279-95.8c.028-5.626,4.01-7.909,8.912-5.1Z" transform="translate(-162.699 -56.376)" fill="#4fcdc4" stroke="#000" stroke-width="1.5"/>
          </g>
          <g id="Group_1364" data-name="Group 1364" transform="translate(92.546 49.341)">
            <path id="Path_3419" data-name="Path 3419" d="M495,227.684l3.927-2.284c4.9,2.841,8.884,9.72,8.856,15.345l-3.927,2.284C503.884,237.4,499.9,230.524,495,227.684Z" transform="translate(-495 -225.4)" fill="#4fcdc4" stroke="#000" stroke-width="1.5"/>
          </g>
        </g>
      </g>
    </g>
    <g id="Group_1375" data-name="Group 1375" transform="translate(209.67 78.941)">
      <g id="Group_1374" data-name="Group 1374">
        <g id="Group_1373" data-name="Group 1373">
          <g id="Group_1368" data-name="Group 1368" transform="translate(48.013 135.212)">
            <path id="Path_3420" data-name="Path 3420" d="M554.227,649.709l-3.927,2.284c1.587-.919,2.59-2.9,2.59-5.709L556.817,644C556.817,646.813,555.842,648.762,554.227,649.709Z" transform="translate(-550.3 -644)" fill="#189387" stroke="#000" stroke-width="1.5"/>
          </g>
          <g id="Group_1369" data-name="Group 1369" transform="translate(50.603 39.408)">
            <path id="Path_3421" data-name="Path 3421" d="M559.878,302.284,563.805,300l-.278,95.8-3.927,2.284Z" transform="translate(-559.6 -300)" fill="#189387" stroke="#000" stroke-width="1.5"/>
          </g>
          <g id="Group_1370" data-name="Group 1370" transform="translate(0.334)">
            <path id="Path_3422" data-name="Path 3422" d="M379.1,160.784l3.927-2.284,41.691,24.062-3.927,2.284Z" transform="translate(-379.1 -158.5)" fill="#189387" stroke="#000" stroke-width="1.5"/>
          </g>
          <g id="Group_1371" data-name="Group 1371" transform="translate(0 2.256)">
            <path id="Path_3423" data-name="Path 3423" d="M419.926,190.69c4.9,2.841,8.884,9.72,8.856,15.345l-.279,95.8c-.028,5.626-4.01,7.909-8.912,5.1L377.9,282.846l.334-116.246Z" transform="translate(-377.9 -166.6)" fill="#189387" stroke="#000" stroke-width="1.5"/>
          </g>
          <g id="Group_1372" data-name="Group 1372" transform="translate(42.026 24.062)">
            <path id="Path_3424" data-name="Path 3424" d="M528.8,247.184l3.927-2.284c4.9,2.841,8.884,9.72,8.856,15.345l-3.927,2.284C537.684,256.9,533.7,250,528.8,247.184Z" transform="translate(-528.8 -244.9)" fill="#189387" stroke="#000" stroke-width="1.5"/>
          </g>
        </g>
      </g>
    </g>
    <g id="Group_1381" data-name="Group 1381" transform="translate(144.733 73.987)">
      <g id="Group_1380" data-name="Group 1380" transform="translate(0 0)">
        <g id="Group_1379" data-name="Group 1379">
          <g id="Group_1376" data-name="Group 1376" transform="translate(18.985 5.81)">
            <path id="Path_3425" data-name="Path 3425" d="M212.9,166.816l5.876-3.426c4.9-2.841,11.641-2.451,19.105,1.866l-5.876,3.426C224.541,164.365,217.8,163.975,212.9,166.816Z" transform="translate(-212.9 -161.572)" fill="#f9d48a" stroke="#000" stroke-width="1.5"/>
          </g>
          <g id="Group_1377" data-name="Group 1377" transform="translate(38.118 9.494)">
            <path id="Path_3426" data-name="Path 3426" d="M306.414,238.409l-5.876,3.426c4.818-2.813,7.826-8.773,7.854-17.211.056-17.016-11.975-37.82-26.792-46.4l5.876-3.426c14.816,8.55,26.82,29.354,26.792,46.4C314.212,229.637,311.232,235.6,306.414,238.409Z" transform="translate(-281.6 -174.8)" fill="#f9d48a" stroke="#000" stroke-width="1.5"/>
          </g>
          <g id="Group_1378" data-name="Group 1378">
            <ellipse id="Ellipse_251" data-name="Ellipse 251" cx="21.946" cy="37.876" rx="21.946" ry="37.876" transform="translate(0 22.056) rotate(-30.165)" fill="#f9d48a" stroke="#000" stroke-width="1.5"/>
          </g>
        </g>
      </g>
    </g>
    <g id="Group_1388" data-name="Group 1388" transform="translate(152.271 144.364)">
      <g id="Group_1387" data-name="Group 1387" transform="translate(0)">
        <g id="Group_1386" data-name="Group 1386">
          <g id="Group_1382" data-name="Group 1382" transform="translate(2.172)">
            <path id="Path_3427" data-name="Path 3427" d="M179.6,395.607l2.952-1.7c1.337-.78,3.2-.668,5.264.5l-2.952,1.7C182.8,394.939,180.937,394.827,179.6,395.607Z" transform="translate(-179.6 -393.41)" fill="#ff6b6b" stroke="#000" stroke-width="1.5"/>
          </g>
          <g id="Group_1383" data-name="Group 1383" transform="translate(7.436 1)">
            <path id="Path_3428" data-name="Path 3428" d="M198.5,398.727,201.452,397l3.927,2.284-2.924,1.727Z" transform="translate(-198.5 -397)" fill="#ff6b6b" stroke="#000" stroke-width="1.5"/>
          </g>
          <g id="Group_1384" data-name="Group 1384" transform="translate(0 1.707)">
            <path id="Path_3429" data-name="Path 3429" d="M183.19,402.842c4.094,2.367,7.408,8.1,7.38,12.783,0,4.707-3.342,6.6-7.436,4.233l-3.955-2.284c-4.094-2.367-7.408-8.1-7.38-12.783,0-4.707,3.342-6.6,7.436-4.233Z" transform="translate(-171.799 -399.538)" fill="#ff6b6b" stroke="#000" stroke-width="1.5"/>
          </g>
          <g id="Group_1385" data-name="Group 1385" transform="translate(11.391 3.311)">
            <path id="Path_3430" data-name="Path 3430" d="M220.86,422.818l-2.952,1.7c1.337-.78,2.144-2.423,2.172-4.735A16.318,16.318,0,0,0,212.7,407l2.952-1.7c4.094,2.367,7.408,8.1,7.38,12.783C223,420.395,222.2,422.038,220.86,422.818Z" transform="translate(-212.7 -405.3)" fill="#ff6b6b" stroke="#000" stroke-width="1.5"/>
          </g>
        </g>
      </g>
    </g>
    <g id="Group_1395" data-name="Group 1395" transform="translate(195.438 168.593)">
      <g id="Group_1394" data-name="Group 1394">
        <g id="Group_1393" data-name="Group 1393">
          <g id="Group_1389" data-name="Group 1389" transform="translate(2.172)">
            <path id="Path_3431" data-name="Path 3431" d="M334.6,482.607l2.952-1.7c1.337-.78,3.2-.668,5.264.5l-2.952,1.7C337.8,481.939,335.937,481.827,334.6,482.607Z" transform="translate(-334.6 -480.41)" fill="#ff6b6b" stroke="#000" stroke-width="1.5"/>
          </g>
          <g id="Group_1390" data-name="Group 1390" transform="translate(7.436 1)">
            <path id="Path_3432" data-name="Path 3432" d="M353.5,485.727,356.452,484l3.927,2.284-2.924,1.727Z" transform="translate(-353.5 -484)" fill="#ff6b6b" stroke="#000" stroke-width="1.5"/>
          </g>
          <g id="Group_1391" data-name="Group 1391" transform="translate(0 1.707)">
            <path id="Path_3433" data-name="Path 3433" d="M338.19,489.842c4.094,2.367,7.408,8.1,7.38,12.783,0,4.707-3.342,6.6-7.436,4.233l-3.955-2.284c-4.094-2.367-7.408-8.1-7.38-12.783,0-4.707,3.342-6.6,7.436-4.233Z" transform="translate(-326.799 -486.538)" fill="#ff6b6b" stroke="#000" stroke-width="1.5"/>
          </g>
          <g id="Group_1392" data-name="Group 1392" transform="translate(11.391 3.284)">
            <path id="Path_3434" data-name="Path 3434" d="M375.86,509.745l-2.952,1.7c1.337-.78,2.144-2.423,2.172-4.762A16.244,16.244,0,0,0,367.7,493.9l2.952-1.7c4.094,2.367,7.408,8.1,7.38,12.783C378,507.323,377.2,508.966,375.86,509.745Z" transform="translate(-367.7 -492.2)" fill="#ff6b6b" stroke="#000" stroke-width="1.5"/>
          </g>
        </g>
      </g>
    </g>
    <g id="Group_1402" data-name="Group 1402" transform="translate(230.808 186.417)">
      <g id="Group_1401" data-name="Group 1401" transform="translate(0)">
        <g id="Group_1400" data-name="Group 1400">
          <g id="Group_1396" data-name="Group 1396" transform="translate(2.172)">
            <path id="Path_3435" data-name="Path 3435" d="M461.6,546.607l2.952-1.7c1.337-.78,3.2-.668,5.264.5l-2.952,1.7C464.8,545.939,462.937,545.827,461.6,546.607Z" transform="translate(-461.6 -544.41)" fill="#aa5b5b" stroke="#000" stroke-width="1.5"/>
          </g>
          <g id="Group_1397" data-name="Group 1397" transform="translate(7.436 1)">
            <path id="Path_3436" data-name="Path 3436" d="M480.5,549.727,483.452,548l3.927,2.284-2.924,1.727Z" transform="translate(-480.5 -548)" fill="#aa5b5b" stroke="#000" stroke-width="1.5"/>
          </g>
          <g id="Group_1398" data-name="Group 1398" transform="translate(0 1.707)">
            <path id="Path_3437" data-name="Path 3437" d="M465.19,553.842c4.094,2.367,7.408,8.1,7.38,12.783,0,4.707-3.342,6.6-7.436,4.233l-3.955-2.284c-4.094-2.367-7.408-8.1-7.38-12.783,0-4.707,3.342-6.6,7.436-4.233Z" transform="translate(-453.799 -550.538)" fill="#aa5b5b" stroke="#000" stroke-width="1.5"/>
          </g>
          <g id="Group_1399" data-name="Group 1399" transform="translate(11.391 3.284)">
            <path id="Path_3438" data-name="Path 3438" d="M502.86,573.745l-2.952,1.7c1.337-.78,2.144-2.423,2.172-4.762A16.244,16.244,0,0,0,494.7,557.9l2.952-1.7c4.094,2.367,7.408,8.1,7.38,12.783C505,571.323,504.2,572.966,502.86,573.745Z" transform="translate(-494.7 -556.2)" fill="#aa5b5b" stroke="#000" stroke-width="1.5"/>
          </g>
        </g>
      </g>
    </g>
    <g id="Group_1410" data-name="Group 1410" transform="translate(227.597 107.036)">
      <g id="Group_1409" data-name="Group 1409">
        <g id="Group_1408" data-name="Group 1408">
          <g id="Group_1403" data-name="Group 1403" transform="translate(5.069 60.468)">
            <path id="Path_3439" data-name="Path 3439" d="M452.652,478.394l-2.952,1.7a2.076,2.076,0,0,0,.863-1.894l2.952-1.7A2.076,2.076,0,0,1,452.652,478.394Z" transform="translate(-449.7 -476.5)" fill="#eee1dc" stroke="#000" stroke-width="1.5"/>
          </g>
          <g id="Group_1404" data-name="Group 1404" transform="translate(5.96 5.52)">
            <path id="Path_3440" data-name="Path 3440" d="M453.039,280.927l2.952-1.727-.167,54.948-2.924,1.7Z" transform="translate(-452.9 -279.2)" fill="#eee1dc" stroke="#000" stroke-width="1.5"/>
          </g>
          <g id="Group_1405" data-name="Group 1405" transform="translate(1.03)">
            <path id="Path_3441" data-name="Path 3441" d="M435.2,261.278l2.952-1.7a2.122,2.122,0,0,1,2.117.195l-2.952,1.7A2.191,2.191,0,0,0,435.2,261.278Z" transform="translate(-435.2 -259.378)" fill="#eee1dc" stroke="#000" stroke-width="1.5"/>
          </g>
          <g id="Group_1406" data-name="Group 1406" transform="translate(0 1.714)">
            <path id="Path_3442" data-name="Path 3442" d="M434.647,265.941a6.5,6.5,0,0,1,2.952,5.124l-.167,54.948c0,1.866-1.337,2.646-2.98,1.7a6.5,6.5,0,0,1-2.952-5.124l.167-54.948C431.695,265.746,433,264.994,434.647,265.941Z" transform="translate(-431.5 -265.532)" fill="#eee1dc" stroke="#000" stroke-width="1.5"/>
          </g>
          <g id="Group_1407" data-name="Group 1407" transform="translate(3.147 0.424)">
            <path id="Path_3443" data-name="Path 3443" d="M442.8,262.6l2.952-1.7a6.5,6.5,0,0,1,2.952,5.124l-2.952,1.7A6.5,6.5,0,0,0,442.8,262.6Z" transform="translate(-442.8 -260.9)" fill="#eee1dc" stroke="#000" stroke-width="1.5"/>
          </g>
        </g>
      </g>
    </g>
    <g id="Group_1417" data-name="Group 1417" transform="translate(224.653 131.522)">
      <g id="Group_1416" data-name="Group 1416" transform="translate(3)">
        <g id="Group_1415" data-name="Group 1415">
          <g id="Group_1411" data-name="Group 1411" transform="translate(5.041 38.6)">
            <path id="Path_3444" data-name="Path 3444" d="M452.752,487.794l-2.952,1.7a2.076,2.076,0,0,0,.863-1.894l2.952-1.7A2.044,2.044,0,0,1,452.752,487.794Z" transform="translate(-449.8 -485.9)" fill="#ff6b6b" stroke="#000" stroke-width="1.5"/>
          </g>
          <g id="Group_1412" data-name="Group 1412" transform="translate(0 1.699)">
            <path id="Path_3445" data-name="Path 3445" d="M437.716,356.826,437.632,392c0,1.866-1.337,2.646-2.98,1.7a6.5,6.5,0,0,1-2.952-5.124l.111-35.174Z" transform="translate(-431.7 -353.4)" fill="#ff6b6b" stroke="#000" stroke-width="1.5"/>
          </g>
          <g id="Group_1413" data-name="Group 1413" transform="translate(5.932 3.426)">
            <path id="Path_3446" data-name="Path 3446" d="M453.084,361.3l2.952-1.7-.111,35.175-2.924,1.7Z" transform="translate(-453 -359.6)" fill="#ff6b6b" stroke="#000" stroke-width="1.5"/>
          </g>
          <g id="Group_1414" data-name="Group 1414" transform="translate(0.084)">
            <path id="Path_3447" data-name="Path 3447" d="M432,349l2.952-1.7,5.932,3.426-2.952,1.7Z" transform="translate(-432 -347.3)" fill="#ff6b6b" stroke="#000" stroke-width="1.5"/>
          </g>
        </g>
      </g>
    </g>
    <g id="Group_1426" data-name="Group 1426" transform="translate(218.749 116.756)">
      <g id="Group_1425" data-name="Group 1425" transform="translate(0)">
        <g id="Group_1424" data-name="Group 1424">
          <g id="Group_1418" data-name="Group 1418" transform="translate(16.905 25.99)">
            <path id="Path_3448" data-name="Path 3448" d="M474.152,389.494l-2.952,1.7a2.076,2.076,0,0,0,.863-1.894l2.952-1.7A2.075,2.075,0,0,1,474.152,389.494Z" transform="translate(-471.2 -387.6)" fill="#f9d48a" stroke="#000" stroke-width="1.5"/>
          </g>
          <g id="Group_1419" data-name="Group 1419" transform="translate(0.891)">
            <path id="Path_3449" data-name="Path 3449" d="M413.7,296.178l2.952-1.7a2.122,2.122,0,0,1,2.117.195l-2.952,1.7A2.188,2.188,0,0,0,413.7,296.178Z" transform="translate(-413.7 -294.278)" fill="#f9d48a" stroke="#000" stroke-width="1.5"/>
          </g>
          <g id="Group_1420" data-name="Group 1420" transform="translate(17.768 12.371)">
            <path id="Path_3450" data-name="Path 3450" d="M474.356,340.4l2.952-1.7-.056,13.619-2.952,1.7Z" transform="translate(-474.3 -338.7)" fill="#f9d48a" stroke="#000" stroke-width="1.5"/>
          </g>
          <g id="Group_1421" data-name="Group 1421" transform="translate(3.008 0.396)">
            <path id="Path_3451" data-name="Path 3451" d="M421.3,297.427l2.952-1.727,11.864,6.851-2.952,1.727Z" transform="translate(-421.3 -295.7)" fill="#f9d48a" stroke="#000" stroke-width="1.5"/>
          </g>
          <g id="Group_1422" data-name="Group 1422" transform="translate(0 1.719)">
            <path id="Path_3452" data-name="Path 3452" d="M425.372,307.705a6.5,6.5,0,0,1,2.952,5.124l-.028,13.619c0,1.894-1.337,2.646-2.98,1.7L413.452,321.3a6.5,6.5,0,0,1-2.952-5.124l.028-13.619c0-1.866,1.337-2.646,2.98-1.7Z" transform="translate(-410.5 -300.45)" fill="#f9d48a" stroke="#000" stroke-width="1.5"/>
          </g>
          <g id="Group_1423" data-name="Group 1423" transform="translate(14.872 7.275)">
            <path id="Path_3453" data-name="Path 3453" d="M463.9,322.1l2.952-1.7a6.5,6.5,0,0,1,2.952,5.124l-2.952,1.7A6.461,6.461,0,0,0,463.9,322.1Z" transform="translate(-463.9 -320.4)" fill="#f9d48a" stroke="#000" stroke-width="1.5"/>
          </g>
        </g>
      </g>
    </g>
    <g id="Group_1431" data-name="Group 1431" transform="translate(194.491 93.396)">
      <g id="Group_1430" data-name="Group 1430" transform="translate(0)">
        <g id="Group_1429" data-name="Group 1429">
          <g id="Group_1427" data-name="Group 1427" transform="translate(0 3.398)">
            <path id="Path_3454" data-name="Path 3454" d="M323.567,222.6c8.884,10.165,14.983,24.229,14.928,36.372-.028,12.143-6.183,19.133-15.095,19.021Z" transform="translate(-323.4 -222.6)" fill="#efac41" stroke="#000" stroke-width="1.5"/>
          </g>
          <g id="Group_1428" data-name="Group 1428" transform="translate(0.195)">
            <path id="Path_3455" data-name="Path 3455" d="M337.05,263.983l-5.876,3.426c4.818-2.813,7.826-8.773,7.854-17.211.028-12.143-6.071-26.207-14.928-36.372l5.876-3.426c8.884,10.165,14.983,24.229,14.928,36.372C344.876,255.211,341.9,261.17,337.05,263.983Z" transform="translate(-324.1 -210.4)" fill="#efac41" stroke="#000" stroke-width="1.5"/>
          </g>
        </g>
      </g>
    </g>
    <g id="Group_1437" data-name="Group 1437" transform="translate(206.718 171.932)">
      <g id="Group_1436" data-name="Group 1436" transform="translate(0)">
        <g id="Group_1435" data-name="Group 1435">
          <g id="Group_1432" data-name="Group 1432" transform="translate(0.056)">
            <path id="Path_3456" data-name="Path 3456" d="M367.5,494.127l2.924-1.727,1.977,1.142-2.924,1.727Z" transform="translate(-367.5 -492.4)" fill="#aa5b5b" stroke="#000" stroke-width="1.5"/>
          </g>
          <g id="Group_1433" data-name="Group 1433" transform="translate(0 1.727)">
            <path id="Path_3457" data-name="Path 3457" d="M369.333,499.742c4.094,2.367,7.408,8.1,7.38,12.783,0,4.707-3.342,6.6-7.436,4.233l-1.977-1.142.056-17.016Z" transform="translate(-367.3 -498.6)" fill="#aa5b5b" stroke="#000" stroke-width="1.5"/>
          </g>
          <g id="Group_1434" data-name="Group 1434" transform="translate(2.033 1.142)">
            <path id="Path_3458" data-name="Path 3458" d="M382.76,514.045l-2.952,1.7c1.337-.78,2.144-2.423,2.172-4.762A16.244,16.244,0,0,0,374.6,498.2l2.952-1.7c4.094,2.367,7.408,8.1,7.38,12.783C384.9,511.622,384.1,513.266,382.76,514.045Z" transform="translate(-374.6 -496.5)" fill="#aa5b5b" stroke="#000" stroke-width="1.5"/>
          </g>
        </g>
      </g>
    </g>
    <g id="Group_1443" data-name="Group 1443" transform="translate(170.498 103.024)">
      <g id="Group_1442" data-name="Group 1442" transform="translate(0)">
        <g id="Group_1441" data-name="Group 1441">
          <g id="Group_1438" data-name="Group 1438" transform="translate(6.28 2.941)">
            <path id="Path_3459" data-name="Path 3459" d="M259.8,256.247l.195-.111c1.615-.947,3.843-.808,6.322.613l-.195.111C263.671,255.439,261.415,255.3,259.8,256.247Z" transform="translate(-259.8 -255.532)" fill="#fff4f4" stroke="#000" stroke-width="1.5"/>
          </g>
          <g id="Group_1439" data-name="Group 1439" transform="translate(12.602 4.157)">
            <path id="Path_3460" data-name="Path 3460" d="M288.961,280.955l-.195.111c1.587-.919,2.59-2.9,2.59-5.709.028-5.626-3.955-12.532-8.856-15.345l.195-.111c4.9,2.841,8.884,9.72,8.856,15.345C291.551,278.03,290.576,280.008,288.961,280.955Z" transform="translate(-282.5 -259.9)" fill="#fff4f4" stroke="#000" stroke-width="1.5"/>
          </g>
          <g id="Group_1440" data-name="Group 1440">
            <ellipse id="Ellipse_252" data-name="Ellipse 252" cx="7.269" cy="12.532" rx="7.269" ry="12.532" transform="translate(0 7.305) rotate(-30.165)" fill="#fff4f4" stroke="#000" stroke-width="1.5"/>
          </g>
        </g>
      </g>
    </g>
  </g>
</svg>
