<svg xmlns="http://www.w3.org/2000/svg" width="86.558" height="132.482" viewBox="0 0 86.558 132.482">
  <g id="karaoke" transform="translate(-53.499 23.263)">
    <g id="Group_1474" data-name="Group 1474" transform="translate(56.157 -23.263)">
      <g id="Group_1473" data-name="Group 1473">
        <g id="Group_1472" data-name="Group 1472">
          <g id="Group_1444" data-name="Group 1444" transform="translate(8.393 32.378)">
            <path id="Path_3461" data-name="Path 3461" d="M98.5,115.244l3.343-1.944c.545.83,1.091,1.612,1.683,2.395l-3.343,1.944C99.591,116.856,99.022,116.074,98.5,115.244Z" transform="translate(-98.5 -113.3)"/>
          </g>
          <g id="Group_1445" data-name="Group 1445" transform="translate(12.542 37.736)">
            <path id="Path_3462" data-name="Path 3462" d="M116,137.844l3.343-1.944a27.4,27.4,0,0,0,6.235,5.05l-3.343,1.944A28.057,28.057,0,0,1,116,137.844Z" transform="translate(-116 -135.9)"/>
          </g>
          <g id="Group_1446" data-name="Group 1446" transform="translate(18.778 42.786)">
            <path id="Path_3463" data-name="Path 3463" d="M142.3,159.144l3.343-1.944c.285.166.569.308.83.45l-3.343,1.944C142.869,159.452,142.585,159.31,142.3,159.144Z" transform="translate(-142.3 -157.2)"/>
          </g>
          <g id="Group_1447" data-name="Group 1447" transform="translate(22.073 46.176)">
            <path id="Path_3464" data-name="Path 3464" d="M156.2,173.444l3.343-1.944,2.94,4.789-3.343,1.92Z" transform="translate(-156.2 -171.5)"/>
          </g>
          <g id="Group_1448" data-name="Group 1448" transform="translate(27.005 54.19)">
            <path id="Path_3465" data-name="Path 3465" d="M177,207.244l3.343-1.944,27.526,44.786-3.343,1.944Z" transform="translate(-177 -205.3)"/>
          </g>
          <g id="Group_1449" data-name="Group 1449" transform="translate(56.522 102.2)">
            <path id="Path_3466" data-name="Path 3466" d="M301.5,409.744l3.343-1.944,2.229,3.627-3.343,1.944Z" transform="translate(-301.5 -407.8)"/>
          </g>
          <g id="Group_1450" data-name="Group 1450" transform="translate(60.719 109.052)">
            <path id="Path_3467" data-name="Path 3467" d="M319.2,438.644l3.343-1.944,3.651,5.927-3.343,1.944Z" transform="translate(-319.2 -436.7)"/>
          </g>
          <g id="Group_1451" data-name="Group 1451" transform="translate(64.37 113.96)">
            <path id="Path_3468" data-name="Path 3468" d="M334.6,460.364l3.343-1.944,1.778-1.02-3.343,1.944Z" transform="translate(-334.6 -457.4)"/>
          </g>
          <g id="Group_1452" data-name="Group 1452" transform="translate(69.159 116.615)">
            <path id="Path_3469" data-name="Path 3469" d="M354.8,470.544l3.343-1.944,3.2,4.6L358,475.144Z" transform="translate(-354.8 -468.6)"/>
          </g>
          <g id="Group_1453" data-name="Group 1453" transform="translate(2.673 5.041)">
            <path id="Path_3470" data-name="Path 3470" d="M78.269-.056,81.612-2c-5.169,3.959-5.192,14.154-.071,24.041L78.2,23.985C73.077,14.1,73.1,3.9,78.269-.056Z" transform="translate(-74.375 2)"/>
          </g>
          <g id="Group_1454" data-name="Group 1454" transform="translate(6.567 4.496)">
            <path id="Path_3471" data-name="Path 3471" d="M91.63-2.356,94.973-4.3c-.285.166-.569.356-.83.545L90.8-1.811A6.252,6.252,0,0,1,91.63-2.356Z" transform="translate(-90.8 4.3)"/>
          </g>
          <g id="Group_1455" data-name="Group 1455" transform="translate(80.136 128.233)">
            <path id="Path_3472" data-name="Path 3472" d="M404.467,519.8l-3.343,1.944h0c.522-.308.5-1.3-.024-2.2l3.343-1.944c.545.9.569,1.873.024,2.2Z" transform="translate(-401.1 -517.6)"/>
          </g>
          <g id="Group_1456" data-name="Group 1456" transform="translate(77.078 122.898)">
            <path id="Path_3473" data-name="Path 3473" d="M388.2,497.044l3.343-1.944,3.082,5.335-3.343,1.944Z" transform="translate(-388.2 -495.1)"/>
          </g>
          <g id="Group_1457" data-name="Group 1457" transform="translate(72.36 119.081)">
            <path id="Path_3474" data-name="Path 3474" d="M368.3,483.078l3.343-1.944L375.389,479l-3.343,1.944Z" transform="translate(-368.3 -479)"/>
          </g>
          <g id="Group_1458" data-name="Group 1458" transform="translate(66.148 110.095)">
            <path id="Path_3475" data-name="Path 3475" d="M342.1,446.909l3.343-1.944L352.2,441.1l-3.343,1.944Z" transform="translate(-342.1 -441.1)"/>
          </g>
          <g id="Group_1459" data-name="Group 1459" transform="translate(78.809 119.958)">
            <path id="Path_3476" data-name="Path 3476" d="M395.642,484.644l3.343-1.944c.4.854.356,1.683-.142,1.944l-3.343,1.944C396,486.327,396.045,485.5,395.642,484.644Z" transform="translate(-395.5 -482.7)"/>
          </g>
          <g id="Group_1460" data-name="Group 1460" transform="translate(75.632 112.917)">
            <path id="Path_3477" data-name="Path 3477" d="M382.1,454.944,385.443,453l3.319,7.042-3.343,1.944Z" transform="translate(-382.1 -453)"/>
          </g>
          <g id="Group_1461" data-name="Group 1461" transform="translate(72.905 109.076)">
            <path id="Path_3478" data-name="Path 3478" d="M370.6,439.764l3.343-1.944,1.778-1.019-3.343,1.944Z" transform="translate(-370.6 -436.8)"/>
          </g>
          <g id="Group_1462" data-name="Group 1462" transform="translate(58.751 99.64)">
            <path id="Path_3479" data-name="Path 3479" d="M310.9,405.132l3.343-1.944L325.078,397l-3.343,1.944Z" transform="translate(-310.9 -397)"/>
          </g>
          <g id="Group_1463" data-name="Group 1463" transform="translate(54.531 92.575)">
            <path id="Path_3480" data-name="Path 3480" d="M293.1,375.546l3.343-1.944,11.214-6.4-3.343,1.944Z" transform="translate(-293.1 -367.2)"/>
          </g>
          <g id="Group_1464" data-name="Group 1464" transform="translate(77.505 109.74)">
            <path id="Path_3481" data-name="Path 3481" d="M390.047,441.544l3.343-1.944c.474.9.45,1.826-.047,2.11L390,443.654C390.5,443.37,390.522,442.445,390.047,441.544Z" transform="translate(-390 -439.6)"/>
          </g>
          <g id="Group_1465" data-name="Group 1465" transform="translate(25.013 43.023)">
            <path id="Path_3482" data-name="Path 3482" d="M168.6,168.063l3.343-1.92L185.86,158.2l-3.343,1.944Z" transform="translate(-168.6 -158.2)"/>
          </g>
          <g id="Group_1466" data-name="Group 1466" transform="translate(19.607 34.488)">
            <path id="Path_3483" data-name="Path 3483" d="M145.8,132.869l3.343-1.92,15.34-8.749-3.343,1.944Z" transform="translate(-145.8 -122.2)"/>
          </g>
          <g id="Group_1467" data-name="Group 1467" transform="translate(37.65 36.005)">
            <path id="Path_3484" data-name="Path 3484" d="M221.9,130.544l3.343-1.944,39.9,73.735-3.343,1.944Z" transform="translate(-221.9 -128.6)"/>
          </g>
          <g id="Group_1468" data-name="Group 1468" transform="translate(10.076 22.017)">
            <path id="Path_3485" data-name="Path 3485" d="M105.6,84.3l3.343-1.944L131.3,69.6l-3.343,1.944Z" transform="translate(-105.6 -69.6)"/>
          </g>
          <g id="Group_1469" data-name="Group 1469" transform="translate(6.496 16.09)">
            <path id="Path_3486" data-name="Path 3486" d="M90.5,59.537l3.343-1.944L116.651,44.6l-3.343,1.944Z" transform="translate(-90.5 -44.6)"/>
          </g>
          <g id="Group_1470" data-name="Group 1470" transform="translate(0 1.952)">
            <path id="Path_3487" data-name="Path 3487" d="M143.26,113.2c.522.9.545,1.9.024,2.2a.925.925,0,0,1-.972-.095,2.622,2.622,0,0,1-.925-.972l-3.106-5.382-1.754,1a.992.992,0,0,1-.948-.095,2.508,2.508,0,0,1-.806-.782l-4.434-6.4-1.873,1.067a.992.992,0,0,1-.948-.095,2.6,2.6,0,0,1-.9-.925L82.683,31.258c-.261-.142-.522-.261-.782-.427-10.432-6-18.825-20.556-18.8-32.5S71.611-18.46,82-12.437c10.408,6,18.8,20.556,18.777,32.5,0,.308-.024.593-.024.9l39.9,73.735c.474.9.45,1.826-.047,2.11l-1.873,1.067,3.319,7.042c.4.854.356,1.683-.142,1.944l-1.754,1ZM90.1,39.153,117.63,83.939l11.238-6.4L103.855,31.306,90.1,39.153M69.667-10C64.5-6.036,64.475,4.159,69.6,14.045L92.4,1.053A31.964,31.964,0,0,0,81.972-9.4c-4.576-2.655-9.1-3.058-12.3-.593m1.826,27.336c.545.83,1.091,1.612,1.683,2.395L95.534,6.98c-.379-.9-.782-1.778-1.233-2.655L71.493,17.341M81.877,27.749c.285.166.569.308.83.45l15.34-8.749c.024-.308.024-.593.024-.925a27.688,27.688,0,0,0-1.233-7.919L75.642,22.7a28.057,28.057,0,0,0,6.235,5.05m3.3,3.39,2.94,4.765,13.917-7.942-2.655-4.931-14.2,8.108m44.075,67.784L136,95.083l1.8-1.019-3.3-6.093-10.669,6.069,3.627,5.9,1.778-1.019m-9.626-11.76,2.229,3.627L132.686,84.6l-2.015-3.746-11.048,6.307m15.838,19.015,3.746-2.134-2.395-5.074-4.552,2.584,3.2,4.623" transform="translate(-63.1 15.029)"/>
          </g>
          <g id="Group_1471" data-name="Group 1471" transform="translate(5.501)">
            <path id="Path_3488" data-name="Path 3488" d="M86.3-20.047l3.343-1.944c3.414-1.992,8.18-1.707,13.4,1.3,10.408,6.022,18.8,20.556,18.777,32.529,0,.308-.024.593-.024.9l-3.343,1.944c0-.308.024-.593.024-.9C118.5,1.836,110.1-12.721,99.7-18.743,94.48-21.754,89.714-22.039,86.3-20.047Z" transform="translate(-86.3 23.263)"/>
          </g>
        </g>
      </g>
    </g>
    <g id="Group_1486" data-name="Group 1486" transform="translate(75.077 13.193)">
      <g id="Group_1485" data-name="Group 1485">
        <g id="Group_1484" data-name="Group 1484">
          <g id="Group_1475" data-name="Group 1475" transform="translate(52.231 66.551)">
            <path id="Path_3489" data-name="Path 3489" d="M363.2,413.144l3.343-1.944,4.2,7.776-3.343,1.944Z" transform="translate(-363.2 -411.2)" fill="#f9d48a" stroke="#000" stroke-width="1"/>
          </g>
          <g id="Group_1476" data-name="Group 1476" transform="translate(50.429 63.208)">
            <path id="Path_3490" data-name="Path 3490" d="M355.6,399.044l3.343-1.944,1.8,3.343-3.343,1.944Z" transform="translate(-355.6 -397.1)" fill="#f9d48a" stroke="#000" stroke-width="1"/>
          </g>
          <g id="Group_1477" data-name="Group 1477" transform="translate(48.39 59.462)">
            <path id="Path_3491" data-name="Path 3491" d="M347,383.244l3.343-1.944,2.039,3.746-3.343,1.944Z" transform="translate(-347 -381.3)" fill="#f9d48a" stroke="#000" stroke-width="1"/>
          </g>
          <g id="Group_1478" data-name="Group 1478" transform="translate(46.588 56.143)">
            <path id="Path_3492" data-name="Path 3492" d="M339.4,369.244l3.343-1.944,1.8,3.319-3.343,1.944Z" transform="translate(-339.4 -367.3)" fill="#f9d48a" stroke="#000" stroke-width="1"/>
          </g>
          <g id="Group_1479" data-name="Group 1479" transform="translate(21.575 9.91)">
            <path id="Path_3493" data-name="Path 3493" d="M233.9,174.244l3.343-1.944,25.013,46.232-3.343,1.944Z" transform="translate(-233.9 -172.3)" fill="#f9d48a" stroke="#000" stroke-width="1"/>
          </g>
          <g id="Group_1480" data-name="Group 1480" transform="translate(19.773 6.591)">
            <path id="Path_3494" data-name="Path 3494" d="M226.3,160.244l3.343-1.944,1.8,3.319-3.343,1.944Z" transform="translate(-226.3 -158.3)" fill="#f9d48a" stroke="#000" stroke-width="1"/>
          </g>
          <g id="Group_1481" data-name="Group 1481">
            <path id="Path_3495" data-name="Path 3495" d="M142.9,141.667l3.343-1.944L162.46,130.5l-3.343,1.944Z" transform="translate(-142.9 -130.5)" fill="#f9d48a" stroke="#000" stroke-width="1"/>
          </g>
          <g id="Group_1482" data-name="Group 1482" transform="translate(16.217)">
            <path id="Path_3496" data-name="Path 3496" d="M211.3,132.444l3.343-1.944,3.556,6.591-3.343,1.944Z" transform="translate(-211.3 -130.5)" fill="#f9d48a" stroke="#000" stroke-width="1"/>
          </g>
          <g id="Group_1483" data-name="Group 1483" transform="translate(0 1.944)">
            <path id="Path_3497" data-name="Path 3497" d="M159.117,138.7l3.556,6.591,1.8,3.319,25.013,46.232,1.8,3.319,2.039,3.746,1.8,3.343,4.2,7.777-2.7,1.517-9.436,5.406-4.647-7.539-1.968-3.224-2.229-3.627-1.992-3.248-27.526-44.762-1.992-3.248-3.936-6.378Z" transform="translate(-142.9 -138.7)" fill="#f9d48a" stroke="#000" stroke-width="1"/>
          </g>
        </g>
      </g>
    </g>
    <g id="Group_1492" data-name="Group 1492" transform="translate(123.941 89.678)">
      <g id="Group_1491" data-name="Group 1491">
        <g id="Group_1490" data-name="Group 1490">
          <g id="Group_1487" data-name="Group 1487" transform="translate(0 1.47)">
            <path id="Path_3498" data-name="Path 3498" d="M355.757,459.3l4.007,8.512-5.406,3.082L349,463.141Z" transform="translate(-349 -459.3)" fill="#f9d48a" stroke="#000" stroke-width="1"/>
          </g>
          <g id="Group_1488" data-name="Group 1488" transform="translate(6.757)">
            <path id="Path_3499" data-name="Path 3499" d="M377.5,454.57l2.489-1.47,4.031,8.512-2.513,1.47Z" transform="translate(-377.5 -453.1)" fill="#f9d48a" stroke="#000" stroke-width="1"/>
          </g>
          <g id="Group_1489" data-name="Group 1489">
            <path id="Path_3500" data-name="Path 3500" d="M349,458.411l2.513-1.47,6.733-3.841-2.489,1.47Z" transform="translate(-349 -453.1)" fill="#f9d48a" stroke="#000" stroke-width="1"/>
          </g>
        </g>
      </g>
    </g>
    <g id="Group_1506" data-name="Group 1506" transform="translate(91.308 36.673)">
      <g id="Group_1505" data-name="Group 1505" transform="translate(0)">
        <g id="Group_1504" data-name="Group 1504">
          <g id="Group_1493" data-name="Group 1493" transform="translate(6.173 11.135)">
            <path id="Path_3501" data-name="Path 3501" d="M237.4,277.97l2.489-1.47,2.537,4.386-2.513,1.446Z" transform="translate(-237.4 -276.5)"/>
          </g>
          <g id="Group_1494" data-name="Group 1494" transform="translate(3.091 5.824)">
            <path id="Path_3502" data-name="Path 3502" d="M224.4,255.546l2.513-1.446,1.162,2.039-2.489,1.446Z" transform="translate(-224.4 -254.1)"/>
          </g>
          <g id="Group_1495" data-name="Group 1495" transform="translate(8.686 15.521)">
            <path id="Path_3503" data-name="Path 3503" d="M248,296.446,250.513,295a2.752,2.752,0,0,0,.948,1,1,1,0,0,0,.948.095l-2.513,1.446a.992.992,0,0,1-.948-.095A2.752,2.752,0,0,1,248,296.446Z" transform="translate(-248 -295)"/>
          </g>
          <g id="Group_1496" data-name="Group 1496" transform="translate(2.7 3.643)">
            <path id="Path_3504" data-name="Path 3504" d="M223.141,246.346l2.513-1.446c-.522.308-.522,1.28,0,2.181l-2.513,1.446C222.62,247.627,222.62,246.654,223.141,246.346Z" transform="translate(-222.75 -244.9)"/>
          </g>
          <g id="Group_1497" data-name="Group 1497" transform="translate(10.583 16.469)">
            <path id="Path_3505" data-name="Path 3505" d="M256,300.589l2.513-1.446.237-.142-2.513,1.47Z" transform="translate(-256 -299)"/>
          </g>
          <g id="Group_1498" data-name="Group 1498" transform="translate(1.194 0.205)">
            <path id="Path_3506" data-name="Path 3506" d="M216.4,232.012l2.513-1.47.237-.142-2.513,1.47Z" transform="translate(-216.4 -230.4)"/>
          </g>
          <g id="Group_1499" data-name="Group 1499" transform="translate(4.277 6.654)">
            <path id="Path_3507" data-name="Path 3507" d="M229.4,260.255l2.489-1.446,2.158-1.209-2.513,1.446Z" transform="translate(-229.4 -257.6)"/>
          </g>
          <g id="Group_1500" data-name="Group 1500" transform="translate(12.717 13.221)">
            <path id="Path_3508" data-name="Path 3508" d="M265.024,286.746l2.513-1.446c1.565,2.727,1.565,5.666-.024,6.567L265,293.29C266.589,292.389,266.589,289.449,265.024,286.746Z" transform="translate(-265 -285.3)"/>
          </g>
          <g id="Group_1501" data-name="Group 1501" transform="translate(7.145 3.5)">
            <path id="Path_3509" data-name="Path 3509" d="M241.5,245.77l2.513-1.47,5.572,9.7-2.489,1.47Z" transform="translate(-241.5 -244.3)"/>
          </g>
          <g id="Group_1502" data-name="Group 1502" transform="translate(1.431)">
            <path id="Path_3510" data-name="Path 3510" d="M217.4,231.211l2.513-1.446a3.049,3.049,0,0,1,2.869.332,8.364,8.364,0,0,1,2.845,2.964l-2.513,1.446a8.571,8.571,0,0,0-2.845-2.964A2.985,2.985,0,0,0,217.4,231.211Z" transform="translate(-217.4 -229.536)"/>
          </g>
          <g id="Group_1503" data-name="Group 1503" transform="translate(0 1.446)">
            <path id="Path_3511" data-name="Path 3511" d="M224.1,248.857c1.565,2.727,1.565,5.666-.024,6.567l-.237.142a2.905,2.905,0,0,1-2.869-.285,7.968,7.968,0,0,1-2.845-3.011l-5.6-9.7c-1.565-2.727-1.565-5.666.024-6.567l.237-.142a3.049,3.049,0,0,1,2.869.332,8.365,8.365,0,0,1,2.845,2.964Zm-1.92,3.272c.522-.308.522-1.28,0-2.181l-2.513-4.362-2.134,1.209,2.513,4.362a2.752,2.752,0,0,0,.948,1,.992.992,0,0,0,.948.095l.237-.119m-7.729-10.669,1.185,2.039,2.134-1.209-1.185-2.039a2.752,2.752,0,0,0-.948-1,1,1,0,0,0-.948-.095l-.237.142c-.522.284-.522,1.257,0,2.158" transform="translate(-211.362 -235.636)"/>
          </g>
        </g>
      </g>
    </g>
    <g id="Group_1514" data-name="Group 1514" transform="translate(92.435 38.877)">
      <g id="Group_1513" data-name="Group 1513" transform="translate(0)">
        <g id="Group_1512" data-name="Group 1512">
          <g id="Group_1507" data-name="Group 1507" transform="translate(0.803 0.159)">
            <path id="Path_3512" data-name="Path 3512" d="M219.5,241.089l2.513-1.446.213-.142-2.489,1.47Z" transform="translate(-219.5 -239.5)" fill="#ff6b6b" stroke="#000" stroke-width="1"/>
          </g>
          <g id="Group_1508" data-name="Group 1508" transform="translate(1.04)">
            <path id="Path_3513" data-name="Path 3513" d="M220.5,240.459l2.513-1.446a1.869,1.869,0,0,1,1.9.19l-2.513,1.446A1.869,1.869,0,0,0,220.5,240.459Z" transform="translate(-220.5 -238.83)" fill="#ff6b6b" stroke="#000" stroke-width="1"/>
          </g>
          <g id="Group_1509" data-name="Group 1509" transform="translate(4.834 2.364)">
            <path id="Path_3514" data-name="Path 3514" d="M236.5,250.246l2.513-1.446,2.134,3.675-2.513,1.47Z" transform="translate(-236.5 -248.8)" fill="#ff6b6b" stroke="#000" stroke-width="1"/>
          </g>
          <g id="Group_1510" data-name="Group 1510" transform="translate(0 1.446)">
            <path id="Path_3515" data-name="Path 3515" d="M219.049,245.3a5.4,5.4,0,0,1,1.9,2.015l2.134,3.675-4.054,2.3-2.134-3.675c-1.043-1.8-1.043-3.77.024-4.362l.237-.142A1.869,1.869,0,0,1,219.049,245.3Z" transform="translate(-216.112 -244.93)" fill="#ff6b6b" stroke="#000" stroke-width="1"/>
          </g>
          <g id="Group_1511" data-name="Group 1511" transform="translate(2.937 0.372)">
            <path id="Path_3516" data-name="Path 3516" d="M228.5,241.846l2.513-1.446a5.4,5.4,0,0,1,1.9,2.015l-2.513,1.446A5.4,5.4,0,0,0,228.5,241.846Z" transform="translate(-228.5 -240.4)" fill="#ff6b6b" stroke="#000" stroke-width="1"/>
          </g>
        </g>
      </g>
    </g>
    <g id="Group_1521" data-name="Group 1521" transform="translate(95.751 45.532)">
      <g id="Group_1520" data-name="Group 1520" transform="translate(0)">
        <g id="Group_1519" data-name="Group 1519">
          <g id="Group_1515" data-name="Group 1515" transform="translate(7.492 6.022)">
            <path id="Path_3517" data-name="Path 3517" d="M261.724,293.746l2.513-1.446c1.043,1.8,1.043,3.77-.024,4.362l-2.513,1.446C262.767,297.516,262.767,295.548,261.724,293.746Z" transform="translate(-261.7 -292.3)" fill="#e6e6e6" stroke="#000" stroke-width="1"/>
          </g>
          <g id="Group_1516" data-name="Group 1516" transform="translate(0 1.446)">
            <path id="Path_3518" data-name="Path 3518" d="M234.154,273l3.461,6c1.043,1.8,1.043,3.77-.024,4.362l-.237.142a1.869,1.869,0,0,1-1.9-.19,5.4,5.4,0,0,1-1.9-2.015l-3.462-6Z" transform="translate(-230.1 -273)" fill="#e6e6e6" stroke="#000" stroke-width="1"/>
          </g>
          <g id="Group_1517" data-name="Group 1517" transform="translate(4.054)">
            <path id="Path_3519" data-name="Path 3519" d="M247.2,268.346l2.513-1.446,3.461,6-2.513,1.47Z" transform="translate(-247.2 -266.9)" fill="#e6e6e6" stroke="#000" stroke-width="1"/>
          </g>
          <g id="Group_1518" data-name="Group 1518" transform="translate(0)">
            <path id="Path_3520" data-name="Path 3520" d="M230.1,270.67l2.513-1.47,4.054-2.3-2.513,1.446Z" transform="translate(-230.1 -266.9)" fill="#e6e6e6" stroke="#000" stroke-width="1"/>
          </g>
        </g>
      </g>
    </g>
    <g id="Group_1527" data-name="Group 1527" transform="translate(63.317 1.148)">
      <g id="Group_1526" data-name="Group 1526">
        <g id="Group_1525" data-name="Group 1525">
          <g id="Group_1522" data-name="Group 1522" transform="translate(0 1.47)">
            <path id="Path_3521" data-name="Path 3521" d="M117.175,85.9a32.025,32.025,0,0,1,2.2,11.1c0,.522-.024,1.019-.047,1.517l-16.146,9.2q-.676-.32-1.351-.711A32.342,32.342,0,0,1,93.3,99.509Z" transform="translate(-93.3 -85.9)" fill="#4fcdc4" stroke="#000" stroke-width="1"/>
          </g>
          <g id="Group_1523" data-name="Group 1523" transform="translate(23.875 0.024)">
            <path id="Path_3522" data-name="Path 3522" d="M194,81.246l2.513-1.446a32.025,32.025,0,0,1,2.2,11.1c0,.522-.024,1.019-.047,1.517l-2.513,1.446c.024-.5.047-1,.047-1.517A32.025,32.025,0,0,0,194,81.246Z" transform="translate(-194 -79.8)" fill="#4fcdc4" stroke="#000" stroke-width="1"/>
          </g>
          <g id="Group_1524" data-name="Group 1524">
            <path id="Path_3523" data-name="Path 3523" d="M93.3,94.779l2.513-1.47L119.688,79.7l-2.513,1.47Z" transform="translate(-93.3 -79.7)" fill="#4fcdc4" stroke="#000" stroke-width="1"/>
          </g>
        </g>
      </g>
    </g>
    <g id="Group_1533" data-name="Group 1533" transform="translate(59.429 -5.371)">
      <g id="Group_1532" data-name="Group 1532">
        <g id="Group_1531" data-name="Group 1531">
          <g id="Group_1528" data-name="Group 1528" transform="translate(24.823)">
            <path id="Path_3524" data-name="Path 3524" d="M181.6,53.646l2.513-1.446a39.245,39.245,0,0,1,2.869,6.069l-2.513,1.446A44.167,44.167,0,0,0,181.6,53.646Z" transform="translate(-181.6 -52.2)" fill="#f9d48a" stroke="#000" stroke-width="1"/>
          </g>
          <g id="Group_1529" data-name="Group 1529" transform="translate(0 1.446)">
            <path id="Path_3525" data-name="Path 3525" d="M101.723,58.3a39.243,39.243,0,0,1,2.869,6.069L80.717,77.978A41.746,41.746,0,0,1,76.9,72.431Z" transform="translate(-76.9 -58.3)" fill="#f9d48a" stroke="#000" stroke-width="1"/>
          </g>
          <g id="Group_1530" data-name="Group 1530">
            <path id="Path_3526" data-name="Path 3526" d="M76.9,67.8l2.513-1.47,24.8-14.131-2.489,1.446Z" transform="translate(-76.9 -52.2)" fill="#f9d48a" stroke="#000" stroke-width="1"/>
          </g>
        </g>
      </g>
    </g>
    <g id="Group_1539" data-name="Group 1539" transform="translate(53.999 -21.162)">
      <g id="Group_1538" data-name="Group 1538" transform="translate(0 0)">
        <g id="Group_1537" data-name="Group 1537">
          <g id="Group_1534" data-name="Group 1534" transform="translate(5.169)">
            <path id="Path_3527" data-name="Path 3527" d="M75.8-11.818l2.513-1.446c3.3-1.873,7.753-1.423,12.376,1.257l-2.513,1.446C83.553-13.24,79.1-13.691,75.8-11.818Z" transform="translate(-75.8 14.403)" fill="#4fcdc4" stroke="#000" stroke-width="1"/>
          </g>
          <g id="Group_1535" data-name="Group 1535" transform="translate(0 1.446)">
            <path id="Path_3528" data-name="Path 3528" d="M71.544-5.908A35.52,35.52,0,0,1,83.9,7.132L59.073,21.263c-6.8-11.783-6.757-24.515.095-28.427C62.464-9.037,66.921-8.587,71.544-5.908Z" transform="translate(-53.999 8.303)" fill="#4fcdc4" stroke="#000" stroke-width="1"/>
          </g>
          <g id="Group_1536" data-name="Group 1536" transform="translate(17.545 2.395)">
            <path id="Path_3529" data-name="Path 3529" d="M128-2.854,130.513-4.3A35.52,35.52,0,0,1,142.865,8.74l-2.513,1.446C137.1,4.52,132.671-.175,128-2.854Z" transform="translate(-128 4.3)" fill="#4fcdc4" stroke="#000" stroke-width="1"/>
          </g>
        </g>
      </g>
    </g>
    <g id="Group_1567" data-name="Group 1567" transform="translate(53.896 -16.984)">
      <g id="Group_1566" data-name="Group 1566" transform="translate(4 3.742)">
        <g id="Group_1565" data-name="Group 1565">
          <g id="Group_1540" data-name="Group 1540" transform="translate(2.98 14.642)">
            <path id="Path_3530" data-name="Path 3530" d="M79.451,79.6,77.4,80.777a.786.786,0,0,0,.329-.7L79.78,78.9A.834.834,0,0,1,79.451,79.6Z" transform="translate(-77.4 -78.9)" fill="#eae4e4" stroke="#000" stroke-width="1"/>
          </g>
          <g id="Group_1541" data-name="Group 1541" transform="translate(3.289 9.573)">
            <path id="Path_3531" data-name="Path 3531" d="M79.019,53.9l2.051-1.2-.019,5.05L79,58.949Z" transform="translate(-79 -52.7)" fill="#eae4e4" stroke="#000" stroke-width="1"/>
          </g>
          <g id="Group_1542" data-name="Group 1542" transform="translate(0.348 5.65)">
            <path id="Path_3532" data-name="Path 3532" d="M63.8,33.675l2.051-1.18a.766.766,0,0,1,.774.077l-2.051,1.18A.767.767,0,0,0,63.8,33.675Z" transform="translate(-63.8 -32.422)" fill="#eae4e4" stroke="#000" stroke-width="1"/>
          </g>
          <g id="Group_1543" data-name="Group 1543" transform="translate(1.451 5.011)">
            <path id="Path_3533" data-name="Path 3533" d="M69.5,30.375l2.032-1.18a.766.766,0,0,1,.774.077,2.442,2.442,0,0,1,1.1,1.9l-2.051,1.18a2.391,2.391,0,0,0-1.1-1.9A.731.731,0,0,0,69.5,30.375Z" transform="translate(-69.5 -29.122)" fill="#eae4e4" stroke="#000" stroke-width="1"/>
          </g>
          <g id="Group_1544" data-name="Group 1544" transform="translate(7.372 12.127)">
            <path id="Path_3534" data-name="Path 3534" d="M102.151,66.6l-2.051,1.18a.786.786,0,0,0,.329-.7l2.051-1.18A.745.745,0,0,1,102.151,66.6Z" transform="translate(-100.1 -65.9)" fill="#eae4e4" stroke="#000" stroke-width="1"/>
          </g>
          <g id="Group_1545" data-name="Group 1545" transform="translate(3.328 7.058)">
            <path id="Path_3535" data-name="Path 3535" d="M79.2,40.88l2.032-1.18,2.206,1.277-2.051,1.18Z" transform="translate(-79.2 -39.7)" fill="#eae4e4" stroke="#000" stroke-width="1"/>
          </g>
          <g id="Group_1546" data-name="Group 1546" transform="translate(7.72 9.592)">
            <path id="Path_3536" data-name="Path 3536" d="M101.9,54l2.032-1.2,1.1.638-2.051,1.18Z" transform="translate(-101.9 -52.8)" fill="#eae4e4" stroke="#000" stroke-width="1"/>
          </g>
          <g id="Group_1547" data-name="Group 1547" transform="translate(3.657 2.496)">
            <path id="Path_3537" data-name="Path 3537" d="M80.9,17.375l2.051-1.18a.766.766,0,0,1,.774.077l-2.051,1.18A.767.767,0,0,0,80.9,17.375Z" transform="translate(-80.9 -16.122)" fill="#eae4e4" stroke="#000" stroke-width="1"/>
          </g>
          <g id="Group_1548" data-name="Group 1548" transform="translate(8.803 10.231)">
            <path id="Path_3538" data-name="Path 3538" d="M110.325,58.693l-2.051,1.18a.786.786,0,0,0,.329-.7,2.391,2.391,0,0,0-1.1-1.9l2.051-1.18a2.443,2.443,0,0,1,1.1,1.9A.763.763,0,0,1,110.325,58.693Z" transform="translate(-107.5 -56.1)" fill="#eae4e4" stroke="#000" stroke-width="1"/>
          </g>
          <g id="Group_1549" data-name="Group 1549" transform="translate(7.72 7.077)">
            <path id="Path_3539" data-name="Path 3539" d="M101.9,40.98l2.051-1.18-.019,2.515-2.032,1.2Z" transform="translate(-101.9 -39.8)" fill="#eae4e4" stroke="#000" stroke-width="1"/>
          </g>
          <g id="Group_1550" data-name="Group 1550" transform="translate(4.431 2.646)">
            <path id="Path_3540" data-name="Path 3540" d="M84.9,18.08l2.051-1.18,1.1.638L86,18.719Z" transform="translate(-84.9 -16.9)" fill="#eae4e4" stroke="#000" stroke-width="1"/>
          </g>
          <g id="Group_1551" data-name="Group 1551" transform="translate(7.72 3.285)">
            <path id="Path_3541" data-name="Path 3541" d="M101.919,21.38l2.032-1.18v1.258l-2.051,1.2Z" transform="translate(-101.9 -20.2)" fill="#eae4e4" stroke="#000" stroke-width="1"/>
          </g>
          <g id="Group_1552" data-name="Group 1552" transform="translate(5.862 1.258)">
            <path id="Path_3542" data-name="Path 3542" d="M92.3,10.975l2.051-1.18a.766.766,0,0,1,.774.077,2.442,2.442,0,0,1,1.1,1.9l-2.051,1.161a2.391,2.391,0,0,0-1.1-1.9A.757.757,0,0,0,92.3,10.975Z" transform="translate(-92.3 -9.722)" fill="#eae4e4" stroke="#000" stroke-width="1"/>
          </g>
          <g id="Group_1553" data-name="Group 1553" transform="translate(11.783 9.612)">
            <path id="Path_3543" data-name="Path 3543" d="M124.951,53.6l-2.051,1.18a.807.807,0,0,0,.329-.7l2.051-1.18A.763.763,0,0,1,124.951,53.6Z" transform="translate(-122.9 -52.9)" fill="#eae4e4" stroke="#000" stroke-width="1"/>
          </g>
          <g id="Group_1554" data-name="Group 1554" transform="translate(7.72 4.543)">
            <path id="Path_3544" data-name="Path 3544" d="M101.9,27.9l2.051-1.2,2.206,1.277-2.051,1.18Z" transform="translate(-101.9 -26.7)" fill="#eae4e4" stroke="#000" stroke-width="1"/>
          </g>
          <g id="Group_1555" data-name="Group 1555" transform="translate(12.112 7.077)">
            <path id="Path_3545" data-name="Path 3545" d="M124.6,41l2.051-1.2,1.1.638-2.051,1.2Z" transform="translate(-124.6 -39.8)" fill="#eae4e4" stroke="#000" stroke-width="1"/>
          </g>
          <g id="Group_1556" data-name="Group 1556" transform="translate(8.049)">
            <path id="Path_3546" data-name="Path 3546" d="M103.6,4.475l2.051-1.18a.766.766,0,0,1,.774.077l-2.051,1.18A.722.722,0,0,0,103.6,4.475Z" transform="translate(-103.6 -3.222)" fill="#eae4e4" stroke="#000" stroke-width="1"/>
          </g>
          <g id="Group_1557" data-name="Group 1557" transform="translate(13.215 7.716)">
            <path id="Path_3547" data-name="Path 3547" d="M133.125,45.693l-2.051,1.18a.786.786,0,0,0,.329-.7,2.391,2.391,0,0,0-1.1-1.9l2.051-1.18a2.442,2.442,0,0,1,1.1,1.9A.782.782,0,0,1,133.125,45.693Z" transform="translate(-130.3 -43.1)" fill="#eae4e4" stroke="#000" stroke-width="1"/>
          </g>
          <g id="Group_1558" data-name="Group 1558" transform="translate(12.112 4.562)">
            <path id="Path_3548" data-name="Path 3548" d="M124.619,27.98l2.032-1.18v2.515l-2.051,1.2Z" transform="translate(-124.6 -26.8)" fill="#eae4e4" stroke="#000" stroke-width="1"/>
          </g>
          <g id="Group_1559" data-name="Group 1559" transform="translate(8.842 0.131)">
            <path id="Path_3549" data-name="Path 3549" d="M107.7,5.1l2.051-1.2,1.083.638L108.8,5.719Z" transform="translate(-107.7 -3.9)" fill="#eae4e4" stroke="#000" stroke-width="1"/>
          </g>
          <g id="Group_1560" data-name="Group 1560" transform="translate(10.255)">
            <path id="Path_3550" data-name="Path 3550" d="M115,4.475l2.051-1.18a.766.766,0,0,1,.774.077l-2.051,1.18A.766.766,0,0,0,115,4.475Z" transform="translate(-115 -3.222)" fill="#eae4e4" stroke="#000" stroke-width="1"/>
          </g>
          <g id="Group_1561" data-name="Group 1561" transform="translate(11.028 0.151)">
            <path id="Path_3551" data-name="Path 3551" d="M119,5.18,121.051,4a2.442,2.442,0,0,1,1.1,1.9L120.1,7.076A2.391,2.391,0,0,0,119,5.18Z" transform="translate(-119 -4)" fill="#eae4e4" stroke="#000" stroke-width="1"/>
          </g>
          <g id="Group_1562" data-name="Group 1562" transform="translate(12.131 2.027)">
            <path id="Path_3552" data-name="Path 3552" d="M124.7,14.9l2.051-1.2,3.289,1.915-2.051,1.18Z" transform="translate(-124.7 -13.7)" fill="#eae4e4" stroke="#000" stroke-width="1"/>
          </g>
          <g id="Group_1563" data-name="Group 1563" transform="translate(15.42 3.943)">
            <path id="Path_3553" data-name="Path 3553" d="M144.525,26.193l-2.051,1.18a.786.786,0,0,0,.329-.7,2.391,2.391,0,0,0-1.1-1.9l2.051-1.18a2.442,2.442,0,0,1,1.1,1.9A.763.763,0,0,1,144.525,26.193Z" transform="translate(-141.7 -23.6)" fill="#eae4e4" stroke="#000" stroke-width="1"/>
          </g>
          <g id="Group_1564" data-name="Group 1564" transform="translate(0 1.181)">
            <path id="Path_3554" data-name="Path 3554" d="M73.028,9.476a2.442,2.442,0,0,1,1.1,1.9l3.289,1.9a2.442,2.442,0,0,1,1.1,1.9c0,.7-.5.987-1.1.619l-3.289-1.9V16.4l1.1.638a2.442,2.442,0,0,1,1.1,1.9c0,.7-.5.987-1.1.619l-1.1-.638c0,.7-.5.967-1.1.619a2.442,2.442,0,0,1-1.1-1.9L69.72,16.364V18.88l1.1.638a2.442,2.442,0,0,1,1.1,1.9c0,.7-.5.987-1.1.619l-1.1-.638c0,.7-.5.987-1.1.619a2.473,2.473,0,0,1-1.1-1.9l-2.206-1.277-.019,5.127c0,.7-.5.987-1.1.619a2.442,2.442,0,0,1-1.1-1.9l.019-5.05a2.443,2.443,0,0,1-1.1-1.9c0-.7.5-.987,1.1-.619,0-.7.5-.987,1.1-.619a2.443,2.443,0,0,1,1.1,1.9l2.206,1.277V15.165l-1.1-.638a2.442,2.442,0,0,1-1.1-1.9c0-.7.5-.987,1.1-.619l1.1.638V11.392c0-.7.5-.987,1.1-.619a2.443,2.443,0,0,1,1.1,1.9v1.258L71.926,15.2V12.688l-1.1-.638a2.442,2.442,0,0,1-1.1-1.9c0-.7.5-.987,1.1-.619l1.1.638C71.945,9.4,72.429,9.128,73.028,9.476Z" transform="translate(-62 -9.327)" fill="#eae4e4" stroke="#000" stroke-width="1"/>
          </g>
        </g>
      </g>
    </g>
  </g>
</svg>
