<svg xmlns="http://www.w3.org/2000/svg" width="106.493" height="147.614" viewBox="0 0 106.493 147.614">
  <g id="VR" transform="translate(1 1.147)">
    <path id="Path_2021" data-name="Path 2021" d="M1036.885,471.57l7.148-4.187c6.035-3.5,14.358-2.992,23.559,2.308l-7.148,4.187C1051.243,468.567,1042.91,468.067,1036.885,471.57Z" transform="translate(-1011.045 -458.867)" fill="#f9d48a" stroke="#000" stroke-miterlimit="10" stroke-width="2"/>
    <path id="Path_2025" data-name="Path 2025" d="M1043.891,463.351c6.73-3.916,16.019-3.411,26.276,2.426l-6.684,3.887c-10.256-5.849-19.545-6.341-26.275-2.426Z" transform="translate(-1010.915 -460.611)" fill="#ababab" stroke="#000" stroke-miterlimit="10" stroke-width="2"/>
    <path id="Path_2028" data-name="Path 2028" d="M1037.141,467.09l6.636-3.886c6.748-3.925,16.116-3.42,26.369,2.445l.266.153-6.681,3.876-.265-.152C1053.217,463.669,1043.9,463.157,1037.141,467.09Z" transform="translate(-1010.942 -460.672)" fill="#ababab" stroke="#000" stroke-linejoin="bevel" stroke-width="2"/>
    <path id="Path_1249" data-name="Path 1249" d="M1083.665,480.882h-40.092v5h40.092Z" transform="translate(-1008.348 -452.523)" fill="#ababab" stroke="#000" stroke-linejoin="bevel" stroke-width="2"/>
    <path id="Path_1251" data-name="Path 1251" d="M1070.1,500.659h-16.819a4.953,4.953,0,0,1-4.953-4.953h0v-.112a4.952,4.952,0,0,1,4.953-4.952H1070.1a4.952,4.952,0,0,1,4.952,4.952h0v.112a4.953,4.953,0,0,1-4.952,4.953Z" transform="translate(-1006.429 -448.587)" fill="#62d8f9" stroke="#000" stroke-linejoin="bevel" stroke-width="2"/>
    <path id="Path_1253" data-name="Path 1253" d="M1070.789,488.872h-16.8a7.435,7.435,0,0,0-7.387,7.425v.1a7.437,7.437,0,0,0,7.384,7.415h16.8a7.444,7.444,0,0,0,7.475-7.413h0v-.1a7.444,7.444,0,0,0-7.464-7.425h-.008Zm2.482,7.537a2.483,2.483,0,0,1-2.482,2.481h-16.8a2.482,2.482,0,0,1-2.481-2.482h0v-.1a2.491,2.491,0,0,1,2.481-2.481h16.8a2.5,2.5,0,0,1,2.482,2.481Z" transform="translate(-1007.125 -449.301)" stroke="#000" stroke-linejoin="bevel" stroke-width="2"/>
    <path id="Path_2000" data-name="Path 2000" d="M1018.471,498.841l7.15-4.176a10.14,10.14,0,0,0,4.575,7.924l-7.148,4.187A10.1,10.1,0,0,1,1018.471,498.841Z" transform="translate(-1018.471 -446.965)" stroke="#000" stroke-linejoin="bevel" stroke-width="2"/>
    <path id="Path_2001" data-name="Path 2001" d="M1020.555,504.5l7.2-4.177,2.325,1.349-7.186,4.173Z" transform="translate(-1017.63 -444.685)" stroke="#000" stroke-linejoin="bevel" stroke-width="2"/>
    <path id="Path_2002" data-name="Path 2002" d="M1018.533,483.232l7.2-4.178-.062,21.9-7.2,4.177Z" transform="translate(-1018.471 -453.259)" stroke="#000" stroke-linejoin="bevel" stroke-width="2"/>
    <path id="Path_2003" data-name="Path 2003" d="M1019.848,481.135l7.2-4.176a3.228,3.228,0,0,0-1.349,2.941l-7.148,4.187a3.2,3.2,0,0,1,1.3-2.953Z" transform="translate(-1018.448 -454.105)" stroke="#000" stroke-linejoin="bevel" stroke-width="2"/>
    <path id="Path_2004" data-name="Path 2004" d="M1022.313,482.315l7.186-4.177-.093,32.471-7.186,4.18Z" transform="translate(-1016.959 -453.629)" fill="#595959" stroke="#000" stroke-linejoin="bevel" stroke-width="2"/>
    <path id="Path_2006" data-name="Path 2006" d="M1020.62,481.354l7.2-4.176,2.325,1.347-7.186,4.173Z" transform="translate(-1017.604 -454.016)" fill="#595959" stroke="#000" stroke-linejoin="bevel" stroke-width="2"/>
    <path id="Path_2007" data-name="Path 2007" d="M1020.62,481.219l7.2-4.187,2.512,1.451-7.2,4.186Z" transform="translate(-1017.604 -454.075)" stroke="#000" stroke-linejoin="bevel" stroke-width="2"/>
    <path id="Path_2008" data-name="Path 2008" d="M1022.213,481.265l-.184-.072Zm-.265-.1-.147-.029Zm-.216-.029-.153-.05Zm-.234-.072-.226,0-1.2,0-.171,0-.173.072h0Zm-.164.072-.081.052Zm2.707.122a4.189,4.189,0,0,1,.469.236h0a4.045,4.045,0,0,0-.469-.265Zm.469,0,.173.093,7.015-4.085a3.24,3.24,0,0,0-3.257-.286l-6.27,3.636a4.277,4.277,0,0,1,2.338.654Z" transform="translate(-1018.065 -454.194)" fill="#595959" stroke="#000" stroke-linejoin="bevel" stroke-width="2"/>
    <path id="Path_2009" data-name="Path 2009" d="M1019.4,481.066l7.148-4.176a3.336,3.336,0,0,1,3.39.327l-7.148,4.186A3.39,3.39,0,0,0,1019.4,481.066Z" transform="translate(-1018.095 -454.26)" fill="#595959" stroke="#000" stroke-linejoin="bevel" stroke-width="2"/>
    <path id="Path_2010" data-name="Path 2010" d="M1025.465,481.674l-.091,32.47-2.325-1.347a10.094,10.094,0,0,1-4.576-7.934l.062-21.878c0-2.91,2.042-4.085,4.605-2.634Z" transform="translate(-1018.47 -452.988)" fill="#595959" stroke="#000" stroke-linejoin="bevel" stroke-width="2"/>
    <path id="Path_2011" data-name="Path 2011" d="M1022.438,482.252l7.2-4.187-.091,32.882-7.2,4.178Z" transform="translate(-1016.909 -453.659)" stroke="#000" stroke-linejoin="bevel" stroke-width="2"/>
    <path id="Path_2012" data-name="Path 2012" d="M1051.7,539.989a56.932,56.932,0,0,0,12.541,10.068l-7.2,4.186a56.947,56.947,0,0,1-12.541-10.068Z" transform="translate(-1007.976 -428.688)" fill="#f9d48a" stroke="#000" stroke-linejoin="bevel" stroke-width="2"/>
    <path id="Path_2013" data-name="Path 2013" d="M1060.619,547.164a32.144,32.144,0,0,0,12.58,4.432l-7.148,4.187a32.374,32.374,0,0,1-12.582-4.433Z" transform="translate(-1004.357 -425.794)" fill="#f9d48a" stroke="#000" stroke-linejoin="bevel" stroke-width="2"/>
    <path id="Path_2014" data-name="Path 2014" d="M1062.412,554.506l7.2-4.176-.041,15.6-7.2,4.186Z" transform="translate(-1000.768 -424.518)" fill="#f9d48a" stroke="#000" stroke-linejoin="bevel" stroke-width="2"/>
    <path id="Path_2015" data-name="Path 2015" d="M1069.631,557.47v15.6l-25.163-14.49v-15.6a57,57,0,0,0,12.541,10.068A32.373,32.373,0,0,0,1069.631,557.47Z" transform="translate(-1007.987 -427.482)" fill="#f9d48a" stroke="#000" stroke-linejoin="bevel" stroke-width="2"/>
    <path id="Path_2016" data-name="Path 2016" d="M1024.957,481.378l7.2-4.186,7.1,4.1-7.2,4.177Z" transform="translate(-1015.855 -454.011)" stroke="#000" stroke-linejoin="bevel" stroke-width="2"/>
    <path id="Path_2017" data-name="Path 2017" d="M1046.806,466.771c-5.463,3.176-9.027,9.64-9.6,18.759l-7.2,4.187c.573-9.13,4.134-15.583,9.6-18.759Z" transform="translate(-1013.818 -458.213)" fill="#ababab" stroke="#000" stroke-linejoin="bevel" stroke-width="2"/>
    <path id="Path_2018" data-name="Path 2018" d="M1040.328,466.509l6.635-3.877c-6.692,3.877-10.863,12.256-10.853,24.085l-6.636,3.888C1029.418,478.765,1033.588,470.424,1040.328,466.509Z" transform="translate(-1014.034 -459.882)" stroke="#000" stroke-linejoin="bevel" stroke-width="2"/>
    <path id="Path_2019" data-name="Path 2019" d="M1077.444,554.932l-7.15,4.187c5.9-3.462,9.647-10.815,9.647-21.282l7.148-4.187C1087.094,544.128,1083.4,551.478,1077.444,554.932Z" transform="translate(-997.572 -431.244)" fill="#f9d48a" stroke="#000" stroke-linejoin="bevel" stroke-width="2"/>
    <path id="Path_2020" data-name="Path 2020" d="M1077.257,513.384l7.2-4.186-.093,34.342-7.2,4.177Z" transform="translate(-994.802 -441.104)" fill="#f9d48a" stroke="#000" stroke-linejoin="bevel" stroke-width="2"/>
    <path id="Path_2022" data-name="Path 2022" d="M1082.238,514.076l7.2-4.187v.532l-7.2,4.177Z" transform="translate(-992.757 -440.826)" fill="#ababab" stroke="#000" stroke-linejoin="bevel" stroke-width="2"/>
    <path id="Path_2023" data-name="Path 2023" d="M1053.667,472.573l7.148-4.187c17.667,10.151,31.963,34.159,33.045,54.676,0,1.022.072,1.809.072,2.593l-7.148,4.187c0-.786,0-1.583-.072-2.6C1085.63,506.723,1071.241,482.724,1053.667,472.573Z" transform="translate(-1004.278 -457.562)" fill="#f9d48a" stroke="#000" stroke-linejoin="bevel" stroke-width="2"/>
    <path id="Path_2024" data-name="Path 2024" d="M1077.194,511.689l7.2-4.186,7.078,3.88-7.2,4.176Z" transform="translate(-994.791 -441.788)" stroke="#000" stroke-linejoin="bevel" stroke-width="2"/>
    <path id="Path_2027" data-name="Path 2027" d="M1082.369,514.146l7.2-4.176-.01.725-7.189,4.186Z" transform="translate(-992.704 -440.793)" stroke="#000" stroke-linejoin="bevel" stroke-width="2"/>
    <path id="Path_2029" data-name="Path 2029" d="M1063.264,472.678c17.574,10.15,31.963,34.148,32.988,54.665,0,1.022.071,1.817.071,2.6l-.071,34.312c0,15.934-8.613,24.662-20.711,23.375a32.37,32.37,0,0,1-12.58-4.433,56.931,56.931,0,0,1-12.541-10.068c-12.1-12.652-20.551-31.238-20.551-47.19l.1-34.3c0-.786,0-1.562.062-2.308C1031.268,469.93,1045.688,462.527,1063.264,472.678Z" transform="translate(-1013.875 -457.665)" fill="#f9d48a" stroke="#000" stroke-linejoin="bevel" stroke-width="2"/>
    <path id="Path_2032" data-name="Path 2032" d="M1066.879,468.7c9.868,5.687,19.147,15.43,26.153,27.488s10.986,25.12,11.062,36.616v.48l-6.588-3.792c-.995-19.053-14.351-41.329-30.664-50.751s-29.7-2.541-30.817,15.277l-6.577-3.793c0-23.639,16.629-33.375,37.167-21.665Z" transform="translate(-1014.045 -459.493)" fill="#ababab" stroke="#000" stroke-linejoin="bevel" stroke-width="2"/>
    <path id="Path_2033" data-name="Path 2033" d="M1066.925,468.563c9.912,5.725,19.2,15.51,26.274,27.6s11.033,25.263,11.072,36.8v.683l-6.769-3.9,6.57,3.6v-.48c0-11.5-3.953-24.5-11.024-36.645s-16.281-21.805-26.148-27.492l-.265-.153c-20.513-11.678-37.167-1.942-37.139,21.7l6.577,3.792-6.748-3.706c-.066-23.9,16.675-33.717,37.337-21.954Z" transform="translate(-1014.094 -459.557)" stroke="#000" stroke-linejoin="bevel" stroke-width="2"/>
    <path id="Path_2034" data-name="Path 2034" d="M1056.122,468.2l6.684-3.876c9.906,5.687,19.233,15.5,26.276,27.592s11.032,25.263,11.062,36.8l-6.636,3.886c0-11.535-3.971-24.641-11.072-36.793S1066.037,473.93,1056.122,468.2Z" transform="translate(-1003.288 -459.198)" fill="#ababab" stroke="#000" stroke-linejoin="bevel" stroke-width="2"/>
    <path id="Path_2040" data-name="Path 2040" d="M1087.07,520.225l8.26-4.8-.07,25.145-8.26,4.791Z" transform="translate(-990.836 -438.595)" fill="#595959" stroke="#000" stroke-linejoin="bevel" stroke-width="2"/>
    <path id="Path_2042" data-name="Path 2042" d="M1087.452,538.175l8.2-4.8a3.845,3.845,0,0,1-1.6,3.515l-8.2,4.791A3.8,3.8,0,0,0,1087.452,538.175Z" transform="translate(-991.301 -431.356)" fill="#595959" stroke="#000" stroke-linejoin="bevel" stroke-width="2"/>
    <path id="Path_2047" data-name="Path 2047" d="M1081.1,512.3l8.248-4.8,2.9,1.68-8.261,4.792Z" transform="translate(-993.214 -441.79)" fill="#595959" stroke="#000" stroke-linejoin="bevel" stroke-width="2"/>
    <path id="Path_2048" data-name="Path 2048" d="M1083.134,513.485l8.2-4.8a12.057,12.057,0,0,1,5.449,9.455l-8.2,4.8A12.057,12.057,0,0,0,1083.134,513.485Z" transform="translate(-992.395 -441.312)" fill="#595959" stroke="#000" stroke-linejoin="bevel" stroke-width="2"/>
    <path id="Path_2049" data-name="Path 2049" d="M1020.671,513.265l7.2-4.176a10.1,10.1,0,0,0,4.575,7.924l-7.148,4.176A10.076,10.076,0,0,1,1020.671,513.265Z" transform="translate(-1017.584 -441.148)" stroke="#000" stroke-linejoin="bevel" stroke-width="2"/>
    <path id="Path_2050" data-name="Path 2050" d="M1023.932,518.912l7.2-4.176,7.312,4.221-7.2,4.186Z" transform="translate(-1016.269 -438.871)" stroke="#000" stroke-linejoin="bevel" stroke-width="2"/>
    <path id="Path_2051" data-name="Path 2051" d="M1034.289,512.706l.246.418-7.148,4.177-.246-.408h0l7.148-4.187-7.148,4.187c-.225-.389-.431-.776-.633-1.165l7.2-4.187A8.951,8.951,0,0,0,1034.289,512.706Z" transform="translate(-1015.23 -440.159)" fill="#cbcbcb" stroke="#000" stroke-linejoin="bevel" stroke-width="2"/>
    <path id="Path_2052" data-name="Path 2052" d="M1034.289,512.669a22.375,22.375,0,0,0,2.86,3.779l-7.15,4.187a22.106,22.106,0,0,1-2.859-3.79Z" transform="translate(-1014.975 -439.705)" fill="#cbcbcb" stroke="#000" stroke-linejoin="bevel" stroke-width="2"/>
    <path id="Path_2053" data-name="Path 2053" d="M1029.152,519.549l7.2-4.187-.01,3.34-7.2,4.189Z" transform="translate(-1014.168 -438.619)" fill="#cbcbcb" stroke="#000" stroke-linejoin="bevel" stroke-width="2"/>
    <path id="Path_2054" data-name="Path 2054" d="M1032.385,513.538l-5.512,3.206a21.065,21.065,0,0,1-1.37-3.552l7.148-4.176a21.327,21.327,0,0,0,1.42,3.543Z" transform="translate(-1015.635 -441.177)" fill="#cbcbcb" stroke="#000" stroke-linejoin="bevel" stroke-width="2"/>
    <path id="Path_2055" data-name="Path 2055" d="M1032.652,508.979h0l-7.148,4.177h0l.407-.245,3.667-2.123Z" transform="translate(-1015.635 -441.193)" fill="#cbcbcb" stroke="#000" stroke-linejoin="bevel" stroke-width="2"/>
    <path id="Path_2056" data-name="Path 2056" d="M1029.283,519.687l7.19-4.187-.01,3.462-7.19,4.177Z" transform="translate(-1014.115 -438.563)" fill="#cbcbcb" stroke="#000" stroke-linejoin="bevel" stroke-width="2"/>
    <path id="Path_2057" data-name="Path 2057" d="M1029.142,519.549l7.15-4.187.182.194-7.148,4.176Z" transform="translate(-1014.168 -438.619)" stroke="#000" stroke-linejoin="bevel" stroke-width="2"/>
    <path id="Path_2058" data-name="Path 2058" d="M1020.793,482.132l7.2-4.176-.122,43.688-7.2,4.176Z" transform="translate(-1017.584 -453.703)" stroke="#000" stroke-linejoin="bevel" stroke-width="2"/>
    <path id="Path_2059" data-name="Path 2059" d="M1032.162,506.484a16.539,16.539,0,0,0,.683,3.5l-7.148,4.187a17.373,17.373,0,0,1-.675-3.532Z" transform="translate(-1015.829 -442.199)" fill="#cbcbcb" stroke="#000" stroke-linejoin="bevel" stroke-width="2"/>
    <path id="Path_2060" data-name="Path 2060" d="M1032.164,506.484l-7.148,4.176h0Z" transform="translate(-1015.832 -442.199)" fill="#cbcbcb" stroke="#000" stroke-linejoin="bevel" stroke-width="2"/>
    <path id="Path_2061" data-name="Path 2061" d="M1025.021,490.458l7.2-4.177-.071,27.226-7.2,4.187Z" transform="translate(-1015.858 -450.346)" fill="#cbcbcb" stroke="#000" stroke-linejoin="bevel" stroke-width="2"/>
    <path id="Path_2062" data-name="Path 2062" d="M1025.153,490.531l7.2-4.177-.072,27.226-7.2,4.177Z" transform="translate(-1015.805 -450.316)" stroke="#000" stroke-linejoin="bevel" stroke-width="2"/>
    <path id="Path_2063" data-name="Path 2063" d="M1032.167,506.806l-7.148,4.176a10.576,10.576,0,0,1,0-1.113l7.148-4.186A5.167,5.167,0,0,0,1032.167,506.806Z" transform="translate(-1015.836 -442.522)" fill="#cbcbcb" stroke="#000" stroke-linejoin="bevel" stroke-width="2"/>
    <path id="Path_2064" data-name="Path 2064" d="M1025.074,509.932l7.2-4.176a18.833,18.833,0,0,0,2.736,9.19,19.108,19.108,0,0,0,6.618,6.985l-7.15,4.177a20.673,20.673,0,0,1-9.354-16.206Z" transform="translate(-1015.808 -442.492)" stroke="#000" stroke-linejoin="bevel" stroke-width="2"/>
    <path id="Path_2065" data-name="Path 2065" d="M1031.747,521.481l7.189-4.176,10.457,6.035-7.189,4.187Z" transform="translate(-1013.117 -437.835)" stroke="#000" stroke-linejoin="bevel" stroke-width="2"/>
    <path id="Path_2066" data-name="Path 2066" d="M1039.192,525.782l7.15-4.176a17.358,17.358,0,0,0,8.445,2.585l-7.15,4.207A17.536,17.536,0,0,1,1039.192,525.782Z" transform="translate(-1010.115 -436.101)" stroke="#000" stroke-linejoin="bevel" stroke-width="2"/>
    <path id="Path_2067" data-name="Path 2067" d="M1032.2,485.823v.633l-7.148,4.187v-.633Z" transform="translate(-1015.817 -450.53)" fill="#cbcbcb" stroke="#000" stroke-linejoin="bevel" stroke-width="2"/>
    <path id="Path_2068" data-name="Path 2068" d="M1032.237,485.517a3.172,3.172,0,0,0,0,.431l-7.2,4.186V489.7l1.684-1.022Z" transform="translate(-1015.823 -450.654)" fill="#cbcbcb" stroke="#000" stroke-linejoin="bevel" stroke-width="2"/>
    <path id="Path_2069" data-name="Path 2069" d="M1045.21,527.634l7.2-4.187,4.085.01-7.189,4.187Z" transform="translate(-1007.688 -435.358)" stroke="#000" stroke-linejoin="bevel" stroke-width="2"/>
    <path id="Path_2070" data-name="Path 2070" d="M1022.087,480.04l7.2-4.187a3.206,3.206,0,0,0-1.337,2.952l-7.15,4.176A3.208,3.208,0,0,1,1022.087,480.04Z" transform="translate(-1017.539 -454.551)" stroke="#000" stroke-linejoin="bevel" stroke-width="2"/>
    <path id="Path_2071" data-name="Path 2071" d="M1026.715,490.038l-1.685,1.022a6.583,6.583,0,0,1,2.094-4.617l7.2-4.186a6.6,6.6,0,0,0-2.094,4.615Z" transform="translate(-1015.826 -451.968)" fill="#cbcbcb" stroke="#000" stroke-linejoin="bevel" stroke-width="2"/>
    <path id="Path_2072" data-name="Path 2072" d="M1033.776,482.192l-.062.051-7.148,4.187.062-.052Z" transform="translate(-1015.207 -451.995)" fill="#cbcbcb" stroke="#000" stroke-linejoin="bevel" stroke-width="2"/>
    <path id="Path_2073" data-name="Path 2073" d="M1033.772,482.2h-.051l-7.148,4.156h0l7.2-4.186Z" transform="translate(-1015.204 -452.002)" fill="#cbcbcb" stroke="#000" stroke-linejoin="bevel" stroke-width="2"/>
    <path id="Path_2074" data-name="Path 2074" d="M1027.885,486.229l7.2-4.176c-1.776,1.022-2.756,3.166-2.767,6.045l-7.15,4.176C1025.129,489.385,1026.108,487.241,1027.885,486.229Z" transform="translate(-1015.771 -452.05)" stroke="#000" stroke-linejoin="bevel" stroke-width="2"/>
    <path id="Path_2075" data-name="Path 2075" d="M1033.772,482.313c-.213.143-.439.258-.664.389l-3.371,1.96-3.164,1.837a4.481,4.481,0,0,1,.623-.418l7.2-4.187A4.525,4.525,0,0,0,1033.772,482.313Z" transform="translate(-1015.204 -452.115)" fill="#cbcbcb" stroke="#000" stroke-linejoin="bevel" stroke-width="2"/>
    <path id="Path_2076" data-name="Path 2076" d="M1029.254,483.271l7.2-4.187-.01,3.351-7.2,4.175Z" transform="translate(-1014.127 -453.248)" fill="#cbcbcb" stroke="#000" stroke-linejoin="bevel" stroke-width="2"/>
    <path id="Path_2077" data-name="Path 2077" d="M1029.385,483.2l7.2-4.177-.011,3.462-7.2,4.178Z" transform="translate(-1014.074 -453.274)" fill="#cbcbcb" stroke="#000" stroke-linejoin="bevel" stroke-width="2"/>
    <path id="Path_2078" data-name="Path 2078" d="M1063.179,504.648l7.2-4.176v.215l-7.2,4.179Z" transform="translate(-1000.442 -444.623)" stroke="#000" stroke-linejoin="bevel" stroke-width="2"/>
    <path id="Path_2079" data-name="Path 2079" d="M1042.78,493.03l7.2-4.187L1078.6,505.38l-7.2,4.176Z" transform="translate(-1008.668 -449.312)" stroke="#000" stroke-linejoin="bevel" stroke-width="2"/>
    <path id="Path_2080" data-name="Path 2080" d="M1042.911,492.957l7.2-4.187,28.257,16.32-7.2,4.176Z" transform="translate(-1008.615 -449.342)" stroke="#000" stroke-linejoin="bevel" stroke-width="2"/>
    <path id="Path_2081" data-name="Path 2081" d="M1042.79,489.97l7.2-4.176-.01,4.281-7.2,4.185Z" transform="translate(-1008.668 -450.542)" stroke="#000" stroke-linejoin="bevel" stroke-width="2"/>
    <path id="Path_2082" data-name="Path 2082" d="M1042.921,490.188l7.2-4.176-.011,3.87-7.2,4.187Z" transform="translate(-1008.615 -450.454)" stroke="#000" stroke-linejoin="bevel" stroke-width="2"/>
    <path id="Path_2083" data-name="Path 2083" d="M1071.178,505.307l-.01,3.872-28.257-16.31.01-3.88Z" transform="translate(-1008.615 -449.254)" fill="#cbcbcb" stroke="#000" stroke-linejoin="bevel" stroke-width="2"/>
    <path id="Path_2084" data-name="Path 2084" d="M1042.926,487.2l7.2-4.176-.011,3.992-7.2,4.187Z" transform="translate(-1008.613 -451.66)" stroke="#000" stroke-linejoin="bevel" stroke-width="2"/>
    <path id="Path_2085" data-name="Path 2085" d="M1042.918,490.053l7.2-4.187,28.256,16.31-7.2,4.186Z" transform="translate(-1008.613 -450.513)" stroke="#000" stroke-linejoin="bevel" stroke-width="2"/>
    <path id="Path_2086" data-name="Path 2086" d="M1063.055,498.906l7.2-4.176V498.6l-7.2,4.19Z" transform="translate(-1000.492 -446.939)" fill="#cbcbcb" stroke="#000" stroke-linejoin="bevel" stroke-width="2"/>
    <path id="Path_2087" data-name="Path 2087" d="M1063.055,501.675l7.2-4.186.184.111-7.2,4.177Z" transform="translate(-1000.492 -445.826)" stroke="#000" stroke-linejoin="bevel" stroke-width="2"/>
    <path id="Path_2088" data-name="Path 2088" d="M1071.176,505.132h0l-28.085-16.216-.173.1,28.257,16.318,7.2-4.187-.173-.1Z" transform="translate(-1008.612 -449.283)" fill="#ababab" stroke="#000" stroke-linejoin="bevel" stroke-width="2"/>
    <path id="Path_2089" data-name="Path 2089" d="M1063.2,498.9l-.011,3.789,7.016-4.085.182.112-7.2,4.176h0l7.2-4.176.01-3.994Z" transform="translate(-1000.44 -446.941)" fill="#cbcbcb" stroke="#000" stroke-linejoin="bevel" stroke-width="2"/>
    <path id="Path_2090" data-name="Path 2090" d="M1063.24,501.717h-.01l-.172.1-.01,3.872,7.2-4.182.01-3.87Z" transform="translate(-1000.495 -445.765)" fill="#ababab" stroke="#000" stroke-linejoin="bevel" stroke-width="2"/>
    <path id="Path_2091" data-name="Path 2091" d="M1042.787,489.97l7.2-4.176.184.1-7.2,4.187Z" transform="translate(-1008.665 -450.542)" stroke="#000" stroke-linejoin="bevel" stroke-width="2"/>
    <path id="Path_2092" data-name="Path 2092" d="M1044.285,485.09l7.15-4.187a3.24,3.24,0,0,0-1.3,2.972l-7.2,4.177a3.214,3.214,0,0,1,1.347-2.961Z" transform="translate(-1008.611 -452.514)" stroke="#000" stroke-linejoin="bevel" stroke-width="2"/>
    <path id="Path_2093" data-name="Path 2093" d="M1066.539,495.228a10.211,10.211,0,0,1,4.636,8.027v4l-28.257-16.342v-3.973c0-2.929,2.1-4.085,4.657-2.655Z" transform="translate(-1008.613 -451.398)" fill="#cbcbcb" stroke="#000" stroke-linejoin="bevel" stroke-width="2"/>
    <path id="Path_2094" data-name="Path 2094" d="M1073.181,544.965l7.2-4.176-.01,3.329-7.2,4.187Z" transform="translate(-996.413 -428.365)" stroke="#000" stroke-linejoin="bevel" stroke-width="2"/>
    <path id="Path_2095" data-name="Path 2095" d="M1073.046,544.954l7.15-4.187h.184l-7.15,4.187Z" transform="translate(-996.464 -428.374)" stroke="#000" stroke-linejoin="bevel" stroke-width="2"/>
    <path id="Path_2096" data-name="Path 2096" d="M1082.655,540.835l-6.352,3.7h0a5.108,5.108,0,0,1-3.125.592l3.6-2.042,2.756-1.6.836-.49a5.1,5.1,0,0,0,3.135-.592l-6.362,3.7,6.362-3.7Z" transform="translate(-996.411 -428.523)" fill="#cbcbcb" stroke="#000" stroke-linejoin="bevel" stroke-width="2"/>
    <path id="Path_2097" data-name="Path 2097" d="M1070.58,543.9l7.148-4.186c2.512,1.45,4.872,1.684,6.648.674l-7.149,4.187C1075.441,545.6,1073.082,545.356,1070.58,543.9Z" transform="translate(-997.458 -428.797)" stroke="#000" stroke-linejoin="bevel" stroke-width="2"/>
    <path id="Path_2098" data-name="Path 2098" d="M1063.134,539.612l7.2-4.186,10.447,6.034-7.2,4.177Z" transform="translate(-1000.46 -430.528)" stroke="#000" stroke-linejoin="bevel" stroke-width="2"/>
    <path id="Path_2099" data-name="Path 2099" d="M1077.37,520.684l7.2-4.187-.081,27.224-7.2,4.187Z" transform="translate(-994.752 -438.161)" fill="#7fc6cb" stroke="#000" stroke-linejoin="bevel" stroke-width="2"/>
    <path id="Path_2100" data-name="Path 2100" d="M1077.5,520.757l7.189-4.187-.072,27.224-7.2,4.189Z" transform="translate(-994.699 -438.131)" stroke="#000" stroke-linejoin="bevel" stroke-width="2"/>
    <path id="Path_2101" data-name="Path 2101" d="M1082.5,541.936l-7.15,4.186c1.788-1.022,2.767-3.156,2.779-6.045l7.148-4.176c0,2.879-1.022,5.024-2.777,6.035l-6.353,3.7Z" transform="translate(-995.536 -430.336)" fill="#7fc6cb" stroke="#000" stroke-linejoin="bevel" stroke-width="2"/>
    <path id="Path_2102" data-name="Path 2102" d="M1082.582,509.933a18.932,18.932,0,0,1,2.727,9.191l-7.148,4.176a18.985,18.985,0,0,0-2.728-9.191Z" transform="translate(-995.501 -440.808)" fill="#7fc6cb" stroke="#000" stroke-linejoin="bevel" stroke-width="2"/>
    <path id="Path_2103" data-name="Path 2103" d="M1077.86,504.948a19.283,19.283,0,0,1,6.627,7l-7.149,4.176a19.086,19.086,0,0,0-6.628-6.984Z" transform="translate(-997.406 -442.818)" fill="#7fc6cb" stroke="#000" stroke-linejoin="bevel" stroke-width="2"/>
    <path id="Path_2104" data-name="Path 2104" d="M1073.17,547.348l7.2-4.187,7.312,4.221-7.2,4.186Z" transform="translate(-996.413 -427.409)" stroke="#000" stroke-linejoin="bevel" stroke-width="2"/>
    <path id="Path_2105" data-name="Path 2105" d="M1078.248,540.158l7.149-4.187c0,2.941-1.021,5.106-2.829,6.128l-7.2,4.186C1077.237,545.282,1078.238,543.09,1078.248,540.158Z" transform="translate(-995.527 -430.308)" stroke="#000" stroke-linejoin="bevel" stroke-width="2"/>
    <path id="Path_2106" data-name="Path 2106" d="M1081.756,540.709l-5.513,3.207-.836.491h0Z" transform="translate(-995.512 -428.397)" fill="#cbcbcb" stroke="#000" stroke-linejoin="bevel" stroke-width="2"/>
    <path id="Path_2107" data-name="Path 2107" d="M1088.839,546.484l-7.2,4.186a3.257,3.257,0,0,1-3.267-.316l7.148-4.187A3.229,3.229,0,0,0,1088.839,546.484Z" transform="translate(-994.316 -426.196)" stroke="#000" stroke-linejoin="bevel" stroke-width="2"/>
    <path id="Path_2108" data-name="Path 2108" d="M1073.283,508.69l7.2-4.186-.01,3.35-7.2,4.187Z" transform="translate(-996.372 -442.997)" stroke="#000" stroke-linejoin="bevel" stroke-width="2"/>
    <path id="Path_2109" data-name="Path 2109" d="M1070.674,508.979l7.2-4.176a16.6,16.6,0,0,1,3.462,2.736l.182.194-7.148,4.187-.236-.236a16.075,16.075,0,0,0-3.461-2.705Z" transform="translate(-997.42 -442.877)" fill="#cbcbcb" stroke="#000" stroke-linejoin="bevel" stroke-width="2"/>
    <path id="Path_2110" data-name="Path 2110" d="M1073.272,511.078l7.15-4.187c3.462,3.657,5.9,9.008,5.893,13.582l-7.15,4.187C1079.181,520.034,1076.7,514.724,1073.272,511.078Z" transform="translate(-996.372 -442.034)" stroke="#000" stroke-linejoin="bevel" stroke-width="2"/>
    <path id="Path_2111" data-name="Path 2111" d="M1080.619,511.69a9.394,9.394,0,0,1,3.267,3.421,9.114,9.114,0,0,1,1.327,4.514l-.122,43.686c0,2.91-2.042,4.086-4.606,2.625l-7.3-4.228v-3.33a5.107,5.107,0,0,0,3.125-.592c1.817-1.022,2.818-3.227,2.829-6.128l.071-27.224c0-4.586-2.432-9.935-5.892-13.582v-3.328Z" transform="translate(-996.407 -441.779)" fill="#cbcbcb" stroke="#000" stroke-linejoin="bevel" stroke-width="2"/>
    <path id="Path_2112" data-name="Path 2112" d="M1092.747,520.135c3.433,3.646,5.914,8.957,5.892,13.582l-.071,27.224c0,2.929-1.022,5.1-2.828,6.126a5.1,5.1,0,0,1-3.125.594h-.184a9.516,9.516,0,0,1-3.472-1.256l-10.436-6.035a34.307,34.307,0,0,1-8.518-7.22l-4.085-4.708a16.612,16.612,0,0,0-4.186-3.554,8.588,8.588,0,0,0-4.208-1.287h-4.086a17.736,17.736,0,0,1-8.526-2.614l-10.436-6.035a15.88,15.88,0,0,1-3.473-2.746l-.182-.184a22.519,22.519,0,0,1-3.069-4.2,19.273,19.273,0,0,1-2.779-9.389l.072-27.234c0-2.941,1.022-5.106,2.829-6.128a5.11,5.11,0,0,1,3.125-.6h.184a9.522,9.522,0,0,1,3.46,1.256l15.324,8.867-15.318-8.65c-2.5-1.45-4.872-1.694-6.648-.674s-2.8,3.156-2.808,6.035l-.083,27.224a20.673,20.673,0,0,0,9.355,16.206l10.457,6.035a17.534,17.534,0,0,0,8.445,2.614h4.085a8.764,8.764,0,0,1,4.29,1.306,17.273,17.273,0,0,1,4.269,3.626l4.085,4.708a34.139,34.139,0,0,0,8.435,7.148l10.446,6.03c2.5,1.45,4.862,1.684,6.639.673s2.767-3.154,2.777-6.045l.072-27.224c0-5.943-4.176-13.214-9.354-16.192l-10.517-6.135,10.519,5.861a16.028,16.028,0,0,1,3.45,2.756Z" transform="translate(-1015.848 -451.092)" stroke="#000" stroke-linejoin="bevel" stroke-width="2"/>
    <path id="Path_2113" data-name="Path 2113" d="M1071.231,505.4l-.011,3.87-28.256-16.309.01-3.88.173-.1-.173-.093-.184-.112-.01,4.29,28.625,16.523v-.215l.01-4.075h-.01Z" transform="translate(-1008.668 -449.342)" stroke="#000" stroke-linejoin="bevel" stroke-width="2"/>
    <path id="Path_2114" data-name="Path 2114" d="M1063.179,504.8l7.2-4.176,10.517,5.863-7.2,4.176Z" transform="translate(-1000.442 -444.561)" fill="#cbcbcb" stroke="#000" stroke-linejoin="bevel" stroke-width="2"/>
    <path id="Path_2116" data-name="Path 2116" d="M1047.192,491.346l.184-.1v-3.789a1.718,1.718,0,0,1,0-.246l-8.363-4.829-7.148,4.177,15.318,8.863Z" transform="translate(-1013.07 -451.918)" fill="#cbcbcb" stroke="#000" stroke-linejoin="bevel" stroke-width="2"/>
    <path id="Path_2117" data-name="Path 2117" d="M1030.107,485.592h.184a9.571,9.571,0,0,1,3.462,1.256l.184.112,7.015-4.085c-2.512-1.42-4.861-1.666-6.649-.644l-5.932,3.453A5.425,5.425,0,0,1,1030.107,485.592Zm3.646,1.492h0c-2.5-1.451-4.871-1.7-6.649-.683h0C1028.882,485.389,1031.25,485.634,1033.753,487.084Z" transform="translate(-1014.99 -452.23)" fill="#7fc6cb" stroke="#000" stroke-linejoin="bevel" stroke-width="2"/>
    <path id="Path_2118" data-name="Path 2118" d="M1027.017,486.262l7.2-4.183a5.107,5.107,0,0,1,3.068-.6h.182a9.505,9.505,0,0,1,3.472,1.256l-7.148,4.176a9.54,9.54,0,0,0-3.462-1.255h-.184a5.1,5.1,0,0,0-3.124.612Z" transform="translate(-1015.025 -452.297)" fill="#cbcbcb" stroke="#000" stroke-linejoin="bevel" stroke-width="2"/>
    <path id="Path_2119" data-name="Path 2119" d="M1032.944,483.426v3.462h-.184v-3.38l-7.3-4.2c-2.533-1.464-4.6-.286-4.605,2.624l-.126,43.687a10.076,10.076,0,0,0,4.565,7.924l7.312,4.221v-3.328l.182.182v3.462l-7.485-4.319a10.5,10.5,0,0,1-4.756-8.241l.122-43.687c0-3.063,2.154-4.248,4.791-2.727Z" transform="translate(-1017.634 -453.505)" stroke="#000" stroke-linejoin="bevel" stroke-width="2"/>
    <path id="Path_2120" data-name="Path 2120" d="M1024.04,480.265l7.2-4.187,7.311,4.221-7.2,4.187Z" transform="translate(-1016.225 -454.46)" fill="#cbcbcb" stroke="#000" stroke-linejoin="bevel" stroke-width="2"/>
    <path id="Path_2121" data-name="Path 2121" d="M1024.04,480.12l7.2-4.187,7.493,4.329-7.2,4.177Z" transform="translate(-1016.225 -454.518)" fill="#cbcbcb" stroke="#000" stroke-linejoin="bevel" stroke-width="2"/>
    <path id="Path_2122" data-name="Path 2122" d="M1024.981,480.24l.171.1,7.027-4.088a3.228,3.228,0,0,0-3.267-.317l-6.281,3.66A4.185,4.185,0,0,1,1024.981,480.24Zm-.236.072.236.133Zm-.093,0-.142-.072Zm-.258-.122-.122-.051Zm-.234-.093-.2-.112-.215-.06-.224-.051-.317,0-.877,0-.173,0-.173.06h0Zm-.163.083h0Z" transform="translate(-1017.155 -454.638)" fill="#cbcbcb" stroke="#000" stroke-linejoin="bevel" stroke-width="2"/>
    <path id="Path_2123" data-name="Path 2123" d="M1021.617,479.968l7.2-4.177a3.361,3.361,0,0,1,3.4.327l-7.15,4.187A3.389,3.389,0,0,0,1021.617,479.968Z" transform="translate(-1017.202 -454.703)" fill="#cbcbcb" stroke="#000" stroke-linejoin="bevel" stroke-width="2"/>
    <path id="Path_2124" data-name="Path 2124" d="M1048.121,527.648l7.15-4.186a8.717,8.717,0,0,1,4.279,1.316,16.911,16.911,0,0,1,4.278,3.626l-7.2,4.176a17.244,17.244,0,0,0-4.269-3.625A8.775,8.775,0,0,0,1048.121,527.648Z" transform="translate(-1006.515 -435.352)" stroke="#000" stroke-linejoin="bevel" stroke-width="2"/>
    <path id="Path_2125" data-name="Path 2125" d="M1054.22,531.163l7.2-4.186,4.075,4.7-7.2,4.187Z" transform="translate(-1004.055 -433.935)" stroke="#000" stroke-linejoin="bevel" stroke-width="2"/>
    <path id="Path_2126" data-name="Path 2126" d="M1032.712,483.44v3.34a5.1,5.1,0,0,0-3.123.6c-1.819,1.022-2.819,3.206-2.829,6.128l-.072,27.234a19.26,19.26,0,0,0,2.8,9.426,22.593,22.593,0,0,0,3.065,4.2v3.329l-7.312-4.219a10.075,10.075,0,0,1-4.575-7.924l.124-43.685c0-2.91,2.042-4.085,4.605-2.624Z" transform="translate(-1017.585 -453.437)" fill="#cbcbcb" stroke="#000" stroke-linejoin="bevel" stroke-width="2"/>
    <path id="Path_2127" data-name="Path 2127" d="M1057.124,534.511l7.148-4.187a34.059,34.059,0,0,0,8.425,7.15l-7.148,4.187A34.119,34.119,0,0,1,1057.124,534.511Z" transform="translate(-1002.884 -432.585)" stroke="#000" stroke-linejoin="bevel" stroke-width="2"/>
    <path id="Path_2128" data-name="Path 2128" d="M1081.785,517.35l7.2-4.186-.133,43.686-7.189,4.187Z" transform="translate(-992.989 -439.505)" fill="#cbcbcb" stroke="#000" stroke-linejoin="bevel" stroke-width="2"/>
    <path id="Path_2129" data-name="Path 2129" d="M1081.915,517.421l7.19-4.177-.122,43.687-7.189,4.176Z" transform="translate(-992.935 -439.473)" fill="#cbcbcb" stroke="#000" stroke-linejoin="bevel" stroke-width="2"/>
    <path id="Path_2130" data-name="Path 2130" d="M1087.9,547.238l-7.2,4.186a3.192,3.192,0,0,0,1.337-2.941l7.15-4.186A3.188,3.188,0,0,1,1087.9,547.238Z" transform="translate(-993.376 -426.95)" fill="#cbcbcb" stroke="#000" stroke-linejoin="bevel" stroke-width="2"/>
    <path id="Path_2131" data-name="Path 2131" d="M1087.96,547.436l-7.15,4.176a3.308,3.308,0,0,0,1.389-3.063l7.148-4.187A3.349,3.349,0,0,1,1087.96,547.436Z" transform="translate(-993.332 -426.924)" fill="#cbcbcb" stroke="#000" stroke-linejoin="bevel" stroke-width="2"/>
    <path id="Path_2132" data-name="Path 2132" d="M1063.055,498.827l7.2-4.178v.112l-7.2,4.177Z" transform="translate(-1000.492 -446.971)" fill="#cbcbcb" stroke="#000" stroke-linejoin="bevel" stroke-width="2"/>
    <path id="Path_2133" data-name="Path 2133" d="M1059.751,493.109l7.148-4.186a10.211,10.211,0,0,1,4.636,8.025l-7.148,4.187A10.213,10.213,0,0,0,1059.751,493.109Z" transform="translate(-1001.825 -449.28)" fill="#cbcbcb" stroke="#000" stroke-linejoin="bevel" stroke-width="2"/>
    <path id="Path_2134" data-name="Path 2134" d="M1059.751,492.954l7.148-4.176a10.629,10.629,0,0,1,4.809,8.168l-7.148,4.177A10.672,10.672,0,0,0,1059.751,492.954Z" transform="translate(-1001.825 -449.339)" fill="#cbcbcb" stroke="#000" stroke-linejoin="bevel" stroke-width="2"/>
    <path id="Path_2135" data-name="Path 2135" d="M1046.244,485.316l7.2-4.187,18.953,10.948-7.2,4.176Z" transform="translate(-1007.271 -452.423)" fill="#cbcbcb" stroke="#000" stroke-linejoin="bevel" stroke-width="2"/>
    <path id="Path_2136" data-name="Path 2136" d="M1046.244,485.163l7.2-4.187,18.953,10.948-7.2,4.186Z" transform="translate(-1007.271 -452.485)" fill="#cbcbcb" stroke="#000" stroke-linejoin="bevel" stroke-width="2"/>
    <path id="Path_2137" data-name="Path 2137" d="M1043.893,485.178l7.15-4.187a3.279,3.279,0,0,1,3.309.317l-7.15,4.177A3.255,3.255,0,0,0,1043.893,485.178Z" transform="translate(-1008.219 -452.602)" fill="#cbcbcb" stroke="#000" stroke-linejoin="bevel" stroke-width="2"/>
    <path id="Path_2138" data-name="Path 2138" d="M1043.8,485.021l7.148-4.186a3.411,3.411,0,0,1,3.432.326l-7.15,4.187A3.411,3.411,0,0,0,1043.8,485.021Z" transform="translate(-1008.257 -452.67)" fill="#cbcbcb" stroke="#000" stroke-linejoin="bevel" stroke-width="2"/>
    <path id="Path_2139" data-name="Path 2139" d="M1063.189,501.745l7.2-4.176-.01,4.075-7.2,4.176Z" transform="translate(-1000.442 -445.794)" fill="#cbcbcb" stroke="#000" stroke-linejoin="bevel" stroke-width="2"/>
    <path id="Path_2140" data-name="Path 2140" d="M1063.185,498.822l7.2-4.186.01.122-7.2,4.176Z" transform="translate(-1000.44 -446.976)" stroke="#000" stroke-linejoin="bevel" stroke-width="2"/>
    <path id="Path_2141" data-name="Path 2141" d="M1066.588,495.085a10.669,10.669,0,0,1,4.823,8.17v4.085l-.182-.1v-3.911a10.209,10.209,0,0,0-4.628-8.027l-18.966-10.947c-2.552-1.465-4.646-.276-4.657,2.655V491l-.182-.1v4.29l28.594,16.523-28.594-16.523v-8.282c0-3.063,2.185-4.28,4.84-2.756Z" transform="translate(-1008.662 -451.47)" stroke="#000" stroke-linejoin="bevel" stroke-width="2"/>
    <path id="Path_2142" data-name="Path 2142" d="M1089.061,517.345c5.178,2.993,9.375,10.211,9.354,16.192l-.072,27.226c0,2.889-1.02,5.024-2.777,6.045s-4.085.775-6.638-.675l-10.447-6.028a34.112,34.112,0,0,1-8.435-7.15l-4.082-4.7a17.218,17.218,0,0,0-4.269-3.625,8.747,8.747,0,0,0-4.288-1.308h-4.085a17.536,17.536,0,0,1-8.445-2.595l-10.448-6.028a20.691,20.691,0,0,1-9.364-16.178l.091-27.276c0-2.881,1.021-5.025,2.767-6.035s4.146-.776,6.649.674Z" transform="translate(-1015.811 -451.028)" fill="#4fcdc4" stroke="#000" stroke-linejoin="bevel" stroke-width="2"/>
    <path id="Path_2143" data-name="Path 2143" d="M1078.483,511.7l7.148-4.187a9.478,9.478,0,0,1,3.268,3.421,9.318,9.318,0,0,1,1.328,4.514l-7.15,4.187a9.114,9.114,0,0,0-1.328-4.514A9.394,9.394,0,0,0,1078.483,511.7Z" transform="translate(-994.271 -441.785)" fill="#cbcbcb" stroke="#000" stroke-linejoin="bevel" stroke-width="2"/>
    <path id="Path_2144" data-name="Path 2144" d="M1078.483,511.547l7.148-4.176a10.418,10.418,0,0,1,4.758,8.241l-7.149,4.228a9.493,9.493,0,0,0-1.378-4.687A9.717,9.717,0,0,0,1078.483,511.547Z" transform="translate(-994.271 -441.841)" fill="#cbcbcb" stroke="#000" stroke-linejoin="bevel" stroke-width="2"/>
    <path id="Path_2145" data-name="Path 2145" d="M1080.679,511.588a9.729,9.729,0,0,1,3.379,3.555,9.5,9.5,0,0,1,1.378,4.737l-.122,43.686c0,3.065-2.153,4.249-4.789,2.728l-7.486-4.319v-3.462h.184v3.329l7.3,4.228c2.533,1.465,4.606.286,4.606-2.624l.125-43.687a9.141,9.141,0,0,0-1.328-4.514,9.41,9.41,0,0,0-3.247-3.421l-7.3-4.2v3.35l-.194-.285v-3.421Z" transform="translate(-996.466 -441.882)" stroke="#000" stroke-linejoin="bevel" stroke-width="2"/>
    <path id="Path_2146" data-name="Path 2146" d="M1073.279,508.69l7.2-4.186,7.3,4.228-7.189,4.179Z" transform="translate(-996.369 -442.997)" fill="#cbcbcb" stroke="#000" stroke-linejoin="bevel" stroke-width="2"/>
    <path id="Path_2147" data-name="Path 2147" d="M1073.148,508.472l7.2-4.187,7.493,4.331-7.2,4.176Z" transform="translate(-996.422 -443.085)" fill="#cbcbcb" stroke="#000" stroke-linejoin="bevel" stroke-width="2"/>
  </g>
</svg>
