<svg xmlns="http://www.w3.org/2000/svg" width="230.281" height="296.919" viewBox="0 0 230.281 296.919"><g transform="translate(1 1.05)"><g transform="translate(0 0)"><path d="M1015.914,116.382l14.6-8.468a27.917,27.917,0,0,0,12.63,21.8l-14.495,8.468A27.857,27.857,0,0,1,1015.914,116.382Z" transform="translate(-1015.543 46.264)" stroke="#000" stroke-linecap="square" stroke-linejoin="round" stroke-width="2"/><path d="M1016.268,65.606l14.595-8.49-.351,123.853-14.6,8.468Z" transform="translate(-1015.543 -26.791)" stroke="#000" stroke-linecap="square" stroke-linejoin="round" stroke-width="2"/><path d="M1016.121,57.026l14.575-8.47-.042,20.456-14.6,8.49Z" transform="translate(-1015.337 -39.101)" stroke="#000" stroke-linecap="square" stroke-linejoin="round" stroke-width="2"/><path d="M1019.73,53.707l14.6-8.487c-2.277,1.324-3.687,4.14-3.706,8.136l-14.492,8.47C1016.044,57.828,1017.453,55.034,1019.73,53.707Z" transform="translate(-1015.239 -43.899)" stroke="#000" stroke-linecap="square" stroke-linejoin="round" stroke-width="2"/><path d="M1087.691,135q-6.214,3.624-12.422,7.288a14.5,14.5,0,0,1-3.665-4.369l14.495-8.487a14.477,14.477,0,0,0,3.665,4.369Z" transform="translate(-935.453 77.211)" fill="#f9d48a" stroke="#000" stroke-linecap="square" stroke-linejoin="round" stroke-width="2"/><path d="M1085.393,127.293a13.91,13.91,0,0,0,1.76,5.215L1072.659,141a14.191,14.191,0,0,1-1.761-5.218Z" transform="translate(-936.468 74.134)" fill="#f9d48a" stroke="#000" stroke-linecap="square" stroke-linejoin="round" stroke-width="2"/><path d="M1087.6,131.224l.393.271-14.493,8.487-.392-.312Z" transform="translate(-933.291 79.787)" fill="#f9d48a" stroke="#000" stroke-linecap="square" stroke-linejoin="round" stroke-width="2"/><path d="M1085.457,127.611l-14.6,8.487a5.086,5.086,0,0,1,0-.539l14.493-8.487A4.537,4.537,0,0,0,1085.457,127.611Z" transform="translate(-936.533 73.816)" fill="#f9d48a" stroke="#000" stroke-linecap="square" stroke-linejoin="round" stroke-width="2"/><path d="M1088.807,148.664l14.6-8.49.188.124-14.6,8.47Z" transform="translate(-910.713 92.659)" stroke="#000" stroke-linecap="square" stroke-linejoin="round" stroke-width="2"/><path d="M1088.807,148.84l14.6-8.487.208.1-14.6,8.49Z" transform="translate(-910.713 92.916)" fill="#f9d48a" stroke="#000" stroke-linecap="square" stroke-linejoin="round" stroke-width="2"/><path d="M1103.427,140.4a6.506,6.506,0,0,0,1.014.5l-14.492,8.468a8.5,8.5,0,0,1-1.014-.475Z" transform="translate(-910.528 92.976)" fill="#f9d48a" stroke="#000" stroke-linecap="square" stroke-linejoin="round" stroke-width="2"/><path d="M1103.852,140.633,1089.36,149.1h0Z" transform="translate(-909.917 93.319)" fill="#f9d48a" stroke="#000" stroke-linecap="square" stroke-linejoin="round" stroke-width="2"/><path d="M1103.852,140.633,1089.36,149.1h0Z" transform="translate(-909.917 93.319)" fill="#f9d48a" stroke="#000" stroke-linecap="square" stroke-linejoin="round" stroke-width="2"/><path d="M1107.767,140.61l-14.492,8.47a4.31,4.31,0,0,1-4.347-.373l14.495-8.49A4.366,4.366,0,0,0,1107.767,140.61Z" transform="translate(-910.54 92.72)" stroke="#000" stroke-linecap="square" stroke-linejoin="round" stroke-width="2"/><path d="M1073.488,139.992l14.6-8.487,37.35,21.573-14.6,8.487Z" transform="translate(-932.744 80.191)" fill="#f9d48a" stroke="#000" stroke-linecap="square" stroke-linejoin="round" stroke-width="2"/><path d="M1073.488,139.822l14.6-8.487,37.35,21.548-14.6,8.487Z" transform="translate(-932.744 79.947)" stroke="#000" stroke-linecap="square" stroke-linejoin="round" stroke-width="2"/><path d="M1087.831,131.335a6.716,6.716,0,0,0,.641.434l-14.6,8.468a7,7,0,0,1-.641-.414Z" transform="translate(-933.109 79.947)" fill="#f9d48a" stroke="#000" stroke-linecap="square" stroke-linejoin="round" stroke-width="2"/><path d="M1085.365,127.23v.663l-14.49,8.482v-1.407l14.492-8.468C1085.385,126.733,1085.365,126.981,1085.365,127.23Z" transform="translate(-936.501 72.995)" fill="#f9d48a" stroke="#000" stroke-linecap="square" stroke-linejoin="round" stroke-width="2"/><path d="M1085.407,126.33v.414l-14.492,8.47V134.8Z" transform="translate(-936.444 72.749)" fill="#f9d48a" stroke="#000" stroke-linecap="square" stroke-linejoin="round" stroke-width="2"/><path d="M1085.407,126.33l-14.492,8.47h0Z" transform="translate(-936.444 72.749)" fill="#f9d48a" stroke="#000" stroke-linecap="square" stroke-linejoin="round" stroke-width="2"/><path d="M1085.407,128.092l-14.492,8.468a4.142,4.142,0,0,1,1.824-2.979l14.492-8.47A4.151,4.151,0,0,0,1085.407,128.092Z" transform="translate(-936.444 70.994)" fill="#f9d48a" stroke="#000" stroke-linecap="square" stroke-linejoin="round" stroke-width="2"/><path d="M1072.812,133.74l14.6-8.468a4.324,4.324,0,0,0-1.822,3.913,13.759,13.759,0,0,0,6.213,10.828l-14.6,8.487a13.76,13.76,0,0,1-6.212-10.828A4.416,4.416,0,0,1,1072.812,133.74Z" transform="translate(-936.355 71.227)" stroke="#000" stroke-linecap="square" stroke-linejoin="round" stroke-width="2"/><path d="M1071.621,133.835l14.492-8.468a4.616,4.616,0,0,1,4.64.414l-14.495,8.468A4.636,4.636,0,0,0,1071.621,133.835Z" transform="translate(-935.429 70.732)" stroke="#000" stroke-linecap="square" stroke-linejoin="round" stroke-width="2"/><path d="M1021.094,125.35l14.576-8.468L1222.96,225l-14.6,8.49Z" transform="translate(-1008.094 59.161)" stroke="#000" stroke-linecap="square" stroke-linejoin="round" stroke-width="2"/><path d="M1103.852,140.633a4.144,4.144,0,0,0,3.563,0l-14.492,8.468a4.014,4.014,0,0,1-3.563,0Z" transform="translate(-909.917 93.319)" fill="#f9d48a" stroke="#000" stroke-linecap="square" stroke-linejoin="round" stroke-width="2"/><path d="M1109.677,145.075a4.388,4.388,0,0,1-1.821,4.142l-14.493,8.465a4.39,4.39,0,0,0,1.8-4.14l14.492-8.468-14.492,8.468a12.412,12.412,0,0,0-1.865-6.212l14.492-8.487L1093.3,147.33a12.767,12.767,0,0,0-4.43-4.6l14.492-8.487a12.664,12.664,0,0,1,4.45,4.6A12.405,12.405,0,0,1,1109.677,145.075Z" transform="translate(-910.629 84.135)" fill="#ff6b6b" stroke="#000" stroke-linecap="square" stroke-linejoin="round" stroke-width="2"/><path d="M1088.833,142.607l14.492-8.487a13.3,13.3,0,0,1,4.7,4.864l-14.492,8.468A13.481,13.481,0,0,0,1088.833,142.607Z" transform="translate(-910.675 83.952)" stroke="#000" stroke-linecap="square" stroke-linejoin="round" stroke-width="2"/><path d="M1114.538,150.861a12.794,12.794,0,0,1,4.433,4.6,12.436,12.436,0,0,1,1.863,6.212c0,3.974-2.714,5.652-6.213,3.725h-.187l-37.263-21.548a13.771,13.771,0,0,1-6.212-10.828c0-3.872,2.775-5.447,6.212-3.543Z" transform="translate(-936.381 76.112)" fill="#ff6b6b" stroke="#000" stroke-linecap="square" stroke-linejoin="round" stroke-width="2"/><path d="M1105.4,146.963l-14.492,8.468a4.7,4.7,0,0,0,1.926-4.347,13.507,13.507,0,0,0-2.07-6.5l14.492-8.468a13.436,13.436,0,0,1,2.07,6.481A4.721,4.721,0,0,1,1105.4,146.963Z" transform="translate(-907.9 86.823)" stroke="#000" stroke-linecap="square" stroke-linejoin="round" stroke-width="2"/><path d="M1119.3,155.679a13.491,13.491,0,0,1,2.072,6.5c0,4.142-2.877,5.988-6.522,3.955l-.188-.124L1077.4,144.461a14.5,14.5,0,0,1-6.5-11.471c0-4.14,2.941-5.735,6.542-3.725l37.262,21.573A13.441,13.441,0,0,1,1119.3,155.679Zm-4.533,10.028c3.44,1.924,6.21.246,6.21-3.728a12.389,12.389,0,0,0-1.862-6.21,12.778,12.778,0,0,0-4.348-4.554l-37.493-21.534c-3.4-1.9-6.213-.329-6.213,3.543a13.764,13.764,0,0,0,6.213,10.828l37.262,21.551h.188" transform="translate(-936.464 75.725)" stroke="#000" stroke-linecap="square" stroke-linejoin="round" stroke-width="2"/><path d="M1073.508,133.917l14.6-8.468L1125.455,147l-14.6,8.49Z" transform="translate(-932.715 71.482)" fill="#ff6b6b" stroke="#000" stroke-linecap="square" stroke-linejoin="round" stroke-width="2"/><path d="M1073.508,133.77l14.6-8.49,37.35,21.551-14.6,8.487Z" transform="translate(-932.715 71.239)" stroke="#000" stroke-linecap="square" stroke-linejoin="round" stroke-width="2"/><path d="M1075.752,133.977l.351.207,14.244-8.282a4.366,4.366,0,0,0-4.348-.393l-13.085,7.639A6.037,6.037,0,0,1,1075.752,133.977Zm0,.414h0a7.9,7.9,0,0,0-1.244-.539A7.9,7.9,0,0,1,1075.752,134.391Zm-1.285-.558h0Zm-.268,0-1.307,0-.249,0-.227,0-.249,0-.2,0" transform="translate(-934.937 70.988)" fill="#ff6b6b" stroke="#000" stroke-linecap="square" stroke-linejoin="round" stroke-width="2"/><path d="M1088.8,125.961l-12.42,7.288a14.979,14.979,0,0,1-5.447-9.587l14.492-8.487a15.089,15.089,0,0,0,5.425,9.606Z" transform="translate(-936.418 56.706)" fill="#f9d48a" stroke="#000" stroke-linecap="square" stroke-linejoin="round" stroke-width="2"/><path d="M1087.721,119.113l.395.268-14.492,8.49-.517-.29Z" transform="translate(-933.291 62.37)" fill="#f9d48a" stroke="#000" stroke-linecap="square" stroke-linejoin="round" stroke-width="2"/><path d="M1085.423,115.422l-14.49,8.49v-.449l14.49-8.49A1.526,1.526,0,0,0,1085.423,115.422Z" transform="translate(-936.418 56.416)" fill="#f9d48a" stroke="#000" stroke-linecap="square" stroke-linejoin="round" stroke-width="2"/><path d="M1095.321,140.459l14.575-8.487.207.124-14.6,8.468Z" transform="translate(-901.344 80.863)" fill="#f9d48a" stroke="#000" stroke-linecap="square" stroke-linejoin="round" stroke-width="2"/><path d="M1095.4,140.533l14.495-8.468a4.616,4.616,0,0,0,4.657.373l-14.492,8.487A4.633,4.633,0,0,1,1095.4,140.533Z" transform="translate(-901.235 80.997)" fill="#f9d48a" stroke="#000" stroke-linecap="square" stroke-linejoin="round" stroke-width="2"/><path d="M1114.272,132.235l-14.493,8.47a4.351,4.351,0,0,1-4.347-.373l14.492-8.487A4.33,4.33,0,0,0,1114.272,132.235Z" transform="translate(-901.185 80.68)" stroke="#000" stroke-linecap="square" stroke-linejoin="round" stroke-width="2"/><path d="M1112.413,132.219c-.124.166-.436.249-.622.351l-.641.395-.354.185-1.034.622-2.65,1.534-9.28,5.386a7.375,7.375,0,0,0,.227-1.9l14.495-8.47A6.722,6.722,0,0,1,1112.413,132.219Z" transform="translate(-897.732 78.483)" fill="#f9d48a" stroke="#000" stroke-linecap="square" stroke-linejoin="round" stroke-width="2"/><path d="M1073.531,127.863l14.575-8.468,53.127,30.665-14.578,8.487Z" transform="translate(-932.682 62.775)" fill="#f9d48a" stroke="#000" stroke-linecap="square" stroke-linejoin="round" stroke-width="2"/><path d="M1085.407,114.725v.641l-14.492,8.487v-.661Z" transform="translate(-936.444 56.059)" fill="#f9d48a" stroke="#000" stroke-linecap="square" stroke-linejoin="round" stroke-width="2"/><path d="M1085.407,114.824h0l-14.492,8.468h0l14.492-8.487-14.492,8.487v-.2l14.492-8.49Z" transform="translate(-936.444 55.875)" fill="#f9d48a" stroke="#000" stroke-linecap="square" stroke-linejoin="round" stroke-width="2"/><path d="M1085.417,114.436v.414l-14.493,8.487v-.414Z" transform="translate(-936.431 55.644)" fill="#f9d48a" stroke="#000" stroke-linecap="square" stroke-linejoin="round" stroke-width="2"/><path d="M1085.5,114.24v.478l-14.6,8.487v-.475Z" transform="translate(-936.456 55.362)" fill="#f9d48a" stroke="#000" stroke-linecap="square" stroke-linejoin="round" stroke-width="2"/><path d="M1085.444,114.24l-14.495,8.49h0Z" transform="translate(-936.395 55.362)" fill="#f9d48a" stroke="#000" stroke-linecap="square" stroke-linejoin="round" stroke-width="2"/><path d="M1085.444,116.036l-14.495,8.49a4.154,4.154,0,0,1,1.843-3.067l14.493-8.465A4.144,4.144,0,0,0,1085.444,116.036Z" transform="translate(-936.395 53.568)" fill="#f9d48a" stroke="#000" stroke-linecap="square" stroke-linejoin="round" stroke-width="2"/><path d="M1072.832,121.647l14.492-8.468a4.275,4.275,0,0,0-1.794,3.889,13.768,13.768,0,0,0,6.21,10.85l-14.493,8.49a13.73,13.73,0,0,1-6.21-10.85A4.368,4.368,0,0,1,1072.832,121.647Z" transform="translate(-936.291 53.836)" stroke="#000" stroke-linecap="square" stroke-linejoin="round" stroke-width="2"/><path d="M1071.663,121.714l14.492-8.465a4.612,4.612,0,0,1,4.615.414l-14.49,8.487A4.6,4.6,0,0,0,1071.663,121.714Z" transform="translate(-935.368 53.313)" stroke="#000" stroke-linecap="square" stroke-linejoin="round" stroke-width="2"/><path d="M1116.168,136.166l-14.495,8.468a12.889,12.889,0,0,0-1.863-5.654,12.4,12.4,0,0,0-4.43-4.576l14.492-8.487a12.74,12.74,0,0,1,4.433,4.576A13.049,13.049,0,0,1,1116.168,136.166Z" transform="translate(-901.26 72.154)" fill="#f9d48a" stroke="#000" stroke-linecap="square" stroke-linejoin="round" stroke-width="2"/><path d="M1095.338,134.226l14.492-8.487a13.382,13.382,0,0,1,4.679,4.864l-14.493,8.468A13.308,13.308,0,0,0,1095.338,134.226Z" transform="translate(-901.32 71.899)" stroke="#000" stroke-linecap="square" stroke-linejoin="round" stroke-width="2"/><path d="M1073.548,121.809l14.575-8.468L1141.251,144l-14.6,8.49Z" transform="translate(-932.657 54.069)" fill="#f9d48a" stroke="#000" stroke-linecap="square" stroke-linejoin="round" stroke-width="2"/><path d="M1073.548,121.649l14.575-8.487,53.127,30.665-14.6,8.487Z" transform="translate(-932.657 53.811)" stroke="#000" stroke-linecap="square" stroke-linejoin="round" stroke-width="2"/><path d="M1086.28,113.427a4.351,4.351,0,0,1,4.369.373l-14.5,8.487a4.371,4.371,0,0,0-4.347-.393Z" transform="translate(-935.161 53.588)" fill="#f9d48a" stroke="#000" stroke-linecap="square" stroke-linejoin="round" stroke-width="2"/><path d="M1111.732,133.282h0l-14.492,8.47h0a3.63,3.63,0,0,0,1.553-2.194l14.493-8.47A3.494,3.494,0,0,1,1111.732,133.282Z" transform="translate(-898.585 79.592)" fill="#f9d48a" stroke="#000" stroke-linecap="square" stroke-linejoin="round" stroke-width="2"/><path d="M1112.452,130.12v.478l-14.488,8.468a3.091,3.091,0,0,0,0-.475Z" transform="translate(-897.543 78.199)" fill="#f9d48a" stroke="#000" stroke-linecap="square" stroke-linejoin="round" stroke-width="2"/><path d="M1130.886,148.057l-.354.207h0a12.388,12.388,0,0,1,4.349,4.532,12.657,12.657,0,0,1,1.882,6.212,4.448,4.448,0,0,1-1.78,4.14,4.327,4.327,0,0,1-4.389-.351l-53.21-30.85a13.73,13.73,0,0,1-6.21-10.85c0-3.872,2.775-5.4,6.21-3.518l.373-.207-.373-.207c-3.6-2.07-6.458-.373-6.522,3.725a14.5,14.5,0,0,0,6.48,11.452l53.125,30.677h.187a4.645,4.645,0,0,0,4.659.395,4.762,4.762,0,0,0,1.883-4.328,14.594,14.594,0,0,0-6.334-11.14Z" transform="translate(-936.517 58.298)" stroke="#000" stroke-linecap="square" stroke-linejoin="round" stroke-width="2"/><path d="M1121.369,162.072l-14.492,8.47c-2.277,1.324-5.447,1.161-8.923-.829l14.6-8.487A8.642,8.642,0,0,0,1121.369,162.072Z" transform="translate(-897.56 122.934)" stroke="#000" stroke-linecap="square" stroke-linejoin="round" stroke-width="2"/><path d="M1118.8,160.317a6.752,6.752,0,0,1-2.694,3.065l-14.495,8.47a6.62,6.62,0,0,0,2.694-3.045Z" transform="translate(-892.297 121.627)" fill="#f9d48a" stroke="#000" stroke-linecap="square" stroke-linejoin="round" stroke-width="2"/><path d="M1087.795,110.922l-12.422,7.246a14.938,14.938,0,0,1-3.74-4.535l14.493-8.487a14.514,14.514,0,0,0,3.74,4.535Z" transform="translate(-935.413 42.283)" fill="#f9d48a" stroke="#000" stroke-linecap="square" stroke-linejoin="round" stroke-width="2"/><path d="M1085.455,103.057a14.089,14.089,0,0,0,1.663,5.052l-14.493,8.49a14.475,14.475,0,0,1-1.658-5.074Z" transform="translate(-936.368 39.279)" fill="#f9d48a" stroke="#000" stroke-linecap="square" stroke-linejoin="round" stroke-width="2"/><path d="M1087.785,106.989a3.063,3.063,0,0,0,.395.29l-14.492,8.487-.58-.29Z" transform="translate(-933.291 44.934)" fill="#f9d48a" stroke="#000" stroke-linecap="square" stroke-linejoin="round" stroke-width="2"/><path d="M1085.458,103.375l-14.492,8.468a3.689,3.689,0,0,0,0-.517l14.492-8.49A2.47,2.47,0,0,0,1085.458,103.375Z" transform="translate(-936.371 38.961)" fill="#f9d48a" stroke="#000" stroke-linecap="square" stroke-linejoin="round" stroke-width="2"/><path d="M1071.544,109.755l13.125-7.641h0Z" transform="translate(-935.539 37.923)" fill="#f9d48a" stroke="#000" stroke-linecap="square" stroke-linejoin="round" stroke-width="2"/><path d="M1081.819,120.518l14.6-8.468.185.1-14.578,8.49Z" transform="translate(-920.762 52.212)" fill="#f9d48a" stroke="#000" stroke-linecap="square" stroke-linejoin="round" stroke-width="2"/><path d="M1096.438,112.092a4.531,4.531,0,0,0,4.6.414L1086.542,121a4.641,4.641,0,0,1-4.6-.415Z" transform="translate(-920.58 52.273)" fill="#f9d48a" stroke="#000" stroke-linecap="square" stroke-linejoin="round" stroke-width="2"/><path d="M1081.9,120.39l14.492-8.468a4.327,4.327,0,0,0,4.388.351l-14.492,8.487A4.386,4.386,0,0,1,1081.9,120.39Z" transform="translate(-920.64 52.028)" stroke="#000" stroke-linecap="square" stroke-linejoin="round" stroke-width="2"/><path d="M1073.557,115.765l14.595-8.487,20.147,11.635-14.6,8.468Z" transform="translate(-932.644 45.349)" fill="#f9d48a" stroke="#000" stroke-linecap="square" stroke-linejoin="round" stroke-width="2"/><path d="M1073.565,115.6l14.6-8.487,20.31,11.737-14.575,8.47Z" transform="translate(-932.633 45.105)" stroke="#000" stroke-linecap="square" stroke-linejoin="round" stroke-width="2"/><path d="M1087.836,107.108c.207.149.422.288.641.414l-14.492,8.487a7.122,7.122,0,0,1-.641-.414Z" transform="translate(-932.951 45.105)" fill="#f9d48a" stroke="#000" stroke-linecap="square" stroke-linejoin="round" stroke-width="2"/><path d="M1085.444,102.573v.641l-14.495,8.49v-.636Z" transform="translate(-936.395 38.583)" fill="#f9d48a" stroke="#000" stroke-linecap="square" stroke-linejoin="round" stroke-width="2"/><path d="M1085.444,102.987l-14.495,8.487v-.7l14.495-8.487C1085.463,102.614,1085.444,102.756,1085.444,102.987Z" transform="translate(-936.395 38.169)" fill="#f9d48a" stroke="#000" stroke-linecap="square" stroke-linejoin="round" stroke-width="2"/><path d="M1085.475,102.114a3.959,3.959,0,0,0,0,.417l-14.492,8.487V110.6Z" transform="translate(-936.346 37.923)" fill="#f9d48a" stroke="#000" stroke-linecap="square" stroke-linejoin="round" stroke-width="2"/><path d="M1083.372,105.158l-12.422,7.224a4.15,4.15,0,0,1,1.816-3.018l14.493-8.487a4.148,4.148,0,0,0-1.822,3.023Z" transform="translate(-936.394 36.144)" fill="#f9d48a" stroke="#000" stroke-linecap="square" stroke-linejoin="round" stroke-width="2"/><path d="M1072.824,109.551l14.6-8.49a4.321,4.321,0,0,0-1.822,3.913,13.767,13.767,0,0,0,6.21,10.83l-14.493,8.487a13.727,13.727,0,0,1-6.21-10.828A4.342,4.342,0,0,1,1072.824,109.551Z" transform="translate(-936.198 36.408)" stroke="#000" stroke-linecap="square" stroke-linejoin="round" stroke-width="2"/><path d="M1071.688,109.611l14.492-8.487a4.642,4.642,0,0,1,4.618.434l-14.492,8.47A4.617,4.617,0,0,0,1071.688,109.611Z" transform="translate(-935.332 35.892)" stroke="#000" stroke-linecap="square" stroke-linejoin="round" stroke-width="2"/><path d="M1081.836,114.3l14.6-8.487.1.063-14.6,8.487Z" transform="translate(-920.738 43.248)" stroke="#000" stroke-linecap="square" stroke-linejoin="round" stroke-width="2"/><path d="M1099.186,108.372l-14.49,8.468a11.328,11.328,0,0,0-2.775-2.36l14.492-8.468A10.766,10.766,0,0,1,1099.186,108.372Z" transform="translate(-920.615 43.529)" fill="#04d5e3" stroke="#000" stroke-linecap="square" stroke-linejoin="round" stroke-width="2"/><path d="M1097.549,106.98a13.955,13.955,0,0,1,1.575,2.07l-14.492,8.487a14.1,14.1,0,0,0-1.573-2.194Z" transform="translate(-918.979 44.921)" fill="#04d5e3" stroke="#000" stroke-linecap="square" stroke-linejoin="round" stroke-width="2"/><path d="M1097.5,116.815a13.831,13.831,0,0,1,6.212,10.684,3.811,3.811,0,0,1-6.171,3.769l-20.31-11.72a13.729,13.729,0,0,1-6.212-10.828c0-3.872,2.8-5.425,6.212-3.521l20.144,11.635Z" transform="translate(-936.297 41.193)" fill="#04d5e3" stroke="#000" stroke-linecap="square" stroke-linejoin="round" stroke-width="2"/><path d="M1100.082,114.057a4.453,4.453,0,0,1-1.782,4.142l-14.493,8.487a4.428,4.428,0,0,0,1.782-4.14,12.644,12.644,0,0,0-1.885-6.21h0l14.492-8.49h0A12.97,12.97,0,0,1,1100.082,114.057Z" transform="translate(-918.05 46.168)" fill="#04d5e3" stroke="#000" stroke-linecap="square" stroke-linejoin="round" stroke-width="2"/><path d="M1102.214,121.523a13.374,13.374,0,0,1,2.07,6.5,4.692,4.692,0,0,1-1.885,4.325,4.574,4.574,0,0,1-4.659-.373l-.207-.122-20.117-11.62a14.493,14.493,0,0,1-6.48-11.471c0-4.14,2.918-5.734,6.522-3.725l20.125,11.635h.124A13.252,13.252,0,0,1,1102.214,121.523Zm-.151,10.35a4.419,4.419,0,0,0,1.782-4.14,13.829,13.829,0,0,0-6.213-10.684h0l-20.144-11.635c-3.375-1.907-6.21-.354-6.21,3.518a13.728,13.728,0,0,0,6.21,10.83l20.31,11.718a4.381,4.381,0,0,0,4.389.373" transform="translate(-936.415 40.882)" stroke="#000" stroke-linecap="square" stroke-linejoin="round" stroke-width="2"/><path d="M1081.836,114.485l14.6-8.49.1.044-14.6,8.487Z" transform="translate(-920.738 43.504)" fill="#04d5e3" stroke="#000" stroke-linecap="square" stroke-linejoin="round" stroke-width="2"/><path d="M1081.887,114.33l14.493-8.487a13.177,13.177,0,0,1,4.6,4.8l-14.492,8.468A13.259,13.259,0,0,0,1081.887,114.33Z" transform="translate(-920.665 43.286)" stroke="#000" stroke-linecap="square" stroke-linejoin="round" stroke-width="2"/><path d="M1073.574,109.71l14.6-8.487,20.144,11.635-14.594,8.487Z" transform="translate(-932.62 36.641)" fill="#04d5e3" stroke="#000" stroke-linecap="square" stroke-linejoin="round" stroke-width="2"/><path d="M1073.582,109.523l14.575-8.47,20.146,11.615-14.6,8.487Z" transform="translate(-932.608 36.397)" stroke="#000" stroke-linecap="square" stroke-linejoin="round" stroke-width="2"/><path d="M1076.149,109.747l.373.227,14.217-8.28a4.369,4.369,0,0,0-4.349-.395l-13.064,7.6A5.988,5.988,0,0,1,1076.149,109.747Zm-4.347,0,.434,0h0Zm1.553,0h0Zm.29,0h.124a.785.785,0,0,0-.185,0Zm.292,0h.932l.312.166h0a6.559,6.559,0,0,0-1.16-.29Z" transform="translate(-935.168 36.171)" fill="#04d5e3" stroke="#000" stroke-linecap="square" stroke-linejoin="round" stroke-width="2"/><path d="M1098.435,118.637l-14.492,8.49h0a4.7,4.7,0,0,0,1.885-4.328,13.381,13.381,0,0,0-2.072-6.5l14.495-8.468a13.451,13.451,0,0,1,2.07,6.481,4.805,4.805,0,0,1-1.884,4.347Z" transform="translate(-917.978 46.142)" stroke="#000" stroke-linecap="square" stroke-linejoin="round" stroke-width="2"/><path d="M1097.257,136.2l14.493-8.47a13.414,13.414,0,0,1,2.07,6.5,4.734,4.734,0,0,1-1.863,4.325l-14.492,8.49a4.764,4.764,0,0,0,1.884-4.328A13.593,13.593,0,0,0,1097.257,136.2Z" transform="translate(-898.56 74.767)" stroke="#000" stroke-linecap="square" stroke-linejoin="round" stroke-width="2"/><path d="M1016.268,60.6l-.354,123.833a27.855,27.855,0,0,0,12.63,21.863l187.289,108.137c6.958,3.977,12.61.7,12.629-7.288l.351-123.872ZM1150.41,169.11a5.4,5.4,0,0,1,.393-.768l.166-.227a3.272,3.272,0,0,1,1.182-.951h.249a3.266,3.266,0,0,1,1.034-.207,3.8,3.8,0,0,1,.849,0l.622.124a7.459,7.459,0,0,1,1.614.683l20.127,11.637h.124a10.653,10.653,0,0,1,2.463,2.07,14.232,14.232,0,0,1,2.07,2.794,15.668,15.668,0,0,1,1.183,2.463,8.363,8.363,0,0,1,.29.829,12.14,12.14,0,0,1,.393,1.636,10.028,10.028,0,0,1,.149,1.573,7.608,7.608,0,0,1-.185,1.76,2.9,2.9,0,0,1-.187.6,3.677,3.677,0,0,1-1.512,2.072,3.288,3.288,0,0,1-1.844.475h-.89a6.6,6.6,0,0,1-1.926-.749l-.2-.124-20.127-11.615-.329-.2-.685-.478-.31-.268a5.4,5.4,0,0,1-.643-.561c-.1-.09-.2-.188-.29-.29l-.6-.641-.29-.827-.229-.312a14.005,14.005,0,0,1-1.263-1.946l-.373-.6a7.291,7.291,0,0,1-.371-.807c-.124-.268-.229-.561-.332-.826s-.188-.539-.271-.829-.149-.539-.2-.807c-.083-.412-.146-.827-.187-1.243a7.269,7.269,0,0,1,0-1.18,6.961,6.961,0,0,1,.414-2.319m43.479,94.534-.188-.124-37.262-21.548a14.5,14.5,0,0,1-6.5-11.471c0-4.14,2.941-5.734,6.542-3.725L1194,248.345a14.485,14.485,0,0,1,6.563,11.284c0,4.14-2.877,5.986-6.522,3.955m20.517-20.042a4.634,4.634,0,0,1-4.657-.393h-.188l-53.312-30.725a14.487,14.487,0,0,1-6.48-11.45c0-4.14,2.918-5.756,6.522-3.725l53.23,30.723a13.245,13.245,0,0,1,4.576,4.791,13.59,13.59,0,0,1,2.073,6.52,4.765,4.765,0,0,1-1.885,4.328" transform="translate(-1015.543 -21.783)" fill="#f9d48a" stroke="#000" stroke-linecap="square" stroke-linejoin="round" stroke-width="2"/><path d="M1130.349,147.971a12.412,12.412,0,0,1,4.432,4.576,12.645,12.645,0,0,1,1.885,6.21,4.453,4.453,0,0,1-1.782,4.142,4.329,4.329,0,0,1-4.389-.354L1077.2,131.657a13.74,13.74,0,0,1-6.21-10.85c0-3.872,2.775-5.405,6.21-3.521Z" transform="translate(-936.333 58.588)" fill="#ffc265" stroke="#000" stroke-linecap="square" stroke-linejoin="round" stroke-width="2"/><path d="M1103.289,107.349l14.6-8.47-.063,20.478-14.6,8.468Z" transform="translate(-889.976 33.27)" fill="#6baeb2" stroke="#000" stroke-linecap="square" stroke-linejoin="round" stroke-width="2"/><path d="M1015.906,65.51l14.6-8.487,212.9,122.526-14.6,8.47Z" transform="translate(-1015.555 -26.924)" stroke="#000" stroke-linecap="square" stroke-linejoin="round" stroke-width="2"/><path d="M1103.44,107.451l14.6-8.487-.061,20.476-14.6,8.49Z" transform="translate(-889.756 33.393)" fill="#6baeb2" stroke="#000" stroke-linecap="square" stroke-linejoin="round" stroke-width="2"/><path d="M1103.433,115.934l14.6-8.487-.351,123.853-14.6,8.468Z" transform="translate(-890.183 45.592)" fill="#f9d48a" stroke="#000" stroke-linecap="square" stroke-linejoin="round" stroke-width="2"/><path d="M1229.034,183.012,1016.113,60.505l-.351,123.853a28.675,28.675,0,0,0,13,22.485L1215.99,314.959c7.163,4.14,13.02.788,13.044-7.473Zm-.351,124.226c0,7.99-5.673,11.262-12.63,7.288l-187.291-108.1a27.854,27.854,0,0,1-12.63-21.863l.354-123.833L1229.034,183.4l-.351,123.831" transform="translate(-1015.762 -21.917)" stroke="#000" stroke-linecap="square" stroke-linejoin="round" stroke-width="2"/><path d="M1103.229,115.746l14.6-8.468.02,124.472-14.594,8.47Z" transform="translate(-889.972 45.349)" fill="#f9d48a" stroke="#000" stroke-linecap="square" stroke-linejoin="round" stroke-width="2"/><path d="M1228.958,182.671l-.373.2L1016.059,60.6h0l212.526,122.714.373-.227Z" transform="translate(-1015.335 -21.783)" fill="#f9d48a" stroke="#000" stroke-linecap="square" stroke-linejoin="round" stroke-width="2"/><path d="M1038.969,57.694a4.555,4.555,0,0,0,4.574.436l-14.493,8.487a4.514,4.514,0,0,1-4.576-.449Z" transform="translate(-1003.233 -25.959)" fill="#6baeb2" stroke="#000" stroke-linecap="square" stroke-linejoin="round" stroke-width="2"/><path d="M1036.357,55.609a14.069,14.069,0,0,0,6.4,11.1l-14.492,8.468a14.068,14.068,0,0,1-6.4-11.074l14.492-8.487L1021.865,64.1a4.493,4.493,0,0,1,1.863-4.14l14.492-8.49A4.5,4.5,0,0,0,1036.357,55.609Z" transform="translate(-1007.022 -34.909)" fill="#6baeb2" stroke="#000" stroke-linecap="square" stroke-linejoin="round" stroke-width="2"/><path d="M1022.572,60.166l14.6-8.448a4.516,4.516,0,0,1,4.574.449l-14.493,8.468A4.513,4.513,0,0,0,1022.572,60.166Z" transform="translate(-1005.968 -35.161)" fill="#29cef6" stroke="#000" stroke-linecap="square" stroke-linejoin="round" stroke-width="2"/><path d="M1043.518,66.837l-14.493,8.49a4.537,4.537,0,0,0,1.882-4.142,14.184,14.184,0,0,0-6.417-11.1l14.492-8.446a14.06,14.06,0,0,1,6.4,11.074A4.488,4.488,0,0,1,1043.518,66.837Z" transform="translate(-1003.209 -34.666)" fill="#29cef6" stroke="#000" stroke-linecap="square" stroke-linejoin="round" stroke-width="2"/><path d="M1046.633,61.5a14.091,14.091,0,0,0,6.4,11.074l-14.492,8.49a14.126,14.126,0,0,1-6.5-11.118l14.6-8.468-14.6,8.468a4.513,4.513,0,0,1,1.865-4.14l14.49-8.468A4.5,4.5,0,0,0,1046.633,61.5Z" transform="translate(-992.393 -26.473)" fill="#6baeb2" stroke="#000" stroke-linecap="square" stroke-linejoin="round" stroke-width="2"/><path d="M1032.787,66.058l14.492-8.468a4.513,4.513,0,0,1,4.577.436l-14.6,8.487A4.513,4.513,0,0,0,1032.787,66.058Z" transform="translate(-991.278 -26.724)" fill="#ff6b6b" stroke="#000" stroke-linecap="square" stroke-linejoin="round" stroke-width="2"/><path d="M1049.182,63.588a4.52,4.52,0,0,0,4.576.449l-14.492,8.487a4.579,4.579,0,0,1-4.577-.449Z" transform="translate(-988.542 -17.483)" fill="#6baeb2" stroke="#000" stroke-linecap="square" stroke-linejoin="round" stroke-width="2"/><path d="M1053.759,72.748l-14.492,8.49a4.516,4.516,0,0,0,1.863-4.142,14.051,14.051,0,0,0-6.4-11.074l14.6-8.487a14.055,14.055,0,0,1,6.4,11.1A4.492,4.492,0,0,1,1053.759,72.748Z" transform="translate(-988.48 -26.19)" fill="#ff6b6b" stroke="#000" stroke-linecap="square" stroke-linejoin="round" stroke-width="2"/><path d="M1056.847,67.331a14.17,14.17,0,0,0,6.4,11.1l-14.492,8.487a14.188,14.188,0,0,1-6.5-11.013l14.6-8.49-14.6,8.49a4.519,4.519,0,0,1,1.885-4.142l14.492-8.487A4.492,4.492,0,0,0,1056.847,67.331Z" transform="translate(-977.698 -17.935)" fill="#6baeb2" stroke="#000" stroke-linecap="square" stroke-linejoin="round" stroke-width="2"/><path d="M1043.011,72.005l14.492-8.487a4.542,4.542,0,0,1,4.557.449l-14.492,8.5A4.538,4.538,0,0,0,1043.011,72.005Z" transform="translate(-976.574 -18.179)" fill="#f9d48a" stroke="#000" stroke-linecap="square" stroke-linejoin="round" stroke-width="2"/><path d="M1059.389,69.489a4.537,4.537,0,0,0,4.576.449l-14.495,8.468a4.468,4.468,0,0,1-4.554-.436Z" transform="translate(-973.834 -8.997)" fill="#6baeb2" stroke="#000" stroke-linecap="square" stroke-linejoin="round" stroke-width="2"/><path d="M1063.936,78.663l-14.492,8.468a4.472,4.472,0,0,0,1.885-4.14,14.141,14.141,0,0,0-6.4-11.074l14.492-8.49a14.105,14.105,0,0,1,6.417,11.1A4.549,4.549,0,0,1,1063.936,78.663Z" transform="translate(-973.813 -17.715)" fill="#f9d48a" stroke="#000" stroke-linecap="square" stroke-linejoin="round" stroke-width="2"/><path d="M1117.388,96.323a21.453,21.453,0,0,1,.973,6.21L1103.869,111a20.883,20.883,0,0,0-.973-6.21Z" transform="translate(-890.451 29.595)" fill="#6baeb2" stroke="#000" stroke-linecap="square" stroke-linejoin="round" stroke-width="2"/><path d="M1112.615,89.912a28.161,28.161,0,0,1,11.637,15.631l-14.495,8.468a28.061,28.061,0,0,0-11.635-15.631Z" transform="translate(-897.315 20.375)" fill="#6baeb2" stroke="#000" stroke-linecap="square" stroke-linejoin="round" stroke-width="2"/><path d="M1098.08,98.221l14.493-8.487a28.735,28.735,0,0,1,12.983,22.506l-14.492,8.487A28.667,28.667,0,0,0,1098.08,98.221Z" transform="translate(-897.377 20.119)" fill="#6baeb2" stroke="#000" stroke-linecap="square" stroke-linejoin="round" stroke-width="2"/><path d="M1021.29,54.064l14.6-8.487,187.213,108.1-14.6,8.468Z" transform="translate(-1007.812 -43.385)" fill="#6baeb2" stroke="#000" stroke-linecap="square" stroke-linejoin="round" stroke-width="2"/><path d="M1021.29,53.879l14.6-8.475L1223.1,153.48l-14.6,8.49Z" transform="translate(-1007.812 -43.634)" fill="#6baeb2" stroke="#000" stroke-linecap="square" stroke-linejoin="round" stroke-width="2"/><path d="M1017.6,54.206l14.6-8.487c2.3-1.324,5.485-1.139,8.924.87l-14.492,8.487C1023.09,53.048,1019.9,52.863,1017.6,54.206Z" transform="translate(-1013.113 -44.398)" fill="#6baeb2" stroke="#000" stroke-linecap="square" stroke-linejoin="round" stroke-width="2"/><path d="M1017.494,54.035l14.492-8.468c2.382-1.387,5.652-1.2,9.28.89l-14.473,8.573C1023.146,52.955,1019.874,52.665,1017.494,54.035Z" transform="translate(-1013.271 -44.678)" fill="#6baeb2" stroke="#000" stroke-linecap="square" stroke-linejoin="round" stroke-width="2"/><ellipse cx="5.24" cy="9.05" rx="5.24" ry="9.05" transform="matrix(0.865, -0.502, 0.502, 0.865, 36.988, 42.024)" stroke-width="2" stroke="#000" stroke-linecap="square" stroke-linejoin="round" fill="#ff6b6b"/><ellipse cx="5.24" cy="9.05" rx="5.24" ry="9.05" transform="matrix(0.865, -0.502, 0.502, 0.865, 61.899, 56.394)" stroke-width="2" stroke="#000" stroke-linecap="square" stroke-linejoin="round" fill="#ffc265"/><path d="M1216.173,158.044a28.668,28.668,0,0,1,12.983,22.448v20.456l-.312-20.7a27.808,27.808,0,0,0-12.608-21.863l-187.249-108c-6.976-4.016-12.691-.788-12.713,7.246V78.085l-.309-20.7c0-8.282,5.9-11.6,13.085-7.473Z" transform="translate(-1015.47 -39.704)" stroke="#000" stroke-linecap="square" stroke-linejoin="round" stroke-width="2"/><path d="M1216.038,158.151a27.816,27.816,0,0,1,12.61,21.863V200.49L1016.059,77.778V57.322c0-8.034,5.734-11.262,12.712-7.246ZM1061.379,93.967c3.562,2.07,6.434.395,6.434-3.684a14.046,14.046,0,0,0-6.4-11.074c-3.54-2.07-6.434-.395-6.434,3.665a14.13,14.13,0,0,0,6.4,11.1m-24.843-14.39c3.543,2.07,6.437.414,6.461-3.665a14.174,14.174,0,0,0-6.42-11.1c-3.54-2.07-6.417-.393-6.434,3.686a14.069,14.069,0,0,0,6.4,11.074m49.833,28.78c3.542,2.068,6.419.393,6.437-3.686a14.141,14.141,0,0,0-6.4-11.074c-3.543-2.07-6.437-.414-6.461,3.665a14.189,14.189,0,0,0,6.417,11.1" transform="translate(-1015.335 -39.397)" fill="#6baeb2" stroke="#000" stroke-linecap="square" stroke-linejoin="round" stroke-width="2"/><ellipse cx="5.24" cy="9.05" rx="5.24" ry="9.05" transform="matrix(0.865, -0.502, 0.502, 0.865, 12.084, 27.644)" stroke-width="2" stroke="#000" stroke-linecap="square" stroke-linejoin="round" fill="#29cef6"/><path d="M1118.265,158.245a11.838,11.838,0,0,1-.992,5.052l-14.6,8.487a12.164,12.164,0,0,0,1.014-5.071Z" transform="translate(-890.768 118.647)" fill="#f9d48a" stroke="#000" stroke-linecap="square" stroke-linejoin="round" stroke-width="2"/><path d="M1116.208,166.626l-14.493,8.487c2.36-1.365,3.809-4.264,3.809-8.28l14.492-8.47C1120.018,162.381,1118.548,165.28,1116.208,166.626Z" transform="translate(-892.149 118.817)" fill="#f9d48a" stroke="#000" stroke-linecap="square" stroke-linejoin="round" stroke-width="2"/><g transform="translate(12.219 103.131)"><g transform="translate(0.502 14.692)"><path d="M1021.69,94.086l5-1.083c-1,.819-.937,3.235.139,5.376l-5,1.085C1020.756,97.323,1020.688,94.9,1021.69,94.086Z" transform="translate(-1020.98 -93.003)" stroke="#000" stroke-linecap="square" stroke-linejoin="round" stroke-width="2"/></g><g transform="translate(1.354 20.068)"><path d="M1021.329,96.291l5-1.083,18.276,34.054-5,1.083Z" transform="translate(-1021.329 -95.208)" stroke="#000" stroke-linecap="square" stroke-linejoin="round" stroke-width="2"/></g><g transform="translate(7.113 20.775)"><path d="M1023.852,96.581l5-1.083-.163.129-5,1.085Z" transform="translate(-1023.691 -95.498)" fill="#b2b2b2" stroke="#000" stroke-linecap="square" stroke-linejoin="round" stroke-width="2"/></g><g transform="translate(19.63 54.119)"><path d="M1028.825,110.259l5-1.085a4.79,4.79,0,0,0,2.78,2.589l-5,1.083A4.772,4.772,0,0,1,1028.825,110.259Z" transform="translate(-1028.825 -109.174)" stroke="#000" stroke-linecap="square" stroke-linejoin="round" stroke-width="2"/></g><g transform="translate(22.41 56.709)"><path d="M1035.556,110.248l-5,1.083a.989.989,0,0,1-.254.027,1.544,1.544,0,0,1-.334-.037l5-1.085a1.712,1.712,0,0,0,.334.039A1.263,1.263,0,0,0,1035.556,110.248Z" transform="translate(-1029.965 -110.236)" stroke="#000" stroke-linecap="square" stroke-linejoin="round" stroke-width="2"/></g><g transform="translate(22.998 56.504)"><path d="M1035.209,110.369l-5,1.083a1.092,1.092,0,0,0,.458-.217l5-1.083A1.168,1.168,0,0,1,1035.209,110.369Z" transform="translate(-1030.206 -110.152)" fill="#b2b2b2" stroke="#000" stroke-linecap="square" stroke-linejoin="round" stroke-width="2"/></g><g transform="translate(7.113 20.905)"><path d="M1023.691,96.636l5-1.085,16.163,30.218-5,1.085Z" transform="translate(-1023.691 -95.551)" fill="#b2b2b2" stroke="#000" stroke-linecap="square" stroke-linejoin="round" stroke-width="2"/></g><g transform="translate(23.28 51.125)"><path d="M1030.322,109.029l5-1.083.129.244-5,1.083Z" transform="translate(-1030.322 -107.946)" fill="#b2b2b2" stroke="#000" stroke-linecap="square" stroke-linejoin="round" stroke-width="2"/></g><g transform="translate(7.766 21.036)"><path d="M1023.959,96.688l5-1.083,15.926,29.809-5,1.085Z" transform="translate(-1023.959 -95.605)" stroke="#000" stroke-linecap="square" stroke-linejoin="round" stroke-width="2"/></g><g transform="translate(23.692 50.845)"><path d="M1030.491,108.916l5-1.085.168.317-5,1.083Z" transform="translate(-1030.491 -107.831)" stroke="#000" stroke-linecap="square" stroke-linejoin="round" stroke-width="2"/></g><g transform="translate(23.412 51.367)"><path d="M1030.376,109.13l5-1.085c1,2.1,1.031,4.3.049,5.135l-5,1.085C1031.4,113.428,1031.378,111.234,1030.376,109.13Z" transform="translate(-1030.376 -108.045)" fill="#b2b2b2" stroke="#000" stroke-linecap="square" stroke-linejoin="round" stroke-width="2"/></g><g transform="translate(23.088 51.162)"><path d="M1035.246,114.03l-5,1.083a1.57,1.57,0,0,0,.682-.334c1.18-.987,1.224-3.406.091-5.732l5-1.085c1.129,2.328,1.09,4.747-.093,5.735A1.6,1.6,0,0,1,1035.246,114.03Z" transform="translate(-1030.243 -107.961)" stroke="#000" stroke-linecap="square" stroke-linejoin="round" stroke-width="2"/></g><g transform="translate(1.215 0.77)"><path d="M1038.612,88.378l5-1.085-17.343,13.919-5,1.083Z" transform="translate(-1021.272 -87.293)" stroke="#000" stroke-linecap="square" stroke-linejoin="round" stroke-width="2"/></g><g transform="translate(19.274 0.512)"><path d="M1028.679,88.27l5-1.083.324.037-5,1.083Z" transform="translate(-1028.679 -87.187)" fill="#b2b2b2" stroke="#000" stroke-linecap="square" stroke-linejoin="round" stroke-width="2"/></g><g transform="translate(18.555 0.539)"><path d="M1028.852,88.281l5-1.083a1.057,1.057,0,0,0-.468.232l-5,1.085A1.034,1.034,0,0,1,1028.852,88.281Z" transform="translate(-1028.384 -87.198)" stroke="#000" stroke-linecap="square" stroke-linejoin="round" stroke-width="2"/></g><g transform="translate(19.023 0.512)"><path d="M1028.576,88.3l5-1.083a.985.985,0,0,1,.253-.027l-5,1.083A1.258,1.258,0,0,0,1028.576,88.3Z" transform="translate(-1028.576 -87.187)" fill="#b2b2b2" stroke="#000" stroke-linecap="square" stroke-linejoin="round" stroke-width="2"/></g><g transform="translate(7.274 8.526)"><path d="M1039.062,91.557l5-1.083-15.3,12.244-5,1.083Z" transform="translate(-1023.757 -90.474)" fill="#b2b2b2" stroke="#000" stroke-linecap="square" stroke-linejoin="round" stroke-width="2"/></g><g transform="translate(7.766 8.794)"><path d="M1039.207,91.667l5-1.083-15.248,12.244-5,1.083Z" transform="translate(-1023.959 -90.584)" stroke="#000" stroke-linecap="square" stroke-linejoin="round" stroke-width="2"/></g><g transform="translate(19.601 0.549)"><path d="M1028.813,88.285l5-1.083a4.767,4.767,0,0,1,2.743,2.531l-5,1.085A4.774,4.774,0,0,0,1028.813,88.285Z" transform="translate(-1028.813 -87.202)" fill="#b2b2b2" stroke="#000" stroke-linecap="square" stroke-linejoin="round" stroke-width="2"/></g><g transform="translate(22.346 3.079)"><path d="M1034.94,88.24l.01.02-5,1.085-.007-.02Z" transform="translate(-1029.939 -88.24)" fill="#b2b2b2" stroke="#000" stroke-linecap="square" stroke-linejoin="round" stroke-width="2"/></g><g transform="translate(22.352 3.099)"><path d="M1034.947,88.248a6.4,6.4,0,0,1,.222,5.432l-5,1.085v-.01l4.991-1.083-4.991,1.083a6.416,6.416,0,0,0-.229-5.422Z" transform="translate(-1029.941 -88.248)" fill="#b2b2b2" stroke="#000" stroke-linecap="square" stroke-linejoin="round" stroke-width="2"/></g><g transform="translate(18.879)"><path d="M1028.517,88.1l5-1.083a1.729,1.729,0,0,1,.371-.039,2.2,2.2,0,0,1,.437.044,5.211,5.211,0,0,1,3.126,2.828l-5,1.085a5.2,5.2,0,0,0-3.126-2.828,2.2,2.2,0,0,0-.437-.044A1.9,1.9,0,0,0,1028.517,88.1Z" transform="translate(-1028.517 -86.977)" stroke="#000" stroke-linecap="square" stroke-linejoin="round" stroke-width="2"/></g><g transform="translate(0 1.087)"><path d="M1044.632,138.583c1.134,2.326,1.09,4.747-.09,5.732a1.581,1.581,0,0,1-1.026.371l-.414-.037a5.3,5.3,0,0,1-3.129-2.865l-18.3-34.054c-1.2-2.394-1.2-5.042,0-6.03L1039,87.784a1.544,1.544,0,0,1,1.026-.361,2.188,2.188,0,0,1,.436.044,5.2,5.2,0,0,1,3.126,2.828,6.992,6.992,0,0,1,.2,5.917l-15.25,12.244,15.928,29.811Zm-.4,5.34c.982-.836.956-3.033-.046-5.132l-.129-.244-16.162-30.218.161-.132,15.3-12.244a6.375,6.375,0,0,0-.214-5.413,4.8,4.8,0,0,0-2.763-2.57l-.324-.037a1.055,1.055,0,0,0-.721.258l-17.343,13.919c-1,.817-.934,3.238.139,5.376l18.279,34.054a4.775,4.775,0,0,0,2.782,2.587,1.536,1.536,0,0,0,.334.039,1.113,1.113,0,0,0,.71-.244" transform="translate(-1020.774 -87.423)" stroke="#000" stroke-linecap="square" stroke-linejoin="round" stroke-width="2"/></g><g transform="translate(0.502 1.595)"><path d="M1039.754,87.631l.324.037a4.775,4.775,0,0,1,2.745,2.533,6.419,6.419,0,0,1,.234,5.452L1027.751,107.9l-.161.129,16.162,30.218.129.244c1,2.094,1.031,4.3.046,5.135a1.118,1.118,0,0,1-.71.244,1.586,1.586,0,0,1-.336-.039,4.779,4.779,0,0,1-2.779-2.587l-18.271-34.049c-1.075-2.138-1.144-4.559-.142-5.376L1039.033,87.9A1.077,1.077,0,0,1,1039.754,87.631Z" transform="translate(-1020.98 -87.631)" fill="#b2b2b2" stroke="#000" stroke-linecap="square" stroke-linejoin="round" stroke-width="2"/></g><g transform="translate(22.812 2.875)"><path d="M1030.13,89.241l5-1.085a6.991,6.991,0,0,1,.2,5.917l-5,1.085A6.991,6.991,0,0,0,1030.13,89.241Z" transform="translate(-1030.13 -88.156)" stroke="#000" stroke-linecap="square" stroke-linejoin="round" stroke-width="2"/></g></g><g transform="translate(75.189 128.653)"><g transform="translate(1.801 48.863)"><path d="M1048.036,118.569l5-1.083c-1,.836-.917,3.238.2,5.34a4.753,4.753,0,0,0,2.762,2.567l-5,1.085a4.76,4.76,0,0,1-2.763-2.567C1047.122,121.806,1047.036,119.407,1048.036,118.569Z" transform="translate(-1047.339 -117.486)" stroke="#000" stroke-linecap="square" stroke-linejoin="round" stroke-width="2"/></g><g transform="translate(5.455 56.77)"><path d="M1054.431,120.741l-5,1.083a1.265,1.265,0,0,1-.256.027,1.4,1.4,0,0,1-.334-.039l5-1.083a1.537,1.537,0,0,0,.334.037A1.3,1.3,0,0,0,1054.431,120.741Z" transform="translate(-1048.838 -120.729)" stroke="#000" stroke-linecap="square" stroke-linejoin="round" stroke-width="2"/></g><g transform="translate(6.045 56.545)"><path d="M1054.083,120.873l-5,1.085a1.074,1.074,0,0,0,.473-.236l5-1.085A1.1,1.1,0,0,1,1054.083,120.873Z" transform="translate(-1049.08 -120.637)" fill="#b2b2b2" stroke="#000" stroke-linecap="square" stroke-linejoin="round" stroke-width="2"/></g><g transform="translate(6.153 56.957)"><path d="M1054.125,121.138l-5,1.085a1.547,1.547,0,0,0,.68-.334l5-1.083A1.6,1.6,0,0,1,1054.125,121.138Z" transform="translate(-1049.124 -120.806)" stroke="#000" stroke-linecap="square" stroke-linejoin="round" stroke-width="2"/></g><g transform="translate(0.52 0.853)"><path d="M1047.465,98.878l5-1.083c-.929.873-.848,2.992.173,5.059l-5,1.085C1046.612,101.872,1046.531,99.753,1047.465,98.878Z" transform="translate(-1046.814 -97.795)" stroke="#000" stroke-linecap="square" stroke-linejoin="round" stroke-width="2"/></g><g transform="translate(1.167 0.539)"><path d="M1047.647,98.751l5-1.085a1.136,1.136,0,0,0-.566.315l-5,1.083A1.152,1.152,0,0,1,1047.647,98.751Z" transform="translate(-1047.079 -97.666)" stroke="#000" stroke-linecap="square" stroke-linejoin="round" stroke-width="2"/></g><g transform="translate(1.735 0.512)"><path d="M1047.312,98.767l5-1.085a1.329,1.329,0,0,1,.261-.027l-5,1.085A1.309,1.309,0,0,0,1047.312,98.767Z" transform="translate(-1047.312 -97.655)" fill="#b2b2b2" stroke="#000" stroke-linecap="square" stroke-linejoin="round" stroke-width="2"/></g><g transform="translate(1.993 0.512)"><path d="M1052.421,97.655a1.809,1.809,0,0,1,.256.024l-5,1.083a1.506,1.506,0,0,0-.256-.022C1048.92,98.413,1050.9,97.818,1052.421,97.655Z" transform="translate(-1047.418 -97.655)" fill="#b2b2b2" stroke="#000" stroke-linecap="square" stroke-linejoin="round" stroke-width="2"/></g><g transform="translate(1.61)"><path d="M1047.261,98.567l5-1.085a1.817,1.817,0,0,1,.364-.037,1.973,1.973,0,0,1,.358.032l-5,1.085a1.988,1.988,0,0,0-.361-.034A1.658,1.658,0,0,0,1047.261,98.567Z" transform="translate(-1047.261 -97.445)" stroke="#000" stroke-linecap="square" stroke-linejoin="round" stroke-width="2"/></g><g transform="translate(2.247 0.534)"><path d="M1052.525,97.666a4.567,4.567,0,0,1,2.726,2.416l-5,1.085a4.57,4.57,0,0,0-2.726-2.419h0l2.828-.614.97-.21.917-.2a1.44,1.44,0,0,1,.288-.063Z" transform="translate(-1047.522 -97.664)" fill="#b2b2b2" stroke="#000" stroke-linecap="square" stroke-linejoin="round" stroke-width="2"/></g><g transform="translate(2.335 0.032)"><path d="M1047.558,98.543l5-1.085a4.961,4.961,0,0,1,3.072,2.68l-5,1.085A4.974,4.974,0,0,0,1047.558,98.543Z" transform="translate(-1047.558 -97.458)" stroke="#000" stroke-linecap="square" stroke-linejoin="round" stroke-width="2"/></g><g transform="translate(2.5 36.748)"><path d="M1062.677,113.6l5-1.083-15.053,12.115-5,1.083Z" transform="translate(-1047.626 -112.517)" stroke="#000" stroke-linecap="square" stroke-linejoin="round" stroke-width="2"/></g><g transform="translate(17.558 36.626)"><path d="M1053.96,113.55l5-1.083-.161.129-5,1.083Z" transform="translate(-1053.802 -112.467)" stroke="#000" stroke-linecap="square" stroke-linejoin="round" stroke-width="2"/></g><g transform="translate(1.34 5.913)"><path d="M1047.15,100.955l5-1.085,16.372,30.706-5,1.083Z" transform="translate(-1047.15 -99.87)" stroke="#000" stroke-linecap="square" stroke-linejoin="round" stroke-width="2"/></g><g transform="translate(6.516 42.794)"><path d="M1066.423,116.082l5-1.085-17.15,13.751-5,1.085Z" transform="translate(-1049.273 -114.997)" fill="#b2b2b2" stroke="#000" stroke-linecap="square" stroke-linejoin="round" stroke-width="2"/></g><g transform="translate(6.833 43.204)"><path d="M1066.548,116.248l5-1.083L1054.4,128.916l-5,1.083Z" transform="translate(-1049.403 -115.165)" stroke="#000" stroke-linecap="square" stroke-linejoin="round" stroke-width="2"/></g><g transform="translate(4.973 2.955)"><path d="M1048.64,99.74l5-1.083L1072.2,133.12l-5,1.083Z" transform="translate(-1048.64 -98.657)" fill="#b2b2b2" stroke="#000" stroke-linecap="square" stroke-linejoin="round" stroke-width="2"/></g><g transform="translate(5.404 2.714)"><path d="M1048.817,99.643l5-1.085,18.571,34.463-5,1.085Z" transform="translate(-1048.817 -98.558)" stroke="#000" stroke-linecap="square" stroke-linejoin="round" stroke-width="2"/></g><g transform="translate(23.525 37.418)"><path d="M1061.252,112.792c1.092,2.158,1.163,4.557.141,5.376l-5,1.085c1.021-.817.956-3.221-.141-5.379Z" transform="translate(-1056.249 -112.792)" fill="#b2b2b2" stroke="#000" stroke-linecap="square" stroke-linejoin="round" stroke-width="2"/></g><g transform="translate(0 1.092)"><path d="M1070.576,135.06c1.224,2.419,1.219,5.062,0,6.03l-17.147,13.751a1.6,1.6,0,0,1-1.048.373l-.414-.039a5.352,5.352,0,0,1-3.128-2.843c-1.224-2.345-1.258-4.988-.058-5.986l14.89-11.986-16.187-30.309c-1.149-2.311-1.178-4.654-.071-5.7a1.655,1.655,0,0,1,1.156-.461,2.009,2.009,0,0,1,.361.034,4.962,4.962,0,0,1,3.069,2.68Zm-.309,5.62c1.021-.817.953-3.221-.139-5.379l-18.557-34.461a4.575,4.575,0,0,0-2.726-2.421,1.81,1.81,0,0,0-.256-.022,1.138,1.138,0,0,0-.824.341c-.929.875-.849,2.992.17,5.062l16.375,30.7-.163.129L1049.1,146.749c-1,.836-.917,3.238.195,5.34a4.753,4.753,0,0,0,2.763,2.567,1.405,1.405,0,0,0,.334.039,1.079,1.079,0,0,0,.729-.263l17.147-13.751" transform="translate(-1046.6 -97.893)" stroke="#000" stroke-linecap="square" stroke-linejoin="round" stroke-width="2"/></g><g transform="translate(0.516 1.597)"><path d="M1048.289,98.1a1.46,1.46,0,0,1,.254.022,4.571,4.571,0,0,1,2.726,2.419L1069.825,135c1.095,2.158,1.161,4.557.139,5.376l-17.15,13.754a1.084,1.084,0,0,1-.729.263,1.426,1.426,0,0,1-.336-.039,4.768,4.768,0,0,1-2.762-2.567c-1.111-2.1-1.2-4.5-.193-5.34l15.051-12.115.161-.129-16.372-30.7c-1.022-2.068-1.1-4.191-.173-5.062A1.14,1.14,0,0,1,1048.289,98.1Z" transform="translate(-1046.812 -98.1)" fill="#b2b2b2" stroke="#000" stroke-linecap="square" stroke-linejoin="round" stroke-width="2"/></g><g transform="translate(23.976 37.177)"><path d="M1056.434,113.776l5-1.083c1.224,2.416,1.219,5.059,0,6.027l-5,1.085C1057.656,118.837,1057.658,116.194,1056.434,113.776Z" transform="translate(-1056.434 -112.693)" stroke="#000" stroke-linecap="square" stroke-linejoin="round" stroke-width="2"/></g></g><g transform="translate(43.308 108.148)"><g transform="translate(0.509 65.03)"><path d="M1033.849,116.792l5-1.085a6.976,6.976,0,0,0,1.721,5.986l-5,1.085A6.986,6.986,0,0,1,1033.849,116.792Z" transform="translate(-1033.734 -115.707)" stroke="#000" stroke-linecap="square" stroke-linejoin="round" stroke-width="2"/></g><g transform="translate(2.344 71.021)"><path d="M1034.486,119.249l5-1.085a4.5,4.5,0,0,0,1,.763l-5,1.085A4.63,4.63,0,0,1,1034.486,119.249Z" transform="translate(-1034.486 -118.164)" stroke="#000" stroke-linecap="square" stroke-linejoin="round" stroke-width="2"/></g><g transform="translate(3.348 71.786)"><path d="M1034.9,119.563l5-1.085a1.485,1.485,0,0,0,.948.341l-5,1.085A1.5,1.5,0,0,1,1034.9,119.563Z" transform="translate(-1034.898 -118.478)" stroke="#000" stroke-linecap="square" stroke-linejoin="round" stroke-width="2"/></g><g transform="translate(4.292 72.086)"><path d="M1040.588,118.6l-5,1.085a2.119,2.119,0,0,1-.3.044l5-1.085A2.117,2.117,0,0,0,1040.588,118.6Z" transform="translate(-1035.285 -118.601)" stroke="#000" stroke-linecap="square" stroke-linejoin="round" stroke-width="2"/></g><g transform="translate(4.618 71.557)"><path d="M1040.422,118.918l-5,1.085a1.351,1.351,0,0,0,.807-.534l5-1.085A1.345,1.345,0,0,1,1040.422,118.918Z" transform="translate(-1035.419 -118.384)" fill="#b2b2b2" stroke="#000" stroke-linecap="square" stroke-linejoin="round" stroke-width="2"/></g><g transform="translate(5.708 7.661)"><path d="M1055.222,93.262l5-1.085-19.356,63.287-5,1.083Z" transform="translate(-1035.866 -92.177)" fill="#b2b2b2" stroke="#000" stroke-linecap="square" stroke-linejoin="round" stroke-width="2"/></g><g transform="translate(6.179 7.792)"><path d="M1055.416,93.314l5-1.083-19.359,63.284-5,1.085Z" transform="translate(-1036.059 -92.231)" stroke="#000" stroke-linecap="square" stroke-linejoin="round" stroke-width="2"/></g><g transform="translate(5.425 70.948)"><path d="M1036.033,119.219l5-1.085a1.573,1.573,0,0,1-.28.614l-5,1.083A1.548,1.548,0,0,0,1036.033,119.219Z" transform="translate(-1035.75 -118.134)" fill="#b2b2b2" stroke="#000" stroke-linecap="square" stroke-linejoin="round" stroke-width="2"/></g><g transform="translate(4.669 71.079)"><path d="M1040.443,119.724l-5,1.083a1.931,1.931,0,0,0,1.158-.734,2.03,2.03,0,0,0,.351-.8l5-1.085a1.932,1.932,0,0,1-1.509,1.536Z" transform="translate(-1035.44 -118.188)" stroke="#000" stroke-linecap="square" stroke-linejoin="round" stroke-width="2"/></g><g transform="translate(0.625 1.521)"><path d="M1053.135,90.742l5-1.083-19.354,63.509-5,1.085Z" transform="translate(-1033.781 -89.659)" stroke="#000" stroke-linecap="square" stroke-linejoin="round" stroke-width="2"/></g><g transform="translate(19.979 0.534)"><path d="M1042.719,90.339l5-1.085a1.4,1.4,0,0,0-1,.987l-5,1.085A1.394,1.394,0,0,1,1042.719,90.339Z" transform="translate(-1041.719 -89.254)" stroke="#000" stroke-linecap="square" stroke-linejoin="round" stroke-width="2"/></g><g transform="translate(20.978 0.512)"><path d="M1042.129,90.352l5-1.085a1.426,1.426,0,0,1,.249-.022l-5,1.085A1.422,1.422,0,0,0,1042.129,90.352Z" transform="translate(-1042.129 -89.245)" fill="#b2b2b2" stroke="#000" stroke-linecap="square" stroke-linejoin="round" stroke-width="2"/></g><g transform="translate(21.227 0.512)"><path d="M1042.231,90.33l5-1.085a3.2,3.2,0,0,1,2.117,1.2,6.953,6.953,0,0,1,1.721,5.954l-5,1.085a6.946,6.946,0,0,0-1.721-5.954A3.189,3.189,0,0,0,1042.231,90.33Z" transform="translate(-1042.231 -89.245)" fill="#b2b2b2" stroke="#000" stroke-linecap="square" stroke-linejoin="round" stroke-width="2"/></g><g transform="translate(20.881)"><path d="M1042.089,90.152l5-1.085a2,2,0,0,1,.341-.032,3.7,3.7,0,0,1,2.494,1.348l-5,1.085a3.707,3.707,0,0,0-2.5-1.348A1.781,1.781,0,0,0,1042.089,90.152Z" transform="translate(-1042.089 -89.035)" stroke="#000" stroke-linecap="square" stroke-linejoin="round" stroke-width="2"/></g><g transform="translate(0 1.083)"><path d="M1057.241,90.835a7.5,7.5,0,0,1,1.819,6.434L1039.7,160.558a2,2,0,0,1-.351.8,1.947,1.947,0,0,1-1.312.763h-.217a1.872,1.872,0,0,1-1.2-.41,5.071,5.071,0,0,1-1.114-.858,7.47,7.47,0,0,1-1.855-6.473L1053,91.13l.015-.222a1.888,1.888,0,0,1,1.394-1.395,1.588,1.588,0,0,1,.339-.034A3.7,3.7,0,0,1,1057.241,90.835Zm1.348,6.31a6.944,6.944,0,0,0-1.721-5.954,3.18,3.18,0,0,0-2.116-1.2A1.263,1.263,0,0,0,1053.5,91l-19.354,63.509a6.991,6.991,0,0,0,1.722,5.988,4.634,4.634,0,0,0,1,.761,1.481,1.481,0,0,0,.948.344,1.428,1.428,0,0,0,1.129-.566,1.564,1.564,0,0,0,.281-.614l19.356-63.287" transform="translate(-1033.525 -89.479)" stroke="#000" stroke-linecap="square" stroke-linejoin="round" stroke-width="2"/></g><g transform="translate(0.504 1.595)"><path d="M1054.455,89.689a3.19,3.19,0,0,1,2.114,1.2,6.941,6.941,0,0,1,1.721,5.954l-19.354,63.287a1.546,1.546,0,0,1-.283.612,1.346,1.346,0,0,1-.968.556,1.5,1.5,0,0,1-1.071-.319,4.614,4.614,0,0,1-1.046-.78,6.976,6.976,0,0,1-1.721-5.986L1053.2,90.942c.207-.8.546-1.139,1-1.231A1.467,1.467,0,0,1,1054.455,89.689Z" transform="translate(-1033.732 -89.689)" fill="#b2b2b2" stroke="#000" stroke-linecap="square" stroke-linejoin="round" stroke-width="2"/></g><g transform="translate(23.719 1.353)"><path d="M1043.253,90.675l5-1.085a7.5,7.5,0,0,1,1.819,6.434l-5,1.085A7.5,7.5,0,0,0,1043.253,90.675Z" transform="translate(-1043.253 -89.59)" stroke="#000" stroke-linecap="square" stroke-linejoin="round" stroke-width="2"/></g></g></g></g></svg>