<svg xmlns="http://www.w3.org/2000/svg" width="110.518" height="142.203" viewBox="0 0 110.518 142.203">
  <g id="Group_841" data-name="Group 841" transform="translate(1 1.028)">
    <g id="Group_840" data-name="Group 840" transform="translate(0 0)">
      <g id="Layer_1-5" data-name="Layer 1-5">
        <g id="Group_559-2" data-name="Group 559-2">
          <g id="Group_659" data-name="Group 659">
            <path id="Path_1837" data-name="Path 1837" d="M1015.914,111.939l6.939-4.025a13.271,13.271,0,0,0,6,10.364l-6.891,4.025A13.242,13.242,0,0,1,1015.914,111.939Z" transform="translate(-1015.738 -34.622)" stroke="#000" stroke-linecap="square" stroke-linejoin="round" stroke-width="2"/>
            <path id="Path_1838" data-name="Path 1838" d="M1016.082,61.152l6.938-4.036-.167,58.876-6.939,4.025Z" transform="translate(-1015.738 -42.7)" stroke="#000" stroke-linecap="square" stroke-linejoin="round" stroke-width="2"/>
            <path id="Path_1839" data-name="Path 1839" d="M1016.088,52.582l6.929-4.026L1023,58.28l-6.939,4.036Z" transform="translate(-1015.715 -44.062)" stroke="#000" stroke-linecap="square" stroke-linejoin="round" stroke-width="2"/>
            <path id="Path_1840" data-name="Path 1840" d="M1017.839,49.255l6.939-4.035c-1.083.629-1.752,1.968-1.762,3.868l-6.889,4.026C1016.087,51.213,1016.756,49.885,1017.839,49.255Z" transform="translate(-1015.704 -44.592)" stroke="#000" stroke-linecap="square" stroke-linejoin="round" stroke-width="2"/>
            <path id="Path_1841" data-name="Path 1841" d="M1079.251,132.08q-2.954,1.723-5.905,3.464a6.9,6.9,0,0,1-1.742-2.077l6.89-4.035a6.883,6.883,0,0,0,1.742,2.077Z" transform="translate(-1006.882 -31.201)" fill="#f9d48a" stroke="#000" stroke-linecap="square" stroke-linejoin="round" stroke-width="2"/>
            <path id="Path_1842" data-name="Path 1842" d="M1077.788,127.293a6.615,6.615,0,0,0,.837,2.479l-6.89,4.036a6.744,6.744,0,0,1-.837-2.48Z" transform="translate(-1006.994 -31.541)" fill="#f9d48a" stroke="#000" stroke-linecap="square" stroke-linejoin="round" stroke-width="2"/>
            <path id="Path_1843" data-name="Path 1843" d="M1080,131.224l.187.129-6.889,4.035-.187-.148Z" transform="translate(-1006.643 -30.916)" fill="#f9d48a" stroke="#000" stroke-linecap="square" stroke-linejoin="round" stroke-width="2"/>
            <path id="Path_1844" data-name="Path 1844" d="M1077.8,127.328l-6.939,4.035a2.359,2.359,0,0,1,0-.256l6.889-4.035A2.133,2.133,0,0,0,1077.8,127.328Z" transform="translate(-1007.001 -31.576)" fill="#f9d48a" stroke="#000" stroke-linecap="square" stroke-linejoin="round" stroke-width="2"/>
            <path id="Path_1845" data-name="Path 1845" d="M1088.807,144.21l6.939-4.036.089.059-6.939,4.026Z" transform="translate(-1004.146 -29.492)" stroke="#000" stroke-linecap="square" stroke-linejoin="round" stroke-width="2"/>
            <path id="Path_1846" data-name="Path 1846" d="M1088.807,144.388l6.939-4.035.1.049-6.939,4.036Z" transform="translate(-1004.146 -29.464)" fill="#f9d48a" stroke="#000" stroke-linecap="square" stroke-linejoin="round" stroke-width="2"/>
            <path id="Path_1847" data-name="Path 1847" d="M1095.824,140.4a3.093,3.093,0,0,0,.482.236l-6.889,4.025a4.045,4.045,0,0,1-.482-.226Z" transform="translate(-1004.126 -29.457)" fill="#f9d48a" stroke="#000" stroke-linecap="square" stroke-linejoin="round" stroke-width="2"/>
            <path id="Path_1848" data-name="Path 1848" d="M1096.249,140.633l-6.889,4.025h0Z" transform="translate(-1004.058 -29.419)" fill="#f9d48a" stroke="#000" stroke-linecap="square" stroke-linejoin="round" stroke-width="2"/>
            <path id="Path_1849" data-name="Path 1849" d="M1096.249,140.633l-6.889,4.025h0Z" transform="translate(-1004.058 -29.419)" fill="#f9d48a" stroke="#000" stroke-linecap="square" stroke-linejoin="round" stroke-width="2"/>
            <path id="Path_1850" data-name="Path 1850" d="M1097.883,140.4l-6.889,4.026a2.049,2.049,0,0,1-2.067-.177l6.89-4.036A2.076,2.076,0,0,0,1097.883,140.4Z" transform="translate(-1004.127 -29.486)" stroke="#000" stroke-linecap="square" stroke-linejoin="round" stroke-width="2"/>
            <path id="Path_1851" data-name="Path 1851" d="M1073.488,135.54l6.939-4.035,17.755,10.255-6.939,4.035Z" transform="translate(-1006.582 -30.871)" fill="#f9d48a" stroke="#000" stroke-linecap="square" stroke-linejoin="round" stroke-width="2"/>
            <path id="Path_1852" data-name="Path 1852" d="M1073.488,135.37l6.939-4.035,17.755,10.243-6.939,4.035Z" transform="translate(-1006.582 -30.898)" stroke="#000" stroke-linecap="square" stroke-linejoin="round" stroke-width="2"/>
            <path id="Path_1853" data-name="Path 1853" d="M1080.173,131.335a3.2,3.2,0,0,0,.3.206l-6.939,4.025a3.338,3.338,0,0,1-.3-.2Z" transform="translate(-1006.623 -30.898)" fill="#f9d48a" stroke="#000" stroke-linecap="square" stroke-linejoin="round" stroke-width="2"/>
            <path id="Path_1854" data-name="Path 1854" d="M1077.763,126.848v.315l-6.888,4.032v-.669l6.889-4.025C1077.772,126.611,1077.763,126.729,1077.763,126.848Z" transform="translate(-1006.998 -31.667)" fill="#f9d48a" stroke="#000" stroke-linecap="square" stroke-linejoin="round" stroke-width="2"/>
            <path id="Path_1855" data-name="Path 1855" d="M1077.8,126.33v.2l-6.889,4.026v-.2Z" transform="translate(-1006.991 -31.694)" fill="#f9d48a" stroke="#000" stroke-linecap="square" stroke-linejoin="round" stroke-width="2"/>
            <path id="Path_1856" data-name="Path 1856" d="M1077.8,126.33l-6.889,4.026h0Z" transform="translate(-1006.991 -31.694)" fill="#f9d48a" stroke="#000" stroke-linecap="square" stroke-linejoin="round" stroke-width="2"/>
            <path id="Path_1857" data-name="Path 1857" d="M1077.8,126.527l-6.889,4.025a1.969,1.969,0,0,1,.867-1.416l6.889-4.026A1.974,1.974,0,0,0,1077.8,126.527Z" transform="translate(-1006.991 -31.888)" fill="#f9d48a" stroke="#000" stroke-linecap="square" stroke-linejoin="round" stroke-width="2"/>
            <path id="Path_1858" data-name="Path 1858" d="M1071.85,129.3l6.939-4.025a2.055,2.055,0,0,0-.866,1.86,6.54,6.54,0,0,0,2.953,5.147l-6.939,4.035a6.541,6.541,0,0,1-2.953-5.147A2.1,2.1,0,0,1,1071.85,129.3Z" transform="translate(-1006.982 -31.862)" stroke="#000" stroke-linecap="square" stroke-linejoin="round" stroke-width="2"/>
            <path id="Path_1859" data-name="Path 1859" d="M1071.621,129.162l6.889-4.025a2.194,2.194,0,0,1,2.206.2l-6.89,4.025A2.2,2.2,0,0,0,1071.621,129.162Z" transform="translate(-1006.879 -31.917)" stroke="#000" stroke-linecap="square" stroke-linejoin="round" stroke-width="2"/>
            <path id="Path_1860" data-name="Path 1860" d="M1021.094,120.907l6.929-4.025,89.032,51.394-6.939,4.036Z" transform="translate(-1014.914 -33.196)" stroke="#000" stroke-linecap="square" stroke-linejoin="round" stroke-width="2"/>
            <path id="Path_1861" data-name="Path 1861" d="M1096.249,140.633a1.97,1.97,0,0,0,1.694,0l-6.889,4.025a1.908,1.908,0,0,1-1.694,0Z" transform="translate(-1004.058 -29.419)" fill="#f9d48a" stroke="#000" stroke-linecap="square" stroke-linejoin="round" stroke-width="2"/>
            <path id="Path_1862" data-name="Path 1862" d="M1098.758,139.394a2.086,2.086,0,0,1-.866,1.969L1091,145.387a2.087,2.087,0,0,0,.854-1.968l6.889-4.025-6.889,4.025a5.9,5.9,0,0,0-.887-2.953l6.889-4.035-6.889,4.035a6.07,6.07,0,0,0-2.106-2.185l6.889-4.035a6.019,6.019,0,0,1,2.115,2.185A5.9,5.9,0,0,1,1098.758,139.394Z" transform="translate(-1004.137 -30.435)" fill="#ff6b6b" stroke="#000" stroke-linecap="square" stroke-linejoin="round" stroke-width="2"/>
            <path id="Path_1863" data-name="Path 1863" d="M1088.833,138.155l6.889-4.035a6.324,6.324,0,0,1,2.235,2.312l-6.889,4.025A6.409,6.409,0,0,0,1088.833,138.155Z" transform="translate(-1004.142 -30.455)" stroke="#000" stroke-linecap="square" stroke-linejoin="round" stroke-width="2"/>
            <path id="Path_1864" data-name="Path 1864" d="M1091.675,139.218a6.081,6.081,0,0,1,2.107,2.185,5.913,5.913,0,0,1,.886,2.953c0,1.889-1.29,2.687-2.953,1.771h-.089l-17.714-10.243a6.547,6.547,0,0,1-2.953-5.147c0-1.841,1.319-2.589,2.953-1.684Z" transform="translate(-1006.985 -31.322)" fill="#ff6b6b" stroke="#000" stroke-linecap="square" stroke-linejoin="round" stroke-width="2"/>
            <path id="Path_1865" data-name="Path 1865" d="M1097.721,141.272l-6.889,4.025a2.232,2.232,0,0,0,.916-2.067,6.42,6.42,0,0,0-.984-3.09l6.889-4.025a6.387,6.387,0,0,1,.984,3.081A2.244,2.244,0,0,1,1097.721,141.272Z" transform="translate(-1003.835 -30.138)" stroke="#000" stroke-linecap="square" stroke-linejoin="round" stroke-width="2"/>
            <path id="Path_1866" data-name="Path 1866" d="M1093.909,141.367a6.414,6.414,0,0,1,.985,3.09c0,1.969-1.368,2.847-3.1,1.88l-.089-.059-17.713-10.243a6.891,6.891,0,0,1-3.09-5.453c0-1.968,1.4-2.726,3.11-1.771l17.713,10.255A6.389,6.389,0,0,1,1093.909,141.367Zm-2.155,4.767c1.635.914,2.952.117,2.952-1.772a5.889,5.889,0,0,0-.885-2.952,6.074,6.074,0,0,0-2.067-2.165l-17.823-10.236c-1.615-.905-2.953-.156-2.953,1.684a6.543,6.543,0,0,0,2.953,5.147l17.713,10.245h.089" transform="translate(-1006.994 -31.365)" stroke="#000" stroke-linecap="square" stroke-linejoin="round" stroke-width="2"/>
            <path id="Path_1867" data-name="Path 1867" d="M1073.508,129.474l6.939-4.025,17.755,10.243-6.939,4.036Z" transform="translate(-1006.579 -31.834)" fill="#ff6b6b" stroke="#000" stroke-linecap="square" stroke-linejoin="round" stroke-width="2"/>
            <path id="Path_1868" data-name="Path 1868" d="M1073.508,129.316l6.939-4.036,17.755,10.245-6.939,4.035Z" transform="translate(-1006.579 -31.861)" stroke="#000" stroke-linecap="square" stroke-linejoin="round" stroke-width="2"/>
            <path id="Path_1869" data-name="Path 1869" d="M1073.764,129.323l.167.1,6.771-3.937a2.075,2.075,0,0,0-2.067-.187l-6.22,3.631A2.869,2.869,0,0,1,1073.764,129.323Zm0,.2h0a3.757,3.757,0,0,0-.591-.256A3.757,3.757,0,0,1,1073.764,129.52Zm-.611-.265h0Zm-.127,0-.621,0-.118,0-.108,0-.118,0-.1,0" transform="translate(-1006.825 -31.889)" fill="#ff6b6b" stroke="#000" stroke-linecap="square" stroke-linejoin="round" stroke-width="2"/>
            <path id="Path_1870" data-name="Path 1870" d="M1079.426,120.3l-5.9,3.464a7.12,7.12,0,0,1-2.589-4.557l6.889-4.035a7.172,7.172,0,0,0,2.579,4.567Z" transform="translate(-1006.989 -33.468)" fill="#f9d48a" stroke="#000" stroke-linecap="square" stroke-linejoin="round" stroke-width="2"/>
            <path id="Path_1871" data-name="Path 1871" d="M1080.054,119.113l.188.127-6.889,4.036-.246-.138Z" transform="translate(-1006.643 -32.842)" fill="#f9d48a" stroke="#000" stroke-linecap="square" stroke-linejoin="round" stroke-width="2"/>
            <path id="Path_1872" data-name="Path 1872" d="M1077.821,115.186l-6.888,4.036v-.213l6.888-4.036A.726.726,0,0,0,1077.821,115.186Z" transform="translate(-1006.989 -33.5)" fill="#f9d48a" stroke="#000" stroke-linecap="square" stroke-linejoin="round" stroke-width="2"/>
            <path id="Path_1873" data-name="Path 1873" d="M1095.321,136.007l6.928-4.035.1.059-6.939,4.025Z" transform="translate(-1003.11 -30.797)" fill="#f9d48a" stroke="#000" stroke-linecap="square" stroke-linejoin="round" stroke-width="2"/>
            <path id="Path_1874" data-name="Path 1874" d="M1095.4,136.09l6.89-4.025a2.194,2.194,0,0,0,2.214.177l-6.889,4.035A2.2,2.2,0,0,1,1095.4,136.09Z" transform="translate(-1003.098 -30.782)" fill="#f9d48a" stroke="#000" stroke-linecap="square" stroke-linejoin="round" stroke-width="2"/>
            <path id="Path_1875" data-name="Path 1875" d="M1104.388,132.03l-6.889,4.026a2.069,2.069,0,0,1-2.067-.177l6.889-4.035A2.058,2.058,0,0,0,1104.388,132.03Z" transform="translate(-1003.093 -30.817)" stroke="#000" stroke-linecap="square" stroke-linejoin="round" stroke-width="2"/>
            <path id="Path_1876" data-name="Path 1876" d="M1104.764,131.221c-.059.079-.208.118-.3.167l-.3.188-.168.088-.491.3-1.26.729-4.411,2.56a3.509,3.509,0,0,0,.108-.905l6.89-4.026A3.193,3.193,0,0,1,1104.764,131.221Z" transform="translate(-1002.711 -31.06)" fill="#f9d48a" stroke="#000" stroke-linecap="square" stroke-linejoin="round" stroke-width="2"/>
            <path id="Path_1877" data-name="Path 1877" d="M1073.531,123.42l6.929-4.025,25.255,14.577-6.93,4.035Z" transform="translate(-1006.576 -32.797)" fill="#f9d48a" stroke="#000" stroke-linecap="square" stroke-linejoin="round" stroke-width="2"/>
            <path id="Path_1878" data-name="Path 1878" d="M1077.8,114.725v.3l-6.889,4.035v-.314Z" transform="translate(-1006.991 -33.539)" fill="#f9d48a" stroke="#000" stroke-linecap="square" stroke-linejoin="round" stroke-width="2"/>
            <path id="Path_1879" data-name="Path 1879" d="M1077.8,114.7h0l-6.889,4.025h0l6.889-4.035-6.889,4.035v-.1l6.889-4.036Z" transform="translate(-1006.991 -33.56)" fill="#f9d48a" stroke="#000" stroke-linecap="square" stroke-linejoin="round" stroke-width="2"/>
            <path id="Path_1880" data-name="Path 1880" d="M1077.813,114.436v.2l-6.889,4.035v-.2Z" transform="translate(-1006.99 -33.585)" fill="#f9d48a" stroke="#000" stroke-linecap="square" stroke-linejoin="round" stroke-width="2"/>
            <path id="Path_1881" data-name="Path 1881" d="M1077.846,114.24v.227l-6.939,4.035v-.226Z" transform="translate(-1006.993 -33.616)" fill="#f9d48a" stroke="#000" stroke-linecap="square" stroke-linejoin="round" stroke-width="2"/>
            <path id="Path_1882" data-name="Path 1882" d="M1077.839,114.24l-6.89,4.036h0Z" transform="translate(-1006.986 -33.616)" fill="#f9d48a" stroke="#000" stroke-linecap="square" stroke-linejoin="round" stroke-width="2"/>
            <path id="Path_1883" data-name="Path 1883" d="M1077.839,114.439l-6.89,4.036a1.975,1.975,0,0,1,.876-1.458l6.889-4.024A1.97,1.97,0,0,0,1077.839,114.439Z" transform="translate(-1006.986 -33.815)" fill="#f9d48a" stroke="#000" stroke-linecap="square" stroke-linejoin="round" stroke-width="2"/>
            <path id="Path_1884" data-name="Path 1884" d="M1071.882,117.2l6.889-4.025a2.032,2.032,0,0,0-.853,1.849,6.545,6.545,0,0,0,2.952,5.158l-6.889,4.036a6.526,6.526,0,0,1-2.952-5.158A2.076,2.076,0,0,1,1071.882,117.2Z" transform="translate(-1006.974 -33.785)" stroke="#000" stroke-linecap="square" stroke-linejoin="round" stroke-width="2"/>
            <path id="Path_1885" data-name="Path 1885" d="M1071.663,117.045l6.889-4.024a2.192,2.192,0,0,1,2.194.2l-6.888,4.035A2.187,2.187,0,0,0,1071.663,117.045Z" transform="translate(-1006.873 -33.843)" stroke="#000" stroke-linecap="square" stroke-linejoin="round" stroke-width="2"/>
            <path id="Path_1886" data-name="Path 1886" d="M1105.262,130.789l-6.89,4.025a6.125,6.125,0,0,0-.885-2.688,5.9,5.9,0,0,0-2.106-2.175l6.889-4.035a6.056,6.056,0,0,1,2.107,2.175A6.2,6.2,0,0,1,1105.262,130.789Z" transform="translate(-1003.101 -31.76)" fill="#f9d48a" stroke="#000" stroke-linecap="square" stroke-linejoin="round" stroke-width="2"/>
            <path id="Path_1887" data-name="Path 1887" d="M1095.338,129.774l6.889-4.035a6.361,6.361,0,0,1,2.224,2.312l-6.889,4.025A6.325,6.325,0,0,0,1095.338,129.774Z" transform="translate(-1003.108 -31.788)" stroke="#000" stroke-linecap="square" stroke-linejoin="round" stroke-width="2"/>
            <path id="Path_1888" data-name="Path 1888" d="M1073.548,117.366l6.929-4.025,25.255,14.576-6.939,4.036Z" transform="translate(-1006.573 -33.759)" fill="#f9d48a" stroke="#000" stroke-linecap="square" stroke-linejoin="round" stroke-width="2"/>
            <path id="Path_1889" data-name="Path 1889" d="M1073.548,117.2l6.929-4.035,25.255,14.577-6.939,4.035Z" transform="translate(-1006.573 -33.788)" stroke="#000" stroke-linecap="square" stroke-linejoin="round" stroke-width="2"/>
            <path id="Path_1890" data-name="Path 1890" d="M1078.687,113.206a2.069,2.069,0,0,1,2.077.177l-6.891,4.035a2.078,2.078,0,0,0-2.067-.187Z" transform="translate(-1006.85 -33.813)" fill="#f9d48a" stroke="#000" stroke-linecap="square" stroke-linejoin="round" stroke-width="2"/>
            <path id="Path_1891" data-name="Path 1891" d="M1104.129,132.131h0l-6.889,4.026h0a1.725,1.725,0,0,0,.738-1.043l6.89-4.026A1.661,1.661,0,0,1,1104.129,132.131Z" transform="translate(-1002.805 -30.937)" fill="#f9d48a" stroke="#000" stroke-linecap="square" stroke-linejoin="round" stroke-width="2"/>
            <path id="Path_1892" data-name="Path 1892" d="M1104.851,130.12v.227l-6.887,4.025a1.455,1.455,0,0,0,0-.226Z" transform="translate(-1002.69 -31.091)" fill="#f9d48a" stroke="#000" stroke-linecap="square" stroke-linejoin="round" stroke-width="2"/>
            <path id="Path_1893" data-name="Path 1893" d="M1099.4,131.386l-.168.1h0a5.888,5.888,0,0,1,2.068,2.155,6.017,6.017,0,0,1,.895,2.953,2.115,2.115,0,0,1-.846,1.968,2.057,2.057,0,0,1-2.086-.167l-25.295-14.665a6.527,6.527,0,0,1-2.952-5.158c0-1.841,1.319-2.568,2.952-1.672l.177-.1-.177-.1c-1.713-.984-3.07-.177-3.1,1.771a6.9,6.9,0,0,0,3.08,5.444L1099.2,138.5h.089a2.208,2.208,0,0,0,2.215.188,2.264,2.264,0,0,0,.895-2.057,6.938,6.938,0,0,0-3.011-5.3Z" transform="translate(-1007 -33.292)" stroke="#000" stroke-linecap="square" stroke-linejoin="round" stroke-width="2"/>
            <path id="Path_1894" data-name="Path 1894" d="M1109.084,161.628l-6.889,4.026c-1.083.629-2.589.552-4.242-.394l6.939-4.035A4.108,4.108,0,0,0,1109.084,161.628Z" transform="translate(-1002.692 -26.145)" stroke="#000" stroke-linecap="square" stroke-linejoin="round" stroke-width="2"/>
            <path id="Path_1895" data-name="Path 1895" d="M1109.783,160.317a3.209,3.209,0,0,1-1.281,1.457l-6.89,4.026a3.147,3.147,0,0,0,1.281-1.448Z" transform="translate(-1002.11 -26.289)" fill="#f9d48a" stroke="#000" stroke-linecap="square" stroke-linejoin="round" stroke-width="2"/>
            <path id="Path_1896" data-name="Path 1896" d="M1079.315,107.892l-5.905,3.445a7.1,7.1,0,0,1-1.778-2.156l6.889-4.035a6.9,6.9,0,0,0,1.778,2.156Z" transform="translate(-1006.878 -35.063)" fill="#f9d48a" stroke="#000" stroke-linecap="square" stroke-linejoin="round" stroke-width="2"/>
            <path id="Path_1897" data-name="Path 1897" d="M1077.855,103.057a6.7,6.7,0,0,0,.791,2.4l-6.889,4.036a6.88,6.88,0,0,1-.788-2.412Z" transform="translate(-1006.983 -35.395)" fill="#f9d48a" stroke="#000" stroke-linecap="square" stroke-linejoin="round" stroke-width="2"/>
            <path id="Path_1898" data-name="Path 1898" d="M1080.084,106.989a1.461,1.461,0,0,0,.188.138l-6.889,4.035-.276-.138Z" transform="translate(-1006.643 -34.77)" fill="#f9d48a" stroke="#000" stroke-linecap="square" stroke-linejoin="round" stroke-width="2"/>
            <path id="Path_1899" data-name="Path 1899" d="M1077.855,103.092l-6.889,4.025a1.756,1.756,0,0,0,0-.246l6.889-4.036A1.182,1.182,0,0,0,1077.855,103.092Z" transform="translate(-1006.983 -35.43)" fill="#f9d48a" stroke="#000" stroke-linecap="square" stroke-linejoin="round" stroke-width="2"/>
            <path id="Path_1900" data-name="Path 1900" d="M1071.544,105.746l6.239-3.632h0Z" transform="translate(-1006.892 -35.545)" fill="#f9d48a" stroke="#000" stroke-linecap="square" stroke-linejoin="round" stroke-width="2"/>
            <path id="Path_1901" data-name="Path 1901" d="M1081.819,116.075l6.939-4.025.088.049-6.93,4.036Z" transform="translate(-1005.258 -33.965)" fill="#f9d48a" stroke="#000" stroke-linecap="square" stroke-linejoin="round" stroke-width="2"/>
            <path id="Path_1902" data-name="Path 1902" d="M1088.835,112.092a2.154,2.154,0,0,0,2.185.2l-6.889,4.036a2.206,2.206,0,0,1-2.185-.2Z" transform="translate(-1005.237 -33.958)" fill="#f9d48a" stroke="#000" stroke-linecap="square" stroke-linejoin="round" stroke-width="2"/>
            <path id="Path_1903" data-name="Path 1903" d="M1081.9,115.947l6.889-4.025a2.057,2.057,0,0,0,2.086.167l-6.889,4.035A2.085,2.085,0,0,1,1081.9,115.947Z" transform="translate(-1005.244 -33.985)" stroke="#000" stroke-linecap="square" stroke-linejoin="round" stroke-width="2"/>
            <path id="Path_1904" data-name="Path 1904" d="M1073.557,111.313l6.938-4.035,9.577,5.531-6.939,4.025Z" transform="translate(-1006.571 -34.724)" fill="#f9d48a" stroke="#000" stroke-linecap="square" stroke-linejoin="round" stroke-width="2"/>
            <path id="Path_1905" data-name="Path 1905" d="M1073.565,111.143l6.939-4.035,9.655,5.58-6.929,4.026Z" transform="translate(-1006.57 -34.751)" stroke="#000" stroke-linecap="square" stroke-linejoin="round" stroke-width="2"/>
            <path id="Path_1906" data-name="Path 1906" d="M1080.233,107.108c.1.071.2.137.3.2l-6.889,4.035a3.382,3.382,0,0,1-.3-.2Z" transform="translate(-1006.605 -34.751)" fill="#f9d48a" stroke="#000" stroke-linecap="square" stroke-linejoin="round" stroke-width="2"/>
            <path id="Path_1907" data-name="Path 1907" d="M1077.839,102.573v.3l-6.89,4.036v-.3Z" transform="translate(-1006.986 -35.472)" fill="#f9d48a" stroke="#000" stroke-linecap="square" stroke-linejoin="round" stroke-width="2"/>
            <path id="Path_1908" data-name="Path 1908" d="M1077.839,102.619l-6.89,4.035v-.334l6.89-4.035C1077.849,102.441,1077.839,102.509,1077.839,102.619Z" transform="translate(-1006.986 -35.518)" fill="#f9d48a" stroke="#000" stroke-linecap="square" stroke-linejoin="round" stroke-width="2"/>
            <path id="Path_1909" data-name="Path 1909" d="M1077.872,102.114a1.917,1.917,0,0,0,0,.2l-6.889,4.035v-.2Z" transform="translate(-1006.981 -35.545)" fill="#f9d48a" stroke="#000" stroke-linecap="square" stroke-linejoin="round" stroke-width="2"/>
            <path id="Path_1910" data-name="Path 1910" d="M1076.855,102.912l-5.905,3.434a1.973,1.973,0,0,1,.863-1.435l6.889-4.035a1.972,1.972,0,0,0-.866,1.437Z" transform="translate(-1006.986 -35.741)" fill="#f9d48a" stroke="#000" stroke-linecap="square" stroke-linejoin="round" stroke-width="2"/>
            <path id="Path_1911" data-name="Path 1911" d="M1071.912,105.1l6.939-4.036a2.054,2.054,0,0,0-.866,1.86,6.544,6.544,0,0,0,2.952,5.148l-6.889,4.035a6.526,6.526,0,0,1-2.952-5.147A2.064,2.064,0,0,1,1071.912,105.1Z" transform="translate(-1006.964 -35.712)" stroke="#000" stroke-linecap="square" stroke-linejoin="round" stroke-width="2"/>
            <path id="Path_1912" data-name="Path 1912" d="M1071.688,104.937l6.889-4.035a2.207,2.207,0,0,1,2.2.206l-6.889,4.026A2.195,2.195,0,0,0,1071.688,104.937Z" transform="translate(-1006.869 -35.769)" stroke="#000" stroke-linecap="square" stroke-linejoin="round" stroke-width="2"/>
            <path id="Path_1913" data-name="Path 1913" d="M1081.836,109.852l6.939-4.035.049.03-6.939,4.035Z" transform="translate(-1005.255 -34.956)" stroke="#000" stroke-linecap="square" stroke-linejoin="round" stroke-width="2"/>
            <path id="Path_1914" data-name="Path 1914" d="M1090.128,107.134l-6.888,4.025a5.383,5.383,0,0,0-1.319-1.122l6.889-4.025A5.117,5.117,0,0,1,1090.128,107.134Z" transform="translate(-1005.241 -34.925)" fill="#04d5e3" stroke="#000" stroke-linecap="square" stroke-linejoin="round" stroke-width="2"/>
            <path id="Path_1915" data-name="Path 1915" d="M1089.947,106.98a6.637,6.637,0,0,1,.749.984L1083.806,112a6.7,6.7,0,0,0-.748-1.043Z" transform="translate(-1005.06 -34.771)" fill="#04d5e3" stroke="#000" stroke-linecap="square" stroke-linejoin="round" stroke-width="2"/>
            <path id="Path_1916" data-name="Path 1916" d="M1083.605,110.3a6.575,6.575,0,0,1,2.953,5.079,1.812,1.812,0,0,1-2.934,1.792l-9.655-5.571a6.526,6.526,0,0,1-2.953-5.147c0-1.841,1.329-2.579,2.953-1.674l9.576,5.531Z" transform="translate(-1006.975 -35.183)" fill="#04d5e3" stroke="#000" stroke-linecap="square" stroke-linejoin="round" stroke-width="2"/>
            <path id="Path_1917" data-name="Path 1917" d="M1091.49,110.8a2.117,2.117,0,0,1-.847,1.969l-6.889,4.035a2.1,2.1,0,0,0,.847-1.968,6.01,6.01,0,0,0-.9-2.952h0l6.889-4.036h0A6.166,6.166,0,0,1,1091.49,110.8Z" transform="translate(-1004.958 -34.633)" fill="#04d5e3" stroke="#000" stroke-linecap="square" stroke-linejoin="round" stroke-width="2"/>
            <path id="Path_1918" data-name="Path 1918" d="M1085.8,112.42a6.358,6.358,0,0,1,.984,3.09,2.23,2.23,0,0,1-.9,2.056,2.175,2.175,0,0,1-2.215-.177l-.1-.058-9.563-5.524a6.89,6.89,0,0,1-3.081-5.453c0-1.968,1.387-2.726,3.1-1.771l9.567,5.531h.059A6.3,6.3,0,0,1,1085.8,112.42Zm-.072,4.92a2.1,2.1,0,0,0,.847-1.968,6.574,6.574,0,0,0-2.953-5.079h0l-9.576-5.531c-1.6-.906-2.952-.168-2.952,1.672a6.526,6.526,0,0,0,2.952,5.148l9.655,5.57a2.083,2.083,0,0,0,2.086.177" transform="translate(-1006.988 -35.218)" stroke="#000" stroke-linecap="square" stroke-linejoin="round" stroke-width="2"/>
            <path id="Path_1919" data-name="Path 1919" d="M1081.836,110.031l6.939-4.036.049.021-6.939,4.035Z" transform="translate(-1005.255 -34.928)" fill="#04d5e3" stroke="#000" stroke-linecap="square" stroke-linejoin="round" stroke-width="2"/>
            <path id="Path_1920" data-name="Path 1920" d="M1081.887,109.878l6.889-4.035a6.263,6.263,0,0,1,2.185,2.283l-6.889,4.025A6.3,6.3,0,0,0,1081.887,109.878Z" transform="translate(-1005.247 -34.952)" stroke="#000" stroke-linecap="square" stroke-linejoin="round" stroke-width="2"/>
            <path id="Path_1921" data-name="Path 1921" d="M1073.574,105.258l6.939-4.035,9.576,5.531-6.938,4.035Z" transform="translate(-1006.569 -35.686)" fill="#04d5e3" stroke="#000" stroke-linecap="square" stroke-linejoin="round" stroke-width="2"/>
            <path id="Path_1922" data-name="Path 1922" d="M1073.582,105.079l6.929-4.026,9.577,5.522-6.939,4.035Z" transform="translate(-1006.568 -35.713)" stroke="#000" stroke-linecap="square" stroke-linejoin="round" stroke-width="2"/>
            <path id="Path_1923" data-name="Path 1923" d="M1073.868,105.1l.177.108,6.758-3.936a2.077,2.077,0,0,0-2.068-.188l-6.21,3.612A2.847,2.847,0,0,1,1073.868,105.1Zm-2.067,0,.206,0h0Zm.738,0h0Zm.138,0h.059a.374.374,0,0,0-.088,0Zm.139,0h.443l.148.079h0a3.12,3.12,0,0,0-.552-.138Z" transform="translate(-1006.85 -35.738)" fill="#04d5e3" stroke="#000" stroke-linecap="square" stroke-linejoin="round" stroke-width="2"/>
            <path id="Path_1924" data-name="Path 1924" d="M1090.734,112.967,1083.844,117h0a2.233,2.233,0,0,0,.9-2.057,6.36,6.36,0,0,0-.985-3.091l6.89-4.025a6.393,6.393,0,0,1,.984,3.081,2.284,2.284,0,0,1-.9,2.067Z" transform="translate(-1004.95 -34.636)" stroke="#000" stroke-linecap="square" stroke-linejoin="round" stroke-width="2"/>
            <path id="Path_1925" data-name="Path 1925" d="M1097.257,131.759l6.889-4.026a6.376,6.376,0,0,1,.984,3.091,2.25,2.25,0,0,1-.886,2.056l-6.889,4.036a2.265,2.265,0,0,0,.9-2.057A6.462,6.462,0,0,0,1097.257,131.759Z" transform="translate(-1002.802 -31.471)" stroke="#000" stroke-linecap="square" stroke-linejoin="round" stroke-width="2"/>
            <path id="Path_1926" data-name="Path 1926" d="M1016.082,60.6l-.168,58.867a13.241,13.241,0,0,0,6,10.393l89.031,51.4c3.308,1.89,5.994.335,6-3.464l.167-58.885Zm63.767,51.583a2.572,2.572,0,0,1,.187-.365l.079-.108a1.555,1.555,0,0,1,.562-.452h.118a1.553,1.553,0,0,1,.492-.1,1.806,1.806,0,0,1,.4,0l.3.059a3.545,3.545,0,0,1,.767.325l9.568,5.532h.059a5.063,5.063,0,0,1,1.171.984,6.763,6.763,0,0,1,.984,1.328,7.454,7.454,0,0,1,.562,1.171,4,4,0,0,1,.138.394,5.784,5.784,0,0,1,.187.778,4.772,4.772,0,0,1,.071.748,3.606,3.606,0,0,1-.088.837,1.361,1.361,0,0,1-.089.284,1.747,1.747,0,0,1-.719.985,1.563,1.563,0,0,1-.876.226h-.423a3.136,3.136,0,0,1-.916-.356l-.1-.059-9.568-5.522-.156-.1-.326-.227-.147-.127a2.561,2.561,0,0,1-.306-.267c-.048-.043-.093-.089-.138-.138l-.284-.3-.138-.393-.109-.148a6.668,6.668,0,0,1-.6-.925l-.177-.285a3.467,3.467,0,0,1-.176-.384c-.059-.127-.109-.267-.158-.393s-.089-.256-.129-.394-.071-.256-.1-.384c-.039-.2-.069-.393-.089-.591a3.471,3.471,0,0,1,0-.561,3.31,3.31,0,0,1,.2-1.1m20.669,44.939-.089-.059-17.713-10.243a6.892,6.892,0,0,1-3.09-5.453c0-1.968,1.4-2.726,3.11-1.771l17.8,10.285a6.885,6.885,0,0,1,3.12,5.364c0,1.968-1.368,2.845-3.1,1.88m9.753-9.527a2.2,2.2,0,0,1-2.214-.187h-.089L1082.7,132.771a6.887,6.887,0,0,1-3.081-5.443c0-1.968,1.387-2.736,3.1-1.771l25.3,14.6a6.3,6.3,0,0,1,2.175,2.277,6.46,6.46,0,0,1,.985,3.1,2.265,2.265,0,0,1-.9,2.057" transform="translate(-1015.738 -42.147)" fill="#f9d48a" stroke="#000" stroke-linecap="square" stroke-linejoin="round" stroke-width="2"/>
            <path id="Path_1927" data-name="Path 1927" d="M1099.208,131.452a5.9,5.9,0,0,1,2.107,2.175,6.011,6.011,0,0,1,.9,2.952,2.117,2.117,0,0,1-.847,1.969,2.058,2.058,0,0,1-2.086-.168L1073.944,123.7a6.531,6.531,0,0,1-2.952-5.158c0-1.841,1.319-2.57,2.952-1.674Z" transform="translate(-1006.979 -33.26)" fill="#ffc265" stroke="#000" stroke-linecap="square" stroke-linejoin="round" stroke-width="2"/>
            <path id="Path_1929" data-name="Path 1929" d="M1103.256,102.905l6.939-4.026-.03,9.735-6.939,4.025Z" transform="translate(-1001.853 -36.059)" fill="#6baeb2" stroke="#000" stroke-linecap="square" stroke-linejoin="round" stroke-width="2"/>
            <path id="Path_1930" data-name="Path 1930" d="M1015.906,61.058l6.939-4.035,101.206,58.245-6.939,4.026Z" transform="translate(-1015.739 -42.715)" stroke="#000" stroke-linecap="square" stroke-linejoin="round" stroke-width="2"/>
            <path id="Path_1931" data-name="Path 1931" d="M1103.408,103l6.939-4.035-.029,9.733-6.939,4.036Z" transform="translate(-1001.829 -36.046)" fill="#6baeb2" stroke="#000" stroke-linecap="square" stroke-linejoin="round" stroke-width="2"/>
            <path id="Path_1932" data-name="Path 1932" d="M1103.249,111.482l6.939-4.035-.167,58.876-6.939,4.025Z" transform="translate(-1001.876 -34.697)" fill="#f9d48a" stroke="#000" stroke-linecap="square" stroke-linejoin="round" stroke-width="2"/>
            <path id="Path_1933" data-name="Path 1933" d="M1117.145,118.741,1015.929,60.505l-.167,58.876a13.631,13.631,0,0,0,6.18,10.688l89,51.4c3.405,1.968,6.189.374,6.2-3.552Zm-.167,59.053c0,3.8-2.7,5.354-6,3.464l-89.033-51.386a13.241,13.241,0,0,1-6-10.393l.168-58.867,101.039,58.315-.167,58.865" transform="translate(-1015.762 -42.161)" stroke="#000" stroke-linecap="square" stroke-linejoin="round" stroke-width="2"/>
            <path id="Path_1934" data-name="Path 1934" d="M1103.229,111.3l6.939-4.025.009,59.17-6.938,4.026Z" transform="translate(-1001.853 -34.724)" fill="#f9d48a" stroke="#000" stroke-linecap="square" stroke-linejoin="round" stroke-width="2"/>
            <path id="Path_1935" data-name="Path 1935" d="M1117.265,118.628l-.177.1L1016.059,60.6h0l101.028,58.335.177-.108Z" transform="translate(-1015.715 -42.147)" fill="#f9d48a" stroke="#000" stroke-linecap="square" stroke-linejoin="round" stroke-width="2"/>
            <path id="Path_1936" data-name="Path 1936" d="M1031.364,57.694a2.166,2.166,0,0,0,2.175.207l-6.89,4.035a2.146,2.146,0,0,1-2.175-.213Z" transform="translate(-1014.377 -42.608)" fill="#6baeb2" stroke="#000" stroke-linecap="square" stroke-linejoin="round" stroke-width="2"/>
            <path id="Path_1937" data-name="Path 1937" d="M1028.741,53.438a6.688,6.688,0,0,0,3.041,5.276l-6.889,4.025a6.687,6.687,0,0,1-3.041-5.264l6.889-4.035-6.889,4.035a2.136,2.136,0,0,1,.886-1.968l6.889-4.036A2.14,2.14,0,0,0,1028.741,53.438Z" transform="translate(-1014.796 -43.598)" fill="#6baeb2" stroke="#000" stroke-linecap="square" stroke-linejoin="round" stroke-width="2"/>
            <path id="Path_1938" data-name="Path 1938" d="M1022.572,55.513l6.939-4.016a2.147,2.147,0,0,1,2.174.213l-6.889,4.025A2.146,2.146,0,0,0,1022.572,55.513Z" transform="translate(-1014.679 -43.626)" fill="#29cef6" stroke="#000" stroke-linecap="square" stroke-linejoin="round" stroke-width="2"/>
            <path id="Path_1939" data-name="Path 1939" d="M1033.536,58.864l-6.889,4.036a2.157,2.157,0,0,0,.895-1.969,6.742,6.742,0,0,0-3.051-5.276l6.889-4.015a6.683,6.683,0,0,1,3.041,5.264A2.133,2.133,0,0,1,1033.536,58.864Z" transform="translate(-1014.374 -43.571)" fill="#29cef6" stroke="#000" stroke-linecap="square" stroke-linejoin="round" stroke-width="2"/>
            <path id="Path_1940" data-name="Path 1940" d="M1038.962,59.315A6.7,6.7,0,0,0,1042,64.58l-6.889,4.036a6.715,6.715,0,0,1-3.091-5.285l6.939-4.025-6.939,4.025a2.146,2.146,0,0,1,.887-1.968l6.888-4.025A2.138,2.138,0,0,0,1038.962,59.315Z" transform="translate(-1013.178 -42.665)" fill="#6baeb2" stroke="#000" stroke-linecap="square" stroke-linejoin="round" stroke-width="2"/>
            <path id="Path_1941" data-name="Path 1941" d="M1032.787,61.391l6.889-4.025a2.146,2.146,0,0,1,2.176.207l-6.939,4.035A2.146,2.146,0,0,0,1032.787,61.391Z" transform="translate(-1013.055 -42.693)" fill="#ff6b6b" stroke="#000" stroke-linecap="square" stroke-linejoin="round" stroke-width="2"/>
            <path id="Path_1942" data-name="Path 1942" d="M1041.578,63.588a2.149,2.149,0,0,0,2.175.213l-6.889,4.035a2.177,2.177,0,0,1-2.176-.213Z" transform="translate(-1012.752 -41.671)" fill="#6baeb2" stroke="#000" stroke-linecap="square" stroke-linejoin="round" stroke-width="2"/>
            <path id="Path_1943" data-name="Path 1943" d="M1043.777,64.766l-6.889,4.036a2.147,2.147,0,0,0,.885-1.969,6.679,6.679,0,0,0-3.041-5.264l6.939-4.035a6.681,6.681,0,0,1,3.041,5.276A2.135,2.135,0,0,1,1043.777,64.766Z" transform="translate(-1012.745 -42.634)" fill="#ff6b6b" stroke="#000" stroke-linecap="square" stroke-linejoin="round" stroke-width="2"/>
            <path id="Path_1944" data-name="Path 1944" d="M1049.178,65.2a6.736,6.736,0,0,0,3.041,5.276l-6.889,4.035a6.745,6.745,0,0,1-3.09-5.235l6.939-4.036-6.939,4.036a2.149,2.149,0,0,1,.9-1.969l6.889-4.035A2.135,2.135,0,0,0,1049.178,65.2Z" transform="translate(-1011.553 -41.721)" fill="#6baeb2" stroke="#000" stroke-linecap="square" stroke-linejoin="round" stroke-width="2"/>
            <path id="Path_1945" data-name="Path 1945" d="M1043.011,67.336,1049.9,63.3a2.159,2.159,0,0,1,2.166.213l-6.889,4.04A2.157,2.157,0,0,0,1043.011,67.336Z" transform="translate(-1011.429 -41.748)" fill="#f9d48a" stroke="#000" stroke-linecap="square" stroke-linejoin="round" stroke-width="2"/>
            <path id="Path_1946" data-name="Path 1946" d="M1051.8,69.489a2.157,2.157,0,0,0,2.175.213l-6.89,4.025a2.124,2.124,0,0,1-2.165-.207Z" transform="translate(-1011.126 -40.733)" fill="#6baeb2" stroke="#000" stroke-linecap="square" stroke-linejoin="round" stroke-width="2"/>
            <path id="Path_1947" data-name="Path 1947" d="M1053.966,70.67l-6.889,4.025a2.126,2.126,0,0,0,.9-1.968,6.722,6.722,0,0,0-3.041-5.264l6.889-4.036a6.7,6.7,0,0,1,3.051,5.276A2.162,2.162,0,0,1,1053.966,70.67Z" transform="translate(-1011.123 -41.697)" fill="#f9d48a" stroke="#000" stroke-linecap="square" stroke-linejoin="round" stroke-width="2"/>
            <path id="Path_1948" data-name="Path 1948" d="M1109.785,96.323a10.2,10.2,0,0,1,.463,2.952l-6.889,4.025a9.922,9.922,0,0,0-.463-2.952Z" transform="translate(-1001.906 -36.466)" fill="#6baeb2" stroke="#000" stroke-linecap="square" stroke-linejoin="round" stroke-width="2"/>
            <path id="Path_1949" data-name="Path 1949" d="M1105.012,89.912a13.387,13.387,0,0,1,5.532,7.43l-6.89,4.025a13.339,13.339,0,0,0-5.531-7.43Z" transform="translate(-1002.665 -37.485)" fill="#6baeb2" stroke="#000" stroke-linecap="square" stroke-linejoin="round" stroke-width="2"/>
            <path id="Path_1950" data-name="Path 1950" d="M1098.08,93.769l6.889-4.035a13.66,13.66,0,0,1,6.172,10.7l-6.889,4.035A13.627,13.627,0,0,0,1098.08,93.769Z" transform="translate(-1002.672 -37.513)" fill="#6baeb2" stroke="#000" stroke-linecap="square" stroke-linejoin="round" stroke-width="2"/>
            <path id="Path_1951" data-name="Path 1951" d="M1021.29,49.612l6.939-4.035,89,51.385-6.939,4.025Z" transform="translate(-1014.883 -44.535)" fill="#6baeb2" stroke="#000" stroke-linecap="square" stroke-linejoin="round" stroke-width="2"/>
            <path id="Path_1952" data-name="Path 1952" d="M1021.29,49.433l6.939-4.029,89,51.376-6.939,4.036Z" transform="translate(-1014.883 -44.563)" fill="#6baeb2" stroke="#000" stroke-linecap="square" stroke-linejoin="round" stroke-width="2"/>
            <path id="Path_1953" data-name="Path 1953" d="M1017.6,49.31l6.939-4.035a4.207,4.207,0,0,1,4.242.414l-6.889,4.035C1020.212,48.759,1018.7,48.671,1017.6,49.31Z" transform="translate(-1015.469 -44.647)" fill="#6baeb2" stroke="#000" stroke-linecap="square" stroke-linejoin="round" stroke-width="2"/>
            <path id="Path_1954" data-name="Path 1954" d="M1017.494,49.126l6.889-4.025c1.132-.659,2.687-.569,4.411.423l-6.88,4.075C1020.181,48.613,1018.625,48.475,1017.494,49.126Z" transform="translate(-1015.487 -44.678)" fill="#6baeb2" stroke="#000" stroke-linecap="square" stroke-linejoin="round" stroke-width="2"/>
            <ellipse id="Ellipse_243" data-name="Ellipse 243" cx="2.491" cy="4.302" rx="2.491" ry="4.302" transform="matrix(0.865, -0.502, 0.502, 0.865, 17.583, 19.977)" fill="#ff6b6b" stroke="#000" stroke-linecap="square" stroke-linejoin="round" stroke-width="2"/>
            <ellipse id="Ellipse_244" data-name="Ellipse 244" cx="2.491" cy="4.302" rx="2.491" ry="4.302" transform="matrix(0.865, -0.502, 0.502, 0.865, 29.425, 26.808)" fill="#ffc265" stroke="#000" stroke-linecap="square" stroke-linejoin="round" stroke-width="2"/>
            <path id="Path_1955" data-name="Path 1955" d="M1111.138,100.383a13.628,13.628,0,0,1,6.172,10.671v9.724l-.148-9.842a13.219,13.219,0,0,0-5.993-10.393L1022.155,49.2c-3.316-1.909-6.033-.374-6.043,3.445v9.724l-.147-9.842c0-3.937,2.8-5.512,6.22-3.552Z" transform="translate(-1015.73 -44.128)" stroke="#000" stroke-linecap="square" stroke-linejoin="round" stroke-width="2"/>
            <path id="Path_1956" data-name="Path 1956" d="M1111.123,100.546a13.223,13.223,0,0,1,5.995,10.393v9.733L1016.059,62.339V52.615c0-3.819,2.726-5.354,6.043-3.445ZM1037.6,70.035c1.693.984,3.058.188,3.058-1.751a6.677,6.677,0,0,0-3.041-5.264c-1.683-.984-3.059-.188-3.059,1.742a6.717,6.717,0,0,0,3.042,5.276M1025.794,63.2c1.684.984,3.06.2,3.071-1.742a6.738,6.738,0,0,0-3.052-5.276c-1.683-.984-3.051-.187-3.059,1.752A6.688,6.688,0,0,0,1025.8,63.2m23.689,13.681c1.684.983,3.052.187,3.06-1.752a6.722,6.722,0,0,0-3.041-5.264c-1.684-.984-3.06-.2-3.071,1.742a6.745,6.745,0,0,0,3.05,5.276" transform="translate(-1015.715 -44.094)" fill="#6baeb2" stroke="#000" stroke-linecap="square" stroke-linejoin="round" stroke-width="2"/>
            <ellipse id="Ellipse_245" data-name="Ellipse 245" cx="2.491" cy="4.302" rx="2.491" ry="4.302" transform="matrix(0.865, -0.502, 0.502, 0.865, 5.745, 13.141)" fill="#29cef6" stroke="#000" stroke-linecap="square" stroke-linejoin="round" stroke-width="2"/>
            <path id="Path_1957" data-name="Path 1957" d="M1110.086,158.245a5.627,5.627,0,0,1-.472,2.4l-6.939,4.035a5.783,5.783,0,0,0,.482-2.411Z" transform="translate(-1001.941 -26.619)" fill="#f9d48a" stroke="#000" stroke-linecap="square" stroke-linejoin="round" stroke-width="2"/>
            <path id="Path_1958" data-name="Path 1958" d="M1108.6,162.291l-6.889,4.035a4.289,4.289,0,0,0,1.811-3.936l6.889-4.026A4.28,4.28,0,0,1,1108.6,162.291Z" transform="translate(-1002.094 -26.6)" fill="#f9d48a" stroke="#000" stroke-linecap="square" stroke-linejoin="round" stroke-width="2"/>
          </g>
        </g>
        <g id="Path_1216" data-name="Path 1216" transform="translate(5.809 49.025)">
          <g id="Group_796" data-name="Group 796">
            <g id="Group_795" data-name="Group 795">
              <g id="Group_770" data-name="Group 770" transform="translate(0.239 6.984)">
                <path id="Path_2422" data-name="Path 2422" d="M1021.317,93.518,1023.7,93c-.476.389-.445,1.538.066,2.556l-2.377.516C1020.873,95.057,1020.841,93.906,1021.317,93.518Z" transform="translate(-1020.98 -93.003)" stroke="#000" stroke-linecap="square" stroke-linejoin="round" stroke-width="2"/>
              </g>
              <g id="Group_771" data-name="Group 771" transform="translate(0.644 9.54)">
                <path id="Path_2423" data-name="Path 2423" d="M1021.329,95.723l2.377-.515,8.688,16.188-2.377.515Z" transform="translate(-1021.329 -95.208)" stroke="#000" stroke-linecap="square" stroke-linejoin="round" stroke-width="2"/>
              </g>
              <g id="Group_772" data-name="Group 772" transform="translate(3.381 9.876)">
                <path id="Path_2424" data-name="Path 2424" d="M1023.768,96.013l2.378-.515-.078.061-2.377.516Z" transform="translate(-1023.691 -95.498)" fill="#b2b2b2" stroke="#000" stroke-linecap="square" stroke-linejoin="round" stroke-width="2"/>
              </g>
              <g id="Group_773" data-name="Group 773" transform="translate(9.332 25.727)">
                <path id="Path_2425" data-name="Path 2425" d="M1028.825,109.69l2.377-.516a2.277,2.277,0,0,0,1.321,1.231l-2.377.515A2.269,2.269,0,0,1,1028.825,109.69Z" transform="translate(-1028.825 -109.174)" stroke="#000" stroke-linecap="square" stroke-linejoin="round" stroke-width="2"/>
              </g>
              <g id="Group_774" data-name="Group 774" transform="translate(10.653 26.958)">
                <path id="Path_2426" data-name="Path 2426" d="M1032.623,110.242l-2.378.515a.47.47,0,0,1-.121.013.734.734,0,0,1-.159-.017l2.378-.516a.812.812,0,0,0,.159.019A.6.6,0,0,0,1032.623,110.242Z" transform="translate(-1029.965 -110.236)" stroke="#000" stroke-linecap="square" stroke-linejoin="round" stroke-width="2"/>
              </g>
              <g id="Group_775" data-name="Group 775" transform="translate(10.932 26.86)">
                <path id="Path_2427" data-name="Path 2427" d="M1032.584,110.255l-2.378.515a.518.518,0,0,0,.218-.1l2.378-.515A.556.556,0,0,1,1032.584,110.255Z" transform="translate(-1030.206 -110.152)" fill="#b2b2b2" stroke="#000" stroke-linecap="square" stroke-linejoin="round" stroke-width="2"/>
              </g>
              <g id="Group_776" data-name="Group 776" transform="translate(3.381 9.937)">
                <path id="Path_2428" data-name="Path 2428" d="M1023.691,96.067l2.377-.516,7.683,14.365-2.377.516Z" transform="translate(-1023.691 -95.551)" fill="#b2b2b2" stroke="#000" stroke-linecap="square" stroke-linejoin="round" stroke-width="2"/>
              </g>
              <g id="Group_777" data-name="Group 777" transform="translate(11.067 24.303)">
                <path id="Path_2429" data-name="Path 2429" d="M1030.322,108.461l2.377-.515.061.116-2.377.515Z" transform="translate(-1030.322 -107.946)" fill="#b2b2b2" stroke="#000" stroke-linecap="square" stroke-linejoin="round" stroke-width="2"/>
              </g>
              <g id="Group_778" data-name="Group 778" transform="translate(3.692 10)">
                <path id="Path_2430" data-name="Path 2430" d="M1023.959,96.12l2.377-.515,7.571,14.17-2.377.516Z" transform="translate(-1023.959 -95.605)" stroke="#000" stroke-linecap="square" stroke-linejoin="round" stroke-width="2"/>
              </g>
              <g id="Group_779" data-name="Group 779" transform="translate(11.263 24.17)">
                <path id="Path_2431" data-name="Path 2431" d="M1030.491,108.347l2.377-.516.08.151-2.378.515Z" transform="translate(-1030.491 -107.831)" stroke="#000" stroke-linecap="square" stroke-linejoin="round" stroke-width="2"/>
              </g>
              <g id="Group_780" data-name="Group 780" transform="translate(11.129 24.418)">
                <path id="Path_2432" data-name="Path 2432" d="M1030.376,108.561l2.376-.516c.478,1,.49,2.043.023,2.441L1030.4,111C1030.865,110.6,1030.852,109.561,1030.376,108.561Z" transform="translate(-1030.376 -108.045)" fill="#b2b2b2" stroke="#000" stroke-linecap="square" stroke-linejoin="round" stroke-width="2"/>
              </g>
              <g id="Group_781" data-name="Group 781" transform="translate(10.975 24.321)">
                <path id="Path_2433" data-name="Path 2433" d="M1032.621,110.846l-2.378.515a.746.746,0,0,0,.324-.159c.561-.469.582-1.619.043-2.725l2.378-.516c.536,1.107.518,2.257-.044,2.726A.763.763,0,0,1,1032.621,110.846Z" transform="translate(-1030.243 -107.961)" stroke="#000" stroke-linecap="square" stroke-linejoin="round" stroke-width="2"/>
              </g>
              <g id="Group_782" data-name="Group 782" transform="translate(0.578 0.366)">
                <path id="Path_2434" data-name="Path 2434" d="M1029.515,87.809l2.378-.516-8.244,6.617-2.377.515Z" transform="translate(-1021.272 -87.293)" stroke="#000" stroke-linecap="square" stroke-linejoin="round" stroke-width="2"/>
              </g>
              <g id="Group_783" data-name="Group 783" transform="translate(9.162 0.243)">
                <path id="Path_2435" data-name="Path 2435" d="M1028.679,87.7l2.378-.515.154.017-2.377.515Z" transform="translate(-1028.679 -87.187)" fill="#b2b2b2" stroke="#000" stroke-linecap="square" stroke-linejoin="round" stroke-width="2"/>
              </g>
              <g id="Group_784" data-name="Group 784" transform="translate(8.821 0.256)">
                <path id="Path_2436" data-name="Path 2436" d="M1028.607,87.713l2.378-.515a.5.5,0,0,0-.223.11l-2.378.516A.492.492,0,0,1,1028.607,87.713Z" transform="translate(-1028.384 -87.198)" stroke="#000" stroke-linecap="square" stroke-linejoin="round" stroke-width="2"/>
              </g>
              <g id="Group_785" data-name="Group 785" transform="translate(9.043 0.243)">
                <path id="Path_2437" data-name="Path 2437" d="M1028.576,87.714l2.378-.515a.468.468,0,0,1,.12-.013l-2.378.515A.6.6,0,0,0,1028.576,87.714Z" transform="translate(-1028.576 -87.187)" fill="#b2b2b2" stroke="#000" stroke-linecap="square" stroke-linejoin="round" stroke-width="2"/>
              </g>
              <g id="Group_786" data-name="Group 786" transform="translate(3.458 4.053)">
                <path id="Path_2438" data-name="Path 2438" d="M1031.032,90.989l2.377-.515-7.274,5.821-2.378.515Z" transform="translate(-1023.757 -90.474)" fill="#b2b2b2" stroke="#000" stroke-linecap="square" stroke-linejoin="round" stroke-width="2"/>
              </g>
              <g id="Group_787" data-name="Group 787" transform="translate(3.692 4.181)">
                <path id="Path_2439" data-name="Path 2439" d="M1031.208,91.1l2.378-.515-7.249,5.821-2.378.515Z" transform="translate(-1023.959 -90.584)" stroke="#000" stroke-linecap="square" stroke-linejoin="round" stroke-width="2"/>
              </g>
              <g id="Group_788" data-name="Group 788" transform="translate(9.318 0.261)">
                <path id="Path_2440" data-name="Path 2440" d="M1028.813,87.717l2.378-.515a2.266,2.266,0,0,1,1.3,1.2l-2.377.516A2.27,2.27,0,0,0,1028.813,87.717Z" transform="translate(-1028.813 -87.202)" fill="#b2b2b2" stroke="#000" stroke-linecap="square" stroke-linejoin="round" stroke-width="2"/>
              </g>
              <g id="Group_789" data-name="Group 789" transform="translate(10.623 1.464)">
                <path id="Path_2441" data-name="Path 2441" d="M1032.316,88.24l0,.009-2.378.516,0-.009Z" transform="translate(-1029.939 -88.24)" fill="#b2b2b2" stroke="#000" stroke-linecap="square" stroke-linejoin="round" stroke-width="2"/>
              </g>
              <g id="Group_790" data-name="Group 790" transform="translate(10.625 1.473)">
                <path id="Path_2442" data-name="Path 2442" d="M1032.32,88.248a3.04,3.04,0,0,1,.105,2.582l-2.376.516v0l2.372-.515-2.372.515a3.05,3.05,0,0,0-.109-2.578Z" transform="translate(-1029.941 -88.248)" fill="#b2b2b2" stroke="#000" stroke-linecap="square" stroke-linejoin="round" stroke-width="2"/>
              </g>
              <g id="Group_791" data-name="Group 791" transform="translate(8.975)">
                <path id="Path_2443" data-name="Path 2443" d="M1028.517,87.51,1030.9,87a.823.823,0,0,1,.176-.019,1.045,1.045,0,0,1,.208.021,2.477,2.477,0,0,1,1.486,1.344l-2.378.516a2.471,2.471,0,0,0-1.486-1.344,1.044,1.044,0,0,0-.208-.021A.9.9,0,0,0,1028.517,87.51Z" transform="translate(-1028.517 -86.977)" stroke="#000" stroke-linecap="square" stroke-linejoin="round" stroke-width="2"/>
              </g>
              <g id="Group_792" data-name="Group 792" transform="translate(0 0.517)">
                <path id="Path_2444" data-name="Path 2444" d="M1032.115,111.743c.539,1.106.518,2.257-.043,2.725a.751.751,0,0,1-.488.176l-.2-.017a2.518,2.518,0,0,1-1.487-1.362l-8.7-16.188c-.573-1.138-.569-2.4,0-2.866l8.235-6.616a.734.734,0,0,1,.488-.172,1.041,1.041,0,0,1,.207.021,2.474,2.474,0,0,1,1.486,1.344,3.324,3.324,0,0,1,.1,2.813l-7.25,5.821,7.572,14.171Zm-.191,2.538c.467-.4.454-1.442-.022-2.44l-.062-.116-7.683-14.365.076-.063,7.275-5.821a3.03,3.03,0,0,0-.1-2.573,2.282,2.282,0,0,0-1.313-1.222l-.154-.017a.5.5,0,0,0-.343.123l-8.244,6.617c-.477.388-.444,1.539.066,2.556l8.689,16.188a2.27,2.27,0,0,0,1.323,1.23.73.73,0,0,0,.159.019.529.529,0,0,0,.337-.116" transform="translate(-1020.774 -87.423)" stroke="#000" stroke-linecap="square" stroke-linejoin="round" stroke-width="2"/>
              </g>
              <g id="Group_793" data-name="Group 793" transform="translate(0.239 0.758)">
                <path id="Path_2445" data-name="Path 2445" d="M1029.9,87.631l.154.017a2.27,2.27,0,0,1,1.305,1.2,3.051,3.051,0,0,1,.111,2.592l-7.276,5.821-.077.061,7.683,14.365.061.116c.478,1,.49,2.043.022,2.441a.531.531,0,0,1-.337.116.754.754,0,0,1-.16-.019,2.272,2.272,0,0,1-1.321-1.23l-8.686-16.186c-.511-1.016-.544-2.167-.067-2.556l8.244-6.616A.512.512,0,0,1,1029.9,87.631Z" transform="translate(-1020.98 -87.631)" fill="#b2b2b2" stroke="#000" stroke-linecap="square" stroke-linejoin="round" stroke-width="2"/>
              </g>
              <g id="Group_794" data-name="Group 794" transform="translate(10.844 1.366)">
                <path id="Path_2446" data-name="Path 2446" d="M1030.13,88.672l2.378-.516a3.324,3.324,0,0,1,.1,2.813l-2.378.516A3.323,3.323,0,0,0,1030.13,88.672Z" transform="translate(-1030.13 -88.156)" stroke="#000" stroke-linecap="square" stroke-linejoin="round" stroke-width="2"/>
              </g>
            </g>
          </g>
        </g>
        <g id="Path_1217" data-name="Path 1217" transform="translate(35.742 61.158)">
          <g id="Group_820" data-name="Group 820">
            <g id="Group_819" data-name="Group 819">
              <g id="Group_797" data-name="Group 797" transform="translate(0.856 23.228)">
                <path id="Path_2447" data-name="Path 2447" d="M1047.671,118l2.378-.515c-.476.4-.436,1.539.093,2.538a2.259,2.259,0,0,0,1.313,1.22l-2.378.516a2.262,2.262,0,0,1-1.313-1.22C1047.236,119.54,1047.2,118.4,1047.671,118Z" transform="translate(-1047.339 -117.486)" stroke="#000" stroke-linecap="square" stroke-linejoin="round" stroke-width="2"/>
              </g>
              <g id="Group_798" data-name="Group 798" transform="translate(2.593 26.987)">
                <path id="Path_2448" data-name="Path 2448" d="M1051.5,120.735l-2.378.515a.6.6,0,0,1-.122.013.666.666,0,0,1-.159-.019l2.378-.515a.731.731,0,0,0,.159.017A.617.617,0,0,0,1051.5,120.735Z" transform="translate(-1048.838 -120.729)" stroke="#000" stroke-linecap="square" stroke-linejoin="round" stroke-width="2"/>
              </g>
              <g id="Group_799" data-name="Group 799" transform="translate(2.874 26.88)">
                <path id="Path_2449" data-name="Path 2449" d="M1051.458,120.749l-2.378.516a.511.511,0,0,0,.225-.112l2.378-.516A.522.522,0,0,1,1051.458,120.749Z" transform="translate(-1049.08 -120.637)" fill="#b2b2b2" stroke="#000" stroke-linecap="square" stroke-linejoin="round" stroke-width="2"/>
              </g>
              <g id="Group_800" data-name="Group 800" transform="translate(2.925 27.076)">
                <path id="Path_2450" data-name="Path 2450" d="M1051.5,120.964l-2.377.516a.736.736,0,0,0,.323-.159l2.378-.515A.759.759,0,0,1,1051.5,120.964Z" transform="translate(-1049.124 -120.806)" stroke="#000" stroke-linecap="square" stroke-linejoin="round" stroke-width="2"/>
              </g>
              <g id="Group_801" data-name="Group 801" transform="translate(0.247 0.406)">
                <path id="Path_2451" data-name="Path 2451" d="M1047.124,98.31l2.378-.515c-.442.415-.4,1.422.082,2.4l-2.378.516C1046.718,99.733,1046.68,98.726,1047.124,98.31Z" transform="translate(-1046.814 -97.795)" stroke="#000" stroke-linecap="square" stroke-linejoin="round" stroke-width="2"/>
              </g>
              <g id="Group_802" data-name="Group 802" transform="translate(0.555 0.256)">
                <path id="Path_2452" data-name="Path 2452" d="M1047.349,98.182l2.377-.516a.54.54,0,0,0-.269.15l-2.378.515A.547.547,0,0,1,1047.349,98.182Z" transform="translate(-1047.079 -97.666)" stroke="#000" stroke-linecap="square" stroke-linejoin="round" stroke-width="2"/>
              </g>
              <g id="Group_803" data-name="Group 803" transform="translate(0.825 0.243)">
                <path id="Path_2453" data-name="Path 2453" d="M1047.312,98.184l2.377-.516a.632.632,0,0,1,.124-.013l-2.378.516A.622.622,0,0,0,1047.312,98.184Z" transform="translate(-1047.312 -97.655)" fill="#b2b2b2" stroke="#000" stroke-linecap="square" stroke-linejoin="round" stroke-width="2"/>
              </g>
              <g id="Group_804" data-name="Group 804" transform="translate(0.948 0.243)">
                <path id="Path_2454" data-name="Path 2454" d="M1049.8,97.655a.861.861,0,0,1,.122.012l-2.378.515a.715.715,0,0,0-.122-.01C1048.132,98.015,1049.072,97.733,1049.8,97.655Z" transform="translate(-1047.418 -97.655)" fill="#b2b2b2" stroke="#000" stroke-linecap="square" stroke-linejoin="round" stroke-width="2"/>
              </g>
              <g id="Group_805" data-name="Group 805" transform="translate(0.766)">
                <path id="Path_2455" data-name="Path 2455" d="M1047.261,97.978l2.378-.516a.864.864,0,0,1,.173-.017.938.938,0,0,1,.17.015l-2.377.516a.945.945,0,0,0-.172-.016A.788.788,0,0,0,1047.261,97.978Z" transform="translate(-1047.261 -97.445)" stroke="#000" stroke-linecap="square" stroke-linejoin="round" stroke-width="2"/>
              </g>
              <g id="Group_806" data-name="Group 806" transform="translate(1.068 0.254)">
                <path id="Path_2456" data-name="Path 2456" d="M1049.9,97.665a2.171,2.171,0,0,1,1.3,1.149l-2.378.516a2.173,2.173,0,0,0-1.3-1.15h0l1.344-.292.461-.1.436-.094a.683.683,0,0,1,.137-.03Z" transform="translate(-1047.522 -97.664)" fill="#b2b2b2" stroke="#000" stroke-linecap="square" stroke-linejoin="round" stroke-width="2"/>
              </g>
              <g id="Group_807" data-name="Group 807" transform="translate(1.11 0.015)">
                <path id="Path_2457" data-name="Path 2457" d="M1047.558,97.974l2.376-.516a2.358,2.358,0,0,1,1.46,1.274l-2.378.516A2.364,2.364,0,0,0,1047.558,97.974Z" transform="translate(-1047.558 -97.458)" stroke="#000" stroke-linecap="square" stroke-linejoin="round" stroke-width="2"/>
              </g>
              <g id="Group_808" data-name="Group 808" transform="translate(1.189 17.469)">
                <path id="Path_2458" data-name="Path 2458" d="M1054.781,113.032l2.378-.515L1050,118.276l-2.377.515Z" transform="translate(-1047.626 -112.517)" stroke="#000" stroke-linecap="square" stroke-linejoin="round" stroke-width="2"/>
              </g>
              <g id="Group_809" data-name="Group 809" transform="translate(8.347 17.411)">
                <path id="Path_2459" data-name="Path 2459" d="M1053.877,112.982l2.378-.515-.076.061-2.377.515Z" transform="translate(-1053.802 -112.467)" stroke="#000" stroke-linecap="square" stroke-linejoin="round" stroke-width="2"/>
              </g>
              <g id="Group_810" data-name="Group 810" transform="translate(0.637 2.811)">
                <path id="Path_2460" data-name="Path 2460" d="M1047.15,100.386l2.377-.516,7.783,14.6-2.378.515Z" transform="translate(-1047.15 -99.87)" stroke="#000" stroke-linecap="square" stroke-linejoin="round" stroke-width="2"/>
              </g>
              <g id="Group_811" data-name="Group 811" transform="translate(3.097 20.343)">
                <path id="Path_2461" data-name="Path 2461" d="M1057.426,115.513,1059.8,115l-8.153,6.537-2.377.516Z" transform="translate(-1049.273 -114.997)" fill="#b2b2b2" stroke="#000" stroke-linecap="square" stroke-linejoin="round" stroke-width="2"/>
              </g>
              <g id="Group_812" data-name="Group 812" transform="translate(3.248 20.538)">
                <path id="Path_2462" data-name="Path 2462" d="M1057.553,115.68l2.378-.515-8.151,6.537-2.377.515Z" transform="translate(-1049.403 -115.165)" stroke="#000" stroke-linecap="square" stroke-linejoin="round" stroke-width="2"/>
              </g>
              <g id="Group_813" data-name="Group 813" transform="translate(2.364 1.405)">
                <path id="Path_2463" data-name="Path 2463" d="M1048.64,99.172l2.377-.515,8.821,16.383-2.377.515Z" transform="translate(-1048.64 -98.657)" fill="#b2b2b2" stroke="#000" stroke-linecap="square" stroke-linejoin="round" stroke-width="2"/>
              </g>
              <g id="Group_814" data-name="Group 814" transform="translate(2.569 1.29)">
                <path id="Path_2464" data-name="Path 2464" d="M1048.817,99.074l2.377-.516,8.828,16.383-2.377.516Z" transform="translate(-1048.817 -98.558)" stroke="#000" stroke-linecap="square" stroke-linejoin="round" stroke-width="2"/>
              </g>
              <g id="Group_815" data-name="Group 815" transform="translate(11.183 17.787)">
                <path id="Path_2465" data-name="Path 2465" d="M1058.627,112.792c.519,1.026.553,2.166.067,2.556l-2.378.516c.485-.388.454-1.531-.067-2.557Z" transform="translate(-1056.249 -112.792)" fill="#b2b2b2" stroke="#000" stroke-linecap="square" stroke-linejoin="round" stroke-width="2"/>
              </g>
              <g id="Group_816" data-name="Group 816" transform="translate(0 0.519)">
                <path id="Path_2466" data-name="Path 2466" d="M1058,115.561c.582,1.15.579,2.406,0,2.866l-8.151,6.537a.759.759,0,0,1-.5.177l-.2-.019a2.544,2.544,0,0,1-1.487-1.351c-.582-1.115-.6-2.371-.028-2.845l7.078-5.7-7.695-14.408c-.546-1.1-.56-2.213-.034-2.709a.787.787,0,0,1,.549-.219.954.954,0,0,1,.172.016,2.359,2.359,0,0,1,1.459,1.274Zm-.147,2.672c.485-.388.453-1.531-.066-2.557l-8.821-16.382a2.175,2.175,0,0,0-1.3-1.151.86.86,0,0,0-.122-.01.541.541,0,0,0-.392.162c-.442.416-.4,1.422.081,2.406l7.784,14.6-.078.061-7.155,5.759c-.476.4-.436,1.539.093,2.538a2.26,2.26,0,0,0,1.313,1.22.668.668,0,0,0,.159.019.513.513,0,0,0,.347-.125l8.151-6.537" transform="translate(-1046.6 -97.893)" stroke="#000" stroke-linecap="square" stroke-linejoin="round" stroke-width="2"/>
              </g>
              <g id="Group_817" data-name="Group 817" transform="translate(0.245 0.759)">
                <path id="Path_2467" data-name="Path 2467" d="M1047.514,98.1a.694.694,0,0,1,.121.01,2.173,2.173,0,0,1,1.3,1.15l8.821,16.383c.52,1.026.552,2.166.066,2.556l-8.152,6.538a.515.515,0,0,1-.347.125.677.677,0,0,1-.16-.019,2.266,2.266,0,0,1-1.313-1.22c-.528-1-.569-2.141-.092-2.538l7.155-5.759.077-.061-7.783-14.6c-.486-.983-.524-1.992-.082-2.406A.542.542,0,0,1,1047.514,98.1Z" transform="translate(-1046.812 -98.1)" fill="#b2b2b2" stroke="#000" stroke-linecap="square" stroke-linejoin="round" stroke-width="2"/>
              </g>
              <g id="Group_818" data-name="Group 818" transform="translate(11.397 17.673)">
                <path id="Path_2468" data-name="Path 2468" d="M1056.434,113.208l2.378-.515c.582,1.149.58,2.4,0,2.865l-2.378.516C1057.015,115.614,1057.016,114.357,1056.434,113.208Z" transform="translate(-1056.434 -112.693)" stroke="#000" stroke-linecap="square" stroke-linejoin="round" stroke-width="2"/>
              </g>
            </g>
          </g>
        </g>
        <g id="Path_1218" data-name="Path 1218" transform="translate(20.587 51.41)">
          <g id="Group_839" data-name="Group 839">
            <g id="Group_838" data-name="Group 838">
              <g id="Group_821" data-name="Group 821" transform="translate(0.242 30.913)">
                <path id="Path_2469" data-name="Path 2469" d="M1033.789,116.223l2.377-.516a3.316,3.316,0,0,0,.818,2.845l-2.378.516A3.321,3.321,0,0,1,1033.789,116.223Z" transform="translate(-1033.734 -115.707)" stroke="#000" stroke-linecap="square" stroke-linejoin="round" stroke-width="2"/>
              </g>
              <g id="Group_822" data-name="Group 822" transform="translate(1.114 33.761)">
                <path id="Path_2470" data-name="Path 2470" d="M1034.486,118.68l2.378-.516a2.142,2.142,0,0,0,.477.363l-2.378.516A2.2,2.2,0,0,1,1034.486,118.68Z" transform="translate(-1034.486 -118.164)" stroke="#000" stroke-linecap="square" stroke-linejoin="round" stroke-width="2"/>
              </g>
              <g id="Group_823" data-name="Group 823" transform="translate(1.592 34.125)">
                <path id="Path_2471" data-name="Path 2471" d="M1034.9,118.994l2.378-.516a.706.706,0,0,0,.451.162l-2.378.516A.712.712,0,0,1,1034.9,118.994Z" transform="translate(-1034.898 -118.478)" stroke="#000" stroke-linecap="square" stroke-linejoin="round" stroke-width="2"/>
              </g>
              <g id="Group_824" data-name="Group 824" transform="translate(2.04 34.268)">
                <path id="Path_2472" data-name="Path 2472" d="M1037.806,118.6l-2.378.516a1.008,1.008,0,0,1-.142.021l2.378-.516A1,1,0,0,0,1037.806,118.6Z" transform="translate(-1035.285 -118.601)" stroke="#000" stroke-linecap="square" stroke-linejoin="round" stroke-width="2"/>
              </g>
              <g id="Group_825" data-name="Group 825" transform="translate(2.195 34.016)">
                <path id="Path_2473" data-name="Path 2473" d="M1037.8,118.638l-2.378.516a.642.642,0,0,0,.384-.254l2.378-.516A.64.64,0,0,1,1037.8,118.638Z" transform="translate(-1035.419 -118.384)" fill="#b2b2b2" stroke="#000" stroke-linecap="square" stroke-linejoin="round" stroke-width="2"/>
              </g>
              <g id="Group_826" data-name="Group 826" transform="translate(2.713 3.642)">
                <path id="Path_2474" data-name="Path 2474" d="M1045.068,92.693l2.377-.516-9.2,30.085-2.377.515Z" transform="translate(-1035.866 -92.177)" fill="#b2b2b2" stroke="#000" stroke-linecap="square" stroke-linejoin="round" stroke-width="2"/>
              </g>
              <g id="Group_827" data-name="Group 827" transform="translate(2.937 3.704)">
                <path id="Path_2475" data-name="Path 2475" d="M1045.26,92.746l2.378-.515-9.2,30.083-2.377.516Z" transform="translate(-1036.059 -92.231)" stroke="#000" stroke-linecap="square" stroke-linejoin="round" stroke-width="2"/>
              </g>
              <g id="Group_828" data-name="Group 828" transform="translate(2.579 33.726)">
                <path id="Path_2476" data-name="Path 2476" d="M1035.884,118.65l2.377-.516a.748.748,0,0,1-.133.292l-2.378.515A.736.736,0,0,0,1035.884,118.65Z" transform="translate(-1035.75 -118.134)" fill="#b2b2b2" stroke="#000" stroke-linecap="square" stroke-linejoin="round" stroke-width="2"/>
              </g>
              <g id="Group_829" data-name="Group 829" transform="translate(2.22 33.789)">
                <path id="Path_2477" data-name="Path 2477" d="M1037.818,118.918l-2.378.515a.918.918,0,0,0,.551-.349.964.964,0,0,0,.167-.38l2.378-.516a.919.919,0,0,1-.717.73Z" transform="translate(-1035.44 -118.188)" stroke="#000" stroke-linecap="square" stroke-linejoin="round" stroke-width="2"/>
              </g>
              <g id="Group_830" data-name="Group 830" transform="translate(0.297 0.723)">
                <path id="Path_2478" data-name="Path 2478" d="M1042.981,90.174l2.377-.515-9.2,30.19-2.377.516Z" transform="translate(-1033.781 -89.659)" stroke="#000" stroke-linecap="square" stroke-linejoin="round" stroke-width="2"/>
              </g>
              <g id="Group_831" data-name="Group 831" transform="translate(9.497 0.254)">
                <path id="Path_2479" data-name="Path 2479" d="M1042.194,89.77l2.378-.516a.664.664,0,0,0-.475.469l-2.378.516A.662.662,0,0,1,1042.194,89.77Z" transform="translate(-1041.719 -89.254)" stroke="#000" stroke-linecap="square" stroke-linejoin="round" stroke-width="2"/>
              </g>
              <g id="Group_832" data-name="Group 832" transform="translate(9.973 0.243)">
                <path id="Path_2480" data-name="Path 2480" d="M1042.129,89.771l2.378-.516a.677.677,0,0,1,.118-.01l-2.378.516A.677.677,0,0,0,1042.129,89.771Z" transform="translate(-1042.129 -89.245)" fill="#b2b2b2" stroke="#000" stroke-linecap="square" stroke-linejoin="round" stroke-width="2"/>
              </g>
              <g id="Group_833" data-name="Group 833" transform="translate(10.091 0.243)">
                <path id="Path_2481" data-name="Path 2481" d="M1042.231,89.761l2.378-.516a1.521,1.521,0,0,1,1.006.569,3.305,3.305,0,0,1,.818,2.83l-2.378.516a3.3,3.3,0,0,0-.818-2.83A1.516,1.516,0,0,0,1042.231,89.761Z" transform="translate(-1042.231 -89.245)" fill="#b2b2b2" stroke="#000" stroke-linecap="square" stroke-linejoin="round" stroke-width="2"/>
              </g>
              <g id="Group_834" data-name="Group 834" transform="translate(9.926)">
                <path id="Path_2482" data-name="Path 2482" d="M1042.089,89.566l2.378-.516a.948.948,0,0,1,.162-.015,1.757,1.757,0,0,1,1.186.641l-2.377.516a1.762,1.762,0,0,0-1.187-.641A.846.846,0,0,0,1042.089,89.566Z" transform="translate(-1042.089 -89.035)" stroke="#000" stroke-linecap="square" stroke-linejoin="round" stroke-width="2"/>
              </g>
              <g id="Group_835" data-name="Group 835" transform="translate(0 0.515)">
                <path id="Path_2483" data-name="Path 2483" d="M1044.8,90.123a3.563,3.563,0,0,1,.865,3.059l-9.2,30.086a.95.95,0,0,1-.167.379.925.925,0,0,1-.624.363h-.1a.89.89,0,0,1-.569-.195,2.41,2.41,0,0,1-.53-.408,3.551,3.551,0,0,1-.882-3.077l9.193-30.066.007-.105a.9.9,0,0,1,.663-.663.756.756,0,0,1,.161-.016A1.76,1.76,0,0,1,1044.8,90.123Zm.641,3a3.3,3.3,0,0,0-.818-2.83,1.512,1.512,0,0,0-1.006-.569.6.6,0,0,0-.594.48l-9.2,30.19a3.323,3.323,0,0,0,.818,2.847,2.2,2.2,0,0,0,.477.362.7.7,0,0,0,.451.163.679.679,0,0,0,.537-.269.743.743,0,0,0,.133-.292l9.2-30.085" transform="translate(-1033.525 -89.479)" stroke="#000" stroke-linecap="square" stroke-linejoin="round" stroke-width="2"/>
              </g>
              <g id="Group_836" data-name="Group 836" transform="translate(0.24 0.758)">
                <path id="Path_2484" data-name="Path 2484" d="M1043.583,89.689a1.517,1.517,0,0,1,1.005.569,3.3,3.3,0,0,1,.818,2.83l-9.2,30.085a.735.735,0,0,1-.135.291.64.64,0,0,1-.46.264.713.713,0,0,1-.509-.152,2.192,2.192,0,0,1-.5-.371,3.316,3.316,0,0,1-.818-2.845l9.2-30.075c.1-.381.26-.541.475-.585A.7.7,0,0,1,1043.583,89.689Z" transform="translate(-1033.732 -89.689)" fill="#b2b2b2" stroke="#000" stroke-linecap="square" stroke-linejoin="round" stroke-width="2"/>
              </g>
              <g id="Group_837" data-name="Group 837" transform="translate(11.275 0.643)">
                <path id="Path_2485" data-name="Path 2485" d="M1043.253,90.106l2.377-.516a3.565,3.565,0,0,1,.865,3.059l-2.378.516A3.567,3.567,0,0,0,1043.253,90.106Z" transform="translate(-1043.253 -89.59)" stroke="#000" stroke-linecap="square" stroke-linejoin="round" stroke-width="2"/>
              </g>
            </g>
          </g>
        </g>
      </g>
    </g>
  </g>
</svg>
