<svg id="Capa_1" enable-background="new 0 0 512 512" height="512" viewBox="0 0 512 512" width="512" xmlns="http://www.w3.org/2000/svg"><g><path d="m256 0c-90.981 0-165 75.019-165 166v90h165 165v-90c0-90.981-74.019-166-165-166z" fill="#80bfff"/><path d="m421 166c0-90.981-74.019-166-165-166v256h165z" fill="#4895ff"/><path d="m373.437 363.666c-40.854-10.063-65.947-17.622-72.437-56.001h-45-45c-6.489 38.379-31.582 45.938-72.437 56.001-47.929 11.792-107.563 27.484-107.563 133.334 0 8.291 6.709 15 15 15h135l30-30h45 45l30 30h135c8.291 0 15-6.709 15-15 0-105.85-59.634-121.542-107.563-133.334z" fill="#80bfff"/><path d="m331 512h135c8.291 0 15-6.709 15-15 0-105.85-59.634-121.542-107.563-133.334-40.854-10.063-65.947-17.622-72.437-56.001h-45v174.335h45z" fill="#4895ff"/><path d="m361 151.941-30 14.059h-75-75l-30-14.059c-36.623 24.782-60 62.227-60 104.059 0 59.354 23.064 119.275 68.027 164.238l41.367 41.367h55.606 55.605l41.367-41.367c44.849-44.848 68.028-104.723 68.028-164.238 0-41.832-23.377-79.277-60-104.059z" fill="#474f54"/><path d="m352.973 420.238c44.848-44.848 68.027-104.723 68.027-164.238 0-41.832-23.377-79.277-60-104.059l-30 14.059h-75v295.605h55.605z" fill="#32393f"/><g><path d="m256 374.248-75-.156v137.908h75 75v-137.595z" fill="#f2f2fc"/><path d="m331 374.405-75-.157v137.752h75z" fill="#e2d9fb"/><path d="m256 211h-75v163.092c19.455 19.898 46.274 31.908 75 31.908 28.707 0 55.532-11.691 75-31.595v-163.405z" fill="#ffccb3"/><path d="m331 211h-75v195c28.707 0 55.532-11.691 75-31.595z" fill="#fb9"/></g><path d="m255.999 285.999v30" style="fill:none;stroke:#000;stroke-width:30;stroke-linecap:round;stroke-linejoin:round;stroke-miterlimit:10"/><path d="m256 121c-39.855 0-76.452 11.624-105 30.941v74.059c0 57.99 47.01 105 105 105s105-47.01 105-105v-74.059c-28.548-19.317-65.145-30.941-105-30.941z" fill="#fdc"/><path d="m361 226v-74.059c-28.548-19.317-65.145-30.941-105-30.941v210c57.99 0 105-47.01 105-105z" fill="#ffccb3"/></g></svg>